<mxfile host="app.diagrams.net" agent="Mozilla/5.0 (Macintosh; Intel Mac OS X 10_15_7) AppleWebKit/537.36 (KHTML, like Gecko) Chrome/137.0.0.0 Safari/537.36" version="27.2.0">
  <diagram name="Seite-1" id="C6E4gTDiF_LPh2ujnjI0">
    <mxGraphModel dx="1476" dy="1290" grid="1" gridSize="10" guides="1" tooltips="1" connect="1" arrows="1" fold="1" page="1" pageScale="1" pageWidth="827" pageHeight="1169" math="0" shadow="0">
      <root>
        <mxCell id="0" />
        <mxCell id="1" parent="0" />
        <mxCell id="DgLy5RoQ0d0XZZFZ1Y82-11" value="&lt;font&gt;PV&lt;/font&gt;&lt;div&gt;&lt;font&gt;production&lt;/font&gt;&lt;/div&gt;" style="rounded=0;orthogonalLoop=1;jettySize=auto;html=1;entryX=0;entryY=0.75;entryDx=0;entryDy=0;exitX=0.5;exitY=0;exitDx=0;exitDy=0;strokeWidth=2;startSize=6;endSize=14;horizontal=1;dashed=1;dashPattern=8 8;fontSize=18;" edge="1" parent="1" source="DgLy5RoQ0d0XZZFZ1Y82-3" target="DgLy5RoQ0d0XZZFZ1Y82-8">
          <mxGeometry x="-0.1102" y="1" relative="1" as="geometry">
            <mxPoint as="offset" />
          </mxGeometry>
        </mxCell>
        <mxCell id="DgLy5RoQ0d0XZZFZ1Y82-3" value="" style="shape=image;verticalLabelPosition=bottom;labelBackgroundColor=default;verticalAlign=top;aspect=fixed;imageAspect=0;image=data:image/png,iVBORw0KGgoAAAANSUhEUgAAAOcAAACkCAYAAABsODniAAAAAXNSR0IArs4c6QAAAERlWElmTU0AKgAAAAgAAYdpAAQAAAABAAAAGgAAAAAAA6ABAAMAAAABAAEAAKACAAQAAAABAAAA56ADAAQAAAABAAAApAAAAAAvuKb2AABAAElEQVR4Aey9CbSkR3WgGZn59qp6r96rTbVXaRfaEIsQYBACIVbb7DZ4H/De0+7u8Xi6T8/pbp8+M3POnD4943YDYsfYwNhgGrPaIEDNLgu0lqTSUotKte/r2zNzvu/GH/mySiUJQ0lIdMV7kf//xx9x48aNe+PeWP9aOuvOUuAppEC73W6QXW/l+7jqfSZ8sp3SwAz3k/hx/FStVmtx/R/S1f6HLPXZQp9RCiBwPQAcwi+orgNcFcLCX+Vaz++bI1wXpdReklqtxSm1RrkfTPXWLOFHUurfQdLNgNjF8wReAZ3CH8efwCu80whuk+vPrCtE+5kt4NmCnRkKVBpPodOr7RRI+UchHMZfgr8KfzFxV1VhJQ6PRG5H/HorNRup1mzUa82e1J7Gj+NngIXiTL3N1Bie5jrdTo2Z1K4327X6eD3VtvPynspv4bobr3Z9PM0qQL1CrEbWK+QKdqtqVMRRGLNPNy19VjiplbPu0RSAcdVyMq5es3NFs9n8uUaj9tKU6lfyfA5xFFR4uqYEKKT4ViO12/BVvcYbwpFIHlstrjwrB7V6Eymt5KR1FN24IzUnDsb7+gBKtH8FuXJN/XizFxVkGiFrtxWkNkAQLh4J461ZZvhedTmvpCY+TtAeEm1p1EK4f0CYQn4MPw+vthf2YTxaO4S3RfoMiICfljsrnD8tyj/N8oWp5QWFbSEeUzNdgH8hXkFcgh8kznx4dj7iQLyWAlsLYagpl5VrI3gKZQiJQqXz2asy0EJojTNF4uOpfWxruv+2L6SDex9CxGppZNn56eKr35AFtD5CKgVU+AUWtzjBIZxxr3B2u5ZvEd16PdIYSSFFE9upbauFNZU1jxVI3/v8IF6hfQivOe0748xQHhF/yp3N0ln3PzAFKqFE4BLqKkzTlxD2bO6Xw5T0C1vDqKm+UIMhdGqlLl4lDKmORr4IZKuVhSYUJa/Kc5t0IS8qPuVl9ng6tm9zGt93dxrrOZJazWaa2DeRJg5ckQbPoVtan99RHm2EXqfgh/DFE2KmlHZiRSBhqmnvA08kt6709hO0ILDN0UwpUCMZW3N3L34j/u7qqqBuo1yHuE6St0L+lLmzwvmUkfrplxFMp2oZw6shfwl/NX4pTDiPd40W4zNqnw5Do/4Yg4GR5WnsS57rtcJCXfHQpCGoKkliK1AhA4pDwOAZAU2Ytz10Gwdqx1Jf80AVrzfNTiILykGbLmd0VLP8BExACE0XcMsDz77XGsWbQcTxRw1by9qVwI4GNmVB3mhaAg5qLcc/F2+f9n78bXg16sPANww7PLTpXAYEPBmuG7knA/5ZmE9TCsBoMieaMb0V/9v4S+BiB3qC+2X8tt7ndjPM17oas43QYJIqoPUwZ+VpxnOC+TM7mTbSK8PkUq/VK8FRzBU0nNq1Nc3zVGoghAMIaqvVgutpEGr0R1v2Se2fcgFGCKK3RfC5L25OSoTtE+NJ0YAYwzzDAue+Tjk0qU8yg+eSZ8kdJKJe2qzFO9ClNn0Ar+m7Gb8F+h3g6lRPd3qCzpw7K5xnjpbPCEgwley+EH85XsG8Ab8a35clkTuEoYvj4D4EkfGd1FYoGSCdRbO1mM1QvnsYT6kPw/ALEKWZShCIhguFmW/zswKswCPgtQb3yFKGO4PYYPISVNd8rcziANAFpAiV4ua/DmUZ2hXxJ0zhpPvYorvYAldf1mhvwC/V6CbXegF5kmAKooLUXWSDQ6tiW8eg0Squ0ushvFp0A15B3QE9D3LV5O0iGSFnwJ0VzjNAxGcKCBhJzbge/wr86/FXwVGL0WYN3sGlWU1xr+rjWb51YJRLW2E8ga7YkY48fEva/fDGNE3X7pKrXpp6FsO3PT0I2GDuX2LqhlxU/BqQQijsLSJ83pMWqeG/keo9CE2jJzRnKxQ6GTbQdl2CSeQ5F0IorqCEj2xiypNp0NYBxlw3p0c23R7hy1ZemHqXovx6VIQMzkYCU+b03lXOUhZnLJ1hql0bM7WpQ8jL0fArMffP4V6zV026C5odR0BV92fMnRXOM0bKpzegSjAvBsvfxL8OvwbvIMlJTrE0oBWzFfIoXsHVnEVrHtp+f3p4w81pAIXRgL833XkiXfTSJQgTvIsw1et223T2/U6FLrdXYTEy1EOcXoTaq2nraM6eNOMMySz5KRZZygNi+YmGBDBil7MQNxsPuoPTu9KDt38hHdu/ORTw5gfuSM964VvS4vXPJ3LWngXO41y7EScbOs8xkl23cZsHrmPgsBS/DJyVek3eR3imZThzWvSscELNn3UH06gmzsX/Cf71cLWLBsI5D6nIBJs7Ncmd8uDwTggl3B9TizG6Opn279uSBhsn0kDrSMxXTk3MpgObvp0WXQDj9yJNwb/A6QwUARAtqUJUkNSdQsw5oUGJx6RiaNA2fU7FIEZje3induOdDYX91o5D84p1xs87hVOtuS8d23Fbah57II30HGZVQSM1p2fS5DEGYaOvLGTi29igfR0z9q9rwEiohHS7Vpj1hJBKOsYQch8CyrRSjVYprcQvxd+F19TdC73HeaeN/RO5s8L5E5Hv6Z8YRnGi8Hn4P8Bfj3fapOMyc4YtCfdlbQdjxb2RZOaaghF8WU9r165NW/d+B7GZTr3tCUzRmbTzoe+nRSvOZ6LCKVCtP+PD4mHK8gi8zPAKkmKvgChsDaxX0Ath85m3MevBDYIaY0zE1tyuLO0OjhFZezY0un3hY8xKbku7N30/9aHVezDBW1jx/b3DacWK5RG98xOCKR72VG0oFHavYiaOBd+conqyQLzkqRYDZ5q6tiBqU1qmMHtd1KAW3Qktj0JHW40f250Vzh+bdE//hDCIjHMV/vfwCqYmWChFrjB2/MJDee4weB0BDf1C4rA85cZgSLRiz7zUN7YqDS9Zm8Z370/9jQk4cirNNvemA5u/lxZdgRJpO/gCW4VgAkk7OedDGFkz4BPTI/EegfSKadt2sKbO1EyL/qrqE5yK6x6hLQ2H4y+h8aKbh0k7vT9N7drA8oId2OrHKUOT9UMDaXTpqlRfsBh4NALiYlnVgRa+Qsz7bqKIrt7X0TBViCDMBSlfa3RrgdiqKEe2Str0Cqp0d370MPn92AJ6Vjih4s+igzGs24vx78K/Cq9gFubiNhhQXg1GjADD1J7MOGhGzvLXw0QH7AxXV/zXN5LOOe856YH9D6WZ1rHU25hMQ/Xj6cD2O9OiNc9mLZH8qrLOSkXzVnO1ViQ9hK5CA8Gs1ftTmxHfGTRdH+vrGj1D4AC/swow2L7gRLrAjatC03aeVL6v2ddkdPbEzrTtwVuYLz2MCE0zJdOLn5cuugCcGKiKUVtLYvnErZjJhAlQ2GTqD/QIi5QM56aADPeNDqJZAB8kSrFEFNI6g0X99EOjt8wzyw1DgzIK9k93Aj/rfjYpsIJi/TH+F2G6BbmI8o9O5staILNbDstTn97nSQmZWC3KME1maOXdaYmF69PoqivSiUcOpB6mVPoa09EH3Xbft9KaIbpf8+BXB19QLrGyR8G0EYg5xsp0JGMHgxTMJtMwqWcmTTen0/TsECoIBYTQZt43nlhm7S4malihxFwmSwDT1O60b/MtqT6zP/XUx1Nztok+B8riC1Jt7Dz0mA0GuNsY8FfJGGHCjl/BI6Y2KGSdhbN6V73nMkcrwwQUQcpQRV/hUagc7pJAWg7anXb7BOGnJOfNE7izwvkEBHqmvYYRNK+eg/8j/MvxpWXntuNiMp7dHp0Ab1QIahAXA7gAISsIWJV+XT24WOYGfN/itOS856Vjezak2ZlJdOskJu5UOnpoU5rYdXcaXIeA9pqt84paeBluhscjGimHD6TG0LLUP3J+OnbkYRYETdGTnZ9WLlyDhAzC+QpLMThPGRQKAaKv2WSE9vBmNPfdaV79BK0Kixka/anJrrQLLrkGXMGlpjZ2RLgSTssmTkDHnU5oQmTz6zkadQXmVxYspxdRC1wWzE9zr3A6taLWtA/6TxbQs8IJ5X5WHAygunoR/vfw18ErzsudylOx2odwrLnQoN7iMhMqQAqif47JqKXg6jD4amifmhqxzVjI4PK0ZM1z0v6HWHpX25caaNB5jeNp9+YfpPUrLkMux4CpYGbtGX3PTh5ytGOlwEJ4zn3eG9PssX2pOTOd+oeY9we2c5I1+4lVGm5Ik+UoFwi+b40zUHsk7dr0w9TTPJh66yz3Q6AnW/PSyNKLU12tqVZGE4eWFhb60T6vZnGDxklrluJFoxQ38TgnkOZbZRu3j6Im8asYRYOKpP1MtWZHe3KviftPWqxwVjih2s+Co+Jtvc/F/xb+5Xgk6FGslPmaF3MuD9r4rGDqO0JQxQZ2RLcv6Ahovc6gZM/itADT9uCuTak5OUFn6xgm5Uwan0FYtt6fll+8lm6nC2wy/BiFzWBCEPJKHTKooXB6G+wQW6ToI4sKEEIdZvHJfT51aAahMvKOYZ+j+9Ph/TvQmu2YH2015mHSjqYLLnwBONJANDRpWfwUg0wKnd6yZoGkvNFYRbmrchYDVOvBfLJV7X08Bn2MfxqnSWtrYKunV4OyciP2nSqs+6Gl+0YrShDyOO6scD4OcZ5hrxZijv4yON8AX6gxYUDl1StMjepqs+ujxsoBhS2Yy6Vy8R5zL+KQUnUpX/HsVEPIAHBikIZ0jp/k9PDg0Oq07PwXpD33HUr9dRYPzLaZW6ynA/v2p+UXFQFS3io4kRuggzX5Cf6GBR2wiYyMIM4KULV43nDbnUoWOiLh2A34HDpwGKEE494MYwKrPhYcjJ5PGgSTmSR7zRmAV+4i/7jNZYlCVVlQbmdAxdm83Idq9OjxEi+Hd7DIQHLSAlVzwVbJZ4lQTFy1qHM+2OGhWbk8vjsrnI9Pn2fEW4RFhrgcAXsNVzRmCGMHdwXThzyFiOBpqsKANU8FgRmzsx8o82ZWNMwGXkHM97xnDEkF3VbHqT17l6SBZZel+o5N6cjBLSSopxOzg2nd6otJAkqu9GngbQQiG/LWlI6xKO8N52qeBY1oMBRQ8It3vDDMItjYiI9xvaLJx5auTXseXpGOjmumDqf60KJ0zkUvDnM5uoH0eVm3H2Z5nXIrXHNlynSKkV9AhgnP1XW+NDNkAz0CBwKj0fD6mC6w8i3we6kLVbanLcziJ8gXGzw2eE/yjFJ+4iNWBHjWPYMpYD2D/ir8n3D/Dq6jRaiK5szyhl0X0w8wdTTgXGLVjMkVSttp7mF4hexU5yodTUNOQkhNhLqBCctOaYY8DrAiZ0vatnkDYT1pyYpz0+DYhcymuHjGMRLbjcrZGETDoDJRKPWExUIChU5c9FqHXue0aL4vz7xyrKUJv7PIvXVsa3pky4Y0fuJYuvDSq1KD0eTU0HgYoej9IWSSCfpQNMoWDc6cBeEossGZPuIEbHBDf5JWDc7637BCypphXp/sJOqpzjBN2QP4bfjb8Tfjb8Pvx7ujRUI8ppMCZ90zmAIwnPbcq/D/Ea/KYhG71pQuC1mYcWzJysw3RZ3D1DK2u0xkVNfFOjcZ0xcOwqgdq7QhJEQTXAiuAzk6hEqLjVVCsaa1CR8qXLELBJM3TNVimBmveOI7kMM2sTTNdUZrrxJUTeoehRkhdBlgH3gJr0f8uNoPjUGiIrxgZf4tplPcJaOp2yAO63vbanbSzAkWUf1TQMHTq2t689K9IpDiKBy6iaUslMNxthgIi0YDsNkFScrDY1yNo4AqjFvxCujX8D/A07Klxx3BLdQj3ln3DKWAw6JvxK/Fq1qwAG3xZUB4TLHqmI4yn4K5J80c3ZFmTuxNQ/PRbvOWktL+GV0lB2hC22TzVQgCCoGUYQHnaGeEx1QJQuzUnit1zBDtGUIcKchP3nQ3C4sD0vTBNHtwWzpxYFuaPL6P/A/RXkyxQF1NBYgQLtKznazGYoTe/vlpkNU980dWgN4yRnHPQd4obh0cY8CIuAqrmr5BWI/4cc80TGg8fvOaXJGuyuAV/LN1wVEpYV2afzVuw0qj9sSeNH7seBoaWUkbcw7WNFZATF92a+5A+TF/FH4c7UC0Ui6Sl4SasxLlEP4OvABt5U7rzgrnacnyzAikwl0u9jKuL6bSve+42FWC9guWgOkzE6I91TLHdqR7f/Bl9kzvTb0cQLJk5QVp8ZrLYP6VMLgLiQDF6po8aqrgIajCUDIrJ6/VOwzLmxBQtSp5uHJHgSxCeXxnOrzzvnRoz4MozX2pj0O9+tmw7dK/BmZuxwwHfgw6czjfzCz9RA7lO354IB14mPnQwSVpcGR1GltxESiuAU/MVhdENFywoLZFSC0sjUOrxbIJcY4/cAJt+5Oa5cqx+0nzOUbgauPBSHNqIS/Te9l1c2/a9sAP0wyjTL3zV6crn/96rHMEX02MRSIVoHUhw2mvCmaJ4z2un2daQFDJ0yl7ud+DP8LzQd6dVkDPCicUegY7Rmib1zOQs4RKdkSnUxSZIz/JTDKIpptCM5kO7djI0c270kCDbV+tiXRkC9ps94a0ZN1z09CKy1kdipCibTmtJNjbdd4xWCQcGT0Y1Pt4ALJDJ+Yms6OZ9a2DKR3cnPZtvZ3FCg+gY48yczlOz3YSwZlKfRymV6dv1/YoElLIxAEFAbMo/UiR0FqYtQOYn83JA2nyxKa0decPENKVacnay1PfsmeBKxq1psbHlHZklkGoGiNfIRPSI7xiagMiztDBA8Y0Xz3nS6Gc2Zda+zemnawymjy6PY1yOucs+0kPH22mHZvuTCsvXysmGZbIPoErgmm0rntbkCU8X8D1CH4X/mb8MGV3Da4VdJI7K5wnkeOZ80CFWnfrqdRnc7VTdpKbE034UR6Nt/yiPY6eOK5OxQqcRezGU38Pc4QsAHjknoOpf+emtPqCFzGeAg/1LyMd2kktGn09ocjgsqordhwg8bgSORZmd5bAUwgmdqdDW25LB7bdlvpm9qbh+gTCeIKdIvZxpxlVRVSQngZC4uojuVLhZI8K+TlpARgks49RmiZ94x4HYxrsMFGcGYSaPnIoPbJhe+rZ/kBadcELGAC6kDEkGp6ehQgmmhRYmvZq90wHsAWggz6h2V3yx+J4hZI1iOyq+V46vvf+NL/3WFrQN0GeZF5bmPr6+tIkdNHM1oWIdzWAEXiaH8vyGE4BXakg4sYZwX2Y5+14kIkpFy5z7qxwztHimXanQF4FFy1XUMsUARUfDCl/ZD5yEYAP6jZ4o29Be9VFV9d2wA+zh6YRmJnU14N5yXk+jb5mmj52f9p82+60eNVVaXTN8zHp1sCcWGQxnEmOCEoTRlc7KVjZXFboUAascU2HH0jb7r0ZdtuRhmtHEDAWx6stGTDShHUAJgxOBQiMFHNF0ifvA1XuGBRGyeXpDHeytGanWMdLT5KF7nUguqZ36tDxtPWHO5jXvCaNrAPX2moSkpiyxnRtaF83cDuF4gvxRA6aCOXUznRwy/fTwZ13sPXtYFrQOxGNlScxuN53qjmc5i05P6275IWV2ZwFFCDFVS1VeTz5aj2czlEXCugq6usFXLfiP4OfT/gh0pwk1Y/KkYhn3dOcAlSkNc/oSPptKvRSrs6rdZtQUYLMHwqmda7QojpQnfW+Hpa3LWU9bCMdPYomQjs4RaIma9CA92NyHjpA/+vgwTR/aJgB0IUwPX06OZ9pBec7FSR5qRYr1DQNd3OCyQ/Stg03pf6pR9JI4xB9SzwDUL0IhYd21WgI1LIekRk4KYknOd5pdoag+g6PYKrtNHJNS9OAEHGPFu6rI7xo4kMH9zLwezwtGBZP+sj0OzWN2zQkljgPCgmHgR9OS5g99EDafMc/cCTnhjTSdzy2vjUa5MsglEv/ZmqL0znrrknLLnopRsMqIGg250Em6fhE7rEE03TVO5UiJkmcfLiTK4in7X/6p396Ut/zrOaEKs8kVwmmI7Q3cH8Vla3UhCtTKLHAu+Ih5TgGb0JzqJmY94P5GAligfqCtGbs3LT9/m8jpFvS/IYm5AQMP5uG+6fTifGd6d4f3pTWXTaQFq7VvCWrSiMI3pPzovvEuULjj3w/7dn4LUzYA+jnw6y39dBolvXFWEcW5Oj3IZCmBfcA1aCBcJDWlUl6LQCd7xXgyM4I4cRfQZ1B4O1X8sy9G78ndmOWT46n1ZdfD9uz0Y0zidTyLbBRK+c+8SxTs/vTxltvTkPtPWlkELwoa5PtadP0DMZnF6b+4fXp3AtfhC5bi7Dan0VuYrbKhgncRKWDovhlQufyVESvsPUS5eBa4pUwntWgdPBjg8K9XO8n7hbCbZ3CnRXOQolnwJXKQy3EZt4ruH8d92pP1qkrgGqdOWaxOOU5tIj9L03b2iDs5RnRCJojkAsXpFVXjaXxHXez0uaHfKnkMBOlbLtiYMUF8O1Z1stOHE8LFRrZJiRLc9YZAUZkMWWndt2Wdj6AYNb2pkGOL+mpnUj1WY69RDDdfsXmUNEJl5l0Dk8FUjnU5XcZ74x7Dp/7zcIa5WX6xX5rf2hThJVliYcPMtJ6F4cjXUW5FmTWLsd3KsjK0cT4eJqkPAsGamlyCk2Mtpxig3eN0eB151/Doieminsw40MoHWRi3tSGwG4oeUGUDl3n8Jq7E+/Tue7wUk7iiSSjWqFBr+a6A2/nPdxZ4SyUeJpeqVQ5W29dofLivJoXc30ulSznBOfnCi+mbW58FUaZPwslMYkqOJ9z84+sa64Ozk9D6xen9YvPY3Dkh+nQro0sZG8y+DLAhxeWpuXr5B+yYgAom7PCZ6SzuZvBTkY5N/53Vnvv59CvwyA5jnBjPjIy7MBPs0lc89PMDOmW1TODEwkjNePqvdIjE2ecGRgC9wgOEoAxfE+3M5x9yDxGTENhX7Z5iHODaukE5wdtv/sf0qpnv5ZykW+Y4+6mEfde9nguS/NGV6VDhzelAba+Nfl+0jnrrkiL1l7JABhtXXyjBeGOrqGWQhYRx6RiUCmqIVAITMD39NKY0fxRfq0M7Ob0MvyX8WeFEyL81F0leOJRsdyjUDLcgR8rD46Jvsm5XJ9X3VuxnZY8C54hJUx+z6BlIe98jvvOHKVbujyakmxGFqQVVy5PS1dekvbvZpHCbD2tgHFr/bYJCLIcqgpRMJ0qOcqyuXu/lQYYYJnfOIZAu7cTM5P+m/OiGp2hNcmwFFBe7uZmFx50a1bfF5wzrvk50mXEyR9HOfxzsMd1sH1QosGgVB0z+fCh+9K+BxekJZdgijsPSnMQ86DaoyxguPjKa9P9G/oRzpTWXcT87rzlFI+eAsthHa9xe5kTPfk0e0mcTW6X/nn8Se67E5xdp2glwGspQ3eY96Ucp7wvJq6NbcflZqHzePbmyaIAlaJJGvJR5VG0nhVjPZRK9rUc4bNc5Xs5zAEEzVhNWlVZn3zMlQpXG2aGkH91WTvOhVUyStwSZmKyiXQuUVO7kFXvAqy6sXTO4ufwDpQ9sCsWJKhFRAtz1sUFnDpw4IHvpIHJR5iHPM7oqQKLYFKSWUzaegy3kgPmZpiusLWZBVOSZ4SJjCBxMi3NBiO6OX4OjBRxG+nQlrHXFE3Z1BwWfeI3aDBUrm5Zc0HBfBqR47vuTAvQkAMrIXOPuEt+kGPNbW34gnTxi9ZWedvgaBUQJ/qn9k7Np0zFEMx9Hg13UCoIlvEtRA0MqzKcEla96lxOEcqAw8sG4dbtudBhP/cxMHRWODtkO/M3EFrBkv2o0TjDR3orcIZ5NbxcuQ1nWHkvRwmjaE04Kl1J5dEpgifhbV3hh1LxMnowOy/KNceM/ApDqNdiTr6uRMUrs4NR2RMJdLmNYLMXRR3PsS72UJrceVeaPPAg5uwR+qnHieHiAkxRjgjJApaFLQ7TqhAVP/F5dJhl8F2loap45pjDvcsuyoZghrDQ/1NI1Z55pRGrephqafPtlVmOkN1+/3fS+QtX0v90NRHliLJQ1h4NkeIyqfPqIQ/GpoiU0/5sNHBq9irqKbQsAB73ahpdqZtTI1fhImHji20d62/PCuephHoSnlcAUw0ph2ueFilQAHVWSrkvPOCz0lAE0/SsHwvhPo/rJVS4sKjXkpSnyp3KQKfGMUnFLzkF3Cgzqh3UXKKUxzaF7TPvEZr8nRQHgVjqdmxr2rnpljTCPGYvi8TrsagdKGiwgBHJ+HGUFfjiEJrS+VEFDyi6wrjiY3jR9hm/XLaCa6RzQCZcfpfToJ1Dy/EOQXXetcE0ywAjzzMtTgV8+Na06FKmQ1wzrHqlm+5cZqSNZ2FRdmsiqoMoVaZxyVnxTtjVyiNKEPhU8cp9N+1L2YTq++K645Sw6qrqdvRWXsEMyczi9ax7ciiwHrBM7SugbCrEKmLqQA4rXPZ4wlkEWpN2BOZ26RdcxqBo3gsWNX4qExRG6WYI0ug68cs7kZhjm04UwoJT0aqYopiQue/FtImL2xHGQzvu41iQQ7QgU8Rx7tL9nQinHyCjaC40UCU3maYQkoKpi2mT6j4Cqp+CT3dYuT/dO+FY7jhJT2EPoazykLTg2WQNcT+fED2y6/60aN1uKMia4TBtbS9ID2bqdiculFFdlwxVwmcY8Mmrs/2OeD7nsDnqEU8X9XrqO58z/NwoxMOjf2yM1+MV0nC25Gfdk0cBbCoa8YDPrwOMcq/NcHZFOA3X+1y0Zj9MrWAyno+SisnJ+IamlUfjXio8XwnDFabJOUZIJ57gM7OFpvSepMANhHxXIKlLdZ6aIKo5L6dPEM6Jw2n/ri3MEyKU9PeaMLyM7mcU8go0hZN4pKMjxUl4TKmATsuBJIRXEsQJ78LnfTg7j10uhLvrufs242sJEBg0c8AATlwtANLWAF4v3bY+5mwn2GVyaPuGNOq5RH2SU5cFM6aK4jmXvDQianDJlhdEZOGMaPGTNejcs/EivTtOyn33a+5LdVfljWo+JUqu+2WErgLeAWA1zwrno2h0RgNCOIEYfQiuhQszN/AMQximt+aUKuuk6vzFdzkWUFH2R+g4xTSKA0FzjC2bdglgMCkRi+O5cEQJOula0gKwK1x0MkPFe6QY9o/3Rw8fZkURU/t83Pq4GsuTERQ8ltqxHwStpOmK4LKw3FP5ejSXGcXV9GRFKTFAHs13kivz7jHCA8zISxLN4dRdjHJfFbsDKsIjGX1Q8OinkZjHubqHdz+YRlfTnfNModjnOZd/pmUGYXp9hlsJPq/yYFB+9l2HZp2c843heuPrSryCb471mL8mAsF0Mf4e/FnhhAhPmkPw1lBRCtss93J7cIWVx6OcZ4V0+xBOKlPhVEPa1PshW/ucVpxa1JG94Npc+XNMxLtT3Rx3d72xd9lxXbedsLjJDGZWToqEoGD/HR0nP5a0tTi8a4a+pl+oVsM4pznZxMxlA3Vz6iBL945RgOMkYyTXBoR9m41YpRTcfVJWZe5SrQdLV++8n8PB8Dr5G/dUplemTaWmDsEKCaIPwehtnQGs2uQe+snboeYaQNpvZuDHqiCLKgeB2uIFoLjEY2n40PcG4nK/k9Fh4humt2q54qLLEvHKD4GmKo+PdzWSA38X4OWZKX/OuieJAlTMaipRLlNzNhFKeSFqyqqs7hVILKwYkvBTfD67VrZbQBVKK86wGK8w9RwIQk/vAJeZPcftRAoc4snXc0+dCN6YNrCMUCIhGavOZ15wldYXghfcTXgwNoAQzjhhYeIA61Y3p/0s12nN7qOFcWrC2K7q0TzO5l+5zmWScQ24kaek00mS7FyI4KHRmtxFm4dQGjVQEefKFCevPrR4H4vdj+zfmkaWPJtIVoUemHOFowYAHFUVuj3jCMaBo9cuIpWBq0JTr933mW5zYWT2ozrHGdbgQy7PCuePSrYfIx5G3BgjJU3qvYVcYvtVDXWG5b4hhVXOY/Yh1AqzAnyiJN9bN2pPR2b1CmY09IWnsuDJBIWpsx4ozEH8DtN4r8tpsnqKvmUAy+lyjErWYPRgTHk22g0GfZxiUXUNiZbFQSI0acMpHeIB4w+N14ZGL0xrll2cHrn7q+zvfijNZ5F6H5ovDs9SCNSSkbcaMQ/wlMUI3YMvgs5ddW7IWpc1cM7N5zBKgC24NsR2xZBfnq+5xA/t6a6YEwd3ppFZBkH7xLNyFbw8yqzJbcNB2vKeqyXqfs5VUDRppnuuj6xls5CenKIL3BPdWudaSFEhZ4Xzicj1E7xHzubTvju/wPQfM2kxEQi/II4sHMDFiEsIJ9XstL3dMuvXyrFueglnISw7u7oEOzMDb6ubwk6yhOwigLiW565rSUMQzqyz647vfaVwxRP082cZ2iwQ7+E4kxa60Bwiv0pr+uyfZi4La7llwfjCwdrqq/rS9ls/xTpWzMmmK3nKWHDJ+Ymv3Y2NsSszMhoaGjKQzeUNIQN+LBl0CgdC15hWsf/bnGYKSD8IHlSJLsMF51gnzMIJr7H0UAFWWwqbuJnOkgXnumTbSpWcVSQVdNR0dSv9dafiHYGP/2O9ayUFgGeccFJgCzAyMZGGoEEf01aFw9hvAXec7Esz2R1OlI4rlC0B5bn7atrybLyqkuJoqXi2qirnCT3RUfRKIzzsZztQPEytcb56nlnQgsow5WUsPgrQmIUXPALHinV60OTcurG/idTOoLAsi5MVdmzEp3jj6kK/GUkCnXqVHSWU4TlzbipXnks6IStzNhQhe+YEIzaYMpmekZld8ueYarzgGekAsp1hmVuzsofN0bGmbmgmrXrWtWnr7UcJ47sqrDCKJXChcXPVqYxJVGFjvnmRQS5iCQY0Ame+c5NRPEdSiFO1ap0RXPEnj/icPXnOIpiz4+AwrElrKrGnxAqjezw9vsXTBFlQwfIn7qGYFRG4SQX+m8Tnk4Kp12kZrrG0uZ+8gUQjIdRwUTapSSoDgdEpXfUcL0/+MYqJ7L5E4meUcFIxjcnJtAYGe8WJ8ZnLToxPLIdFQjYkXYOhQvgjxvw5kmIG4XBrhJwzi2k2C6fJo+0G+xmlFxUqEVgBRq1DD7qH1lej1mLwX4XhuzlhydSGD+A9l8GAhkcOx97/VmsWbdHCKgXMwSxe3DYWsKte/KwSzzAVapu5eACDYZ4K0I41L69wfhszuNZkLm+aUaTZ6h3pBBF9UQZA6z3gRU6MQDAMaireaRLXGhABrOCJ3O/yjqwpulHIROnEWYh2MzcDOQ6BxDE/wPt2zsITIY//CBQyXaSdpdEJrpdT2/v7emr9PTQxNQ/x4VwDJKXWO15Li85P81hUP7l7H6cuEF7hIh7kEgInGL24gIOvOuHlHqpFnFwSQ3kGJxcVRBlIGygWmNDAT06ozXswq6cn2DHjKX0NK8D0EKOJqTt7MD3ywC3pOCueGghonUGjmvO34KHQM+SszHM6Qy9MtjAtX39NGj2HQdU6A+huTaPhisYhBBT8yR/s8VU5uAsXyJWH015NKL9EwmeMcEJ82t20avuBg+/73/74377w3nsfmifZPVJCLtJlPoFeqJpZuZA6sLWtc99WP+EcPC3xZdjCCJk5qFwquPR5CjzIHbCDAczHihJ4wKsqMNLNMVpUKu/zRDlmIZUcsEVV1q/iO4Ff3jV6rQ61RlQLwt3FhhXz2p9yEj4Yp2Jyj53SBYOAXHASz6pqnXnxjuJAF1U0V/Fi8t7CRhxfwlS0YTQpbFgmDdKf383JUtU+kUfOS3iO1ub8B1hJftFF65v/8U//zb7Vy0eGGo2heRzCxXkoi2uLll+Udu65g4UJCq1tH/3MqkwmN49SWoqYcYw2y3cZPhkFrlG33EGFeGZI1hoyEf8KaK5Ha1x6hUVCi9iyz+lqpqAX/BH3JxjIvTvt3nhzGut3uxs7a3po3+mrRh3Z84BmTZZGt1p9LLtYlDbfPZmeO8ZSWDaiW1/moTyJPxhE/tzGc/fV+ydwFsiR+XPIe/8zQjhlFIyNMboOv/Mv/vn/+tyvf+PbQ/NYL6lwyqRoAMrjukwFk73ytpZUkkxeGMdw4ztRnsN8n4WmCGgwPEBk3iKgkt1nXf6de85wjC9sGgnFiXxDy3CN8IqhCh7CKPkZlqvSs3QUOj74SmMTuCJMCgkvQhAif/AIY7LCR9yy4LgwW+HUw1iBdCkHkQznz/JGYxZ4RkMSxkQRPlGOe96H8JkpLvIBPweSM20MkeY6hTnTscbSvi1btjQmJo7PfuJjNx4mz3kN+2eN+e360BhTon1iEWnmBJNMSd+hj2VUTXWNxpZ35uZ9oZ/IlnfSD6wDWTWXxog2ubyQDaZWmmKaZ74NFo1j4C8dMWuPH+EUQgaNGs1jabD3RHwQCUOrom0uqacL2ki4VPE4Qj47xcb0QTVw4QqxCxaROD+JU3Ouwd/3jBBOEB3CWH3uZz7/5bd++zvfH0YwIa9soilaVZZ0UlCtWOjVjIqTdjCPImC9RaV5zeEthFoomkUh1KHduFdoCStC6T6+uK+YOoxZKp+scWChjglmkPFgPzS3DCG72P+KPILFlSDb9dxH8hur4ixCpCAlaTH7TOe19GWiQEAutW5fSphq/mBK8p9BqBVOcerr4bQ6D6my0DIs1rqMFdrSvIyEl3beFhcwpV84aFleCEMtJkgSFIXbozVCuPnaPrqMrn9wQXvbwzvbkxOzUwPzKBt4ejhX6h0AnssUbMi0FBX0nEMufc5MHGo9pV6xjGxoeWVjYeMSDSgQsp6KokXCSFfxgxT2fSmPc7AuksiWRCBKDOuFcGjXN29hOs7G60Ea894WfUitC+tTXLRiLCPi22L3yvgMcQZG2OjCFHQcyWmd6yxVvrd+w0ErYXRc120n7OQbYzgq7+KVMJhPfv00e4IZ6lNT6ZwTk1PX//mfvXdtraefuUA+RocJODk+walxHoeRTRA1jSaPe/qKk5kcyAgiQWSfuwlW7hkCiIoPExEhlAmKFrOl1XKRGYM5Ib7vS9opt0tV6X3PaVvx7I+arJidYcrx3rfGswGJRsGKNQ/SzczM5MGUCgLRIm8fIz+FTO1IpcuiMi0JwVUT1vIh4lPVMzBJDm9VQky8iB8jMIRXZApYwsGJF30AE0HX/Ky2FjfD7WiGVpVx6WdOTnD+7IKFqbeHL0k7WAScof6BNn1fUlsuMhE0LQOGci0Gihj1jRFTGwpxJM9Cy0CCH5+zBUR+0XWhbA4JWLfiCBtHMSocpXE0OiGIiCfvxcW64Ou1URbpH3vaqvQ8AKuXL3JflC5hzXDz6MMo0gMUfYrGZor9rIzgcQK9FlCNhrTO1rkBBlPX0ufko6Jg6REolIE/KV1kz2cdRQgXNM238XtqWbteeQuSsckhd25Oefl0e1yAbD3/Qx/+yxsefGhTb29/jDTXxo8fS1ddeWl65fXXwcztNDU1kaanXcepcZO1AgxRlUWNWkiXg2Q2fWG0Umg1lmapTiLm4XkrF6ioB9NEnwxwhamCcYnvs/A6Zl4wDuqmahTsxRlXOCVtCELFoKblNa5oDvAjua5TwcQ1Xknv1bJ5El6BxbQNFOAgLDSocuGRk5qJOsskfqbToihhBX4hU8DnIfAhT/F2PtKrjVa8B9YApyh8/Zu3pNvv3BAHhkGxNLxgfquPE7MYmxJxMiVvTZFolngUHx5zX5J3oiEnV/UlbL15hXVT4W6aoklNVOJZW5Y4Dg4zO58DBhpdXIENyQhHC1pAsjc7G7Ka+1V7lzFmdS2RHbFlZMM1xJ5CL/5BABKYztFZT5aPg6w50xfBzgsSoE1VtqokogRGlaPBIDWOsnYCq3env5BhOYPh9BF+6qEQ2Jmnldt2HnzlRz/yV+t7evxmBW0tHLt4bDi978Y/T6tWMs9PgWm4g+DKVfBDED/f24YbJp29SueguRSg0kp8C+y74oxjJepiEpK0j+UKjBK/PAdTCAPfnVycw/lOnLiQXTjTFlyroMcNF3Zph8wf5SsfI4QxlhHAfTZPFZnwy7PWb8H51KvvxEO84ko6nel1jE+H3H3/Vs6ntY+IENocLFw43OrHOoxIRoYI08x9uc5WZzy1S+BBtNJYxMuun9xY0VCBuy6b01kofe4Wznx2ru8w+fkzrScFqqRbMEWTAeR+GpL4nGAUAIGh1c+FZ2CnjibkiNBgCO33QN+CKic6rU17geCDr/GcxyUMy67QpdCxhP8TrmZo5uxmT5xs9PR2w9TLC2+88UPX7t13cF7fwPyopiYfv/mt3/yf0tpVLsDJzGOpdFa/faswLbjaesuU3YSTeDSaUS8CLMS0sqO1F5BOoHjfq8EiLzKwugo8o9nAkmHH2f8qjb1MrZNTjSJIG4uSZwn3uYo6B6sLJsk64cIo6Q22Nm08sMICx5K3OJf7MAZ4Voi1lyy/9wpwlI/nDkxgSbN+x6MIpwsY5Y245GX+XihH7TiK5vDhg6Gl7W4wO9MeXTjsh8hanU4TwGbom8j4ll2nBs/XbL1Ie1m+uPI+BLAKzFqqkz8NRqXFKWiO71W7SfjA5dqk/5htBE6OH8LqikJQIGih9U4A3oKSRuEDV7e6CU8N769aea52TJQFtIQVrMuVCN5WJc0PPGfXFakEnXK1h7UT//QVTirFQyfOvefera/7m099Znlvf56bbc1OptWrlqff+e3fwpylCNCOFpUiZ9NFDrcvl5kAZpFzIZPCJKOGJuPqs8wpj4T3nWA0XYGlIOrsryls4axAwqnv0CQysGm5BDNHnApet/AKVme8QLnrWabITEL+VZxu4TVdcQWmeRZn8Vjo0CmDQiqgYgGoRW0gOuXmvWGZQGoa7vW66qo1YRppF+lIE3CJYpmjMTI+4RMnxtOxY8dC+/EmTfGV66VLl9JJVeFVJWpOp+kplIHAgq7ZbFUAMuOLP8AKHsLGxftS6AgRHrVTEUCT1XuFVGdwHvQCEP8hoGhP98s0+ubxvRVWLbGbRnXKekogWRtVwrhR6Eynlsz33SjJF/FMyaJOI49ImH/I/yd0gncA4wH87NNZczrf85J3v/f9l07OtAYanKKWh8Rn0x/8/jvTkjGG5e1mRJ0y30a9yaQcDA4P5D6ZLbluhsGS6C8ROb+TpbOLlploVrCM1+Tk88H+Rhoc4FRx+myMgqJk2ICk6oErJ9FO8kLwg7yCE4dugZJ55SkpHbwFD8jog9S5gh6NCu/kVQUzhJ9r4cMiCMIurryL8pqOF2Yf+VhMHwDIGsFQDmrRaTwLNTBlq2qWIcPb+KgT5tIHXHB0FFOaaGo6XyrzS1dxhixR7sguv0r79x1IJ05MRPwpIhK/vWTJkhmyCWjxUSM6JzNTfAJCAlcuuhYiD7Bgeu6r6or8zTdvoiaCrWjH5eE1cbTwxrNeoh6FAeDQsGrOEKIeeGOAaQ8WDAy4qod1ZA7uhJa0JJa5wJcmFFLYxCiujCpbWWanBRAp46HEsgKEpctpM/QSFkWNt4/zY/Kj+EP4p6/mBLn1t3z/7ld//WvfXNXfN1hDNmozDPpcfunF6Vd/5a28prCUXgY/enw6/eE/+5dp68M7ghGb0+yERxrKZLWkDIaTcblvuiCaxLnlrUZgHQFVQJDu//Dv/k164xteG60wTFr78z//QPr8F/4+DQ7Oo5cOBNLaUBQTrbTcqisXQOhyI6DuyKOrDtjMgv+/+ud/mH7x9a/sCOanPvOF9OGP/BWnlY/B+HlUOfpNXRUfjKg6q1SssMU9rsiAI7yz0xPpXwL7BgbIgk0oy39593vTf/u7L6a+fpjT717Cd6YRf3GWFtJI81fnIJLOOHEMpMwdQuD+zXZ69//7f6dnX3FRxBE9OWn//oMxENfm254yMZZGa2x00ThZ5RZB4DHySZ8TnCyGnF1ol+EHyJN+DJeSBd+IV8Uw3/LeaxGuEsc0dRskFg00OcZpAuFctmQ9+TL4g2AGAgARTvmN285PFq7OYzFtDDCRiJ3GZXjxouv2NBEfO8h09jfju51PS80JkYeg72v/63s+cNnUdJPpJz5hA3MPsOb4T/7kX6SB/qBONLQIVO0//+f3pL//6jc5xHwIxqzT0rOIGebTWVH2ZrjLNEVNRWtLaxxxmE/IQoq2gFEXjS1IV199TUwLmHLXnv3pxvd9hAYAlWwlGV+GhctkbmEFPHJQU5dnrypbmVjB7GVEuU1feXTJ0ly/gGJwOX3wg59Id23chPbcRtys2cRbF4xnXjjhhEaI+2wBFNgKs5ppfJJGiejKwxQbov/uc3+fNm2lwYr5OClQwbLDqaMxkYgF57wZJseJ9xKXNDYxDboT+w8ciWBRMpZ+//79ecqBj/4Iq95bn168dOEx4iyy/xfS6HQSJyK4BKGjdQKSOJGGdN1uTsHO0fak9zyIc8FBOoV2C5PFLOzHYkVxOsM0K51n+KzhIN89ST3zmcO0zKRk4jx2w1TlF1ZGQ/7ApAWmHOO1wbPOPHWGZVeuvstxDBckF15aOt3cu/z8mL8ChNHcPVBaN++eJo6C0+im87/8lW+9+Xvfv3VZo9cFE7XaFJrhupc+P13/8msqIkbpaxsf3Jk+8TefSUPzRmn384Kuhkch4hRMl3pmpoRQViICXjpkZb4w5t4wfWdmTqRXvepV9JnUYkSD2z77+S+mA3wwp39gPn1WWmJoLuWDoXMu3IsyVUAiK07TSEYVm5jSkBlYWbJm/bJ06aWXRpVZCxsf2Jru3/Qws83zgeHJby4Ro3mpzDRhZoYwx+x8No7jGk4FsH4VYZziI7iNtG7teuKTL+92bt2Ttu/cBc5oNBc7VKZt4F2EE5DiqctMSFtN3sJ31U5xHjDdy7zyyAh9NlzFo0GHw5yMkMNkZDRsf8/syPBCholiu1uWPBonP0QUiwBoSDq8Cl0Qv4AjjDmm92nOPV54yAT5Ki+WLRpIILYxX2dYUDBTX5D6F65lOflyIjgVgnVioaMQip/58uNcZpVlyc/ay7U9h8upd7l+Tg2NZ8Bl+6DAPW2skwPFBAJl93TUnIP0637pPe/78PoWy6lZbFBzocFAbz39L//qj6JekZtgL4fy3/PeD6TjJ/gCFV9Btosf/YyK+XJfQV1qBdhfsPIoe9XKuZJHRjTIyerBvt70a7/+9g7zYR2H9mlgEqonZb447KqidrStVGqMDgM7hNK8gevxkPYl266t16SdnkwvefEL+Q6r5wLkGrj529+mD8t8JAvx6wiRTKE5pkmZkQBf66nCvR7mFcJIkOs5Fei2E+VcF/JZhXXr1kUysnMZHYMwNE7x6XYFrTQcmrR5WaOwY9U8uIc1APxYjE9ZswRJL/KhPL3YpCOjLpnMb7gEbnv27Y440ahAgV42HywcXeiOISSZ2GjNhNadnXGfjuUyV4XJa5jBOaiCx6XTYESbhnY3gvEVn6rHmeNEPVCHRsESoipzlsSbZQfJLGbsJJs8Vq/jiJIBdpJwcHY0TpEOXMxLPOCH3ET4InNXaXAzqxBH2gTORK8a4wDQ9RNgu55/jFuJUhb/Bt/+GDCenCQUXjX5/L/99Bffcdfd9w43+vrpzPNZOj5Q86obXsGigwsljwXQfKv94633pc9/+aupb4D11TCcginx/YiNJlqDsFifSjElaG7lFNVMaNvNGPiA0Wcwu1523UvSpZecRzxNopS++a3vpXvuuZ+pBzQxgVn4zF6zidQVzFzhFSMTz3eaylZm5In0Oxjyiz//+kBeCPLRl//ha8DM82Wevyr+cQ1GM4bZ5jIVnPOAR87Ldtn35nfJRRek+QsY6JC38PfeszEWpfsgbQKWdMDL2WQRznbAwTQXKghL7a8PMy3S5umKBQsWoDlHTB1O1haEZm22GLRPmu158+e1hofnDSFOrG8zlsKJpYaHatAkC0WmSy7HHNNn9p4rM+XLygd8ItsQ0EgLrIKvQqsLONRJaE3W8kzXRtPAyPrUt2g9BWS033nNiKjViHLncOxabRy8HCBV2TuMnUeAo8WoGhIAkzbnZ57mk7155nx55i6oKlmK5/ZRTzns9L+m06wN97TRnJTN5nrloePNt/+X975/ea13IG8PRDMsHBlKf/TPfrfdW1WQbGvf6j//2Xv4yE4rDbIzXy2lFpBRpVOuQKgU4YWlMjO7kkQmtbWVjmpYd4D94R/8jkovO1597C8+DrnZCtULfKRVE1Vhjk+6V0JhPrm/AcMHM5IHTO1oqFpI01lz7sLzz03Pe+7lMFfG/c67H0p33bUReEO5z4tAGF9tLLNFXVMol6uxHF4OqHAN8eKeOBYa2DOY/M++AtgC11HcDffeBz1y9Uaf2vIylxSNilGUYpyC7P7IoFmE8IO6UFjdUaYFYAM5NrogLZjHoFLlJJPk27NnXxZOSu1yueGRBe158wbpTLTZKA6dCUtoTReM92hR0OfLzkYADUej2FPhFShRztgPoxDwl10RaK0XcDdYIQSvbEcYS/rRBtDwTDNVMsPB0eOsgjufj+umfg4XiIO9oIfLHD1HyMOx3T4mbfmYUa1zZBMEAXZkBA4Bl7f+6SLrCI/H6iekOFcRMQrvdWKUIncCTnsjaEoQLYXXakTNu5++G4ZM17zv/R96xfbte/p6Wc0Bs7K7cSa99jWvTRdftKaDoaX40pdvTt+/5XYGgQZDMH3ZYTgiyIRSMlq6TiVTYKZHZtVqVEq8o4LbDCD93Aufl577nEsd74lKvv2O+9O3v/eP7FEciNFQtaaaMpYBQuwslJnqp1aGz80ZdzXAgNTbNGb5K1/xclbRkE48+bnpqzez5HAmDczjQWEG36gR3seyMpmzKoc6yQbEtMGcCF1cYXZ4kcGmGlbFZbmxJw4fBksPPLQJk9ZpA/AmUtAGmFnLwfYAcDuduDqXG05p01lO3hs3TGzuly5dzEBcxl8eomT06VI6cOAAjQJrmivkl4wtioE7mB6gBDLwkhgI8+O5YbHRMCpcRfCyiV1KboORcYjGArwif1HiPhovXivUxosw7wJXGk13jtDPnGUj9GR7JC1cdXmqjZ1P64OF7WnvpI1TD/j69syRbWn/9vvS0NBAGlm5HiIy1dKzBGg2BBhwoWUzHcpgT8aM14/hxOcndGbuqFtk9bTQnBC3QVu2+pGHD9zw8U/87YoB9sm5SNpPoQ/Pn5d+73fe6TC8Raca0PvMerz3vR9hDpKuBMKjsEFNfI4Q2oHYhencWWAF6ozbw1q/WE0Do8jRfajkd73zN+gvCYDqwX/ik38Tu/57mdzzLzOqTGQknNhUJpdME0EIgRUkNtH605Q7UttHn/K6664Niht1GjBf+drXSZ/xEl/hOyroPYvGA19bayF3V3owJHn4J7IK7ejC+enCC86LfYvC37njYNq77xBLGvkGSmlUKH/GUwHNTJdJAhxg6KLxIdA89LRbAd93y5Yti8YjK+dMgxPHZ9PRY8yjEjf3x9tpbGyhc89QQuj+Y08wkgzFqQ8A2hhynJILQtTMuV5sCDJO5qVFEDCj9DxDFwI6pHcHTsaRd5aL3Gwu3DtPcxfmbH3++rTk/BfCIOcgdDT0vI9PkLDAPZ3Ylu6/9XMspd1KoziZ+h9aki64/OdSffGlxF2KMI8Qn2kztSlCaq2XzDPdI6DCPe5BpyJifvXj/trf3ITX7n7aaE6X6T3vz9/9vmsOHT7er9ZsIj2uBvr5n39TOv+85RDC/xCc2l//9RfTho0PIlRqV4sho+aKstKyOafpmsPtxxUXZinPEc9KB+ilF1+YXnbti0Nr+rzt4QPpq1/9BvBzX9OwLPCsNoG53FImLkXgxUx4c07TmjwjUjOde97qdNmlFwEjx7hrwwPp/gcepJHwiAuwr8xxE+SR2txfzVMzNAzAUddLAPNR4DV9Y5kZ+KxdtTatXLE4Sisaas3xcT8jvwABkB5ZmDRvy31gEgDFtcK8KkenXPCbLGc/kVU/OYm/xONNOsxXsY8fO8Fj7ru3UNlLFi/RumdPtaHGZTBs8gSms/1uaEdgzAVHWaryOqJj1AoRcbScPge+VaOlJu6EKTKlkUGTtjikZrrGtzY5OEibJgAAQABJREFUH2u2d1Vaf8nL2Gi4Ag7Pu0egAhlgUnCm0OE929LM8d1pQf0wA41TjGkcT/d8f08659ydaclFCHT/SupEbcuiBeZJ6wwsZbsm0zGQ5afgWNW9hSiULFH+KVfTck5K2oC38/vTF06I7R6AtbfdtvEXv/DFv1/NggP6YNQWTLd0yWj6w99/lxVaCl1j/XS68YMfhVh825jKUQRt1YJp4XQrrweNZF+vM4pqHyJclg4FoMH0QpvVQDOYlr/yjreleQ5F8dqMPvWpz8B4fJyHJYMxyBRmlO/UcBlSsJMdNpztdiREE5ved/avPIFhnC1Vr7jupUzFZNWv+feVm25OE1NNdnQ4iJXj04STjvJYBksFc2pOFRNXoRNuaKjI0cYVOeA4jYsvuYDjP3is3IYNG0L7K1huecqWhbxcNSruuMDFKiGFIArDs8LRlY+0zAXjNOtKOCOdyOAOHTqSxjm4azY+m+eGhFZ7bNEYKjJxNoljxtK7ybYyFr0gFFkVg7P5h9RnARSW7WTHAT8+UBT1ap83FAn4E8l+NnADVXGnDlrkPxnTJqNpsrY8nXvlq9l0hRbsp0FhIQKErLx9lhof0GU7GAs36v0IP7tQ5hE8j1P5Dmz+RjqBubvm4mtTfewiTN1zSIqQRlPIwB1/QZKq/OJbCaa3vJNeJ4dFwI/2Y8H24h/EP2005yj8+PL3vu+Dl8HI/f19ffJMDBS89S1vTytWLixljqr+CIM0W7ZuZ+pkmHqyZc0lD3MQgQvmroiU32RiGa5Q5laZN7bkCM9561enN7z+tZlXCKbemD75QuplVY3UkvgioDYu98ItSIUQydG6Km5+p+AggJjFL8ekFc3CI1//xn/ngUELJPUkTRZxgJXrWIgBOTPAXMXn/jIiDHwZ/fIr6CsX5iba3ffc24E7h6fx1b4YuhVz0VxEGecyrMpBvuIVtEQwjL5kkSc2zjkbmf0HDsHkmKpx4lbQpD06MnwUFLAdafnIjUttNpbusSpLnrMrgROPQANhCQOGZ6dztGxMFvUEIDWWYcbPi0XUgSBEw8zsK2ducWQYA8PT9CsnGivSustu4BPDl7HVEnPWg+xiRVAhDrCZTlm+/lkc9rU7Hd/zg1j5VAfdOiO3I3w4Y/rEpnTvrQeIc3Va5L7NwbVRCTU/g5hrgytwTu/mCJjfU4JHOeOcLlyBfAR/lPqO913t7aOAPOkBELw+PpPO++/fuvW1X/vat1b29vidSBmomZafszi987d+PcghItbh3r3j6aMf+yRaz1FDCa6O4S7Kwj2NdRlJDSaQDEEu9hswECTsoAtXG2F3SrzlzW9gNBgtTDyHML74pb9PjzB577wpq6OBTUXARSYNislRCHUWGMAJMfLIWjsC8ohHCM6lF53HYA0foBU+ADY++HDaqEmOheDJABmnSBVwZUpYM+dX8jFzGhfLKqNmwUFoeO5nb9Zll10WOAgfQyA9+OAm8nMJBBqIeVT5ncPCssCGhg6ESY2AqLpx3eXJfc9sWptXH1NTixYxYBIuKB7l2bl7D1q5zRwoQo7kUw/t0bHRXVTHEWpjis8yMJw62+MuIk1atb7lDUOEbENz8xBh5OOK10xecbK8XCvrRMGNATYLA84t+oKsGWNScDgdZ/BndmBNOveK16Ta6MUQCcHELI1vjsYRluQBtDBtNVXnr02rn/uaNL59Wdq9+XsI5MN8Y/QE5XSJ/DFM3Vbav+kb6ciBR9KqC1+W+pZdLamC5eIbplETReAzVfztpmEVWgg9F+mx7zRn7sfb7wz3UxVOMBilbl7z/vd/9ELkBH6lePSLZjjr5Td/4w/S6BgrOnAyvyzx3vd/lFUv++OYCBmRs+aQEwXFVjgLULS8xCY4nOGah1lz5soPfYE5uGTRgvTLb/3FEHMjO/r4qU9/Fipr/jnUn4WEgGAsmVZMciVnLZTn7eYEM+MhcrxH61z7spcyoswjCLdoAb77nX9MJyZmGCWkJbbC5cZwGWHxNt8CJxg3opV4PChQePdlLVs2ktavXRNlEMK2R3anXbv3IgCZdnlQLJ/O4Il75tndIHhvXrqSp4/ee7V8g4N9LGtcSLlNTvyIm9KuXbtMVmk0rMDe3ubIyILtNHycdMhMhp8gm51szExP1gaoJCGW8pBtxkWIPFg/+jj8i4zjvaWCFtF+2NiEtqRB4+rAz0xtJB1rcWQIp/utvfBazslFMHvUmO6ZcO8v2hW6azHlz84r7q6YwgrgFIeh1Y107tiydJjPBO7ecmsa4hMSfb2evDeRhgdr6fjxHemeH96cLr5mZRpcrHmb64ibcN10LDQs736MKzZbuhevkIb7qQknBXMv4JWf/9JXXv2d7/7jkgaaJCqIEdpLn3VB+tV3vDVMTRlEQXx424H0N5/6LCOQQ7kFDYHLTBQsQ21aod0MZmUKM/aVaBrBzDKrVxgm3fCmV6ZzlmP6kA7jLDl98sPb72IKwvNuFBCnT7IsBPFttBUe4irw2SgEHpH808VIo8xARI+BfMV1L4tRVMtgjK9+nYEmztRxuCSGTNAmOhkoMhMZuDH+LBDhMkGGzitHKtWonszJAMz569YwWsvqImCI6z333Jcm6Of2D7EGwOQgaw7CEG9B5rzVqE4/OEqcoVcXYuXGxlBNyQVD89PSsVFMP8tAg8ULYe7GwpAK0sZlhH29Pa2FCxce5yUS4CGwcPnUdN/U9Gyj313PxsUkFBe9yFA66kOhsagCRtmSgXXn6DWlxaIhHdaS4wzT9C9d+eMCg/HWorRo3XPSwnVotoHlAGAVUHyD1sXt5kfZNJEErgd8jWV9eQSbgF7izR9Cphel4XPOT1vv+UaaGt+ehnoQUHDQ2vJ8bFdH5RILpmqcBTdHMJ5+Iic5nULp9DeF9lMRTirGep/H16pe+553f/B89l/2+3ViXb3RSr//B7+NGoUcud5khtqN7/tQ2n/wcOpzTx5OoVNSQhhNF9pGgcoVnwmXtQJLykwRQiSzylCNgZ70a7/6du4huK9xn/j//pptVky1MLoyy3k4CkwwEgwTh4c52kk8URWkA05WoP0+2SsYlWf7s00GGs47b3264vJLLEe4HUxx3HXnPamhKiUwHwQmc1cRiBV48xjlAr4wxcHniFaZhjUGRmYxF69gflOTXJys4dvvvIPy5EYpNDzsrQicnIfwZHzLSIkq+OYTAituEe6rFsI/nBYsUN7AS5qQj/nt3ev4BflSD3Wmo0aG56NhMX/dj9XmjMl2bWR8qjVwfLpvqL+X1UWYDwgeh+16JixdLBsZodnQVC7nq+q1EVBLOoeKBmQ0ts0RISdmaTgbY6l/dH06b+3z0ZbnIWQM/Giuepy3a1lijlKA1laX00QGrtXNcV5cEU6P0GARQn3RYDr36rF0cMsP0q6td9Cg1tJUcyAtXXNB6uFArwyX5KfC7AL/E9za39yMf4R6Vk+E+6kIJzn3sX72qo9/8lNvuXfjA2OeC6TA2jd58Yuen1776pdFnxA60qdJtS0P72Lr0+cYeaTlnJmEvi7PY4AGQHpdnNQcGsV+oqFUuPUOo8oEPkel2DKzhemFL7gqXXbJWpOG27XrcPrG179FHBjbfhotdzsOzbKKFXiEVu0LV3ofeaAtwqwGQpav/K4F82maX/eyl4RJazdpmpUxP/jhnenQ4aOUg/Nn1Ang5bRC7hcyTcNiCIUja9QMMxoh4SMs5qkp60qfYs4/59lXhWUhG9LIJ+hJZBsicVPvyP6ZSqZXk9io6IJ1ozxZ+O27B1xaqzDXSW9+ixePkq4kiKQB8dChwzQ07HnN4NLo6Eh74cj8CUmPuO6p14d6hsbWDoytfV7v0Z139k41G/TtBtp9HKBVa52IXmNuLM1f+G5hA5gj6eKAlpvlIOdpNOWUpiom6+DidWnJ2ivQeKsQSlf+2FgjlKFnEOYosThaOusdJyOd5IjHKz/XkPUghXOJJicljF1IHqPPSo9s25LmMxW1/AK0sgsUaByy0AvrVHgnAf9xHlw/+H38eHfip1w4FcLx8TR2cHz8Nz70ob9YUuvpjZPDWwjCILuR/9W//J8RvJCrUGgKw7vf/e60Y8cjMAKL29l07Y6JrFkgk3VpgsqFhuHRMH2OJ/fIMRglCE6Tc0d//VfeFmlNJmN8+tOfTtu2bkkD82mBnWOl/ZJBOjBgdps08SlaqAcmmgbvWDwAW2T4zOsxP5vobr3kJS8Ik9Y8RPGLX/w83wxhKZvTAdGKI0DAK2fruGJHZwMR+fJO4cz9aMLhKFJEmWZZcTM2PJQuQzPrnCo8fmwy3X33nYwCn+isatI8lAbR7wJexOXHMHPK5fEerRlhhiL8xFUwZ9mps4jzmrQOu52nKRzlBAT3iTotoVs8tqg12J92ERVO7uW0LAg5eM7gqktfPpDOvXh4+uCmniN7NjNdsZOe1THaD79jotLgjF7KbvE59h7ak78HW9NvbLAgZWD+sjS2eC1fQliHAK2shJLuCPOacQJefLg3l8kiaG/oLNVjuTwXnuNguBIXa4bGIPUNp8Hli9OFfpHMIz09zKtGXuCSTeXHgvgjh+dKmIsuW+3AfwWvkHbcUy6c5DyC0rvuwx/86Osf2b5zoIc9mPZrZtCIb37DL6ZnX/WsoJiNnTzMhwTSy1/+Uo4jXAfTQXYO+Yq+D7WgkCgYmpYycAgkjWBcqWTfhQumh60BqBZ0cOM1N7y4U3lS61nMFf4//+n/YFCIPNC2ecI+k0d4Pay9ywydQcZ7hMj+rDC9umRPYRqfOJE8/fwFz6WCYXK1lxP0r3nNK9Jzn3dlnFAg83taoNfSwBThFHZuVLLwlK1txnNE2lPWXZN63nnnsiJnOBSD75xk/9W3vymdYA41hN+jKoNOsKk0oGyxm6Vij5jDrQRSPPQlX8uhue6a41de/1JomRk5lx7BPDrBQgcaIVw0Tgjo4sWLJ4m22yBUEdMpg+TEivO+VUNpYHG9b97aoSWrXtiTpo5ynslR+neH0uRxPsY7dYyqYZASXJyLZV9ubWjeWBqcTx9Sk7JP7chEtAsK+JS8IOOA6xiJtV6qehYZHDic1lXFjnfGyWXWJIDRnAEIc9gBIwQyvkZm/et5Z5FC6E/Oi8Cf1EGndBP+fmhvS9VxT6lwQowG/Lh62/Z9P//JT3xqMXsNGb2jD0KlDDNU78JzBtGsI+kW/OU2qVe/5gYe+JeiQVUFMJNK3pJs3YSP0kFv353qZDJd9ytH9G64/towDwv8yCtHBRluKnjC1PN4sqsCSp6m8XBipm3RrggwwvHmN72ug2eBb1UjiwHTtBFuXhXPmHXBNd4TUK4ioMyh1EnH0rmRBenf/Os/jjzMHzbuxA1FTVjpn/q+5Bc4VO+Qyew6mZKGdwFU/Lg1yuFjR9MJzgvK5+1YX+3W0iWLdvJ+P68DJIzNCEJ7Xr0+OtRuT9drfSOL0abzU/80E9JT9f7R6Vq/ixPCo31FyILX+KgaW+hSnSFTlTBHUMbaWIREjapmJwAvkeacDYoN6RM5miGi2Lhnn9G1XHYD6FawDtcGNSojBD/D1JISxR/TmempTq25Hf+3+MOnvnxKhZPMF0C/Z7/vxg8+f/+Bw3QhaQHhrmlGTt/8xjenc9etlOwOiBV6Bb7SO/cRIOkpxEEZdFr17ldRz1VACBeQIoxrSH4XIPt9xrEKcrXlq5n7rABgHT6uKzxR8jJdg8W6MrtMwCZk1gKjmchLtEo+JU8DDBeO/GC5zFdSIHcZv/JcxRN21rqmda4x04LXASNwIU0UtYLPJegVmXEvdwQOxPMaNOK+uKBL9RxlMRJu//69ocHb0f/nM2icwHzOOUs3Al/hlFrGZJyzt5/FEr0MJPGqD83QQkDbC1gQ388WFeIxu0wfPlqYQIpotiSxeMAvHxIlhsMFmT2SS3wggVC3MOZ7Df+MZBZikgUVIwn3MWxnYNSB11JcbK14IlPoDxQHpLhKg2xRaNEIO8Pn5kdxgjudM9zlel/GbzhVa5rgKRNOCllDa664574Hrv30Z/5umUPjCCZhk5zvMpp+912/JWNaDVmD0VN3FUqhgyauGiIGJgi2ZFa3DGN/S5rFB2u4z8TM74mWG0Cukl6X+4y2nwgPz8a3hryE417nxTC98U51VbQQpFgeSiTxCPMTxHpgTcPzoc/C4YE4CkTgCOBoeLiGxuTqWF3B3+mXbhca1jiACR4xAsJueHHSSVeETAGP8lVhspXJfF+EzQEdn7WpvM4RIj93p+dtlHcfB3tplvewCCI0ED3FxUsX34OO20OUYgcKjbEsD4Bxsxh2N1/KhO6LWeznEKiLJhnZCyoZFycyYClBopAEuRfQN0EYS5AdwlilKSGnq6XyrlyNA6MBK+qDpyhzeV0xXA5zzKL7fTbpTo7fSehN4HlSyOkfjKc5ezP+Y3jWNz7aPWXCSdauf7rqvTd++EWcXDCvh71Stnwt+k6/9LY3phXnLIwul3UCg9Vuv+Pe9KEPf4w+Zj/9vV4nuGPwRUYwgiOqxvXqt0PCVZwZcQjo0QQivqq4j92Fg5iY//u//ZO0cD48gfkkU37uC19L3/3uD6gv+i5UjK1vTD7AA6YtguZBWPb1xDmYBPjRcgOjPMeuC/qE1zIQ9JY3/UIItBrwtrvuj10ufEckGNuyCCvgK51ECnOBAtl3FV6Ui7w0Qx1RtIxuHrdF6uvjVIIFQ+ltb/yFtHo1AyS4KQrzV5/867SPc37cwuXKIeGUwSTjWDYHnwy3/62ThqKgE5+MkxqjGTAWks/11/0cg08MiBBXrlIk9rKPM+KaEACUqTW6cHQnT4446gtvmZFftqSSonlFVUbfyrag6kyCcBz/bA6Vi7sKsZMEpkSIq+h0uSysc0DKqwKnPFdlnXs86W5O454UTHlL835S+Ck4zPHDSbHmHqTHOLS7leuN+Ae572pe5yIWAs6FPHl3K79zy+2v+tLff3Wl5/HYerdh5JUrl6ff+s1fpeASLMb3XPSV/v1/+D/Td2+5LQ8AyT3QXWYIpzBi+pSBAOfifFfexwJu0riATWZuMdjAUrL0wuddxnwdQ/I4qbFrz9H0J//637PInaMdGWjyZHBbCNeshhkbeeTWUsaWkUNwVDkIVDfjN9mzqXD6mblrrn5Opwk1zZ/92XvTF778ddoD+1EEkLxJGfI+ywrv6DiezERRDkWTshUN7FQSB3XCxTPpVde/Iq22LNBy15696d/9+/+LuTlxFFHoQ8tiWjW3+HvvR31kMq2HiFfBt9yWLcrJ1WV9CignhKabvvx3aXQkNwLSjtfVJuvMPqbr6+trL160iBHaWOHiSJFMK5kVQhnSZ7wFNdyJzningDIC44hMnAYJ8kVIT6YH4U/kzOPxnLAf01kOXeEjbh8TnnFLvMe6D2BzP8Ky7NLoDryC+V1g5FE1Hk51T4lwgvw8BO7F73/fh6/iy8jzBgZd9D3N6OYUCwF+KZbRWeNqCOfqPve5m5gTvCfNG+JEdxtVnPyWy+aV5yBOHqH1vhBIgsF3Ed8TCTiAhCY8H7Xxrne9K9LGkZlokM9+7svp6IlZVtOMkLNza7ku7LXIvLmllJ7ZqSmV2jgqhCDbjJJvfYDdNAjO6JIxNoe/PrgrFocfHE933HVfmj/MyCObgeMrYrBmTMwgNDkfGwS1cmYMBcRngHfgu0tDfHpcnUGjtmbFknTuuecTxiO4bNn6CHOC7EDk8OToMpDWvrT0EEcbktD0PEdfSvmQPiErOV/jdGhAHiK0EI25gIO9bAAUFetBa2DPvr0BO1MGs2je/NboKKuDeE2eTFe2XfHiOlEFtNuJroLpcjUZ0ysTidWau9C4UjZI+LjCRJx/qjPvx3TS6klw5qkvgvkt7v8T/h/Jz7I/pntKhJPcl//DV7/18ptu/uaqvv75dRYxW8XpXHaE/PqvvR3zE+wJ0pydmGxx3uqNyAD76NRmISgwGUCUndKy291wriqoLRPL2SHBMCNx/QBOj4AJZ6QwXf6sS9E0Lw8Y9mU8cPlTf/s5kjANYz7KHZUTAgi8WBHE1TxaTCmE5vEezlRIMh7wnYjhwSCmX659yUvTCMvpdLLYbSwHZI8qfTM2kKPL3fDs1qe2xp02qw7NX0dxKEzmnwWeRgnByeV28YDlBwKjmDMg/5znPCfMWxsAy7vlYYSTMvX1I7yaXyTUsggNSUMjJKcf4kp8Pz8oztwhbJSJP9uDnBB8+JulyzAyMsrZRPZIhJc5zPt9ew/wnIVfWs2bP9Ra0D90kFchjLwD3bbzdvvwRRiLQNrfUniNvwTvujs1qJ6J5ugCUZBqhCaQ4ulp5LoF+ZR7yy2mCqPldtBnL2F3wTP/wP238TtJ87iCSZxOv8D7J8WBVGO6ma7+4If/8gqm2+e7ljNWr1CH73rnr6fFo1VfBq6xdf7YX348PbRpCxpChrB8FhSuUBjLZDP3wcQwcjdhZMGYdCdJA8H0s3h+eb7FhP073/UbsVpHZpd7vnrTt9LG+zfRrxrJ86ehrRQ8GJpUNP/BjdOMtngSgnOCYcoizJEneUSY7E5cRJNGppbe+pY3dDS35fnmt76D1nFnB2tC7U+y0wXjN6exEkPYFRxFhWfLyr/PNgx5PlVFgsNM9dgWLY4XXfP8zLnG5dV9990X871GKztwhKHwcdaLAIM2kQ/3ZS7V+K7XtT8b5UKQY58s+bQRziUsx6P7yjtjBpjE8bjp4GFki0YgtnlRDwtHhmdZUONIbQincYFHdiGgpAgmPczVODvwCqEa071oXhkg8mtCIajLuCq0htsPUVCLNuU2XIVReXxKrhL0VGeY3nJrCRyn3BAnBnlsfO7EqyU3cnUO2C1hMvYTuidVc1IxEnDs81/6xi/c+sM7VvMhIuarGzUPpLro/PXpbW95Y2gEqN7m26W1A/tOpI/85ScrbcZCZ4XPP5eccS+DUbDMRIQpRkXTdJfUOBFf4ab/eN76den1r7vB5MH4Uubjn/g0vzYUQnEgxv4Y0cnH/h08atIQEBfK53zRSJXzOZgY4QocYOYL1q5KL3j+lcTNtTU+3k7f/u4tCEsuSyaHxUA4ENQYgopGYa6R8V1x3quhLUakycuWMPf70rOvvBy5VhfnzO7ZwGFhCJimabfgCavbPM8aP8MVpt6BM8sQdLNFiQYD2iDUY2Oc4UuQWEk3x5H4MC6LEI5G2sieNbOLRscYhQ0T1agdB0yf+USmdnIMFDmaq6BJTE0MhY8+ZwhgeV7K8xr8+fgL8HZ41aq05DF9a1ph6CDAo9zpwh4VqQo4Cd9TInW/K/eSQbN9mrJpGYxz71Wh3Akd74XGG3h+EG9jpKmv9mQLXdCC2x/NPanCCQoDaM0bPvLRT7y42e4ddpTSZXoOaPzOu36DhdIxZAObQmBI/b4P/kXasfNAnH2jViombbRJPMdfmGpEh4GCY0xaDWZk9qE3Z5sQAy7N+LDOO972FifcDApQt93xEELDYBmmXTAy/Ui/9SqD6mRGaxdiZnM5+EBm7a4ftaVOTQP3ccjtq294RRyCJddobt56650cebIbgeE4FfIO/M0HuFnogGEeOTNyyY1PrDpSaAkXJ7+c7cognScfnLtuVVq3ZnWU27BDhybSI4/s4NnqtCFDEyKkEtWGIrvc57RM0RyBvKZ/9EUtrxGho1i6SdxdNdJm8bKlMQ5Q2noHyg4dOZqOHOPbJ+DIPlEhtZYsWTzBjdqDy6NdxZi5EHOvNW/VLqd10NsBBwXzavw1eJaPpVV4tW2ehrHAIj3nuQ3XKfljPBc8vcY9+cW1wtVkPssU5aoF4Ej0HqLeR7x/5N5BnY14teYZdU+acII8G2/S2s9+/qY/vu32DUsbPYNOndSa01Pp6uc9G635utBOcqyl3/rwvthL2cPnye1vWstubqDQwWBzTEprHy17sHoIUlQN8fOePa+Zmi5cP4dT4978pjfkeDCW5P+Lj32cJXYz7Au1ITasHVMb3pufz17FoDz7rtsZx4yMZZ+0j6VNN1z/MoOiNn3xNRbSYxliTiMwjHRpzajvxV+BLLCLNivwfY78bSy4d5WU2i/65UyZXHrJxRwHar83l+fhrTvSoYOsc2U7XdDJF+KlYPMnoYVZzF1x1pV87QoYVx/5SoOKxp66p6uKG+U5cOggx6xwPEkz1w/L/GYXLRrbS1GfsB8VwH7EH3BR424nuqbw1/GatwqsV01ghVSNqvZV6+bWyYp7tFPAipDJcqUhMUxHOxmsWN4piJYntCJXhU/B9JkPNXm+ZoTFM/dn3D1pwgmmo2zN/IX3vP8jF7bqrJVRu7H+sh9G/b3f/U2YGZ6BIFAidP0HP/pxtoQdTf2xJcy9fMRHuGSYmABFe8BiMI8p+FcKIKtC0obxC6OhlyoicRi1K4/e9MssyOZcUqJrFT64eWf63Je+itJUMENXAS7XW2wHNrUDKl3OBeeaejFiCZOTY7wV8RiIYt3sBReu50SCizqpJqi6b373eyw3k48qkJUAiH/oNco0i0oV92yKVvlmNUsqyku+3eW1H/2851xFH5ZgWFCc7t5wD6WmocA8jTNzLWzkKZ4iqbApjFgjjroRFOYvN9JR8zgaG6EIlDBTuqXtHL7tIkVpH6LVUUj3cTyJ87SuRQ2hbjanlixe9AAS4vxdqQAS/OQOeGpbTUN9OHC1gBJLQdV7L4aG58Jz8xjOoum8lvsIqH5KuFfLohDr4/5Mlw+4j+meFOGEeAPU3aUf+NDH37Hx/ocG2nwTkUrkkAM+SXDNNemGV74oKClWUmDTlv3pv33287T87NUjYM5MzUykeSvzepK7tA+qweiSS+bSd1p96s0Je2MtZNfGO97+NnktvE3hX//tZzmJgGMXWBBgXqUmZU7Nx1NdDs+xiuaZSyWu1BxS/9KXvIiGJ6dWYO66+760det2GJyF/QhYNB7EDTyrXL0XvkeIOOKpkBhW+r7yoGXTebXhGezvTZdwWqA0EFvLsGHDvUD0qdK43OkMM02kNR8qRaHUzWi6VnTjJgQ94hNPnGKOFLzHWPNsGbud30cRllshhcFA2NTy5Us2EUdt8qQ78rT4Cq1ezfUz6c64cFKxctPKPfuPvP4v/vIT5zPnxhgQ++SZ13S1yR/9898N5iNS6AebpP/63g8y3TDJZxWGYSWH+2FiGMSTwINRuO9l9DXYMzQJAghTFEazZoiSJT0Y310uU+k6+oDr1i2LVt989h0YT39LI1DDBBWup5mH4x6IMHIWhtCU+U38ikvWbvnTgVkssgZyC1o/G41veOV18ng4rzd/49vBwAOsqRVl+8FqJcvGXeBqeUJwCBMf8wkg4oWQujsmvxd7hcapjQXsRlkffejIjJ8HHnggBp18FgWwzQIV5UJgoananh2zIfyWxXw6JBMrHsRBLes5TKrafjaFOyBkcLfbvZvvo9AhjvgoSkz62YVjC50ysXhn3RmiwClt4hmBOgQrXXnjBz58/bbtuwZjLhKtN4uwvOpV16WrX3BpsKb1bU3ee992DtW6KQaByt5DsZApi2YpTGq4oh+jqbw3ToTJhDJbPKopEGYUxK+845cyA8pzRPy7z30pVtL0Mnpa1IEgskmJ3oBpszBkjRZarisPmTEYEswjb5kYM3Pd+pWcSHBx4OKPg0Hf/PZ3OsJVNJppQ4N24GQaGO4gkE64Tk8U/HgTjZDWhA3IurUr6UezTcwC4RwM2rZjJ/OozAtXQqeGN0+jhAeecH2vjwUNVc1nYyHTLKfPcYU9j2WOnKYXSLpuuQLPZ+bzUlBhuhxwYGBgdvGiJYeq7Ex61p0BCpxR4YTJFI8VmzbvfcWnPv35tSzTq7Ekjmm22bSIr2D97u+8E5bJDbGsKOO4fvbIsXEYMI+cipDepWsZnAGhY2DNwjiZ7WYYufTQKvbrx7XNSKinic/MjnNc5EXphS+6ErhZAJyb+9hffRIzkzWnDIDIWOEFD9eZl0JSmFimbTDEG2ahUzncgQZIF8zBge7QLJ/fu/alL8LczOXRpL33Pj7tt/Eh5gfzuUjqLjWhZdK7hC4voxMG8PA2KJqS5uSIqEJZlt/l1UKs+OWkhIsv5GR33oN+uM2bN6cjR46AGxpa+oCrh007Aua9PhAPGlpY/rGbA2ZIOPn7TngAVXvb5fb9AhYfKKAx0k20qv1g6d6eoFNpPFmAwGf/Bh20sWLOujNEAeXgTDq15gtu/MBHrt1/+Ngw35ukKwWDM5r5hl94XbroglWdykO71O64a0v64pdvYqULI7TE01vhxfmsKxpMwYmBCcIUJI/cUOvlePm5jZnZ5oh9lwV2MoPxvvIP30ibWNzgXKAmmU4Ywo7phGouU1HWfFRY8lVGVntlXHJc4hDfzcic0sE3Q68LeEIFJAscvpmOc+J6Ph3QMOARnoVf7akWy5qsV0nEZYyIQ/jJNKgEkYbAPC+/7FkhmFLJhuC+jfejCUkHgPiac0A7+ScWfdgAIJQFB2mZy5ppIE2CzjZw4Ot65UWjnAqARrZMepNA7nT4wMGguTBMMzw83GT5nv2/s+4MUuCMCSeVbm2vvveBLdf/3ee/sKJ/YKjmER6zMPCK5UvSH/zeO9sOdJihPSjlzgXhx/lkfJy+Tu3LOIarDdWC+SpYmcMwGUSNB6eoGbiXyX2ngOaVMC2mGi5Mr3/tqzv9MhnrIx/9GH3AOcG3DRAPNcUsGti9lzKrGqMwc+hktRD4OL/oewUSlox7LYILzzuXo0IuRXCysCgwX7npG/RrB4FLmUA/KAO+Ls/T2TaoGf3Vy/SWodzbEIQZSzmjvKT1nacrPOviuRFhih6DQdmMFQb5GWijZSNDkaIxUyi5d7eNZQsTWrqZL94+qc70Nj6S1zLz3ZPOlE181wQUHaQ9ePBgxkvESbZ4dGGTsToLdNadQQrIkWfKDcK+L3n3f/3Ac5mgXiAjqBWazKe8/Zffyrc8OPfUSsfJD1+56bvppq9/G6FgLlmGMpxLaDJiOIUgTzoZbrjCF88AyYIoM6HRgrWIb2uPsDjn+Cu//JY0xOJ6C6dg3nLLnem2227HzPQEObY3wYD2lYQdzEgGMqaCF9qjElLxjYaA5zi/R4kWTxlfISa/F7+ID+KSV4SD5/33Y9Le//+3dybQmlXVgb7/e///v3moV++9GqhCiiooZgENtkoERAMacEiCRqMxQmcwdhKT7tUrrl69urN6JZ2xV0eTuBTEKGI7EuMsikhQJkURSqYaoKqggKp6Nb/xH15/3z73vnrQgAIP26r6T9X/7r3nnrPPcPc+e5999tmHc1C0DXbAyGELP4XUruLZ8qyLaYu6RB3IZxwtiDq5hWywv4dzV1ZFm4TFgU6YIK6nc4r14FxUpx4FwaYy7QcHvyRlWKciWEYqBzA0I3FN0rI85OFFc9Umg1xzkvMwPCNFGGhsObt3ZnZ0dIl+uRy9ikYW4FvX59ADC0KcfHi/9jG33HLXRV/56nVH4wNGbC3VcHR19IrR7NLf+o3gmuKE6C13+bu/ez9Il4hOxJFLge2JTuEiamrTDyIrkInR3PVPK11F6eFp1Nqz+uM/RNPIjlmxLLsEowMUqEHUJM2uZp+jVZRDG8K3LCUqqYZpHuXpB0ckDcSFgGO90MQMEhKjiOtm/uCaEKUOvDrYI3rBL70yMFLGJyLf+G/fySbGp7hPRAWkgOFVoisIQUKUO+VSbT5YAJ/yJFZ/pufcGPKTF5b1gqOXZ0ODXdF+q/bYY7uzzQ89PDcAyL51MRqMlnxeEyyGMAc7m2On59fi3n63D22rv2IDwMji4YChEVD0OyK8BxdNTWGvnPeXoBYPDUziyuSwXdKIDvv/8GehllI6OOH8wvf/wwfPmJip95Yx03Mu6Clhv/WOt8VxByKuNMYl++xnvggnuwMxbYg07LVEwxGqlxxxYmM8iV37I0tCUgkWgtQYO5QWvuedZG2cV0+Lev0v/zobkTtyIs/wSr49++bXr01E5zwRRIyFdvLO5yAuzcw9i6QG4uQkorNe4ZJhRBJ9S8xtjzl2ZXbaKScGIZrW6l/vOSjBVadTvZEcgiAheIewWFIBopzQ8vylsU3ilrtBHJRVnA5Ww9uAyqMGXvvWHrcm+Viyavw2MYfetWNn+PLFDoAYyqAOBYyAXScOmKGMCqpN/UlkEKHc3wGnjrv7VI8kJUiwI8Ma4AjVepKPbtm1Z3c2rmMv2wMMzAprw8NDexEUtC3NOy6ytf48xx54zsTJBypzlMJRX73u22/59g03jrLNi3M1axgc1LITsZrxBK/E1VJNwY/Sl770pXBUXMXznuM53jHjZaHckWsVXKwQ9SRUgwgHWodnBFTB5NcSiNPC8HnbOdqbvfnXXs/hNHI55kf8brvlpqyLuZoOj/WspypSjiFiGcJPaz7nkrsIv1igD80pW7mcI1q8IrTvXRZq4v7mzZe8EVGZWHBSwtsOJ9u7d3d2DLavdbmvOShPT3m2A7QHwzl+hw4pyrcOalqFW/x8F+mpp3FusJ4an81+8WUvobcSYVr7h7du4bTp7vBPVMJjRBs7Xua4oemsaz7PTvAQxYHt6c8xADCAmqaNrWTGG2d+59f9WGqtXnV0SBeW6cBj9Z1vhitM+sX0DFozw6Mj25FpNe5uhQXsgedMnNSlB6550Qc+cPlaRvsqYhVKQRGxmV126W+CPCKiiJJq7fXP/+J/ZPtVBLGsITKI3CKJCGSouNcwRxavInh6R1q4LPidKzISkUnUamkryKnLl+EA2bL4uQftggtenZ1z3qs5FYAFF8z8FKktMxDLipkUZLX8hMwJgUPJJBCoXCWReQqCUewr4zJyBGfLisW8iPoO4wvp41dfxYDBMxStV7+iHVEQsOQtipDR5pxDF0s7URdgOxBYNX8xYAU7xLkzXsm9DSCke93Fr8le+tKXUkd3lRANvCAw2857ZwqG1Iepfa6hukSTziyV7NJ726e47yDjsFLBpcuyUXdsGcyTJAPtajXCL2GTLlymAzMjixbvxLNrS6xNnbVgf58TcfJxKpwSdtxnr/n8e37ww7u6y25ahmPMIM6uPW5V9iv4uBHHRByHfPHF4DzUOJHQQJoI+ev8SaTJ45/4Yi5FuinwNYhy3ju1o/1YJeHqDSTnBfDkgobIw71lWA2vcc9DUTemhFFnsxZ19xqKW+J0S1LW2kh4wuVmkDmh+YWVjzXRTvMFvLzNpI5yvRZhfh0OxmlnLPHjRcEyIjDgcR3s72AZY0ked7Adts3fE/tD+AbrEvdcndL67KCl1MvnC6KOPiAe3hhjQRAuH8wjGGKgIp1SS0dHpT6EWEuuHLoltMJC9MCzJk4I081sSyYm66+54oqPLoNrsnlCfsBhQQzv/+Hdv8uR8PKJ9MEDwfPP5+iMPmEOQXicCyLVHP7yQiTyvUxG5PR9xM3L5K0IFoGXIT7ykMRRRDsKj91UXIUT3IH0gaCkK+BJTCIlU9uIc/AIGMLiF4OJNyqHfPYv8MLsTs5iOv5EXebBD0Q3Ke/MFwTA1ZB6KN3H87x8c23ixUHCjCIjg30awTZxE/1qfu65zLUv0hjhjxCEmKezLpE+fxecmbh49EUe9CSohDw2NkY5dgDSA5lZ3pkZ6B/QOsjmt8IC9sCzJk7q0IVEd8rHP/Hp192zfmOlnSPaYykCBYjnnbzx4guhX5UnIm0p275zVza2010n3YiEaXOv6UV4kUoRSdT1WHcRtljWsK1JbE2G277Xo4C7M5p4WPcEqCqi7hlsPu7lcCIpQ0iT7N7esvUx7stwcpQ6Yhtswqsjf4ixysd58Nm5ZtTDdKRpoCRB0Iu05pNHWl4nW2pWHrU86+tlaxuF1Xm5adMWlE9j4CwaYTXNclRHBQPPwlVz6tWyFD9tZ7pPV5POvSsoE8VMJ1tQVhw1Escv2DYHGJ2gbd/B7hDKdj3VIGwVWPZjlJOio39th2K97ZKFey36IfJRXrzi2kHde3s6s+WItQjDAo53XHLHXg4xqR+7e7preAKUc7aIM3pl4f48K+LkY5ZQAi3dtWf8FR+76hOrmTsy3UnY1Ml5J+/5g3fNumPB5QmRV0T6/Xe/h50a95U6unpR5iS3jSKiyORV5Jmz3MknSyKP750DuXCuNtE5k8gUMiKyag0N7YtfdFr2+c9ePdcr0sQf/cl7s+985zZsTjlBirmtOz9UdATSFuWC1KmMBFP1Urwv4oET7yVsawiMMoitqPyFL3yWMzZ1fcMbqvPe9/637KZbfshR8j2Is8zH7A7SK0sI1zaqhfYqLIPtStwuxfsc8RCuxBvzTSSR2sx4dsUH35f90vkvi/cUl33sE5+J5agyngzD04L9QnmhyY5UaVDzlpYzQFmXpAyLgSFGQLS0wSpJBCcMKyHmk008VfzCmadmn/r4FcHlPXGrsN/YvQtTwRBDYiCZ7e8fqPV2dzrftFqtsIA98KyIk/I7UTCe+tGPfeL8BzZt6a904LkdrlObnpo9/5zzSr949lkhhomC4sSt378ju/X7d/E1O7IJNJ0l7F8NMXLn6n0RRkwQWecHua+ne4VnBAC6bUwCUhHTxNZUTePFF78+sghVQrnt9vuzL3/tBtJyzBt7SN3SZR65sUFkTTckhtjEqkS0SSEVRENkmizzEuR0zhrIX5/Ozjjz9Gx0CYRJGugt27z5sezOdfdR/SqGAXBF6mm9EyEKvWjUQeKL8uMPpQHfdrfTqRKkS0b2jRsB6kgifR2d2YoXHAMhBQ1FG6+99tvZ2D6UapMTPNOncGfrrWRhghgMYiCgdJrlAEEDiHf+ap1Iw4VS8npaGbS1DIazNTTE6Lly6ZVY6wYMVmvG8B2kYsyT3hpYQeAOs8EjqVthoXvgWREn28EXPbZt7MVXX/2plW1s8we9OS4Sn5e9nWwJ+/2cafDlQQ4/8BVXfjybAmk7cOsYnu5ADpHabWAiioSpBjDmMoE4oAmIGQiaIy4JBRc8R82hO1V0LTLY15e98fWvm0N/bz7x6WtAZMtCu+kyBenUsJZCCyynTsSTkFSEJyJCfkWshVyYp/KXcmcg8DLbp5oQSgNPfuedd55MEXhkopm3M/js3TeRdeJiU/eXvjBfaHwpU0KJNkI0Xo0vgu0MzurAZNvBdGpIv/lpqAdEMLJ0KFu6fFkMeKTIKCrbtGUb1lWc3swApHGFcNMGaMiNpak0MNhOYVIluThlRWAkUCJxQLDtkYYXkQfabmtvZEuWLouk5rBM004jAu1lR0osERlJ9PDiYcctiTPFRHTrz0L0QJo8PANIfMgOnDe8CII779HHti/WTM3Rfnp6snTRa19T+oUXnRzQQK8Qab9/+z3ZddfdiCiLNz04iwjigr6GAHq2EzG1wXUEF4+MF2HjnxpK/Qx7ICrwXA+Uu7pkoMhcm5rm2Phfw2omdzdCqgc278y+dT3lxRoqZUEs/gI+iOhVGAGPciyrKDPcgTBqmEajBIYDmRCcDILLQy8nIZ/LUfKMKyz5pMhvfOsGiMS2UT/yFaHMs8fNu1TjoUYSgX2lrZs/2+uzyB7LLgw4cjaD3F0vCZ7ZuXrNsVkPZ/qI/f42b3k424lnd+fT1p+OTeuZtoe66rRMYiqIzumAabzGPe1XNE1lyXHth/RcoR06Xx9ZPBraWzLOhX37DrBRPbnKoc8A35hdtmS4xtjXEmvnemnhbp4xceKRadHGBx89+zOf+/wx7VUM2MAwzNpmBxf1eSK1+MaHThxOxP7HD1zOB0XxA9KISM5xYh5HyhCPQCRH7AKRomlKZrIm0EYECqIBgYJbRQm8R0QdYdfEb1/6DpA7BXN8+jP/mo3t3gfXhKAkDtMHUUbNIqHlSRByOWoPFpMOhDTOASDq5XtCUS85jHPW0zByX7N6uSCDUHaM7c9uufm2mEdbv1Rcao+EJ6yA4Zwur7twC84WRIO8WvSBHDC2eeVpZvC5dMZpp5olyrMV6+65N7w5OLd1LijcgqgjHZWTCI2LMvkQ0WYyS4gHyzZ1yh+iMO+KOi4bXZL61QJNQ3s9+LfGerFTC+vJrz66ZMl+HltLKambFvTvMyJOPpxLe2de+dGrfvHRHTuH5RSIoyiHJkuv++XXZmuPPyYI0w8p0tx0810l50YVHZ8SJLjgenz2OGbeRTZ+BUI4/fS9wTjnRAffgQw8i+zOnWqYs12CNdCSUfwDmZ7f3n2z4cVd0blAzFDI5Iog52NylRBauQYXllPl3Koo16sIHF78nMuBiLFbBS72q2+4OApzDmYbb771Fjws7IRrAo885gutL8SoaJrKIq3zvVAUpUEgBgdIxSliEE4QUJoXS9S22/5y/nkyJoKAnWvnXXeuA67VsOV+Qrgif21P6rdEjKnvUlysUwIzxFnlFeGbRcAOHIKCU6edPY1s+fKlqUzjfUUBsYxCQutkn/AtJkdHh7YgLzxGGwTXCgvYAz81cfIx/UwD993z4EWf+5fPr6l29FRFKhFo0UAvG6kvVVrlGXoTU0j9fjy31zjCRhEziZJ+ZBL4Mwn5i19E5H9EnNAcJpQLRPCVCOHuEH/9fV3ZO9izmVAzIc9Xv/bN7KFHduCesicIxzzCsgzrJmEHDLkHP+t+UEMMEktQpDWPoUhrnZvMNT3h+bzzXs5SQ7yOP1+79lvM8URWUBSo5i+QV/gRIHDjozzblsN3rqiyy+D7sH/lWjy7D1azw+PXrJZuIghSn0Eh4hOT4Kq9SYOcz3yF1E8QvC0N2MIvYNuHjHzFx5//3iRV6ovDrlTgvL+PPrp9brnJdLRzYmjR8FaS7J+XrHW7QD1QfJ+fBlxlqs7Zmh+84oIDBybwNKzIiO9ClCUXXfRavM+9IEjJ6ZxkfON3v59996bbsPvEYkYxNUcMCwrUB5ncxOzJ1QYRxPmn3CjmhxCK3EZE1j40EFqkJm6mNpGdf/452TGrmBeRVxLwd/X/+SQcDKN7kiUxD4KjLolI5JiJU4nIYnsoichnsHzLsA7mLfIX8QDBpecLMQ886FNn59iB7GbaWIFTW47EHAFpQMlgbk8q81gHg2JHTZHO+aT7K0NhJQO3jyinzX7BXtjtdiuWLUU5kwzQaXq4Jdm46cG5+moUz9JrECM0Rf6DXDfgpRpFenoxrpYf80xFeP4ZUtrUL1UGm8U49jIk/up71zgfSwMWD/YpfoinhhYt2k6yn4ljr6jQEfQnx6afqsU93/v+usu+cd23Rzu7+vDZBarxkRYtGsDV5WWus7MGmD4itgHZBz744ZJra4qRxOYfP+dG5Cu4R8FNwjcxlC1MR3Xfi+uhMoKQJJtAPLiJR/ld9lu/MUeYkvd119+Mi8j7Y00zuKGwBMA1RGHSFFyEN3k5VJhQ1MX7gnCsh/Fe49xXlm5e/apzEyGQjVfZjd9BpN25h3JQpgDd9EUe3wvL/PODYuR82L6zD6IfchH/IIxZBr3VsYxhUxyAHnxg89xmZ0mnKNP8Gtj7bLDsAo7PIc3QF84kkhBkbCLKVM+DnLQLnyv9SEMJUkrnXx17hfSBNsw29PR01Xr7+nRZmfP1g2lbd8+9B6Scnxj4yD30/suuuPJjFx+YqnfLVcw4Mz2evf5iuOaaFXOaS0f3m777g5IGABVV/TnSijyGYu3QeLWklVwcDLGXNMJNCCZhp1+D4/uazhvR2M/UxrN/h1PqF59+XGhShen639VXf461OYlJpEwE4RkgjPEwScU8AdMKfkVdvIpkpk45LF2iVusKT9EHSR76ES/PZmO1UQWhMFDxwFIJc0u1rwbFW5saYi7E4EAhz5a76dlBLhmG41wdhCS55PuI+zyuICzTnX766QHXP8K9+957skm8yztPtO6u3Zpfpa2w0yCW5qsuVzms+XL+QEGJEGv8zQe/VPdi0OjCOkj/QYCnX+wT6s3fhx99JOC4ZCO8/u7Oxshgn1wzfVxuWmHhesCef9oAoejaeuUN373jshv+7eZe5prgbpnpEUqDJcPZe/7oXbNsbA5yKJD2Hz/woVjExpd0fFQ/pFxLjmXKgjgSboJY4IbiWbxHLBOZRTSRNyEwcyeRm3mfGqm3vPVXeQ/iAE7ro3U/3oy3u1uZa+r4m9wWA9oVSC7SGSzH39yzFSakwSDFxx5S0oe7D95FPaiPvnuOxc2mQWhYR8E5b0IrjI8dCNl5ZhKFKQO482GaJw0E3iVu57NpinRFGq8hzlN/PTY437T60r4UcNeP78bnUnKQm/oxJ0QplyBncyBI4WAZUQ6DQxBx3h8FRfkt7XvT2DfOrT2mMfWaNeabUX64J4lBNZHs4MBAk627WnbwthUWugfmPuPTAOak2+z0yy//57NmtG4H8dQm6k39zbgDWXHUYCCDMxcR6MZ/+37pttt+kHVhQ+uHNn3CBUd10AGCC3+xIgJ5EtJKsHA5iTFqJMK5xQv52HRgRmgZmaOtXbs6O++V55IzEYkwrsTIYRyHWtqYFkjv1W1RknxBBPJRt2fJWYOQrJh1BKHDeB0iC6kA7qcdrAgbKArXfhVrmzEgUB61ym6+5dZsN+46ylWPXU9z2dRWeXUiJJ+LYF8ob8QRgt65Zstz+tlM2kn5RX+pHe7t68xWcTiSQc6saLru7ntJTJuUTwlBdEEbDnIk4Ns4L0+DnSkk0NS3apjJaSRlUR+/RQyAiTAjLeUOc7JYVeEhJaUXsBjCOmgvRxm6jGJL6N9ZfOg2GCdaxBk9uvB/DmLPk8Dmw7fLNb967XfPue17P1hUYUMvARpqZEevXJb93u+8Mw6nMFJUEXk+dPlHcE1JIhDcdbgCYQOJQIj8e5tFSIEkOrNKzwc5iRzOUFw116uzofrXfuX1WXcnAwTvVB5tevAxTo2+FofU2rRKXMKC8+aw5aDeF4NAIoICGS0hhYKQCuIu4jUR9FSv8195NkiZgtdr8bDXbn/QTpFVMbPIG/OynDCLepjTslXAHCRJu0DUdwhweKPmDCjB3WnDiqUjaE05CoQCpbudY/s4GOnhOW2wbSvyRP/6QEJhSqD2g2U5XNh/an8VlZ27J4kklRf1nuunRJwSssHPIKQx1jjHxycBb9/5a6A0GsS1RCiDTNIKC9wDT0uclDXENz7nyo9c9cqpWrOznR24fngNoy/7zbdmw4NVxvAU+Dqlb3zrlpJHxWtsnszYJMZECAXhKHLKgnTjWFiyFIv1xocFERghNyrDXYKYyOIOFMXoN+Jik1cgcRoMPvmpz2X78GtTcD8N3IPLgjwxt6O+BUGGUXhw8sSJA//EejkLZWh1JLewjdYpbIBxSXnSCatwrHWU9BeIuv/ALJpojvZrd06tOKuEwGDE/FOuZp8UP/0cpfdei8GDBECSQKxbQdTGRv/aBsr3JDHPlknEWsoe2LQ127N3nDmugr9kQ53RwrlvVVjm5Q/vYqYZz0W870JaMBPirZzZlCq7YspAmXWceimxDHM6N68eF3bu3IkVGDa8pHfcYd7ZHBoZmsJ4y5PC0ijxuByth+faA+LQkwaQpswYe9I1//L1N/7ozh8fU6504XqEYRIl0MknHZdd9s63BAKa2e/o7/3/dDkHMTK/xA41ccwEvuBKzuMk0jlFBXl8l9ImLkrU3HNAdbIDwnim58UXvSYbHcbbOYVJU/v217JrvvAlFE96VDAOZM/xRAKFHEL8K4jVdxKCP4PpDZZvmoKYfS/SiqgzlHveuWdnnKoQQSJ2iWjH9t0hGSR44DugggByVh+EQtqoE+XEu3kcMkEzT/5OwiKksiEbRHpPE9NE0F709bq778PUkbrlCh7rHW3J22MZlue16FNhOi0oJJB0pbKMusb787vGtIKXWkGNjIyEEsEy7SJ7aWzXbrxJ4NiLrkttrtdHhoZ38jhGeS3itKMXOOQo96RQR6amsl/60OVXnlBq10wPhAGB23Gz9jrF3xgAACLASURBVId/8K44JazIxQcq/esXrsvu+OE63qe5JlEsWIMAEKSL6yJLsidlpGaoFokgkwAhEqTBFzRMOJqQTMzwuyNajiwe4FCiS+bem+xz13wp9mxqcC5XkI7Nr9gdxCCBhrhJXGCahKgSKbkcoWZRjqUnRAdZMeMXtsTqyms/Wstzz3lFxJlO5Pw6xg5ACKkgGR8k+HPH01NWuDbJCU/ySmu288qjvjE4qKSBUOIe+NZTjbaDmMsoUWZe7t3MN92TqQY4zXOtr7PIxPkdmmyHx/fFYU58syKkd8APNulaqESXCDmIlIQ4uiQmy/AJJO1qYhtEatyOHWyyDnHW8u2j0tTI6OijqKa0q22F56EHHJT/nwCiVCCJl/7zRz5+/oMPbBuNo9IbLGjMTLAQf0b2mgvO1tWl3yyCc81/+sCH+ZCV4JrOn4KuEtWRRmRKv5QjIVcQDBEx+oPAIqijuNfix9s48uA1F746W4O3OyssbLW0V139SaZ8HSFOCiMQ25d5EIYDgyGVka6Kr1JycFeQWRHRn4htef7UeOqZbu3qY7MTTjg2CF/uiGSX3XQrxhV4qS/aVNS1aM/8NnhvsE98bxn+irzGF3Gm8956dXV1ofxaG2013lrdc9+9SAkY2Adh531KvDCeGObg5/1elKE0UdTDPEW/GNdgiUYxefHixSHdWKbB77t95w7Skp7m2N5KpTwzsnjxdigzWcKnpK2/C9gDYuPjAh3vcLt8bGz84o99/NNrmDtq3I7FHFyktyP70z/9k5h7mcmRlw9Xuuaa67K779vEtqpOiEYrn5jNzCGN4mycCgYSxTyS97H+5/yMD6+YJhIXSFMQmvKrVjSDAz3ZOy99O9wkVRU8Qit8K2eSrIeDe2Ascy/mfFY9jORjbucAobjG3CpHUJGqQP5CnDRNzBXNT3mm9QwUFUGz7N089xUvD82lBhYiq6Llw9u2xxLK3BwuVYt+SfNPuZ7KsGSeB2/JZ+ZFPUwutytCcCQflfdl//y00Fm+fDn1TeXu28vp1exGUdFmO4TFOTQJhM+WQQUTV5NgeQhZ2w4mnnvzBTFyTevN5k8/RXrLKk4WEzCOIKKWtjvO5KReadM7msK2ysyioUVjuARnuGqF56MHnkysbQfZL/jgh648+6GHtw+0o9zxqPgZDgd602vfkJ1+yuocI0QAEZmljH/+KAigyw7FMbZn5UjDtwZhSVAggwoXHkPln7dGYhFBFNMKxUwQDgsWGh00OdPztRdqVH90oJHJ1NJe/YlPBlFGmXJd6phQEgJkEBDPE1wHAveKiqtwB0zigkiok/USI51nqVQJhGW0IDf0UWPdtJRd+OpXBrcWmuHmm29NN/wN5YjtiRiRn4oBUs6sUuagxrPosnR1ULOu8mtDcDNYtYv7Lh85IB3zgpX6YDJZVPPhhx/J9u/H07oHMVFvB6oGBOfgE5KAfczP/lSklVKTSO/8mTg+6iyEnYKDkPUnlUSL6wjPqMV9e9Y/2OPZJ9G3LN2GRZF12ImbGUMNkaXMYFvtrNb7+wa0qXUppRWehx4ovlaA5uOKZ4s3bHrs0s989ksr2d3RDr4xJWlwwvFQ9p/e84cJEcWphJHZ9d++Kbv99tuz9q4BCIQPzS+JtTkKAiAsfQJ5kkglEhWIlO4TFwl+K7EEcomX9TDVu/Qdbw0xU0YgWm/c9FB27bXfBKHKKIqmAjvkUsKSrQfziZTRLOIlBLlrEhmDO/Ksew9YUTC2ZgO9K21qTNcgfrSWeBA87YyTsrUnrExA8r/XX399+G1tr+ryxDUjl0aEm0RyTybTZ5H1SG1LXC7qBozgeLL6uLdWEghcnnmwXJyCs5mJA9kJa1ZFfaKbIY4777wz278PH0zMr9mpxbJSkgyEF+eYUH5YJ5F2TgJII1TUw3Q0n591tY+oFwNR1FHRu8miGeX3dAxm3bllv0upQcBUc+/YnsiX2tnk9LGBJmZ+cs3UmGhJ689C9sDjiBPA/Ygyl7zvn644iX2KVeZzeDhwDjiTvemSt7E9qzdoUu5lELW0jDn3nJdn+8bR5KFX102/o7TnpJT5Fap+00kMIoeI4kcuEFWuFRwUbNCWVhHXAUFDh1M5lOjkk47FGFzkS75sNm5Yn61ceVTW0zcUcz8MsHOkk6MoUoK41C0hJKSTi4JBIChE0lvfJw6bEBZOx3AQSwuIt018cnjGCz6ji3GIYwjqnPQ8kJ31olMwPsADAe1RUihE8uBglJvKB+Ed64AVChwIoRi0SBJShvk0vwvHz4qMtptBwTpceAEcG0IjU1y7OivZK87GqXSsNdsm4mmkZVVwyGUbop1kCpclPFsf+8CfobgPLkr/U7MonwpSobS0cuYZp+FykyMfyGIuCVTa9UxOv2Gc7cmL3r6eZmdPVXGlRZx27vMQ0lcDMIhrT7/41tvu/txb3/47o/VmGcJUcKuzM2Iw+8qXPue6JggceG9VIq9EoJjpNaZM3IsL/kSeCNwrVuY0HRmLVzKRIr33Khx8zgd9biA4CFUlo8hVhzOrKdWnEEkjvYjqgOHVAN5FeV4Nxkccz4wXgXg+Rx0ty3jTmZ7nqE8eF/dE+8o8c/XiWZveogzTATqevRcOVY1gfNFo30W906tIHxJ5ntY6uE/cvnDklJtajuu/5tW3T9Ee6D7iAjzvCtiMORGUNPLbeLbupokfMRbJY9wYF+0TJi/iAF9eIThhfJBlF73hTdnmrbrFZPBtTM++4mVnrP/YR/7+P/dVs2v5Li2Nrf24wCE4J4TpN1oKQlzwl3/9vxZNzUCVFXbP8vUbHAVw6WVvwxUIXO8JhcuJHH1daC+C6ndDxMSX9wP7/Z0LigyKmHKRdHX+ko45Nw8jPTWaT+RpzppGf0d8OUVwAoZ0BcqoOfDEKEd7kVnogZZ5+Zblf04rmEPOgjOIkLGbxjrn6aN+YGv+yJvIHn9S82wRJYioc3ly4qQeRc4Cni0t6mA+s9hvc3EQY4iQviRYJ/0jyaXaGJX8SK5Dyonxkpny2RZeOH/XxYl9ouIt+niu4rrjJB54fiIHBV8pDbU7SuUhkpPGpa440Mh4xHyiYpCY4GyUcSg0SRh8cyo7PDLcxD5CsVawrfA89EAQJ3B7phvZC6/+xBcvvO17d7ADGIc1BH3DHr92Tfa233izj36r9McbbwMRE3lEBCmSMidhR0GEIkxCi7gxY8BRQSO2FOKgKO8ILtqI2PHVRULE5dj1AUI5jpjGynBJ6Y3gSahNsDCNNVHdBIhbiYgl2sgYybk1zL9Pg4jlC+8gAYncqcxU80QCkSSIId2lv6lledkOHnlNjYGUI5FpFK69CtHgfFcOLsc0bbST9hoH+cV82XcxMPE+bIGFR3aVOhKOEOcohXgHNktUTBZmaldSFPEY73wTAyDPjMcxUJrHtejC7a5n0czgac/6O5AqinN40QwwW9ZBduTzFMpyTYa/JTMzzZf//fv/cTVaV3DPWRnbuZjLvfvd78aEDELx6/LBRVRDIGvoj3C/leKDEYhsPEYIVCa9aYtQIHpCmjzWB0Oi4ihD4rQoJzVRpIhDukhKpLorizdOrgNDTQgNChbpBBf15cZpVYiv3GvXYJ1cKvAqYZjOn3As06BDbMXpg8MP5MSD7bUMg/m99ZqCulfyFI88FfeQRcQWfUCueI70JBKm7ySwg2lMkojUF3JAB5pwL0IHKHa6TGKv18grrODC3JhOqcCDi4r6ObBEP5iQYM7IZ/pok/NU8nBvfn8TkzOZ3JPVTd4RwcLayNDQXuCM8zw3HiSIrb8L1QNyTly1Z8d/+CNXveyBB7f2d/bq5TvtPBliI/WWzduyD15xDcbsceZkSeUNa5UFvsWIDQziJQpV9CIwnzzHhvnXEIugOtPND0WaIk7FiEEFRwEvRGjyyTHUCFue6YRpmoZLCiIanhkMgcAM/SHqkcYync8VdXMJQix9XJ2x9xVeUT/hRt1AbstSiPddnFgdVCQXklNTJ58hkkhXPFOP2PvoJJB3RVkUnN9TY/spiMey0rN1E64jQ9Fu0wXnI05lWWhk869gP8U7yjOdbTfM5Ymng32e6pu+k2U/LgDffM4t7WO34d1/30bMBh2s2bfKhm5CfdHQ0CN0X2uu+bjOW9gHibM8PdUY/sxnPjsKMpSnOb7PMzA0JN+9e3f2F3/51ygo/FCshPFh4sMxbPOBZ9lWFUdpBtI73wFZRAwRxWvxXFwd0gvEsRkiiSHBTAQ9nzDm03CB2IFYACnyJABpUCjiLE9Ssryw56U+RVleRTrnpopzQQQAicGFMSF5vpPD5YQX7UocL+CDtMJIRIy4KSLzrMG9qRLs9N66+c6fpGEbojw1uMbxLEw5ovdy90hPaq+Rn/daOckpjTO908WofzHo5NpozfDs3zj2gXp7tR/sj7l+ID7M9XKtUZQDgZrPeNMX/aj0ZL10l6lFFG/U2JKorT440L+l3MzwoNsKz1cPxJxThf7E1GRDxMFWkw0RNVVBoTrv7sVdBVgTC+4sgPvh+LFeLzLCDsBw/qLiVz3jiAuCqighl89ceSISpIg9iF4T3gUsGxaw5hBtHreAzH1nsFzv4+r6IiERyMH3qZ4is6TlHytG2VwD6UVyyxZBhQdndcmnWFIxjWW4ZtqgDNOQm3ZBDXmeQGbiJEJbZx2MY35AOQnuHBzSWA/hGFLeVF/L8dl3bSyFFO99lkQMdmzRjoBDPaLNefsjLTDmttzNa2/UlyrFsopEBtT4DnLnAJ7KTP3LG9tK+twCKMov6udD1BfDXg8N7qiU6suXLXkIm4UW54yeen7+ONjPdHVUt/36W968Hs3s3vrMBBSAGUB9mjOLp+KKQTfWe+w3kV82tbyW64CQcFTjYooa1gdxaALoolNJwDBk+94huUinpAa3iZ/gvEfbO3elQnHPsfKzaA5nO6rl2WqlPe69mt/0j8+DaglYoFj8QLSwVqNtB68on0Fs1vth9nFfakJgMCTS8mMtkoqWsRlHXBapS+kdSMk0E+M2jn5GZJWyhIMus9mgeQ0O8EWpyj1zL+O9b6+UGpYR5Bc1k2iTOop01DT1mRKqAjn906QPm6wJe53lRK/4AS/1E/RaaUee4R19StvpB+AUfcWniP61n6lX0f/R7wyIlObBjI5W/PhOcF2utbg6tuBdgnyq3GrUFhj80KJTBt+CBeb2Wb55fZKRYiqbnNhbX7tm9bbVx7zgAcbtFuekU5+vIOesNcrZvb/z25d+ampies8XvvzV4/YeGO9QXc5nk8DAswiM9Jp5mUWaTgNwfh9isD57FIdJTV7ERxIFOnN1aYDAx0YLCOEaYmcFan1nU84ZNTMzn0sIXHgfj9zn3MYrSTBvQARM809SiOE8uu838Ir0QQDCw10nL0FFCokKgNuzwfVkivGv1F6fqfV3lCsjE9O13joa6iSaNmZ7ujt3IxDsxLxvvIJAQfuhUipBG8gbnKgJ8nZo8G9EhcUnNDD+b3RXhicmp48iVcXpqnk5EXF/ozGzA0Z5AOmiUSrL6gxpngxpChdAhNmGBnX0VLMUCqtSHZ4HJdHufFePH4Zn+o0+JwMsOPWpO1VSAFh8jAQSesNwAijki+WrSJS+E/RoJclgGXL06F8dEzMKMGx14VWfmc2aM08c+7M/e++Xewfb7yB7i3PmPf18XOKria/78EmLs6ClkzP14f0T49UGRx1IBn4RllTS151XA61FfBl/CoTyIUlLMY/CpUWOfL4gIAdFIK+okB4U4cjEK62DIuTJ0kMeBXLGnYRmyJPC6LSTSI9cU1bR2v/UEQ4BMdNCWpnnDUsXx5lGo22mMVstV8unfPpTn3/T377v/afhWZAVBfhIbXLyH973t19+8ZlnfPPA+P4tzfbSdNvMbBOGntcb6IKfhcNzQ5aon72C65I+jjw8++3v/L1Lxydn2H/lssTM9H/843d979cvecO/jO/fey9ccoZBgNGGulIvBr3UvjqQAIIONJ7pEyFz7yFHcbB33jZaSj7jTM/LlF9CJRIKJpo8QdR2GHUELJ2FFGIGgylSMB2JQ/WKQAFchs7mbE+MBYB0wOru7qoNDVS309yN5NpBP6XuzmG0LgvbA/Ft6GRRfRfYu7u3Wm4b6R1IH/onl/XTpvvJkFKKOcR/kgxFWU+X5kmyRdRT5RFm267JbM/01N7zObZe8ZCo2ayvp/PAi8885RvHrh74Yk82MEZkYt8B7if+6Rxc1DPb3VX5lcnpehBnie06zemJsZXLur5bWdb1IyDY509Xr59YyE+ZoOi3nzL545I51M7Pb31rOb48LmHrYeF7oBg4AzKdbueLNEdMUGrgLNzK+g3rOxD5Qh5URB4dXTa+dGR4K8cv7aVfntHOC2BO93W3HxgeHJzeyYHBThYr1XLlwQc2DYPp7LKSRx0SXOcZtfuIQZqfUUOLycnPqLify2LaJsbrHQ898kiF6VWpjkioqdzSZaMTnf3P3gIG0a++dNnINFvPgKpGNWvbuHFDF1NaibPV7z+XqPDzVakWkkAoYzt39eCGo5PloDljipNPPPFB5uB7+FzPRpJgqpYdOProox+CQzYRl92hU9qydVt122O7dK6ruNgKrR542h5oESendG98YMsKPPj1sdjO6oWElDVXrz7m5qwaSo9nTJwSJMS5Z+3a4++HaaKpQQOKInT8wGTvPT++fyVfRO7ZCq0eeNoeOOKJEwc4i+5cd9cpMNAh1blVvLJUym3TLzz11HUs4nkOyLMKLDzsP/bYY+7rqLTXnckHgZbaBn58730noQdPpwQ9K8itTEdKDxzRxAkxasQ2vH79hmNZKuhh8R/b3KnZRYv6JkdG+neMFAuQzw4bplauOOohvKLPhC0shM96bs8Pf/ijYylzlLKP6L5/dl16ZOU64hEEmbVr64MP9VU6MUpjidGdOCOLh2orl49q/fJMlk+eiDnNJcsGJhYPDUxrfyFXxgFY+/33bejBg1861OWJOVrPrR6Y1wNHOnGW8DJYfeTRxzqwpw1l0Ayc8/jj1kwzadT65bkQZ6OTLVWrVr1gFyd/awOo3XLb9u07ux7a+qhi7ZHe9/PQsHX7ZD1wpCNI6dFt24f2jo934p4ztDiYp86sWbPqB30d2S446TNWBs3r5Eajko2detpJd0CTWNJgkghA9kUObVi/8WTScWZFK7R64Kl74Egnzo7NWx88o1FvcFpQMDZ7aurUU067nutzMuqGDmdRCu075eSTb8L+dtpdITBPzhdtDNy9Yf1piLbDFtYKrR54qh44YolTZRCd0s8RB2cw1ey3gzTsx93j1PGrV2nUvRDWMdPs3rh3aKAfudbdIKiEqpWOe+6+byl7lx0QWqHVA0/ZA0cscdojLGn03Hvv/Sva26qd7ldkS9js8OJFtZXHLNvB6+cy3yw6vL5k2eKdy5YtnWrU6u7x4UCkjrbNW7Z2YYjUWusseql1fdIeOJKJs8SJd72btzzSzS4S+kFDgeYs/nBruKPVk/lCEOes3gJOPPGEydhuhsaWvXNtjz78SMfePRNqbFuh1QNP2QNHMnGWH3547PTHduzsKuW+g9wUeuJJJ+2ApT3CnPE5Eycw6h0d2baTTz3xIQyFMLJlKyh7xTiItvuhbY+syEXrp/w4rRdHdg8cycTZvX7jxosmJqb7nAvqFhbWeeDUk068fSEIcx5a1Y9bvfqWjo7KBHBjvXO63ujZuGnzqaRBZ9QKrR548h44IokTjtWO2d7gurvuPYv9XF36ZWVXF8fZV6dRBm198q561rGNVatWrl+0aBGiLRpbfsxvOzdt2ngC6uBBno/Ib/Cse/MIyvi4/ZyHUrslMOor56kyQfR+to+f13k/bh+3oVkNrYTZi2L2zHvuXT+kp6NyfgjS4sXDs8uXr9THCeeuh7Y2+OkTYAj/yYKwfefVn31bwVF6dXBwELgrZrdvvzsskDB4wPBh+9GcHfQyHE3+eHJydrLJ6YksfBbrqm2Tk0yCu3SwEMYKAXt2Mvxs1Xt6YplHIwn8JsQeXG5b4XDrgUOSOCGeTjStR6PxPB4SGp2cqXVOT03P7mWxH18G/HDeqOM7HGTBlqDDdp1zidl4i2zvRowd2j8+cdq9GzZ3NEjBYdYcmjSdLVl2fE97V/WsXRPZLpxb7cGVzlTdDZ541dH/CV6K9J6lty/sCTjFs14PKwXShAuRGicSsV8T7ye1aqM+011rNAbqtdmuzp6+tYODi7s9Pq9S4Qg/PPncv2HLinXrHnrX1OSBDc1S/QBuxtzUPaH3Q4rpwGseW2RKFUrWQREmEu0NbJhqg4P9+5cvX7y1Ws7WT1WyB+iL3Qsshh9uOH7ItscR+ZAKIGPbeC07beeOHf/+r/7mf19wx4/uGhqfmA4Gw7mgwdV4wAdOcjjtFjD8Q2qcg/ecBiZ6+JUD83FnVN29b7yzgVMt35l+6ZLFs5ywNa3/oHoDC76axKbXHdcoUd9CxB5RIYNMTsfYW0akL72mW+8lXdzFNuvt+Bdyq3UFRz9d09M47COt5VmtjvYS7m7rtYbe77RGwp0Qzv7g7XoUmoX4yRkeOC1PptrGjpn25sqjlkz+7rveecevvuGXr+qsZl8jbzo885D6kq3K/qQeOBSJs298Ovsvr33dJW+/40frlnkkXhvH8KnUST/pM/cnCz5LCJ7QZYD9xDOirE9xhB/on96RLggAIvDczchnXj0C5qGAryTpCdNzIY0JUFZS+IQ1EHH6I4JCkVUhRrwWml+4idCQeXGaFUSNFtf4cAadE6+uUvSXKxEnqjeNgwE0XJum/NrU+973Vzdc/NpX/XlnObuF/C1nW3Mf5PC4OYh5h0h7MHsb/dYN3znvhz9cN1rt6sc3D8uFnKpdgkBjSYTz88o4v8YJZxBlG97K07mVyrlwSGhXJ9J6zJOLSUC6l2xwHmcQAkRinhLz0DjGSyfMHgvhkQcsgJYRSzlUGCfanglKOtxi+k7i86xO6xBX4Bj0H1QlTh+++E4jBteWONqrcFyYXL1axZt6pTMcWTOk0JZ0JERxlqnc2jUdy0ttpD2Vbsrt7Pjwh686dqaRncbrlkEDnXC4hXnD/89/0yCm0gTzzG/dcNNinL7iFJMj7iGeWY6JmKlNyzL9gc0QHYhPelhcDUSW1ZE5V56USjO6kAtZUfeUCK16Xq7VpnU0DXciG5nMDq+T9oLz4lg75FUpTPfN0DUSsg77dMcL/ZgcTkgxcmuKtyb+JRmDQvBHmafLNhGfOGlJV7jtQKOsov5eSYIrTgqgotkU4nxPd38nxepMGEKdLa3f8EDf1i3bjn7BcctVjGk40QqHUQ8cUsRpv1Phvgcf2IydDZwPruReyZVHH9U46yVnbuisVvcyaWPaBnVCFm40gSKRIqGNNryy60Ed7imRQj/6tp4oV8o11LVTKGn2w1dngksB2xkkBGf+oNLwUu8pTlmp2gZ7BBZVKZUh7ApOaTvJ20nSsvSGM2sr0CiX2zkKU3KCrZKeox9w0S0x42MdlmhNmOuWatyTRp/zbl3BD257s9xeQUzl7AMSdXV2tg0vXtr71a9ff+YXv/K1oc5ujsjA+cm+fRPdGzY8sGL1cctbnPMwIsqiKYcccVLx0q5du2JJQhbEMQnZq85/+YH//l//+INIiz+eLWecG5A1aRiqluBEwY344wl2nDgQTZef1ZEUJzGwxWV7SLvO2aTNuRB55p7SDdQZnBNqKLEkA6HFs1fOTswqeR5P1ROW3NA+1mO07DfyJkhzf3kFCVq//FcclGY8eqoehoEuqP2oPRMHer/8ta+8RO6s53wOWeh+cPOWlW0zL29tP6OzDrdwyBHnVC0rT4xPum85RFfYTX3RYO92fM9ezyzxPj5QnFHnh8KpgQj/+ECiIsgUi/uFuCKGSmRJjJ4HsIifF1XcRvriobhS7yKUJyrZYqi6b7KeTa9aufz+jmrlLAVneCwDU7P80JZtLO/iiqwVDrseONSIs3RgYqpz/8QklEnVmekhqM4ctXzZ/ax7PgJOz4C3j+N+P8sv9lTE/lTx1O1pBweIug2WWNKACV1SaeXK5TsXcWbq2J5JRHrYMKx/89atZbaf9TgAPE05P8tuaJW1QD1wqBFnNrl/vGtychrGmZZHOju7m2hEGjwdS5+olJFzSqCFuFhwpxAz83eFCFm8IzrSe81cNORFCV8iJR3Xzt94+cTnlPTpiYw0hifWZ35cIe6WMPtBj5wt5mXnVD3rIFNXsz3rR6G8bOnS4aMGhxaVdu6dhDu3h1Z4+6M7qujDliA8C/9pid0CW+HQ6YFDjThLY7v3rMQyp1oqsYzBNK69Uu288+4NL9o/MfEntYnJ3ehCD6AImgqFaYl1j6xZZb3QMwtR585OMVdD+YPhnArU2WYoaGA6qGPIiWJGkREc9xxAknLWHgocE4H1yKzpMCU820pqKn5Q9nJcGIDU+vrZOWeMU8FQKGFMxOsgFraJorfiFE5WUGaaNY9U8swyTw9sQ3vFQYqlTsTzLvRYZTRICuzdtfoMVka1KgquDtZJOzhwqbNWa+trlqrhTsVJrss2u/YcKB84UOvr68bOoRUOqx445Ihz99jO45sz9a526A5zHyzdsvL//Ju/W8p6yqshD/C4yanws56dqVIU5FfpGhyF6FIDYsIrCWsi8lhXRgi+cOEDQvAieaLOJS5fFjGNkeSInxpiLI2CjH0FYWq6YDITUqx6WNKHLtlISIlFF6pDXaT0KDb94dw/9crUoj0UuJA36YlruDSK2hc9M/XQBGEGi6GOzl7WYflsaIgs48CBA+U9e/b0LxvFkWcrHFY9cKgRZzY5ub+X8zLlTSC/9rLhzhLkrgzgbSBOqvYLSUiB5lwNibikEQ/9NQZC0yKBoIAc6cmf8sgBeTdv+mp+CCXigEK5UE4sZrpoguYUeLrVlPtiXxTvtOgRrnn9wb7jGuuUqWiOq3e1REMH0rl0q5kelWBY8bw+x5oMJ9exbOQ6DeBJw9KLMO2BZr1t//69SAgjQezRoNafw6IH5CqHUsCNyMimrFmbbDZmuPDDssflFG1eXcOUOArCtGGJMCS/RBiQVN5eGVQimjwitL+a0BkQZePZBdEgLIhMDbFH0sd7CMmyhBHPvIuyI733EG1Rl/wqsQex5oTpPVw34MpUo945zETMJJRLEsKcD2rlpGlayaoPp0yXWBdixbTR0dXuPDuHGslbfw6DHjjUOGfzjDNeeOO5577irG9+68ae9mpHNQxXcwJiCimia+IaJnJuKAliQHkioahEMcidTBPvICKCxgBEIBUDy3iDV40FwsSP9L4zMA1N98jUmhRwCHzA850Sq+VYhsTsL9WBdLktre+Ld54GHvWKI8Bdu9T2AO2OHJRgG5jWxiDAqdipbr7DuqHaUWlefNGFB05cu2qbRUeG1p/DpgcSth1CzQHRh3ZPZC+57bbbT9o1tmc5XLOXY2nbm/XZTqS9afB+HHKYQlEEXnNMiRs8sHWbZe+Hsz2ekU4JWOZgNtdOHowHmt31xuwAS6ac5Mwp8qU2lDNNDQoQNlESQThNN4cx/ZN0nTZC7ADhJVQEfKec6IVKHL3QnEERhOZotsG0FBAcGa0sDbuTubaXqphBzNYwFmpCoEyBMdxT/uUkCJ6x+6GG7WW1tBxKj1kfM1oS6Cy+pkIWm+Cpjmp5pqe3e9/RK456bOWKxes7ytn3gaEiuRUOox44FIlTuVOLmC6WHVx8b9Naxys/uYcsp1g2cVdyab75jM5oeS64jEsXCqb+lCKEEc9chelvfijyFXHy2Fi7oSKzWhvxAq0NFDzFVYvX4prKjPSRJj2X8roLT9jsp07lUnBRdimByfSDayjapkWT9k4YKmWTMQBw0wqHTw/8X9aElfPc2rB7AAAAAElFTkSuQmCC;" vertex="1" parent="1">
          <mxGeometry x="30" y="354" width="174.66" height="124" as="geometry" />
        </mxCell>
        <mxCell id="DgLy5RoQ0d0XZZFZ1Y82-4" value="" style="shape=image;verticalLabelPosition=bottom;labelBackgroundColor=default;verticalAlign=top;aspect=fixed;imageAspect=0;image=data:image/png,iVBORw0KGgoAAAANSUhEUgAAAMkAAABcCAYAAADEbZH1AAAAAXNSR0IArs4c6QAAAERlWElmTU0AKgAAAAgAAYdpAAQAAAABAAAAGgAAAAAAA6ABAAMAAAABAAEAAKACAAQAAAABAAAAyaADAAQAAAABAAAAXAAAAAA4e3cGAABAAElEQVR4AeydB4BeVZmwzzfzTctkJr2HmgKhB+kgooIUUQTFgqJgQ1kVFZW1LCrq6rq2XyygYlcUEF3XrlQRBQFBQHpCKIEESM/0me9/nvfcM5kguGvZddf1JHfuveee8563n/eUe79a+ntKjUajVrGhmbOH93/osHjDP38g+bzALWXLeYRn5drzcHVEXq1WK8/I/nv6a3Og/tdG4L+r/coQHq34GkSTx5qU6h0pTabAeA61dMiDZ43Un2qDtdQ8OKgBDdRGGq2Dw8PkUq6pKdVr5PG8qTYYsMgek1pSauUfsBqN1jTS2kgjWMhQoxGGkdrbo+wIwNYP5jZBtaERaTjFmIrRNDAg8/6e/hs5UDzdf2OT//VNoWQqvw4gjt7e1JU60tyhgTRzZChN39DbN23tug0TVj+ytmv16tVTVj3yyKw1a9dMXr1mXVq3Yf3qDes3rtiwft3a9Rs3Dg8ODLYMDI60DQz1tw5wjZMfoeMZHBoc1pZa0OfWkZGRZsxqmPxQ4KboCGqU1TpqtXq9qdbU3NxUb8aiWlqH6/XaQL2lPtjW2j7Y2l4fbmvraBrfOb57fFdnd3dXd/+MqdPvnz598r2TJ09aMWXy5EemTOpeNa6zY21Lc1pTa0krMOZ10IZNRW80jOFozH9P/0Uc+JsxEgyjcyO9QHNf6kA560O11LF+Xd/kpffcM3nJHXfNvW3Jndveddc9Wyx/4IHJq1avmbBxY29nf/9gZ39ffzvKPX54eLgVLaZnqKcId5qaRvTazc11wzF0HQmMaBdYAPecI5YKF09J7aOJPO6bmpswk6aRNIIh8Tf6A+trOxnOSFRTprUmag4O1YboPJrIBdIwRjcAjB6Ma8O4ce093eM7N86YMWPN3NmzVsxfsO2yhQsX3j1v263v3XLujPtbx7c+3JnShko/xNIeqO/vPU7Fkb/ASab+r01Vj4FjTe09w2lPeozdr7/+pi2u+PkV7ddce8OUJUuXzV61ds3Evr6+zqbmlnF69kYDn97SQohVwyCa+FuL+Ke52c5H1adT0BCaUHiMQaMx0X2g5OTJMXTcM7VHjUcjKUbgWePQaISoUUX9yBUOmjxMbFa17/NSPxqLP9qiVgNcKwNyeHBoeKQxNEin1NvdPWHttGlTVsyfv+29u+268+92322nn++4w4L7xne39cOQHsobDtrbDAQ9XPw9/WkcUOT/61JlHK19Kc3o602Lf3Hl1Xv86Ac/e+Ivr7pqwb3LV0wcHBhuTbV6raWlLTVQdjxzDB5U2hpKT/2aRhFKCPUaitflXAyj5Jmvsquqpd7wsAbkcAYbsIcZk+gdKth5+JDhjkSeMFH0aIt+C2PR8QteO9CeMh7i7LAl2sM0hDF6aKTQhTmnwaEBqgwPtbe19MyaNvm+xbvvcv1BT9zvV0/cf+87p07vXsmQ6F7A2tMMUf/vYZlM/iPT5tL9Iyv/dxdHG5B5asVNdj/4wOp5X/vaBXv9+/d/ctjSJffOR2en1ektUjPao48PYwjyaihRIpQKD24PoQKaGF6MKp4K39CYUMahwZFUr9dpLiusz1RZ4UY5roaHMwzKAaep5u0wShuKPDLM2KMpDQwPxH2TcKgzNDRE20PAqIxBHML4NDh7n2xcAaPKpwiFszF6afuZqmatTTzD6MzH5GhjYGhkuH/N7Nkzlz5h98XXH37o03570AF73zqhM91J9dUcWmUvbWQCuPl7+sMcCH7/4SJ//acoq7GQ80Djbln60KKzzjrnaT/48c/2fXjN+vm1ppbp9eZ2wqgcPlUGgA5AGjHRiAaiAqFn5mXPjX5U4REw0f7sxY27LKNReY4eiHMJq4SjoTBC56zCGprpz5sxivY0iLFYp04xYejtNZDB/o2cR9IwBmI+oVbV4Cblz+3mHqKlpQXDzgbT3KRfyG3Z/jBw6uTpBHIqMEpvY6ToFNpwY2hgYKDe3Fi97VZb3HXEEQdffPSzj/rO3NkTV8PIXuoyhAtjyV1ZBe3vp9/nwP94I0FZxHHCyjWDW/3rR8/c68J/+9EJq1ZvWNRcb3ecUcc06BBiPIGqDxPAoFz45JLqKLLxv0bhGeXB86PATEbVCbn0xK2t9dTW1pImdU9IzCKlSRO60/jx41NXd2ca3zU+dTJP29E5LnV0dFCuLaHEgNd0mlNre0dav64nfeTjn07regcZttRjAK6xNJhBnjZ5Qnrj616T2pkH6+lZj3JjNIP9iYmD1N83yPVgYsyUenp60vr169PqtWvShg09ac2aNWnt+g1RbohusgrvsMkWWsUwmClLGiiHLWUD1jjpXTAieqwI0eyfhpnWGxroHZ4xffL9hz7liT89/kUvWL79grl3Mlt2KYQ8gIH+PQwrCvMY5/+RRlIZhprfsn4gbfWlL5+/69nnfOXZD6xYvVet3ja5uam1nWEx8ZDhTTW2GGaKqQmniBE0EYnENCwxkIYxPDRIuUZjXGd7mjVrRtpuwbZpwYIFaeutt06zZkxPU6ZOSt3dGMY4jKC97sIHMOx58tEslzzsc6pzjnmIXcgbotljjn1Z+u0tS+k92lViWnPg3kgTujvS9y88tzFzRluEe8KtOqKAhy1Fcljj7JZnn/cyE7Gxtyc98sjqdP/yB9PSpcvSkiVL0p1Llqbl9y5P6zZuSL19A6mpheFX7m1qzU1tYTB5Fg53AQ72UBzMWzMOGsFJDPU3JnS2bzji8INXvPTFz79m4cK53welK0DiQco52P97ehQHSp/9qOy/3i0GonG0coy74upb9333e//1Gb+58dZ9m+sdc+rtk7oQezNKiTwJnTAIOoM8S4UGO6ZwkqqZXmNosC+1EvdsvcWMxp57LE777rNX2mmnHdLsObPoCQiDcMQqo2cVlQ4llFjD0BhGn3PvmFpdpmicNZrRvspr2py7xZx03Y23p1Z6mhhbYKD2aBvpPZYtuzvNnLldwBR2NMEZHcaQAEoKg+QceHBum9CcJk7oSrNndKWdFm1J3b0CX410zSM96Q6M5brfXJ+uuvq6dOvtd6VVq9c3+jSaZpYu6201wzJBG14SFtb4yz/nM+oY2GDXV8/9bucPfvizCUcf/fT6y156/Prpsyf2w3vXX/4+fQwTxqZKRGOz/nrXVQ/SSrA88YPv/cSR53zlmycSkezU2tY1fqhRR1fxzbjiRrYSFKuBixzCKBwYYzB4y6HBnjR75tT0tEOeko58+qGNXXdbRKgDTVKqZnMeYcDLUgbWlQ3FRyppGI1KrEsngU+cWQqM86P/CM4Sxirv/9ez0yc+/cVUb+1E+ZvDiJmzBW5/+vD7Tm8cc8zTErYJcNrOYIHP+AfQeoXSk3jvkLqctUxbt61Hn83zWL1mMF3969+kH/74Z+lqjGbFg4+AFyjU89iFFoEvgRqKwGFAhJ2DaaC/Z4D1lptf/orjz3nxscf8GxHlSkA6E1Zhyd3/8fQ/oicpxsE8ZfdtNy/b6a3/+O5jrvvt7w5paeveqrWVJWqjBuMU1UQFb6avcJYIo2ihtxhhU8dA38a05Zaz0guPe3njxS98buoaz5hBvaCWuuk5eg3GIy3MdI3oxis1sFfyX1nbUIdyXh48R+hkZdrXcHwWvQV1nNWygbmzZqPcAHT8bHt0T5ZzzGGYpL0FDhqGNGikoYfuZ7FCxpOn5HMvRjRpHStnoORG2VynGM20iS3p8KfulQ4/eK+0bt1w+snPLk4XfOu7jWtvuCkNDPQTkrWDsOMXx2vRTkxbNNXaUr2t3nrv8lW7vuP0D5z+/e//9KA3n3rKOYt32P430Lmeov3QIIX/p1OI46/JAYShn+8gGJ521ufOP+jjZ5511No1fbu3tndPQ5dwhXl2ZzArrlNYEesTXDN2Rej0HG1ttfSi445tvP61r0oTMA7DoaxoKhkKphaTyvoEJSplDxWMZ/7JcwRRMPJiFZ32NIw8/slwwlDIdzA9goY7Lrno0qvTK056A3bUga04Q+bBBAEGfNhT92uc9ckPxli7CTroZwK+PZbGUpLZAbsgXz3I7VtWswibCfo0VGkTgkboWY2m6TDeX/36tnTO57+ULr3il6mfCbUmxy4O9EdGWCdqATdt2bETdVh3HOnfODiuo+WOF73wud886RUnfqd7Ruf93Xkm7P+0scjXv1pC+O0Yx5zlD6ydR+/x5B9ddPlRLW3jt2ZKty18J70HIgz8KBvToi6uNRng0IuMDG5Ie+y2Y+Od7zwtLd5lXpS09OMTlZ0i6hLGo0ptUjJb/P0FRhu3R4ieAEVUT+OafM8j3A8B9tY77k9HP/v41NPnXLQDHHo+jAQrTovmzUkXnPe1xjjmXmOtX4UGyYjiqtir4GF7f24SL5mg8WKT6Zrrb0tnnX1OuuSyX6UBjKWZ6WoXQBsxMxgLpI2RYQb2THzUGkONvp6N63feYf7Fbzn19WceeOjev+3KhvJ/dqzy+Pr050rqD9RX4Xnc1jOYdvjO9356yAfe/7GnL7t/5Q5t7d0TUVuca0ss/g2HN8af4+2IsLIRoFT9vetTW8tI42UnvDCd9uaTUzvDfAGq+rGmgZbofdHWUSyyc95kJPlBFTSF0mbvXypYX8/tWeiehBG35LhTRDLc5qiRPLx6QzriyOfXHl7dQ71NRsIyY5ra3Z6+993zmeFirRM4YchhbMAQcdJfxEi0iLC+DNO/ZjneYX00XfGL69MnPvGZdOVV11COqWSMZYR5EpyAKYgyjHUhdLCvZxhXdfsLjn3uF97whpO/3zal9f7JbHeh3P+56eJKRJuY+l95hcLVmT7pZj9Jd08jzX7ve/710K+ee8ELhoeb5zTVWYxgKwneLUu2xrgD7FQiwycHnIYFfb1rG3NnTU7veddb05GHHZDjeZAOcygaXBERgucaPdksAYaEgRQN5fqxks9LiKOhmorxOHvE2JeehHUYWujta6SjjnlJ7bY778Wgc1jjyEUjacFDf/3Ln0t7Lp7fcKHR9rPBacgZmwD+OH9s03LSgVmFQVnU65Ii6Kroj/kMHtjrxZiJa7HXmDlq//bdH0fPctMtS1L7uK6Y3WtifSdGUc6GMHbxYOKhMdTX8/BO283/0bve+fav7/nEHa8bz5Z+QA2CD9T/30ihW/8dpGoga/vTlmyOPfbmJfe/85hjX/zRz33pm6c0mjq2bWrt7GCK0sGk8TIC0ixUSLt/lNE5foKH3p41jb2esFM6/+tfTM/AQGI9g3ISkRUPVUGZHq14RQ2jTMC1F8iK9+jy5nuYfOZ1nkbNrCq9i88M/VzTa8F6W1ub0vRpU6jslGsum40QrzwwnO69994cgYUqikSGHw09xp+Cg+ex9GgMv2ccAW7UYOIiYwBvKuK5bzCGa7Bu2nj2sw5tXHj+1xuvPfllzPxhOb7NYgfhKv3QEOZhn2xv2FJrHdc97ebb7j7mZSe99h0f+Zdzjnm4J9GhpA7wYpfDqJd5DAr+drIKL/9LKYKZzey3mo68D/zUp859wdHPOf7Ya39z655tHRO6hxGdM7psOawNMaDUken39MJO7TLwSLXhfgxkbXrusw5P5375s2nhvGmjhoEWa02hzF6WlBU8VtYjK3Sleu4zxx9j02aKWBmHCuqhMWTjNfza3Ah9roW6PjOHNZi4BzBb3WM137quTC65e9moIZc6Y9sfe11gmJfpyIhnGnJI6bWqLJ9KgncU9D7jpHEzM0ehOMiPKQWHUSMTxtdHTnvzq4fPO/eLjQP33yMND2yk1iA4s4EGRxX0uv+NVlrHTejsHUh7f/yTn3n3CS8+6a1X/fb+iQBr49iciWT8Lab/UiNZ3WhM7OlpzF3fm/a5+urbjzj2+S97yhn//OF5a9b3tWMgrlQTUqGRKJRCcZbX/U4qid09o0mUgLWP/g3plFe/NH3sI+9MXeNyz6EemELhKRX/Qoty/ugzwEfZqnypV0rZVjkyKk4dG6czQQBeRUlz75DxCgUa2z7X9n1bbb0lYCnDfVMM3MnkrMnftfTu2FnIU5Euzf+H58yLTeULPlbUYIszh36KFiJ5xmIQOMfWFOr4QFazguMqThr2oK8Y2mXHbQa/+PmPD73n3W8bmTa5k7HIehYjBc4eMxxU4E/tRnNrvaNr0rSrrr3pJS878WUf+twX/2034q4JtDmeg003f7u9yibuy/U/I8EkvUobjBtHRD6e7ULjGVMsvvWO++Z9/MyzF7HQtXiANwPZvj6OsQe71hEwf3nDKFqlvuoT+lNn0cvV6mZis+HBnsbb3vza9OpXviixvJEVcIxpO40aKqAqqpimoiujU/ybKtgOUKLYWF2N9quMrGvAHS2wCccAL67ir14whnJxsoHWfevfLk2nvPmf6BMhkenW2HkMMo2RgbTDdls2vvXNz6QOhyuBQsGb+9F2QD03XuH3H4qH4oVYx1gZLwJBLd/xnM+d6eWy2QUci0i9lTCiGLOwi43Xk+ky7rl3ZfM/v//DzT+96HIWbfN2lxH6nSZePBNH0YwNN8P9A43B/puOesahZ55++psumT25g7ef04AH5QpCQcPfwp//UAqPRyTctm6pX2eVfBJDh0VwaO9Vq3sPveLKq/e84Fvfafv5L65q6ukdqHW0d8Fl3+XIg+EcWjnSoAfRY1PR9yeUYt3BO8AaQ72NM04/Lb38hKNjlTrWRVQEylvONQZjbq+zbHJ+VmBlpeGI4iYjeTx6/lB+jI0CTm7LsmPh2pL7eq+8+tZ0/AknEdTwcmQdJQujdfA+kiZ21dOP/v3cxvTJzE9YgT//kTrlNmzt95IQqhBQzc9j6IpungW90ZPAm2AOvsg6Gk8Yhz0PC6oRWrHpC7E01XLYm5q//vXvtXz0zE83rVi5JrV2jOedFcNJZCe/lRXAag1e8+9Zv2rhwq3O+6d3vPlTBx+4+xLgu1L/NzegL0ouzx83wdeiaa1r2bLO4sYklGJLuLFg7drBnR965OHtlyxdOvvW224ff81113f87uZbxj/44MPtLPXWWlpRCtTeOXt3z0a8ixArgUabylHm26mEsjMNOTzUm57zrEMaZ37snawo5nDGQbL1s9z1bIq6MhLqF5PN72xUIZz5lZGoJZFoz2T9sSnrkaVzfim/ealNNSwPBpHhzNHd969JT3/msamnX21yD1coK9SPMLjvT+d+6ZON3XebH4G8tUr9Ap9+M+gZ7REpYRkXP3PKPRraWnqK4Jf8yEfwJKPt7kqNwiO/2WjoFfdVefpr1oVyb0sjGQstClk13X7XA/V/ete/NF92xdW1jnETAOHbKhZjlzNYCcmX+IcGN/bVm4ZveNGLjvnKKaec8tNp3ek+2rRH+ZsxFqPPP5hgqBLqYMtIx8ZVg/Ouv/HmnW+47rcLbrnttgX3LX9g7n3LH5zOBxQmb+jp8zVag+DYqt3SPoErlISBhlvKmxUk8VdWHD2+SqoSEVYpLP9mnaKnoGbzYHrqQU/CWNjtiJVkwWbFLsodMke2MVfM2TIApb4DTnsoey7FXrQlK3WpP5bwqCuO6ooVTBW8DKPKy09+76+26Bb7CeM70wbWcWq1vHgTbQGvb2Ao3X3PsrQYIympGFiBH/djmlGjTeV5jIWkDwzzE7S/FILX9qxkwLwwhtG6Edt656KJqaod/DNLA6FHB2kqM7ZBTNvNnzX41S99rPHBD3+u+exzvtw0MlJPLa3jmOljppEpbmU0JLz6uPbhxsATPv+l82f+8lfXLT71ja/61hFP3ddtLfjTGAcZhv2vTn/QSILhfGZnw1Da4cxPfPkJXzv3/Offd/+KhcwUtvEeBnXZlA6zVMrWtvHOAsUbejFBJePD59hrcEnooTyc9TGpPEPMvoTXNCwJZc7en++KWDJmlVyhNsX2jUq4xAhRX/ihJeaHtqgkwibWRhN0knnZpZRnd3CYo6oQUKsz19QRp2jCZ3GR4UauCgFN0Z5VSZbHrGwp7rs6m9LkKZPSPQ+uZn9YFMhlqOq45c477g78ommrbNLwqC89myfvo3S0u6mHKaWCyXEDf3JB7mKSEPgZPBcx6wWSwXvxFXeKe4RX8B431vDDKy4vEn7xqLU5Db39LS9v7L3n7s1nvPdfmpcsvT+10asMM008wmBQ5+d4ZZjdp82t3Vux6+C4V//D2/d4xhGHfPuNb37VF7edNWkDgNx+7yHwURy5/1+THi2VRyM+g/mNY/7xre993/s/+LH33vfAqj1q9c5ueom2ppbxaHE7w4N2KGfUykKgXTLsZsCK69eLo/yGUXkFWmHlwx7FRS6faWQR5nAmNqZaVnxDr1/9+prY9iFYV7aN+2OrBZoPx8MxKvJylMVHOh8MkOfUGeKPC5Su3jPdTGkW/7g2LyZExcm2K9wyjpkNm/LUJeqoU6pYVdb7YiDWEE8+zhCbGjcZkzzhgBe33HZ7BDeBp8pfwbEdeeC/gCMsDsMb2JCf0azJslEOnEsb4for3RemYC3Kc4tzRI65kZfz0VgrAr089xx55AMeTtm/p5FDDtp95Jtf/8LIQQfsmfp7VuPoKIVBMf/FtD0siAVVwrCWcR0jTe27nn/hD0579jEv/dwnzj7/6JXrhg5Ah3ak7UlU4ss0EZmI3/+alNn5GOhKEMp2wPd/dPlrX/6qNz15pIkRHCFEgwUmVY3nsDAPtJWBoYAcNcXqLfdhBCijiml5lcWypijvdJWJZyXf11ydsWpmz5PbTQ46cN/GTjsuSnPmzkwzp01PU6dO5kWm8QyMeG+CV+uiP1MHARtNZIjxV/U0X9RMVScWed5XqIRD9b4k61mlPC/35fmjz1JWjjPe96l01jnn1lrbJ8Ar6IZ+5vJiHWL7bWakCy/4coMXHjdLYxx65AvLJKdKhOS93Co0yj++mmJ2JL92x2ua5XkBEWezPSo+Rx7yIOly5Eu8z0+ZXE1+GQpLv6Ihl3nG1NQzkJrf94GP1r7ytW+DzDhNSI9ImYyp2DiJoIExo8e7bn0PzNtm9q3PeMYRNx1+2MG3bz9/zsOIbCWd7EMUZfNFfNXFcMwV/P+xYZnUPWaCg5PY7/PcY59/0mt//uubFzXVO4miWiKc8qsjISRVA99I2dBAz/YGI0yTuIjmzBUPsrKEEI1BFAASU3GUhpuZ8PoalP7UFAND/JRb4fmwQTVWYTKerr21rZ7GtbWm9o7WeJXW127bW9u45/A1W16I4FtV+VVbJOLrtua3tramjrb21ELdFqY3W9t5DZd4gsUzX1Liua/wdjC50JxaeHHJvWK+mqvi+DqsBtbsW4DcR88IruKTEc49kR3op876eu0DH/okr/1Ohm4mKuBR6B6r2t3jaumrX/pMY+cd5kQYmCtXys+NbCyHz+SGimp9zyVZxrxQZizHZ5FXlYn2yCrlOYeRQJJlI5/y2XCsmkv6tzwr7QpRccVgxWliRuNNn/j0N2of+X9ngx9vWza38hyg2VAExmy495REfmzwJDob7JvYPa5nwbZb9O62207rFu+807Ktt97q1umzZt46fnzXMkLTZcNtaeUkjKXCuVi/g/84aMPzXyVVbP39tqF17k13rjj58COf++KBoZbZIxiIQo/pV6TjDJLMcVXXs0lFN8l1Dw0mGGjIAxMNM7w3mmWpBCMShnIpPMl1MSsUU0j25eZFSJBh4lrtafzyiCmEQZ5Ga88W56q8oMWjJEGqGXUW2cJ8wdcFzBxbo6waA/ctlVE0MY2rEyjP7SGb2QsTMzy69Sq1UMkhWjOfMFq7dkPtoYcYs8IrHUHwQroZDTXFesn8xjbbzonepQNjtl47xqcRe4RRh7G2YMQMlpkR9NDp+NyzddqoI7vzsxZe9splNHrf67ectFjWPO7Z26CMoJMODv+gRRghKppAsyIngmauZTMPQmRqKGsnbH7gDO9q51348/S+93+EV4wZnyhP+BpGq3yhtvqOADxVRwYZRrJr228NMKD1dSAc1/CECV3DkydNGOHDe0tnTZt529y5M++cNXfO0rlzZm+cNn1Sz6Tx3fe3d7asrLenHvaM2fMoTFVC8Wk0sUWD839pqlzh5m3AMeaW0qyrrrpuPmscXU14WrSDQrkHKfuT5OxYwyh7nOS68+oyRkmpp2FIvkqKhPK14UKmVjimCM/iWgMCNgGGXzupoXDRNqrN5xHpynnWzDe1YJeMd1Dv3D26X52z1BWyRhPtRQsZD9pBAXKbdlMKVYUOs4P9g34FmNRoDIRhM7KpavfHgwpfhRWw7UwpHbuVDVPyBkdxA0+MyomGsEroueGm22q/ufFGWDjMf2gTZwMpVQ+xC7vg67lcj7aF5TuA17nYk8mz4ow0DMv7IprGYYoeEeOih+Q7ZC1haBhfTcNupesLo+LzSXxTI3pf64+jBw3jBEaced+5jd64rcNZ/VY/1ZraOyel6TNnp9t4dbiOM8l8ztt3lJVHM3jyOT1wqteaaYuPd2T6QKt/aLh55SMb0oMr1yY2Wu5EWLEjsub1nKY+ooON7ePa1kyZPPHBWTOmPbTt1luu3nqbrVfP33brtNUWc0emTZ3+SNf4+n0I7t6+vsZDQ21pHRGsX39xl7LG8xdNj2kktOC2t1k3XH/zHFS5vQ6BfHsDuh1KZiEZKvHqdCisLkYjZ4Ik36MouYchcEIReBBIK1AVUqsJv++oT88THhcDRDn9TE+MSyhpObd3BIioZoimPlaKRF0V0vBOxdF44kNx5Edd0QqBGcBxZRnO9g3SEUbJvZG5/m80WZ3D5EkcTShwXFSPIs8/GAZZQDV0JIWUsArffhzhe6vRDiWcMg0F5+tIzS18VyWmtjPuUT93nwHDNiuDCaC27b3GFEZFqX4XZ0g+ya0WY86THz7TSCJphKQKZoRrAS/njZJku6VtFT+MMHChfsgpNABacZz0rMFT2CIGI+hHfPYsN1W1FZPx6AF467WoFWPakC/NOmbDeN0QQCQgjZ0Dwxzr+6avXbdi4R133de47BfX+sEyvqHcNDSxe/zgzFmzBrbdasve7bZbsHrxrjvdNH/hvEunT5l4Q72R7qe+X680bHOtpsLEZv/09HhG4g7vrjuW3tXF9G49dFk9qARXvHMJg9BMmImSg4derRoPbhIIxmEdPR3OIoQgyq6s5xDM3ibnK7giHAVkktYiPCQVMFQqy2qgtp3LKawymeBCHClgYJqij8cO+NTTGBUZKuGfMJQCI1rlYQmXXF2z/eKilLX3MUuFggQdGgCeN3hT4WDbtlFoEkviAzys+IirfMtrOayDhxIGDsAMvliXIDcCGCuDd3YvlgIHaAg4jhi8FyedCKlMtQvH5DOTSmy4Gzwmr+RbTrp0gwRrwTswokWNmDoBm2tgyDucJNk4z8qQhKdTsHUNImRHYWcSq6aBluXJUjEt8DAeUIMyLmriB8Lf2PMW2fMKhaX4KHkO79esH26sWnc3vc+dqfbDn22N4SyeMrn76O0XbX/bE/fd61f7H7DPpQu33/aOSa1pKai4rf/PTtL8ewmhjl/bl573lEOPfdOy5au2S7UOKKXrdCBGyot3Kq4seYxUSSYcryRy7z6mGD9Q3DHd6L3hDsxTkXLKDPJez6Oil2dZebPoFFysUAf8XLcSURijsDaNlzSk3IbwhGN9BVjyLW87ZIUSlzY9F6OwTikXF1UdFTJewtJRIEzGPKGEAI92uIEHGrRmBt9AN5wJsIsSl/aEq5LKaxUptynuxfg34eAz6xW8VPDSywjH/FLGXiBfE/ICOdfLPbxl5WX08hqe8rA+hFvO0Nezh7zTyEuvIj8dqGsk8RyaJaroRjiNUTxzfcsV3IQdHaF8oVxJ1ouEfmCRcRnPMcSS3FjjJkxxJ3YVh8aUSV3rmA198MgjD7v16Yc+9eKpU9ouY2R5L3XWUb/4uQLiP3XehNWY4hAx4Z4VG098yhHHvmb1moFt2WKRB2eV0kpUJkiEwwPEfSE+M0klhtUwPLwQdYpn1vOOMhQIGpNMLYwpXoR5+M0Yp4AiqVlqLi1YJ97XBr7XykhlMYW3CrEWo8j5qDBPKVh58TKWkiZxVgkKLXGOMGmTcgrbsnrZwFWloGHxNRU8gzvgxJCeXO4co3GOj8dRVnyDJ5WlhFMgb1TRq2hBJ2IqTibzPuMQD+KZDqUyyureZ4Efip95Wyli0JPXsOR97FqpemvrKDPbKPw3pApZUi/kltlIuG1PwU3wPfPM6uEE5I/PSOUs7YU39o/BQ8qUc3kmrkEjPM14Zxj5uVzNCRAZH4VOkhLPQ4O9zLCN9Mzfes6K5x57zE3PP/ZZV0ya3HYJQd1S4K6yzB+THs9IJv/29gdedcSzjn9l30DTlsxHQDfKXjmeTQzPTBBIvrJpGFwxWcYWTy3RklcYUgwtlLDybMbblrcLj9CsYrJCMGlImeEVUxwUh4eVW5sUO5fdJCTvrRcK481oynVK2FeyA6cxQjY/hFYKVPfaacCVNuC7pcpUhO0v/cRgGtuxvvj7sTx7CmktSm+d4E8l9HhOXkx8BDzMXXyiTsVz7u0JHzPZG/B8NPHKQZZDzvM6ZEjvEmM4CkZ54BeltIx5YQQVRQXfGFepj5TPzq3CHzj2KhpJ8IWz9l/qFXzyOEbj4LCnyLpNvSzfoJXr0fAYGNqBuAXuVURT5FSMenTqGWH4gUK/XDnC71rssN0261/9ypfe+MxnHvT1cU3pG+CxkTb+071KkWfBv5yb1q9f29bfPxBmoaDtDUTKFIIPIeTqwWDy9YrFiweTeFwYNFoGGFlgGVYwSOGHF96kONYv7RWBCWPsIdO0n82fi7IC1lM6+1PNAD2qrnQU+F5X+h3wxz4b297Y/MAPek0aiG9PBjKVQZvf4mwTz1QGHlbhX/bqhb6Cg+eioLk4nCSvJA1m9HnwPj8ZW6aU9Tw2P3oC+GSe9HguR6kT9/aIPJefBYaKZ8+rHO3pcggGbhXDchSQ65U6UTaIKG1m72obWfZGCMBy/FrRWM5Flp7LdcYZk3FMW8Hw2kMDUd4R2nPNR0Sc+WRE0MpG7E7WuibU71jywKQ3/eO79nnNa99x+q1LHvwYktobOF0cWYBB7eP/ydx41HM2MzatXdfTPjQ0woaewlS8orMZIW8IrOQXXoH6hRDPJRXLt6whzSgxKFIuT8gRYUf+0nrO2+TxZYjGE2eZqRDtpTzCH+tzUUTyQ5jh/QiXYkZHwW5ShgJb3HKt7G2D0eRZNhsdvRjQ7V08E2eOHuqFeZEPnSpuKAtGPipQhaZn5HCSIs7iThJmwKMHtG8ML1tJwPYz68Qjj/2k0kkRP8BXkoN9D5M02a7J+vJXeYwmcHFNB45SGKwNmwIl4HoffMylg35Fh1PxMDDyyHi5tkQ2TYh/SbZvEgcNoyIl6gQv8+Mo486DzXAjt8AuZwuOdQQl3zZt22dBszSpCxx1ruWra1t+uNCpBflq2OPbrkiT/Zi+3zOu9Xs/uGzWi0/4h6O+/e+Xncry/qGUmkEbYxgmBr+fCl2bPaGNpnVr140DAGNQisSMVPGAgUHMjRfFKJUlxCPsc3SgKFNz+KRySfgo8TBZJS2CFk4wHmZEGYGNSUUokSUcGYXKmmRgge11FpyKR5nqiIJVWa9LmYJPwcP7Aq/UGXuO8pWy5HJ5fBHGAa2lvnUKbHmg8GpMYFhHj2x7kqiuOUPndZCsl6WmwY7qx7MYuvBeCrpmvo1zZhrRyQDVOfNmjPGgPCbbKimPPTI/zCt88VxwCXqYUi+pDNrLfW4nO70SqhWjLs/K2TphmJhpySv8iF6p4pV5Hrl81hGdanasGc/gXeUACk1F9nAt6ouPdcIpAMwpd43T4YKL4W2dE2v3rVwz6a3vOONpnzrra/+AoRxMsam0/Zh2EAjx5zGngKnRvKFnI1vf/V6nwsRKQTCQRooSHN+azXSFoqIa5Bew5QLkARZTegjTL7rn7htGVEWDeP4oJHscmWVoF/ApE8yrwEUbhjiV3A1xXKTKamPlXFClobHs8cmWbTnJTJhONx8Kw00oLO2Jew4TqutwDBmeYIUwKmiehVIJNIhG8aVfj2rvQbK3cnBqRJBfLHOqF+WTPh2P8bxI2HZF0ODgQPQa8Zxcz6G0TPtrJdE+5eVJ/hkHYfEeJ+XcBBxT0LbfYPsQ907J2gOoPBkmN2JKfduPmSXgxaJtGBN0eW8b/JMS2/Swij2YvIzemzxhlBQweVpSriPX9O32iUIUBjhX51xHHPM0uPiIZ8aPdulxY0xkU5WBKIuiJ+xEjuZqvuYd+PDMlkQWmiOPEu4IcLfy4AhLJ/W2Ru/QYOeHPnb23mvWrm/6x9Ne1eBzaD+i2CMB7DH+PKaRUK7Wt3FjC06rKYSuklQEwEEaBwmZVxCigs9z6JKJBG+YopfjX0W4dIh/KFOwLNcTjsogKwtz41egMALhWs9UcJDZlivf6M1lLESebVWKan6kipnRBs9N5TrfWjd7Y404HDVnPaTw1J/C8Khc1Y+8Snntz4QJCtCRjUZiXb2XL76H4VmeQCUouvcLFRocoIsZXMuK+MaOjuY+diTwscrGEFwLDYSiTARbb91tIM00wep+LbXz6Up2XPMhjeHWvoHB5o09fZNZEZ/AKrel0SvagwZ/0NQfHcozcLm3KjzzrDFlvkuExgGOtsU/kbBMlLNh/rlom8tX/IWqR/OHapFyOQ3T2+xcHKcFYERRYPtUXpsKbJ9RgntDRftP7sPpB2uirIAsZ91S3we+hlEmmqzrgnFsNmXhlzf97Z7bzvnCubu01OvHv/nUlwvjx1R7hLI2ull6TCOBF80wlRkzamCF6o0N2UX6JXdZlRfCvMyWm3f+Al86QVq9dLU8muQ+vCiPsgLl8CQIC5QqoiFUf0Nt6qsemWm5PT0QiCAgF7NCyRGkvZSKHQoa+gTT7PVEpdqakQfPGlBWBtAIhhqqyJMsjE2KYsgfoWGhjfKxFkJblo11EPLsGS0rVSZ5JB+kP+7xkHiZuM75hW8YCKQwVTm8cNutl734uGN/uuceu97U2Tbuvta2plUAWdfMAsDotlgm+k0Nvvtea/N1Lv+R2G7SVGutYwjT1vcMjP/S17559Ge/8OVn1hodE2OfHbipWEYA8ocInvLKk4PrMFiuuXhU0tGR7wOeO9toKlt5Qsnlr3VJQa5/KocRMuQeagsrok2LhJyoEzjk6tGMujAa2gHHdtUd+W3Z0B+yvQ9eCpueLJ5TPtaVFHoFG9VANtQTRw41yx5lJBQSF8wmV3K6z/niuXtuscWcnucdc/jD7J29nOr+wNFm6feMhEbds+xXMOJNQ5HPTWeGi1SkCuEcorDxEURkpUorE8Nr4r0UkhPIMc0qqtx7xHPOpswwAJJ8Jl168cycfF+eBT6U8ey+rpIf7VfwgDhaNwrwZxPcLHBaINejEkBV0HIqg8xVoOJpGitcy4hk4K1iYMzRPuDCK1M+3zPgRlrKxXvrCU8dGOJ7o3Nmz1j36bM++v5dtpl8Hs//rNVhYNdOeeOJ48//9rcPfPih3gls1GKtDVmIH/+C3yCSjTpIUs3iwt5JQypONHBFdi742uN5XxxNVICOQk+GVMEjP4yx8GbsQ64DTsUHQzXZGLzkWTlbRWfI08izTuSFEWVcxpbNz6yf6YzCj/pT6MrZ6KB8sEdhe1DfYM+kD330UwfuvOMOjyzecatbKbPsUdUrF7h5bhORQefg4FAnyKAhVRdZEe4u2DzoBDE8N8Y6qm6CCUbgh+0W7bI9nC1xTj8IwcvHvFGlONYujEDDgkGGS2FyenrLcRh+aRglbcYo27JNauc2MmNz7yV8AIilgpce26wEXQQ3ioNQqnayIaLoGmxlkLavZy1GE/vG4lluh1+5pr58gBZQsl7k5XsQwYyiBxoc3mn7bVYs2GbyjYD0zb0/N7Hk6wfz2ctGmziZ+OBDAMVQomPwxnFEdQRP4Zy8CZLHlJMf0hgcD4eVlTb4rtx55rW9fQ6HslydAc3yzbKwScvZa5UjZjTJ0wCjp/OaQ16VEEmJjsoEvGJcYZ66EDgLOcvKMMqK6qI/9e058KwMTFzjA4fUxXNYS1UAI1SZPWh88KL7I//v0/v1jqRnUW9CAB7zZ5PWbcqssSG0e3BgoBsk2b4psZnAohihAKOKtHlnpGIV4uzuyrWImfRo5mVYCifnB1E8l5EK0TI+y0yrulXyLBcwKwZoHHlQpxFlXDa1GU1mhmkkKodtAKOkfJ0FXXC0FxFGzMBwDjzAxbJel96l4GLZojTmjT0KLnhqjAM6kI5Cth+cPm3ieqh3BTh3iQWpP/JMezV29c248MKfHvDAg8sngF+NTb/QwANws5cIGSLHcBYVfPE0Fbl6bfmSn6+dbIG3lWJKf9CE4j46Wa/wocCKM0YVdbixjDW9V7dNuZ2MS5lijnKWwakWfEqeRhD1eV6SzwodXusUPGs0RZ+kfTT0FC5UMepkLD++/rNLfr7l93546dOJtXYqMMu5QrPcxtkRY/fa9Ws7YQjhfkakIFUQMRzSa0c45QARhBwbFA8tpFhcpIyzO8YYIu61AgsvS5mIa73HRaiUwoEDmQCE6wCMGvRIQWL0TLYZeODFbEOmBePoiUIBAWFv4XWlkOGlSo9iG0Uw0Z64kpevswfM5hSobIIPXrbL/xCeYxMPe0qF6eVonBy8oCC9hi+ORTHpkMbwqtHc5lor0/60VP/d75bu8abTTnsKUUB3VgQWH5n4cH+T3lMPnFPGaYSfyJOjHpv4ktEZvQcYQILm4A3XeVIkq40GYzQx1gBH6+pYNUodHvXiM0ScKR737g53X2YZ1ygPo42xEYdSLPIJh6XDVvnFeowMI2pBF3SSbttX+cuMnu1Jg/SXyKYYvPqrYqk1jBI7z/7sF3fpH0hPpc3N7GKzG8CZmiFt7rK77+tqZhSpLzKuLqkYi8pZUjEcCSpHeSajikIGU70Pxuay1i0wJZ/WKsbRy3BTPJdwM5xcX/j2bxJa4JsX7Y9xzNEzwYKMV1GC7C3NezTuBYZnk++HRBrlW+51rKtwPEcoxrd0pUtj98fXOHjqW/98WAHPQQdPOZVukPFIP6cBvo7fo5YaJ/65qeU737pwh76enm5+0r1psL+PLRls/OMHhPhBUR0Gus17hfA+G3nmeaG/nEXC69F7FRyaxvK3lIk8aNIQLW8yz2M0UT8/y8/NL2UjOJaF1BWGqchah1LglLPlPMq95WN6mLNjL1Mp47Xlim5lvdukKwEDwykpNI2B/E033T7hRz++5BBi322ANar0m8dKudbk++5du9O11/+uy7hNoYNagVc1DnPICgPQi8ZzFCY8E0Wp4wDWAaE9hjs0M3GZGL2ABDk1GYRr6TYhEzzhfe09Wpnb9t1t84PQKMK9Bmo4Qb717S3seyhI23p6y3MZsICZQw/uBDWKZcAVL/NMm3CUP9ITuVkIuqIgJvOuDm5sCwLGENO8LnwNAkY6Mk5ex2CZc4Hvr/2ylwh+DPLLu+sa69au+b2ZlGjyj/gDbMnsXLBw/vjhwcHewYF143nXoz482JtXIHFydd6Y7OjgZ+rAlmAxi4tK+c1Q6Md3yF8sOPMAiDoo391R0fS8ESZjMI6n0nDmgSxprkICaRyCNnmY+UhjIVf5mwmyvEm/4+DZB9lDZD9cdhIIPXgWSuFNhhl5AqOui68BlzJtjA98UzWiCiIcBR84qKQBy7LonlVpXJqEJcmBI9d+8WdouN76rW/9+8JnHvbkg/nY25eo2mf9zYyEik3MbB346U+ds8/qNRu7iNVQdlgEQnbhzrOLtw0h+uqcCRJpDdrGs/ehnExlWq682yCzHazFy1rWVzqU1xPIPzf/lfqeB4wI6A7jTT9RpQ2FUiMgtC0uqM9Z48Q4TFkDZAKPKKTS+otUGe+Mo9+fsH6uEdWi3WBawMt5OR4mFISBpjGPgtG+dGOdxbvt3Nh++/lp0sTueJOveERp0JHYftAFEnbu+PXGxAmdg08+YJ9HGn18HpTVrD8jidyU4553VPvUydNX3HzzbS39/cMdcCAYNjgy3HTXknvqv/jl1U28aotWgwHKE8oMP03iG8YQGiuu8sdexBAGqaGk3hceW0d6lKvnfE/vCWy5VGVFXZ/ZCmoa/wz9wgmizK4dKQPtJRtpPscYE15FCMtEhDLXF2i4ITOuhWaybugmz+BsyDv0wmfmgUw+i2sl8UAw65CRhoujOARANafrr7+p6+4l9x+ww3ZzzgPE5kYCsCbc2qzLL7vuuPMv/N6W9dZxfEKDfS8g6eBHBsR3skAF3sQRioYndTbDniM8PAhQIpBznSRYAyEO/mKmR6YHwyFpiLAjfj4ab8AHHSZPm5R47xmv54cZiC1h4oae3rR+Q19atXYdv2Tby9oCpPAaqHPlvsCk2mUmGVfyLAQlU+U8jAiGKNQsKqqE1ymKHB4nxCjLM+O9MimAiHf1loonQGjcPnPDYV96/SmvapzymucF6bAlJ+tRVpHYPBOC4EgW52BP1hdfGFnXFj/b9aiGKzD/yZPNTiaemnzwU/bdcPgh+64kAmhTKIjEDzfwc0ep89vfvazr1a97C7/b023fosaJXfCpjAtEUNRz4O8VsqJYlAzEpUGeZ+WrKLRGJHkefOfOs8pnGde1BpG1C5vyzZ+pmDplfPwS8rRp09Kk7gmps5MVBxxKb09//H79yhUPpQcfWuWvCsevc2nzvmIsgnp9CAh560Tzi1+5TXUgoh9xEXHxR2AR9XhDfsyiqcSR8syrl45nVq9Z23LDb2/ebf42c7aAhg3QOxgukhtrTL//vtWvfdNbTt97cGhkXLxbivfOHgRSUeyw9ogzEb+xGG2qlHYIkUCgeN3shV14wxNoZBx1XLg/ACrCfHk2bTlrWtp77z3TAU/cPy1atB2fC5qaOvgd9WKEdhT27r39w/yi7EPxs8zXXMvPMv/q13zD6i6+bwVc37nm6ybDww6OwbfadySDFI7vvWuTCisbBGjLaHVADaiSz/Q0UcZnpDzeqbylyITaWw1Gc6cxH3HE08LB2jsVtsdDAZDs8c2XpopNyIido01893SET+s06Zuyblr+T0ii4mSWP9/oT0v2ek1e3W9dA9lPlKV99t27qbOzs3uAL9MErT5SDiIGvZ4RX9BWcMg82aT4Jd+zcncqFzMK3dAoRsdvzuABTzSctNjY28d78y1ph50WpAMP3C/tv+9eaeF28/kJ7g6DP/QiiyLkwn3MF0DBan7Q5pZb70y/RN6X/+LKdPsdS1nXYEqd8FETDCccNGiMkAGAmAAKWWa8xcIF8JCrZSjvENtzli9uljZ1uAEDW7jxd7dMO/rop/k7LALORsLFOH5n5slve/u7X/LgytWT6y183Bq8JdxkAyoGfjnuc571QcRwin8Ip/LilVLJNEo4XohRC4gOMKBsrQ+n/fZ7Qjr+RcemA5+0L/EkWKA94lg1N3q2HUL/+LXcSQtnpoXzZ6ZnHL5v6ut/dbr5d3ekc7/xnfSjH1+UVj68JrWxLVokxCN6CQzGmRgpiK4aoZXXSu0do/eBW0URMhMzo/J1fiYOMZMScICnAOADrPcRuDAwbuJjOFWCI6E4mXPZQHwkfRqLg838kYzGAEJ9BPL8eEEpXkH5o06MBNIGWl3Fa9azacYf3xoddeIsbJK5gkE6bZSXvW7hwILfzspJD7IKYxENeaC85VulaEYElUGF06zyLedKmpIOmhijWdvQe3jQKGEgTZzUmQ4/7ND0gucfk3bZeSHYVbyAGfLDdlRSk9deajQ0kWZPa0vTp+yYDjpgx3TaqSfwQfKb01e/el766SVX4DiZj2rrJMrRuclTFAmvoGys63qNePlz5lVUicSyzGKogqI4G2vI5wRQljkSgdZ7718+gTL8yEegMzom6briV9cfcdnPfzWj3jqeRqgdjKA6LeQBGC1DQfYYGbFYzaWoMasfRhvCYPTcGk0YGIzlU9kuL4PQIEaxV3odv5D7hN23zq1XTDHkVzyaoEqOQ4+usqiO0Q5ggU0BznQ26Qm7LEi77vzmdMprT05nffqcdN4F30k9eCy/VztoCMdLNzkkK4YA+uIapOVZM9s05bzMqMBbNaecqYRrMlbmG5rkf82EguvT1889L+18xusDf9GTSdHJWj7ucz3rhnDycyn3Byj8wkeWXFX2jz2B5wA438qv0f0Wy1hIM8THqQ2RtKsforx6zVD7xz5xdpdftfSDfoYoTsGWL9fkWF2eKFfQqWgPg4fpOkINS4WKMgrJpDGo9Fw6iUHtEOBA/0Z+IrwjHf3cZ6eTX/3yNGt2dyiqKuzXYwQfvIRhnuMgT7cbTi64YwMYTGZqNPLEfXZMe+/17nTttXekD/+/T6Zf/Oo6jJ5vo/lxcgfsYXYUFSb/HKbGsDXwtXcDXxqLqIjSythDmcoDZa+DJdRr6eGnL/mlPElLfrqvDfDzLrn4ksUUgWiCWYDlDwrkrtRfZVWB5UEkyki1jRUnaMTmmmsoNo057mjh8xX9PevSNnOnprec+rr0rKMODKSFUdGuPciYQEbwMl2mBSMtR0Gn9CMviNBLZEa3UmvW1M70rtNfl45+1tPTGe/5QLr61zek9vETiGOZ7TAUDB2ECTIeDEOorgSNJvtHxWdbwOURf4N5IlH2K2UFV4x611AHBunj0zfO+x4hwVI+dTMrPpwnvuHFwDXGccy65HFSpsWxlqtPUydOaH7Os48amjtNh/Vnp4E1vX33ve+fP7LV0rvvnTfQP1znJ+iaepj0J8avPfTw6qbevqHm1nFMxGAohiURc4Bs7iVVkhw62QdlcWQeSbcbK+15I8QKmSMzY1jKSm/00Nz7C75DhNN777Vbettb35R2X7ydSh4L4lKo6wkHWAnfLzepvwrfEMvsartdXGeZZ74F5ynLcCbtveeCdO5XPpY+e8630sfP/Cxj1o38Hj0/EaGBU4b/mR7wM2kIASvkieOXqMiDUs/+o1LsNcSqNvb1i9JowifzJYrhNJsuZoazMOhVLYcixPdQZGkbjdgV5mptvuxiI8acYY2hVJXHBk+HVPXmkdTHd2OfeuA+6UP/8q40m1+eFRj/5ZP9i2BNNcOtm26+M13/2xvTbXfclVatWpP6+vpgWFPq7u6Oz5su2n5h2nHHHdOWW0yLivySchhLmanafdd56dyvfTa95z0fSl859wLGKiqfkwoKHaLEt8JfLKRH7xOxKJhkRhqeUSNmyrK3HV0PsozBbGXRhifDfGyOV25q111/S7rmupupO4hY7MIhiCSvPMq16wF6Y2DUBvrXtWyx5Zz2uUccGM//zD+N++9ZPvSFr3x9Qq2pY5wOvzm+S2YY5EfrWGRrH6dUEF2Wqe2FnOFLeFIcn64wJlhi/MVz5a8SQbP80tuGHnBfQlbh2F3FrNVwX3rx8cemf3r7WxiDYEJ2WtKPvmhyVHOrTI0fc0o333JbuopvPfPrBGn16rWpt7c/2urky5rTp06LMcseuy9OO++4EOejTnFUyuhECGilV73s2TzfIb31re9JS+5Znto6u1M/4waQzA48FE5jNkuH4DhE3KEFbwk+cS+NwraMrmKQ9aWBAd/KzTtLNRJ/ZmLSxg29kRNCtbIKJHS6WS3MrdaurupteYUBJFSEyuNSLPcqtAQidajo27A6HXv0YenDH3xHapNZ2ag1EBkWPfg99z6Svn7et9JPfnoxvyl4X+rvH0TxHOA7EEdkeiso8ewmSWdCdtpxu3TEYU8lzj2YKVfGIeDVqrsCB758mt773jfx3eBZ6UMf/ST19NpkQjyPOaq/OIO8U9i+xSnl3CvqGU153EC7KomMrpKOyhTrMCE2Ynp6JaNTPpCI4PiqDHyru8WXNFQJpdpqAYoKicjY0KTWaFmzduN0iukknez+c1Jj6rSZG6fPmMP4bAOvrPrT09ArGsbqNMFMMOes5AfY1wAALMxJREFU9GV3tTF6KAbhcHYihiOU8YAmQyyFpU9UBk6EkAnN2fjtWRrDKLfmNdyb3viGk9IprzkxjMPWlInlFTqXtQdWrEvfRN4//PEl/DzektSPd4xVcJRDPNQ9OznPrntM5KPJ8+dtlZ72lIOIFI5IW28xJcIvyVJxpe+AfRalz5z94fT6N56WbuDXhNvauwj71RdmMfyegF6f1l2fKjRqIC5DhJNA9jncRF6utWSZ8YNGI900oWzymAR9B8eMpFwBVTCATE5632IANjyUCwchPveZniYj4yzCUOrbuCE96xmHpA9iIHx9M2RlY/AKIaTa8pXr0kc/dmb6zr//JK1jeldFbmnlq4F83pP4j66XrxPymwsyyyPHjMNpzbredMnlV6VLL/s5Xe0X0ytfekI67gVHISCogWugF17tH05+IT1QVzr93R8EN4UKLI1dZYGeUGzgSqDIxToN9zLRVJgpT8p94YH40Ap4qRqWz4ZWQYNGv40CDZQLPgoTVlMPp8o1gyXHAo1Gb+vDq1bvyNSWb8Ytp03Z86emRiff2p02efrwyod6gC0NmL89Xxh+0JGJo4VMAxfkZOXPnhctAGfzHEuGfoTyWqZ8EVIES2/rFL09+RCTF2983Unpja8/ISI5y0i2Bz/Lktau6699jDHEhd/5PlHCBuwWOTPR0swnENUbEcm8zzL3uqWNUJ2ZiBt/tzTdeNPtMfZ73rHPSie/6mWpi9liidHxOujffrtZ6VOf+kg68eWvTbfesSwMZRi5+6FyFzj9WqU1Cq3W00CKztv7Z55kEWgshJCGIsG4/IfJnvZ2PimIAlnYyllRKmTgXFgYKpC7T1mZU/QselG9EscQg7b99to1/cv73+UAu/LNIEVxXi+qfeXc76fDjnxu+uo3fgAD+fZtx0TmzbF+untYFodfjLRlPVcLU7xcYShYGwrYwkDNL7YvXboinfa296SXvvxUutqHQrhDjFQ1FnXj+OOfyTjoZIhFaYAqvch6VGmKAWTmyAYDM5nuJASIY6jSGgzSCNV0S2k4NKB3jTAjjFCDoJdQcghGAzGFJwZCxMCRk/8YwjHnX7/htzdtS88+l1wd45+T3FTQOr6LL+aSsuxUUfRIR0qQpZ7YG8cCbvAjK0SUhTZNXXzDuJi2N4IwTwdkXozDINBz7MWCRN8gH+RXe1/ykmMbb3jjCSFrjcbDyMMPTH7vB5fUDnv6c9I5Xzgvre8Z5pd8u+hpWT2Fx81O3bP+4U9i6FwcG3rw06ccyJsfDqJ3xomOTysf6Usf/fgX0rOfd2L65bW35Z/kgEBZ7azdtltNJWp5T5rKbJoTB+qj5qzU7Ck0fGnVUNxJIEM8q7keys1QU6qlj/GVS7zyMHTA8dOGru7uwWJpdo85ZQsTuN7cPjxbHU8poxI5zQfvuR8A2Z60xeyp6Z//+XRmN9AZqghcdPmJ49opbzojveUd76VHYPoF4xhG8d3h5POYY+c6v1CjkSowSMXiQzAhNPIRIPpAyDeOL8lPTBdfemV6yYmvTJf93JkOFpaQjEbirMjJJx+XnvucZ4JXb1YQlURaoofIXbz0SPemfEhxTGHsLgEky2tMmw6eO7bwGVIo9T1no4tHm13rLoQjnR78TF7z5VdePXvJvSt3j9+bzL9gyzxBmFoG8J/4W5VvpeOd3LOxp65M9JxF4OKT6c3AxtJUrgv+hq7l2npxoDzl2vIewQ/CLEOt/fZenN7+j28IK5fnckx1MIz65w+cyTsub0XBNzBemBg9SPyGDfhpgBpHMcwiY9e6zFM1eaEsDn8Nu9FEpMEvNt90y93p5a88JZ33rYvoafLygWNXo4/FO89Pb33zGxBdXrh0yCDuIUs8muLMMshyLfRYJl/bbpYnBsRIKMgJI2ECPT04Y/q0VaVSqRDxup4SIF4bsBiPR8NAgAz+QahxHEA6GKu85dTXpHlbzyxhXjSzbmOj9sLjX5Uu+PYP6DXwdv7OCUqjx9BjxYs9KJCBnqngUQRmV28caSoCV9H0VM5q3HP/w+kNp74tXXrFr/FSSIpkN+zQ4L1nvD3tsHBbFH8gDEcDUiDi7Q5eaVO40TrXwbDMq1AY33iLXgJTtoze2HNsvbErqZL1Cl94aonyaPTMeB0/A3UoAp/vbOIL9FPf9rb3vGLFqv7jCLuewMa6bTEYv+AxkaObw8/e+BPQHr7f4+EHOjy87qbe7PVDaffrb7r7yUuX3jOBL+NraIG7vb/vf/OKcPBPfqpMIBrOJ+/k1gnl8iKq+louDAEDKUnTJRt4elnie/gxqbstvfv00xqGP/Jbbigl13NPe+sHap/63FdTS/skjCN+yyQcYvyUHK2E9sD/SBqf1xqHh56He9v04GvbwKbHceYVWI+w5e2tbz8Dfbooxl6xC0N+g8Dzjz0iHX7IU5hlYw6XPHJBCiMQOej0LH3SMpZunbGHaZCxUn9fb7x06L3d/CAye3irLbe8F/YsACBipCOtwog8OAOixqGC0IhqYnKhRusc4Qd3GkN96UlPe1J65jMOjgmhyKcMY/H0ipNel6686no8fzdrGIQzDCZVcLeVy4VYKbdfl8VSZRvV4DG3mxVVXCTQKdZIMNM1kRa2qTyytofw693pS5//dNpx+y0CjILj937Su/7ptHTiK15Hr4brUSAIQga5EltgCs88DdTk2fKy2Ta9L0zNDBfN3IVv8giYD2VDwSrFG+u54OAofJ1N+7jupiuvum77o5913Bv333fPNfO23WbjhIld69tb6ut5ua0PhR9g0mQAbvfX+RkGQjR/3XaQ2SqENII7qI1bv6Fn2p13LtvyvPO+Pbu/f6irDi/E1c2lwV9pCWWEt5pARYdnQ0uIAl+VVjl6nWmQDoBk2vEsMS6sBrxYXDidFx33gsYuO2ReqxG2oA2++z1n1r55wff5nZjJwERWLoTpNoAfPAQ3U8HFVXLD9jwZJErgTlnxE40yXNO59A8468lvMfT3pNPf+d74ZbEDD9htU3ngvunU16dfXHk1v11J+EK4vqmtLGN72Tx4yjKN55oUyq0DdUzS0xMTWaEMrAHW2GjbeGT+dguWxiAqwoyMtD+l5ntmEhNEcg7CKCMTY0AU8d4I4dW4dOobXxdGlJUchlHrXe/619qll13FTx1PDAPRk8SLMDzLg+rixWgTrQ6sYBDoi3swLximgZgvLlUIIL5ZIVXWtvTAg6vS22HcuV8+mx/6CfmHh3vSATukIw8/KF3w3Z+lekfVK2Eotqb3sOsXrtOj9mqhPLQdtNJmURzxEZcKNW/jXo8V270tK37GvzxzmtTysX0D5YtywMcfqsXMFxCjt45rW/7g6jnfOP97s8HFEFVvwRFzaDgcmQ1qwgWafwKvmIdPzcihjs62EoY215krdTwE7yiSQ79cj1pWpCB/aboyCnCJiRnrCJ//Yw3Z8iqvX2YJ3dAMVFrQ22qLmelVrzgh6AynEXVTuuCCi9LX2QnR1t4dBqKxSnEkm+CQL/ZG8iZP59IqbTjrhsqBA+3aezDLU1LGHX3kh1VG8LD0xGldz8b0zne9j6n/z6UZUyfkD2tA4oJ5s9Kzj3lm+twXzkVHs0MNbnIdDJSN/Jdm8SljSEglrGPrFPDXrV+vdZGDulVIbFg0b9sbZkydgh4i4CpXB0RnHJRF1wfwUBJrA91ry/vOgnuY5s+f40RXJDuZSy7+de2rX7uA+LsThqEarIxqqSVpuXLdEMi1ieGhHrq5NezvWgsTe/gJtfWstaxJg/28/k2cGesXSETBmpBxKLBMt4tuIfS69tqb08c+djbtBNpRTuJPOuklafw4ykWXqjH4uyaZ0FBkgHmWLh3Ao+kMJQpom/7Ethd5AJfiOTRUTjnfV0UznzJs27SsvTWeEVXn7f96R42Nh038FmVze+cUJvomtbd2ThnXOm5iZ+u4yV1t4ydPaB83ZUJr+8SJ9dbuSc0t4ye1tEyYyO9WdtVbxnfUW7voXNp9gwXQehDoqrxxabvQU5Gc+TKKS5blWBqzbOQxTCZJq2Epk7Mx9uT7uvzSsEFrpUnw+97716cPf+RMUMBDOZ4IBc08thdQ3fwMkLu9lWEzv/8yPLgB+a5LjYF1yH8dQ1tkT15C/u6y1uEYFoYxcy74uKbX1NyRbr/z7vT+D3xELUXZ1QdwBOUXHnds/BJy2cwobfJA7Su80H0JT5mEw62cbn9/f9qwYcPomCSbGVuQurpbrl+8+y53/eSiK7YFuWajLrs9YBMa6U31lmIRfhclC5qjwY6OlnT8C58fCKiQLAPE1N+HPvQJVr4NrwgVYFLUt6sDTghLeCoWjO/tXZvmbjE9HfzUg9ITdt0lTZk0KdYT7l56T7r88l+wkv6b1MMqVDuzI2wFx5O4B0nGYGQQV2MQKE5sc01f+er5rKMclvbYdauME6guIgTbZ+8npJ9delVsXVH20lcMJeJRaSIVRc5fhlEx9MCgqiRIox5POjR6/psURBZiVgzzMixn62wvH5YPoUUPZqydwzm0Sx5hQc7u5MY82QOBAdURl0rAFQION8jaFd0G3RLVSquu79iW3rjg5BmNAz/pqEoKh7LCD5ihjCIHHpRTXn7TwGd5AU5vP4hsuhp6asNZU8iB80c++oka74vHADsjqvJZCGyBIQ5+PUblH+rfgPfvYp1jn7TXnnuk2bNnBq9WrHgoXXX1tenSy69MD65YzQTP+JCrr1yoe6agFW/Ez8zFTNm3mVo+6plH8vuae8bMmqv22y2YC9zF6WeXXMlsqCyl94KZ0TvCF+Uk3iF/LhwjyHENmy86sVOhl0U4GV794TzA3e1HH/WMq3/804vnslOFVTFfTc3WGQLVPKsUcqQBw4UhYsQ9994l7bBo6xwCk0+btZ/+5PL0u1vuAEFe9pEgyuapUL2uSoByM9AfYEaspbWRTn39q9OrX32iK7V4mMx4RTk8vG866eXPYzX+rvSuM96ffnXNDWlc5xRmNuwJnEbM4wuFIg9VrvUbetOnz/ps+uwn3svzjLSn5xxzVLr4sl8iMMcmKoIeKheQWSqDKRRGYXJr9//o5HMNptSR2VkJrQzW3KOmAoqqUV5BcO9hPbv48LQKRwUXUa1coxMMp1JP4ZJshf8Il3+qtjTTTlCggVnelPHSsHN7BbdRWqMJ43JlakPWgu/C8JZ76zgxW4GMCQALDiLv/Q7eL82Y3kmZXE/0br7lnvTjn1wcSu2mQ/Un9MYizgRaNnSIQepQbzruuUeyafGUNGUKAT31lZ3wROX5xx6SVjzUnz7KgvDXvnkhvGlnezMPGbgLMwxd/FB2hMmiYS19+uzPs8N4z4y7rCE9/cjD0sWX/Dzf8Ndf7XJq2iSPIgFHmIOMQ3we7Ifo3oFB10na4ClcIVFI3NY+9Sn7/3irLWZvYLso3UiWTInPi8CCcIBYRduz63zG4YdmxQYatWry5PwLvg3yhDW0qtWGAO01qBfxJ97EOfYJXa3pK1/8dHrT609MEzEQ+zjjVANCzdjVevdo7bnbvHTheZ9LzzvmSObB17NI6VPDdXkvdxWwSoN46GUuvewXCO7u0DuKiFc6YP+907QpfAxDJCvm6FlcFPNwpRkocR5VOAVreTlEKvnlHMzW6FVa1RWHIB4agG2EGnKOuvE8rweEo6jaDqy5jjERfUZsHZG/8op8/2kccQDRPGkvNOSzvRrNe4BK6IB4V+XEM/oMcFDJco8nVqECXgAXPEMZNxmXs1nCtKdV1szQ4LH3DwcqHJNO/hvnXVjzlYbMQRGg9yM/K7QziRghH4Vp4fjg+96a/vX9p6bpk1n3oknlbYcjJnCQcQR78qa3pQ9+4I2sfbwTUAzAY8VcnmSllseasZMCbTjiq665Nl13/e/CyABFuZT232+vNHmKC+dgRTlIwTfaU2THpAzCUdGySw955i8bIvyy+xedbCRcmIb4cdpfvfzEF1/HJjXe/YRgasXAlutALurkwvkvA/bO9rTHnruJVLwlK5bL7luZfn3N9aGsKpN1TZIVCGMgTsk2EZN+8uMfTgfsvWMYgmqv9+KsuMYcIT4snS79I+9M+++9Oz/q2pMNpYQI1LUdt4LLuA09fekHP/lZAFFQCmFCdxNh1/zovUSpTCtTNZK4liMMA1xKKvm2EdN3DKQKXZ49VBBrlPwYRFseuCUVOGPzfCafxz4rSiwT4nngpnEotaz8XqtYBVbBo5x9Xq49h8OrQi3vrVeMX0MYm+xVinMLXHAW6gQvxTWesPsuUU9DVPE2bGykiy++At47FsHNANfJGdvQOMMHY1wNepC3v+W16QXPeVp2gtQXf3sRKimQMGp1SMMRp2OffUg6453/iAIz2Q0Me391yCPjR7brbfQyl7KF3tk1k3C3mDOR1fj5TElj3KSgF5xcUih8GZsfuCpFKnd3jfc7aL7GAOQqccOvBKd7nv+8Y76/w6IF9w0O8K4nIVLexyMziSvRNrKCaGNZEZ47d3bacsu50hWTEToiY8o16zeAjIO3zDQrukVgSKUmnurtW5de8uLnpycdkBmuo0RFpTiIKXiFAoRACc/I1COd8e53ML3IO8kuElbhluWCdeHe8Ays5l5y6RW87wHD7GRkHrjv+YTdYHg/8SxrB3rtKJ9bU4mkU6Z4BCPzo/g7xmopoBRzryGIbMa5sHj4tpyeKg4w1+vJi6I00UvooyIUlexKadEMTU3cYiyk4oCTx+Ol6A0tI/4cGfuqLbkGjHB29kwyoUo6LflmfXuv0kOZZ/mwAKwgFuWYiWFGqjF75nRCrWmjPbRT+b+54eba8gceCqjWFYcMg714KKgzWSNEDQfuv3t66QnPCtaJZTkKPqVeViTQthcD/nHPOyI944gnp8FeBvTondFI9NFGJmp0xcerrv41z6GerBJm77zzjiFjYdtryN14pcOZR66NQuxFlL18V6fr6OesGZMfBK/4iKa6MJoANMD2qR+9/W1vvry1eeQRRldwCNsEsczA0aJBoMTPnTMrdY7LW1oq3qTfXH998FdGlTl4a/KcP/lttRnTpqSTXnkCwievkn/uaSy3yVC8pnHzlCYvFLNXZ8EMQrynMQuSF8nKTIyCDe8S2DWlu5YsS/ctfxiFDRByNm23/YJMS3gk2qraFlePRyfbDxwwijhXBUr58rycfeyzEB7XY41w7HXUjzAve1yfYS+wR1o5cCpjvXtpu7Qb4WWFbwntbBsonoBRGai8RBGk07qW8Ag+cV/O1imwS1vmea2JKzc+NJFmTJuaOtvJAb/iX6679vqGC3DOOBV4/jhswHOndCheU3r5y47PPcSYtmxjE165PZU81smA4cwnradXvuJE1tmIEoBV1qWsV3rg1tb2tGTJ3enBBx/heXYT1p0/b5uIInRwha7iWG3bPHE2MTmFEgynaZMnDW0/f+FSsn7fSCxIb7LsSU98wpff8fZTL6s3Dz+CC2jwWluwWEaJmICz96qlmTNnynkbID+suLFs2b3RpcVLT3rUeJ6FZ4jj4G8fXtudOX1CiNR3NkA1s5UGRBpogs0pYGflkX/c8m7KkeGR7D9UAuuMHT9ZaN3GnnTvfcvDMRX/OWfWTL7C4ogHk6SO3kPMPDJNuaSe3SRxJeQJoZDj2SOec869Q8bB/OyVhJnhh/eGd2XvlG2VHssQxsM6sTgLWH+FOGqLH5fZP+jtecbhU6i2eW6AhkF42Pcoo0gFf5D3B0CdJs8xeO5hwgFTxvfGC/5Zriqe4QnrYLhj8Sz0OuExecqkcNylrGxYdu+9lM78onAYhcqmkspT+bz1Fsw27bF7KQUuFX8FYO1yLxXSIOEcXMeu4l132y7N23qbUaPQUJxxU+8KvRv7etMDK1bGrWAFOWvWjIBd4MvXQo9jvVgwpqDPh3AC6PowY66728c13QCg+BCE8tosUXiQjYk3HP/CYz/zhteddF57y/Ctw0MbNtb4WnMT0uPFNpp3SlBPxf6JiRMDGRuGFxDBDMDatfE8BEp+8aoutFkPNNPixTtX6yMSA6Coj+ghbBNBm6EWN7KE3qSxaOGCNHkyK7qEAXoq6xQv5uKXiXf10/IHH4hr/zBL1LBO/shEpUzkhyCrLiXg6AxgoNOWhaGj3iaYn2Ntn2W42TN7XegouEQB/pT63m+6Fod82M3bk+awyK4/C7+0IV6V3lCHp9x7FPyEG2XQfrEqbfhcnlvHvJKf60fJgGH9sanQYV7ABR/zxjH9KKvMC6fJacXKlVCB/JF9qZfPLEKixH4EYvtFCxOfBIi6gWDVWPSawiKFM+FsnrCJEPBV4qiDTGmHHbdnywjxM0mdso2SsMXYTrJixYooS348bafR6DmcmAFIaS/wp1A80zD5LhnrNo3Z0yetetmJx3+VTut2Hsdg5veMxEYBsH48g/hXn3zCWZ8/55NnHfyUfS5pavTdN9S/rje/P4D6VBiOY7Sv4fsKr/TY5bKsD3FQhVTzy0mwsCIIVYZAvjoxlXcDMm9skrKheC6FRUI98wV/c12ZoqAy9Z3dLWnSpAmVUlXeSyk5kuTIoRfb9nl5S+O1njjpUVvZ4pGVk3wa1AN7eO2A0/Ysq1GLjgrr4fpCLJ+FS8/4SYseKb5kyNl1BWFnYVgGxeSvPZMD+bK6G22Ik8/x3HHGUxs6xi/KOtDV2JF+TDAYhgU4/gSN8IJeeTQ+V0uAZS8QYwjqllCkDHZdswil0AkIF3yFHxMBWmAIMi8a2gtKV9AGsoEvdLcxOJceaxvGeu1LSj4vhzhJk7Ad+3lMI7yGyCrlsoGrgrEu+FrfZHQQf32NMvrOjNoUerHs0OCl/IhJAhQduUVPzJpcf4+6F+y2OV5OdTav6F8+Kz49dDhv2lUyDC3Qx8H1r3/dK6/cdv7M8yjhr/UGQmrLYyYK+KPxN4H4Lfvv8ckLf3DRpc/4/Be/dtw11924J18GbKUBeMsPNwLcbtVuWSG0gHB4LBDRfznlZfeQm+OeW98G1Js7Ze1Mrs8k2MU74cotlVTltrzXMjDOwBRzn7W1uYKPqO2+VGNghEe2UrAow4lbckw857NPw9hu9saIJ/CMl42AadAnY02jbYYiSYctl3EWguFaoeUv5ud63mfYPhMP8fc6hxRCFq5CjTflICSTTH1w1kjV14gpq7Lluc0L28XMEpdrxsXwbMskn6RZfuSU8ba+uGjYOqX8Hk3GK2jV+CjkyTbDZqAReICyTUyD5wFHOfOsJNsMh8N6g/zz3uTZQxkppjprY6VakUEYquUBUeB55ntbogB/6Y2sVvHWZ+KhnomnsH1HyJR1ATlahqO3p4+SfDAGGBqfDsFtOS4YmtOg9xgZ7KOtoYGXnfii21/8oqPO5C3EW4VV0uMaSSkAcGTQWHHwkQd982mHHHTxnXcseyKLRvv96Mc/3v3WW343fcO6h1txniMYg5qK8jN71tU5zmhWNYz57LD47BHlhQq9Zs2aEJa3sa8G7YEpioD83JVC/2jKROZbhaQXW7VmNbO9CkSiVTogMwXsrlcN1qm+iXzTqaiKbbPdQM/nsggDZVWMp9TTG6k0vKiDrLNSi0dmNZyl0azsMjl7UrFxOKBHF5QfXYsqMj/ElAkIwzAPIdsWuTHbhlsIo4z9TRiHT6Ac+JSwkISSmDsJIecb8BAd/mkEFrXzkj8eUV4uWhekCgwbzk/LSZqzMvnMclYPRwVRmoBIiLPtDLMtvhqrWNRfShmkV9U+O3B4DvJMbNhVpbIDitBOBwk8V9Llmxy3naLwQWGFWEDwD02HvCNfXQAiuN533/KYMQ2arMhzX4eOsmHAw5XjtD5tAGf9+vUR2TQ3MwbXqNAPV+rVkVqD7ba1wY07Ltp2xZve+JpfPvWp+30D7Jki2zz9h0ZicZAwyF8NcmsW77TVikXzT7zodf9w4iIGxTujGZPgCd+RSv3g4DrQ/rNmzjzgNzfezi8OqPSSAsIwSqV1x7Bbn6//7c1Q/kzEIwNknYzjj8RxEQL3nhRM8QLKtUTFt+zu5cxkrETQbMM2DAJ+OG44E+3QjbqC6uybVdCrPjrV3qVL7lrz8CMPDHR0TOBro/0O6qkNP9EHl5n4eNUInhB7ASrWgtqChV2zaJjH7gFyQEVrZkuZX1ZAifmGKau5dKhCoo6ezVuwDdX30mlUiZEAa7EdR7pdBY5tH1o+c9zhPkUKNjgu0t1YTZ5wYKuiBNTR4DRYjPFoYu6F5GHpxqQeq1NpSrI60GmbYoYtemgEGNGqpOXGcBY8BxjhH7MCQ81MuTevXrXSiisAwK9CpQHsZ9HUKVPm0yu6tZwE/hWsHOrACuR+w4038/0tyGNXthM1myXpQ7JjkRQF5SqrjDg29DSAcQsshzEk6bGM94anelrfZp02fYrsXM2l6xx969aspqPoYUNDBGX4jbZGZ2trY9YWs4YW77bTqqOPevqt++2zy1UsHV6DpS8BByOozdJ/ykhKDQBI3VoPELxnu3mzL+J6lP3gOwklfmTRou13/8lFv+gOglRe9CZmIqytJfF24a9+eU1as3qQN8nyHiyBZMK5IIXXzZfxV29kSFQY991//0Hq46X/dvfl2FPBSJnst4NxoDQz0pgxZSILSrN8Y3ct+wBuAsZ18+Zt8aP3nv62+5rqrX2Mn2Boz3BvbxOveajVvSPDzX19KIayyclf0iOcfvxf1LPdRtNQR72FmRH2vFG3baC/o6fjUZpQwclQN/s7JU3d7H705nGyR5+PXmwq2NG2vjawsam1c2Soqd+PDZAGBvK5pZ6/AuJ9ayumPkYdBr0viZdampoGhjY0NY/w64ttgGofrg13tLfUJi+at2By8/AQEzn1FXxjehJ8f9b8edtOxjTmYBxhczzTf8CY8COpmS0Ty5c/mH74o5+lY485mGeap/0rRTgwBwXOkUM/FQE14aGeQgNK6Qc//Gl6YPlKtr77wqD48Qw49m7K3S1SE3jTb4s5sx9Gkt/g6SX4s7v33X/vvs9/6iP1obbWOsbBa90TRrbaepvBWZO7BvgUAAsvCWpjqteYbBMPbKRKf5SRlEqeASgZMY9c8jEcf2vjyj332O0O+LsYRcfZsboJP2SL8X5sA4CoB/gi41f40Ngpr3mhtIZXEE4mOMea3ustSoqwhLIPLO+pffP8f+M3A31dFfiODnDeDsjcTCmH5eF2C+cNT5/WtZTrs+tNzd+l8Kod52+9ccc3vMKeUcCbgFfXj8coyv7BBJ7KO9KfCqPU/0ucx+Lzp8KTjgqOtMHROHL0iIPnvpOxwrzFu+/8pLb25un0oswauw0+e/hgKcK1h3I1/uzPfCEd+rSD08SuiARhPuXUDPSBHI7Q0hwQcKdDVFArHnIv3jn0apauBtzkmzQWp8yFMW/+1n0zZ0w5r9GSPsOjZRwD2287p8ExKhvrkIrsjWPH6kB++qi/Ev6XTIMs99y9x+67/HL2zCkDdoPyOayeVkZ7Fgj163tnn/2ldO1vlji3UHEKSrnWGCIIkoVYmIeUaJV+YONtbz8jrXyI7dUy1meWJ8kogyO2VBBKDTQOPeypD8PDi4hgvs9ju1J/OLKPw5eX9BzGJuX4TzEsGnqMP8CJ+p4f4/F/e9ZYfP7Ua5Gu6sojecbP19Z6OeSh06N81SHdtOtuO906Z+a0Dco7+/1qMgADMYrQMfr+x623LUvvOP19Ea46EDcQLcwCHuAMrxCIXTnLxpbh88/ptNP+Kd16+xLC5zydG4sIPMOA4zBq4OcmGgc/5UnLibAvJWy6D3huKSly9jz2KLIvzUvq46a/qJGAiI2u7xrfdPkhBx+0hu/zwtzKP1QRjA5XpvkRgI28tnjya97AW4u/Y5dnNu9RTKknMONRvYmG1IvNnfyat6WfXHR5amPLvD/lJTwHiM6sRPMMn/xtjqmTJw0ccvCT78BIvkf1peCm5/t7+gtyQMXTKfKxxmuPOPSQFcx0+rpITLvmAT9CZHwSmwoxiHHdk9IFF34Pmf8T7733Rlc0tktnfoI5EDbjs1vK4O//t3f2sVHXdxz/XR/u+vxkS0hFnpWVOkDBrejGEtiQOssWLGSW1smYUxAUJo4lSw3JAnGZDOckmk1nNsYctimthbCCAiJsU0GNZQSEAQUnhUJ7XB+u9/C72+v9/fUWtmV/zPQKLPdN7n59+N33vr/P5/t5fvj+7WS7tbDmu9aOXXutrOw8CIjJIQzjzWJj8f2GiOUzGlZYELrn3jm76SL1Zx5RatSgjUElEq2Khfvh7y1VVQv2pnuSUfLVExb2z0PrAY08MHqmpEm2aRLwwOJHrbVPv2i1fdptojfyjgtI5sUK+/n4tp1/sWbfs9DavmOflZZZYGpW5KuXdIHq9M780AFacTjYE509a8aFG4vz9rGWD1iTE4EydyXeBhkCl0HXwfsqv3EsLS3FLxe8jPAYl9dVbm2MCVP7npFdYDVte9Oq+OZC69nnNtECqJ0uKhgGxLZVbeulH8LBD09YT/5wnVUxt4o8wMNWZla+qU+S00QeTKnVIhDHe0YsJtQfmXP3zIsjhhc2UwTi5X/aaIM2+LrBHwAmBVlcvWT5U7XbWvaN9LhzMGhxGxkpIm7A12pDIyNkj+CKs/p6fRTzZFq3T51sTbq1lEAhNiES4sTJU653SYM+9vFp1Co3LmYV4SCWxbKAloDlGDVK7SCRLuyPupPD3Xt2vb579E15G7FQ9nOPSS8Y/CdNzCgIgO8bkQg1y1atfbChced4jycX25mdaji9gnkOnKQ0K7VFLYeUnKoTBjIz3HT3HGYi+WKK6ubYceESzga8k1S0yitqeKu+x5kGLURqNqqFGCJN8bLcUe/rza/9ftT44qdIjO+6LohEzwLghh0+3v7zufPuLw+EU+n8Qf5QqptaExl15O7jlUASc5/h/gPaKAU06kaO79uJxmKSK/UdY1yqFZEPAOXYKUbNGgAacIRgCGIRcvL3dIRXr3r0yPdXLHqZLIg6AKZszsSIIwTAtQfTYdqZtkuPzJ1XXe7rtgtcZICTwo5FKi7Ii6F3JUYaxia3Myq4+kzbHI8nFUqMz7nPsUOd+EwsOCvHj1zSzp4Rc6VeIhrw+wIrl3+ndfXqpU/g9zrA3AMkaaYalDdnVYMy1X9M0jnh5uG7Hlv28Hl/r5fnVxZp0DADR6ck3qAghZ5aBhw7XZUk6mqfSqvK9KwbrMycIisZD1ZSChwFInPhc5RxJ0NeA+QI6hAVxgoA6+vtsqZMLrm4bNmiHfxbL/nzEyPOEGBjBgiStI4cdUPDqpVLW0PBnqDqhbAwjNNGfcyMasQ6HEJACwCPbH+YIpufmngXrYJ0IoCLKkTVyJtO8TrXwXBA5379rKRZERkaNnwxEJ1+x5SOFSuXNkAg78SDQAS6uBEJC5ZR1/LIw9/6zdfLZ7b6e7r66QglTgJlODqrHtZwBhai/q3SN3X+oLwe8Bt0WRGBKvkgCFhHDNBBECCXr7Jqoxjp5JNBIN5oUWFu+4YNP6knQbMOKXKW+Q1R6kETI+4QkLH87sKqilcfqK48BL79EbSCqGGMYBCcG3uFqzJvTVYY+JVnkl0BnlGhhW5cyLJfJDVEFIYx8rs53Y7tKsZIWDDa7/fZ40YNb/vZ+rX1aW6rge+Wty0uQ2w8boMHSsIYGNXti1Q89L3llW+9/d7nMcJywjbhPnJC5BI2h1ti2JnoLOASITiRWuAyIKYlbQQcnLVmrSIuAZwBlNUBvCean5vW8cpLG7eVlZX8Gq72IfdcESqL2yMmJr4CAuAoGbWrGL41+/En1lTXb9k2zZ2Ry6lpbqMD0QzQ2CnCsZMV4WhG6GQG1w5eoQ2KfDX0d4YTTmQGaSBJ0kjsXnvc6OIzG3/xdPOkiaNf4e4jfPb6JBI9oUZnNJob9Npf+VHtjxdvbfzjjKTUjBz6wbqUPUrqiNn5IgIZ4KKDmG/d/E0T8HeT8Qq4BqQJcStVFoZ1im1kYsmY3g3r122aPHH8C1lu6zgA+5cgp6ZIjKGDAHjL8gWsu5555sUf/PLlzXdwVEpmCr1FUJQlOdj7DlGYFUm7AK8aMvAVjDQZGkpe0Z6QtgCujQNTEijUGy0rm9T+03VrGseOKXoJAmkF34Zjmkni8BZXSRJbLw/rumhZWakha0Jz0+57n3v+V+VHj568JSOb1u+c96T7sDPgMo70ELDEVQaGYScy9lWUJEMfMNMMoi9MQ8PLlfMqjtbWrtqS7k7anptm/T1BIDGwXb2r8M23Z3BgwNQ39h6qXP/sC18l7+omjycdo0NEglcSr43RFGCAUoplZ0rFcrpz8nHUbxEJmS4oHRGYYTf19el9Nfffd3zF44ubaK2wFQI5Br7j7rn8504cCpDy0B6/3yr0Ba0Jv91cX15X1/S1trPnx5CykCUiUf8po4LBcWLmhIjFAFUKK9YJrkOEje0r++JtHz+5Yslbk24f9yb08z6ZDnL9ya+cGNcIBMB3enfAGkmB6Kzfvdo0Z8trDVNPnzlbxNan063b9AGQ5JAapX4IZhipAv7Bt5xdxNkiOZkp/i/d9YWLjy176J2SkqLtbNoD2JxiiEMS/xpSIonhbs+eaMqw8b6cy177zoat25fU1zdODwTDuUgLY3aIgxgugumivqyqnxCxQCDR0ls/17XowW/vn3LbxE2ZacG3vZ9kdU2bFj99NLbmxPWzQQA8uvbuPc0Z1J6ynp7e6v1/em9Ww9bGok7vZZNabTQEI3iQJjjxnRQmsy1RGkLBwsK8rpqqBa0TS8a2hPt7Gu2C0Ln506crLcZoGJ9tVf/bp64KkcSWWFo6352Sl3FzV3dfLem4MwFSfsi2gRMyGDGrIWKhbgGTJBQhl7UnPTP1fY4/3mwH7eYTH9Q5LTpiEyau1ywExk6dn4unawbtWGtCdvjLfr8/n2IU7Hd30oB6TRQghZKcSJimc0GyNLqQI0cx9t9w2YGd4bTgifMf7ZQzZsiIIwZMJ+AQ+22Irx0dR+zU6C09tqe/E1nBAbIIkmRXEBrpQ3T0Us/AK3oZolGiItm8kf2BQH8Dh4buaZuQcsE6cmTIATbEIPq/+bqucwtCkcLTHeH+wMlAf+gcpRM+qjO96Aydqa7kC6RtfYpsOI5QOYiq1YK35g9oz5uibutAgcvzyanDzXG3Pf4bsK+qJIktqnhqRYarN2VEsieZI5btEbQizo+47DSTDkyhFMC7RKJnW2qyfcqV6mk/eaiUgpo1jv8wNkniel1AQNqD1+7MDoXdeRSmZSWR2ptMhJEjHW263fZxMocS+PrstID//Ed34lG++ni+JojkCuyynjW8/vpv6ypFYqyR1EhIjiuAlfhxaCDwD8zmfHqy9Pu0AAAAAElFTkSuQmCC;" vertex="1" parent="1">
          <mxGeometry x="608" y="390" width="194.44" height="89" as="geometry" />
        </mxCell>
        <mxCell id="DgLy5RoQ0d0XZZFZ1Y82-5" value="" style="shape=image;verticalLabelPosition=bottom;labelBackgroundColor=default;verticalAlign=top;aspect=fixed;imageAspect=0;image=data:image/png,iVBORw0KGgoAAAANSUhEUgAAAE8AAACWCAYAAACfBdVhAAAAAXNSR0IArs4c6QAAAERlWElmTU0AKgAAAAgAAYdpAAQAAAABAAAAGgAAAAAAA6ABAAMAAAABAAEAAKACAAQAAAABAAAAT6ADAAQAAAABAAAAlgAAAACGZvucAAA+V0lEQVR4Ae2dCZRmVXXvzzfWV1Vd1QPdTUN3Myi2oREwoggRJ0AlKIpTSIwZVDKYaFZeYlzRGDUOIWqMKzG+xKXGIb4YVyIxKCoYBI0QBSEOoDI3TQtNN00PNX7z+//2vvv7blVX07cbk7y1fKfqfvfcM+yz9//ss89wz723lH4Mrt/vl0RmRMeYjsa8/I2UKkG6mVKfyJwjfVK4neWNcy5J5lUio+yXfU6iZWd57RxJOBOm+LbOXHLMlkolrn/srvpIKQo4ANvQ6qbN5UraNDPbO/b+7TvWzE/Pjs51OqVKqdxLlVKv3C/1S0ognOTRZU8i9TulXr9U6qVeKfVSqZu6CW9fF/xTJdWSkpZVE8qfdO4rcV8pSiq4V+r1en3F90ivGiz3y7VKpTc2Nr571apVD6xbM76tVE63KuntKniHSlS9/vjcIwJPTG1spXTafDM9+8tf/toZX/jSlStv/t4Plu18aM9IqVuqtHsdQVXWIcHlSqVKUh6OUrfb0VmICd5uvyNcKsKrW+oLv1RWckDkX14DUcBzBr9U1q8AU6QoyE8W+xXY5Uq/Uim1RhqV+WPWHz17zjlPv/+ii178tfVHLvu6yv1PJQNE4yfLctinAzeXhyEpJkZarfTYVE3Pu/TzX3n2+z/wwc233XrnEaVyvVQp11OlPiL5y6kroHB9NErXAIeYnMEHTUNpQMrjFCtg8McB4BLWjr6Q5XqQxvTW40kvLbd8PVWaKXmvnZrNufb6I1c98Fu/8YpbL774os/VUvq8CrxXNB9xUz5k8MTkqEo9ZXom/c4fv/mdp3/60ss2pnK9XkYz1ARL0iA0pFKqokkmjAvvWmeaZCACGgokFFEnhZEuHNe4XldnZXIaAnGgY4rM1FKYLZkXsKWFUs9O6jSnmy994QV3/fm73vKZeiN9up7S7aKphnP4bshtARoSqDqT0ua56d5vv+a1r/uFL1159fjYxKpSV62vUqmkbqcjMDqp2+1iq1K1NugzBtQDFFPGXOnYOYsT8tgwtKtHG6Ym5ACPNIBHXAA9SEszprqENWGVSi1VK4Ko7Pnr5X5/bmpv74Lnnbvt/R+45BO1avqkOpY7RMd0f8DgIXgO1eatFn/n/fGfvPP8y7901bKxZStTq90vNRqNND21O62YHE9nPeUp6YzTn5SOWLkijY6OSgA0Ts1TouHMuOtsuOgsI29gEwd4PeFFk6MCzNHcQVoOwNDs8AMilWZgig7555rzadu996Ub//O76frrb0rT083UGF+WWnPzpbFly8ufu/zKjes3HP3iN/7Ra7erHnaI1h4j+F/5I8Yqc+3+Mz556RXXHXHcaZ21Jzy9N7nxrP7RJ57Xn1h/ev+8l7ymf+2NW/oz7X6/KWPXUu/X0rmjjG354+A6jgiLc6RfnCfi8+fFNLhu6ZjXMafyphTw1etv7T/rwl/vr1p/Rv/Yzef11z36mf2jNz2jd+SjTp+/6t//80qlP/WRYBadVBEao3NzvTPf/1d/u7GUauVet1waHx9PszN70/nnnZP+7oN/mU45+Vg1V2mOlAz9qODXuSzbxGHjETdhFk58/qhKyTB/cSiuH/HQyfuN7qIwmhHlwgP+Jzx+U/r4R/4mnXP2z6SZ6b2mpRr3yMyU6+//6785fr6dThPWSn14Dh4KudmUJj5/+RcvuGvLvUdVag3rHVvNufTTp25O777kbWn5Mtk4KHUwOjrT0uTVIEx2nQGFGpzsICaIA47jUHuzdDoLLj+UJvxZOsCPPHm/CjMboJ6YeJXV7/RSTRfwMzFRTu94+1vT+g1HyhS0zWxUKyPphm99+4gf/uDupylJYQyUdoErlJHaUcd+zGcvu3zStE78YqvGR+vp93/31WnViqpsm2odjQMZgYEZ7gnIwINSRWdB4fmw6ATMrmW9bnQKkS/sZT4fehp56KxssGzjaIYurq1HHzWRfuXlv6gKUkcm9VZ0aW6uvfzar3/jNNHS6OXwXCHwRLq0c+feydvvuLtartbMmCPIKadsTk9/2mkamCoFQw76OzRNNodBirGEIqly2yaXGq5CLSmp5TeAMrA8A1TccY54A0gdBA69s3DzE+LhVEA4dTjK7kNoRjTPPf9Zae3qFakLwKbWldL3vnNzQy1qpSpnmDEIFDgXzVTavnPPsn0zs5ol0fuJLTFx+pOfaC3UjVQIJGikhSUx2NfRVmq1IhtCxBmxaN1daYZEsRZuoMpvtBedsQAaDhkd4rFSlo4faIig7JiVoThN/8C2rwG7tFLVqFbRX3fk8nTscUerwhhoa8Cjscp927eXK8006lT0e4jOzFSBPKV901O1drur1ihQxDDsb9y43oYVrkEmVL9cqUozlUoAdoSIJmhGvqnh6NTUtDFPAFpSrVbNDppWIVBOc0hDc+VAmznwl8uwzDiwmmoaR44vE300SUD6ABq9dICwcTZDUQ6a8KoVy41OqiqNGJydn2PlQBYwY5JCD8EVBS912p3RTrerWRf9WU8D4LKM8TIrCpltfMYZrBRgWiZAtt67K33ko59M1/3HDWlmZsY0FtCqVU3jGKNJAw4EHsQBDBcAdqWyPc2FsXUjAm/dUavTi174/HTBc59pvWxNKGEmDMAMVNWhGYbxsYZssrIaRWmzNFbswvFhuaLglTrtFupdQQiaQ0/zRoTOO5pWBKGd/3rZVelP3vGetOPBvalWHzOhwN40yNq256d54xbTWxxGfIBpNITCnVvvS9d941vpqq88M739rW9IKyZGU0MV27EeF/shrTTq1GlWUbrWSMtptRQt1TscVxQ8NcNqQz1nuSxm1B+YoAhAc2HpQ72sumSAcdt01dU3lN74prenmfl+GhldLs5rlgfwRUTQaTonOGWYBsKFAHkQ82CZkqgM4gOQUk+ApHq67PKr0vz8fHr/X/yZNJoeuGJ2FZ5w2FRmLZTPSIGFFdEJMp7oEH8Ldxi9bm9MnYDMkmyVNV2aqkx5FI/ZEYM026aU8h1/+p401+qnemNC4NZ1qKhSTcDVxbR6bGUsSRO6UlEO+kWZeDvwyzDIr1EENk4Hfg9j6QqzQAeR5VNFjDTG07995evpQx/9hHccaJaBJrspnjAtrSbLYNhNlaVAg25kIMEhQieaBXMg6VhfK4/UqCrPZhEdLQQMsVOYUqFM1117fbrzrq2pUh0zIcuapJe1ymJjPkCiWICSAAjjh4AQXZvey4OG0MXaSbZJC08MgSwtqUoyslybAEZD3YXKufRfLktT0y2zwchWyZSLU6vTND4IRwFYCXokrih4lDGmGqsw9aLmbLYgP82WhmOoKRFM3nnXFokncAjPQIp6imaolBnfzkKEQ4/WRDk4wqN1oT0Gb4TR9yud5VUHAhg7d+xOO3fuMj60HKU45zFoGe9os1xFHdcjcUXBAxNG4mYmEAaG3X45DA6f27yIsyantNYDH4BLqwwJmAeLsRggcdSkzlpoV3mEAYTA1IHtxZBRFloNF1qX17mc5ufUCwC+DhvAy4sG01Lg2cBWmJdhnsP6KQoevBlwAQR2xJotNauig5BkNc1kOAKTAB1gwyH+cO6X9mRhNENcNOdIF2drytmFL1nRMXhFwgEA4ehpKQWyhHH2w3nxSmeefdgdrZUTMtvFw/zQV4wrXqOUyCKDzWBOzio5A9GanWNg9gYhQqss8eAntEYpBHJoA8v39MQlpi2qKQ3MHRT5oTUEywlhI6lIlvw1ZTXg4EuXWiBAK32Oa3mVhbElB3R09Pt1U/EBV4fiCSQOmkcaxWhIlaWalgdhTfPEFeBQsxlmNnNAE8KFBnIdIHlcNEe0L3IvTENwaBx58cND3mFXCaNiWbYnHYPhSGe8iU6UzXmoBAO28yQL+YtaTMlQqosZVZULCWMmlJQvlBGRbK4qxgFWi+AZw2gNWkpeUdJf0EFrzBnZTGMGZahZqmboE1lNNuCyDpKxptk9aaggzYiIF+ZhcMtJoc6n8xigMYXs6e4dcUZ6kPvQPEP1OEg+ZFBhuEGt4ffyPbPDmhHK2ioC03TyLoDLh4XfaXpvG0OTSI+24Oeg6eFIzzXah7MKNR9xHKR18AA80qChjBgeiSuc226MZSXBaIUBrgbJaA4scVCPGGhrxgpg5QXmEciFzu6mMT5TPILjogmRxuatGoKY35ooYLnWkTbyBE2jkHU0xNl8WSDTGjgG6bPyjA96cC21qBRI2g+eQ3WFwaO9GnO5aVa+MCoVGTjHNAgBDWAFxlCDPCEQYaz82iJmRoy4END9rukAPIgTvbgmW8xZ3Z+l83pxWuKJ8TBgAZquSGo0dFLs4QFY1OZpubDURi4KRQgOHy4ILIJ1jdahiQxnBpqj5WVAAlTywCcjNvdDTX6j6nkYq5EWQiyAqZe367INtrOxHuWTD3pG06jIi7o5sIQAl0erF/asura5is7Km2msEkLukF1R8Ki1poQaWGa0CpDCmcDZRTRDFgDgPoALwEyzsgzIwDVVYDfOMxo092yrhsVTHp2Bw+aJoEdOzsYKZwFI3sWOJmw8E0E6aWC5PiLf4a6p+D2SxeUsdU2fxiYZ2Vw32AxkTdMEp60ai184kbKYPUPDBk7aYH9W096sGM9ZUzbtyvpiNBQUOJQdTFmqsQ0rFrS0laESsaGxtBXlUibrN1k9GXgex4Bauwmqtbo08rF1zeokl1bkTTlQELYhMXB4WFdY81Sj7O1QGQ4KtW22DcZzRQSjkc7QVAq7BpRhU8lsjgbb1pBFR+rBFg1zQjE0i2vzQ5zyTI2sJhm2+x066znRcmTPc0ReBTnbxgfXnXYvNVu9FVu27P6Z5Y36lvJ4ZfdkrTGvu6kQqIrfOZ05Wio7y62rnCsMXq/fY18HhIeCZISgDEPRYViw1BKeCTQNiBUMCQ6QaIvlIZ0lhLhSKs46A0unCMdLhLw59g1gZgqKQvVxUjsZEVL4tX7xDbROF2gmFWDNX1hoJbt0x+33jF30sotfPVIpvWRktDG/fHJiz3HHb9j1jKc95cZnnf3Ub45NVm7TzOB+kUIr93NFwaOntSaLbSppIl7SnWXTpkUkASIA8ChvplglmqQpT6ClBCgRYd7WsXOITR6am4Pj9BRuiNH5WBdlmVknpNFD34BWfqfhpccvOEcHh8nhPosIpr3TrXHdJBrv755J927bkb5z8w/6l132hbOPP27Dbb9+8Ss+etHPn/dllX+HEndEF04HbqF+D4L385S4+UMo4yjvPalrNTEL9fSAYEDo0u6y6YKaHkz0pYUxuCWHxYmGN1U0UACrk+kojy3pswgqGoSjqU5L2inA0DNA5l4GZ9Kx5480HKGxOfaMD2NY9LiFysZKdk52RJxpek+to1QdLZVGJkbvvGfHqa9/4zve/Lo/uOS1U1Pp9Lm5tEFlMM4ZuMKaV5EawKAxpuwmqK6pCq3P+ppexqkJC2hUrmSz1RKmTXKRH7/RUALbG6r0ZvNEk3FbXzMA0pp9U9qocvI4JQCDhuJUKXTsNOkDOSwp+ooMZCyrHXd0d21+blYcdFSpVJxalBZUuXeprli3LGur/uEf/+WV0/um1v/l+/70QyIxrfx7xQOS2Y4Ezgd1KlgdRtaOrKZdeDJak4QpfAhhzMGA/iWQ6jnTFI8DABegqhrnRpLi1SJoqohv8UpjgiIU9AyoAM5LNTAkBtt12Q1A+aCIlpqJMFqkteJsvo3mY3J66mYf9agN6VlnPyX12vNaRH0g3Xrb7en2O+/Vzq+edniN6/7LXBodn6x/7gtXXnDs8cc89Prf/80Hu7V0l8ixu6o4eKpdrTDqnjddv/7QCv0PHJXOJXUSQwbTEoFgfxkYBgzpAFCuohkLmQAtyEE3QKTJiyJJzfm1dzIMd4HMQM4qDL9dE64/ypYSe7VntOC9222lsbGR/ut+75dtkA7/avXp69d+O13yZ+9N373ljjQ+uTy1tAW2PjaRPvJ3H7vw2ec+ff6JTzzx46K/S/x34bGIo8NoSgyV6zYM8Vg5Ea/mHEziMmEUagDZeA5VQAPpIi2B+RESaFjB4yhJZTgGWgbAMn6EiZqBgrZx88jLRaczrSQFPbsijBddK6di3XGvyoZW4r/XkbarkHZzRkMWLZGLLW07Txrvpaef9fj0iY9/OJ122sm6zzxlS/UCvzTfKi3/0If+/sxyNx0riiwYqeyCTkMV3fPWLC2zKzCIcyEAisUCdgGIqDgGuIiLPKS3ZhxaCGjKg8AGpMLj2ukLTIVZJZBZbngNLAENlRatAa0SxFkUbNqh1JwtnW6aN7UJsiPtCwqMpBCNdcDVq0fSn7/7ndrbslLpmgK6muojY+naa7+xYuu2ndzpN9yKg0fJKJAxqQ3TmdAiZE4yGsMw7cI6EJGOMO+psW0CBCVUc+2KrgmgMBOahigJWMZXCivHAQu6nKEB4OggiNB4hwDSInCwjIMn/MPWofwK8wqLOGk0a1aqc/YJnvDoNemii14gE+p0UQ7t1Vn9zW9ev1IkD03zkJiN0TSaADC0LxjkTG0Q787rJmwg4c6wRM4kM+NOVykHuMibB9wiFvz4UIT8Tg/g3OXHhQEc9zNgh3Fdp9My2uLQKtDANxA9v1eK+BA7tJ4Ln/ezqVHn3qDKRDlKlca3b7l5g1JPqGyb02RFP/xJi4e2GOrCA443E3LBXF7zAmDiKBQwzJ9pEjQsjKmVjDhHgGj+kFyZDCCB62NLaRpjRZqAHBrpjg5HsJuWDNf+4AsHOcAmfQyUOddqvjXPeVfJDLgZUOhfmKWNG45Ka7QtjUoBWFVu6f77t6/VVIsHdwrbPPZZ1FXH2lM+1B5KoWC1QBWgSPkzRoxRPZwD6ya4VaWl81pHkAGIcCvN4Lom48NOepqVHUrHDW4c8cCFrdKFDlZiFGBgOzi2NC96dBDwQiVxprwAEFq2vE85EOQaDz1DJgcbNUe08jI2NhbmRqavUpqdmVmtlBPkcZXAdxAndhgnWyFWUJYeGYIBwEMYGDAkORGgCHgkHGBMYBue+K1xe+xATZZ7rLZkjy0T8BzWtFQA+THmjCdoVgyY2HvXByW5aMb4w+bJhlEt2Zxb6UWHdDirCOjJQZt6pnn6kpbiFca6qdtet98oglKsVokGXuEZhsx9023nUPNMM6xQtxMwAphR27DAsrrMvzjjPqmKZsee2qjZJxIr1itDQulabceEwb46PQy5UgkI0GcxwA71gKFJlt+AUbz+LH0GjBHRD2nssNYA+AFIpHC+hY5sikqiOKGKLDawNr7Yp1NuIA25ioKnuSAa4wwwfIe4M59RynjwQsWY6MMshZumYawlfE3twe5wiQY6QxogJAfOOjzCsIOmJZw7YtT4zXY+KbUK0tMColnTjEAPzgCq/sjS0ewBPsjCE0bwHUBbIfoxzVM5FEtSd5QrrdcUlijCyWdrf0oIffiVsyyFwVOWrCSBARExZU1QlBAbksGEa57Ag3FFzGtT4xmnPz697S1vFGOyV7JhbG4UFfpuEwRNgLGmRq0IBlU/i7bCsYUYeZoknQtls1Pqf/3BG9Idd96jCmE+LB6Ut8sGaPiR3/YSQi3TRHijOWMD0ChzqlSVDmDqQlUuwuiADWiQh7m242ZiWtsvCp620VWrFRlMRx5tIiv65YVA2MrkRy7j1WtcbWHtEcvSiZtWSmhFqmjSwyQM4iI/foLo9Ahj7zJp0Ciu40z/okPsKMJso10oLSV76VQz9pH+Br5N4xVrQyItCkAQmooDPSuXVXHzwIOVTfXyDJs/HuY3kJDgEJqtMuvBFTUfNV9qH2bsMD7RHsip4MwZs0pDcyKPHrk1LTTRmAsFvMMsYtI1gDM+tlBURQM8MP2mSZm2SBlKmEW29xKOo6dFc7qttlcSuRRGUXb/Q360CPsbGgU548koOGB4RRKiPNFrCsCNKFIqH+EGHiGFHM8bK6E6I42PNAlkCUcPC5vdghJgueo5Oa6j4Ha7bU0OW21E+MW2AMiAAtnJo/zYO2RGC7ikB5CDJrxbUSKRdbT0I16+8vWZtyoAjOCRM2OpslACWA5q0c6KItpL4UyHhvMyzEd5auZUJAXDCstLxJG3mDN0QggRVE6CIIBAwIDjt82ipM5MwQChok3bbZVKB6F9O55SkbDKYKUj1SKOA4LkgQ6mibN2BepMgTqs0rJwjXFpTmFCyG68qHxAwERwpg4Y5pgIuoZrNNCHIQGCyyakIp2ePB866Nr0EfSYaMkVtXlWGM0C7TGDqswwDhW2LcAkDi0gHKioLWtGQmPvzKw9+M/Yyey1ZaBpugYxlTWtEw3OBrzOpjm5MjNbb0BzL3ZWe/EA1dZlBCzLspSPo+XBmfFkAJoVFMAK5VAaYTpwyAKwnDMoA0irFBKaTfS6Kw6eao3bceQ351pn+qACkU7Bike7j1yzWurdtqUe0KnWtYJ4z7b03r/6eBobbaSOFhnpXXGkw7GuR/OmhjvqLaxXVLu0coQ4AKDdXNuSuRDecs99aeeDe6znZpkJJmiya9ccASsqAc4Upj8qgR4aRxm4nDzKxeBoKB/xJMP0kJ4/f56412/rgkcDCmseg3loUCCQxRYJCiAMZmEJJp98xulp3do1aWpe+ic174it6ble+uu//Xv1orLyqD7EOMOW/EYXYhIg5p/0bCagiKP1xLpWebNjqDKiRxRa6sDKErIme3zMMevS40850XpZt2EOmIHHFAZHO+aAaXeQNifPIJCAAJrmwLPDgClnP4XBY1RqKq1fiWuagHZk7EDQSkVD1qwcTb/9m69Kb33ne1J9dDLNaxf6vJ5Ir2eCakFa+UUNAN3SGT1nVM0pAwqarMgYgFzIgS/lUoF19bT05vaIVJVVk9n0O695Q5qcQEi02fOAEYiwSwC3sLIsKP/DcNFrKgtldMGT413ZCZXdF2gGdl72PIH9/LIR2a1HL5wEvnXWk8IQhxlncfprv/ri9Csve1Ga3btLj29K9dut1NEQIuailI8wTMc4MHIsOmIj6RkrGvRyMNdEFrZicNSq7P13jbRHQLVIUJHG9Toz6dde9fL0ogvPNa3zOfJQPECnSWMmmEXgvLLMq6oQTf2SLu+oKCrPhoLkF4D0tgoDxEN1MIQtylaBqVK5vHaQguddL3nb69P6devTBz74kbRr924tadetJ6bpobPtbKEBBplG0SQArK2z++l4/HalNXBJZkv5ok84wx3uRRy1dlV67at/O73qFS8SBEBN1ezv9M4V49MtNfZsQarBhepa6ET+rCVQNhWtP3Xyhn5h8NRzaj7u9BFWaiBBvRl4MWYG5PVejBhA/J3f+sV04fOfk27SM/9bt/1I7wBoWsfAImVP810cOUIL2FeMH3vIOaZkME6H0lLHQPmsxU3onQabNp2Qzj3n7HT0mmUGGmYDT74yKQPlxrELCw22586UVkU42habSze4Fj9qTiQDOE5kw1MYPCZmPmgFJAnCmprbzdxZ3nAiD8MMZo7bsDptXH+2XbsGCTAEzNIicAgXVQBpuKSeOBNvglIjcvkwjVCsoqDnAnoF5AEM+pY54xvtXhjusdDWv5dnZ9e6PD1SFgZPeoLlkr6y6qB+TAWbBkLFWNeJEgeIEK5LBFcEvSXAWIGRRtcGCImydsLA1sPI7CBzHoQp2FyE6UJeT2BIANyAnMdZhuwnk0Ly2B8s5x20LH8WiMykwSb2GL3nXGHw1IQ0GvDtDCxP2SqxurNF9HKk3Yuh9SaJncsEJSrjOrv5roghYznvMJ2TW/C7IJ0hPCQzXNpSQVnChZrjZgE2qFSZGTa/2lCMQtXSsrIGbWFB2VxkjWC/8P0DtDVThavevFAYQfsWOuyoh0WNEe9M59JmwOXzErRE8DAJsoQ8w1DjwfhYEM89DToXyvRy0Sbnw8vh9o1xm2MLst6UvSDT9lxZkT+CioOnTS4iTO0An22TMIBUOEy4dvl5MBRQuujZvC2ghSTOijceC7CwBGghwGKBIjzOEU+5bCCCzzhsrqpwcWBykYe4gdJl1xHOvDfvCnDuydXTVtt9vWVMxCnUeqt8KUpGUxm4uGkjpFBQhtjhzKtLUnc1XGGBAJjdwWB2+HDVginXKivKIHmWZWh7szDWsAZu6IdvNMv29TE00qKpmduMjsoQ1jI02TXiDcH3TmNAVp4h5Xzo/n6NkctV7VfR+taw5kgGEIxgaCSQQ0gOcwKQYQjCwaQl1AmmAAIHc/FnAQf4GaRT+gH9LP/SWZyXfJxrGvNMrxw2++B1mZxugOXASa6QRYT8wcCeZjbOfOEOQw8rS2QxpBOEcVaLBpw0yGKBymIo1UDLlnuVR/VEpA4YovfFoZHAaFHEWSjXWXrTQs9DPpuFkDdLaGG6HuRzslk8ALpXMyyNK31ezU4FHrSOZus8oFk+brW6zgjSy/JGNlsPFDHGthlJOCzmtAGbPxMShjlw2ckAHYa5isf1oIQF+ZwGOMTh6ZZmyTSPhBmYgVZoCnmDl7C5Ts/DiXNL4vRZ4MQQoBI2YqASjb8hHfJHuYMzA9TMFdU8dU4sh9BAUXlKdICgg1LBHBsGaYLER0dhO+UJsTI91oTLatl7RKjgArhhk/N8HosAVJnlodCcs1KtDALJ7xcs3LBmiKOlWGsRHe5MLHaAZ2WYLMEzskXaaFmeeSEHi6nlrtXseAK457cfWRoacDpI5ev8FOa1CCO4OHvCwUqtLqmInBOP+1P1eKeZi815cxRMUNcg6ZWB4SAgP8DlHfZugIsZ5Xys54N351/A4dfUTs5KL6p5LIW3pFnSQHUCDI6b6rlkO1AgatG2w4gb6iYPlteaM50PD+CoU+Mk10PadSbMQIOzYYKBSB4SWUKdcTTDDAkaZERGOjvDnTwxKnCQLbflDf48rYfT2cVhy2i5yMLgaSlJfYZ39TYrkHDMOIxfCWE0s9p1JgAM6VyQYMxZGv4iqKUYAOFAe2hAMEwfPgQPmubPIgxA0YImzm5d6hwaZvHwlVVWXIsWzlbH8pXi8UbKK8cDjMnC4DG/gIQKUE34clTcQMGS0d3L0mTlMnLjUBYZBss4EAfB+HOLARcIqmE35C2GX2IJ52w1DjVjwZfmTXi0TRqJPB4HXS+NAS3hrqm+OIqtNf4zexn5IGu8wrPijJ8MfR9R+IXRy/gWW8UXBuxWq2jADL2WDZUyQrAczZAzQPoqbsYBJQ0gdFvUs7ci95OWSLW46If2A1hKfpgJa5CgtbN6qmtLhd4AaqZB0g3S4AcMB2kooAOpEhWnQYYNo1g9i3B4IQ8OcnbITx34iTgvJ5osZ41uFrjCmocO1MoN3SuAC5YytaLbZfXVl51gzIpjkVTI+nBBIQp3G4N2uLZpnmJ2cjbNp31pWn+z6a6dd6e7fnS3HiqZUrpSOmJyVTrphMelo0aPTJNpmf5GBSNw8kdZEtA0D3lEVzRDkzyEgYjSwAI5jDkBlK3NMV5jywfO4kjqifRrmSwOmt7R2BK8lMZarFErCp42RbJjTa1E4FBBtqioYnxdjiEt0YhBwTaQ1JU3XZhCEG3H0V9PmtYWYPNpSqB97tovpC/8+xVp+/SO1KlI8xihKr1eMqrqqadTjzs5/dzPviSdfPRPpXEBOKajqoFZrawHm1RUaJB8Vj6CAoxIGMgsAEQnS1rTIMnPGUc6/ctRue6zS0JEcqh5utaYR0EksoRFwRPhsm49+o1ibg0yAbTaEyVtsSHea17UGWLBCI9ZWTNWfIBHE92bZtJ9nR3pXR96b7rl3h+myjLNdyYRxt83RZ6RcW0E0iDthnu+lW76y5vSS869MF30rIvSatEaL4+pkrAdXlkmtMAAOIZSroEOjogucKSFb7txZDx69GLgCAXLGHCb9klmZiWIR3xh8PRqtW6lqlEwrVY1YI9PZMMJRMB5w40aVEKDzJsTWtfSU5jTepBwZ29XesN735Tun9+RKivrqalnAqs93Z1qKZU0jnuwVS2xV7Wto7xCL5mZaaVPfvHT6aG9e9JrX/JqsQBtvW5Dd7TM9qIiAIk2qSnngYCnuIsWWkR3hPkiOQAdzIXGqohIbwIXBg98tDQgrdKOoRE1LWkFuwKwAByIY8Rz0xcDVYJxJ4uGi9btkZV7z4f/PP1o+kepPFlP891mGtGjSv293bRu2Zr0U4/ZlEZGRtLW+7akrQ/qaZyG3q5dUQnLK+nz37girT9yQ3rhU18gDcRUqENQz2/vYMmGHoABeAhsGii+mEdHuAOrayHK8XCOPLgBrQjw4OKap15ApkYWRMrX10CZB4hZTQY4XNQKZ3PmcS1g5wrWT7d+0jU3fjV9957vS+Nqaa7dTPVePXX3ttIvPfcX0vlnnZca+gOUef1df9sN6d0f/gsBKDp1dVLaRv2xy/8hnf7EJ+vxJlLyqhfsrltcenntgjNh4QGgDEj56W2ZHGCN9SrnAcCkOxTHc27cQSXPw0M/pAoXpndt7ntK4wCOihiAZWldDwXrMKd8QIfW8ZLJy675XKqs0G5OjXdqavuNZi294ZW/ly4660XpKOnTEdruu0rH2rQiPWPTU9Ilf/DO1GjpLWgi2RVW8/Vm+vClHxOteVGTVvLn4yazd9imAM21DM0RaJlGEuZCw6vLsIDZ7II8OJp60EMD864oeEK7XeLOudkVayJ0ENT7/g7NCXNIRwGbLf1t2XFPun/fTjVD9boMZ7ST4AXPfG464zGnp5UCbFI96XINSjhPqF+d1O/mNZvSL73gZep9VTZ3h8bL6brvfiPtmNllwNF/c58kWhT8RTMLziIuwGSIEGkiLtJyRiZk88MBi/TaVUoWE7sweFqOqtgAnXGeWnuV4Ui2ckGBaBvXUa+QtxqTBwC1Qy/98O4f6nWTmtLR9MXZyrGV6bynnivAGITU1Qhr1qwwxHXpx5iuVwrM8848J02OrrAtty09fNmtdtONN98o3dNahdJZ2foNIKAdbrCnRvwQzvIT0Qy5mLksHviKjDk6E7Q99haGRqPkuultuBUGj8ESb120z6Koq+p1GHoCZOZyQEYQZxcMzWun+x64z4y0tFgPidS0m+CotLK6ysZuPvjVQFx8QZUBMf6GfIztTvqpk2yI4Rsqu+n2LXdYd4XmhbOyhAyVFprifk/BljdbiieNgKGyAcmaxpCIgQvADqxDZDMrAaebiLy5gXcQyNIWdAw0mTLRswEgg2RflnYCXuumzRaAIDh0Mc7zraY+NOJP3SDE+OgydFh0ASr2u9PogY9ZTMRW9STOatsl0KjrIWJt5tu7d6/SUYYZCSuDH7QcFYwm6rRc22yMlsWhSYzhePEtDrAsjI5QfgdPA3sbGDPodjm0hI/XhCgMHqIwwjaNFXCxZB22zTjIAMMfhXm4Q8EWCRjsqLNgirZ7ep/sFjNatCfX5AWeayxdkwPy0L69ei9oQ5rrTwiNSHPhSWIN/igryuU89BsRVbzPMFTrtuEn4smHC21FSpRF/3YmXLbG6dHWYVauMHi6hSH0xJG66qFRhoQ707RB7VBYxHBmc0w1rV97tAasAhCF1w6pu+/fmrbs26b5RlO9J/0xUzjry8W4ihOPxO3T782332wpeCqI8o8/5ljTWfQOIUwilQmUXmLGgl9KcAcWIBZooMIByl/YIL+wASvS+2ZLhmWixaEIhjzhCoPH2NcmWSLAPhWrDYUsdNTV/o7mTqN83GMep0XUfmpUG9oJJe2rl9JHP/uJ9KAmbHs1z52RZQS8lvRtXlDtFaQPCbqPXf5/0mxvPlVHtEaiV/tWOpV0yqaTzS6ifUWcaZJ+2JYWU67Il42v7VJiGng0MvZWNztdKajbUKTTcx19WQ0TvFjJyqTGRdEovP/pYRTGfOG88UhbqDacrfwyNAa4skx+Ix23emN69LpjU0OTehjq1Pvppm23pEs+9d70o7RTIE4JsKamcC0DDlAvvfHz6aqbv6Zp2qiaWkqjGilvXLkxnXTMyaI4ZtrnupcVS9HutV/Y4YituMEf5oNegzgG1w7QQjs+N9e094/SQEmPxo6O2gOP1ksVBk/LSrrlLRDNwqp56Yzf1DnH7GIvzLptqkrU8fTy5/1CKk/rybfauF4KPZvqqxrpO9u+l173vj9M/3zTZ9P3m3eke9L2dMPu76b3ffZv0j9e/ZnUWDtur+kd1auDu3va6SXPebH1wN7JOFQByuAs5bA/A8e5AiCcpZFWwTzg4WyNUheRn4ridcV6J74BS96uZkSTyydQynldF9/c2GGTj8Dyt1CoEPHB3BBKjF1RabGiw0f4Q3PKKgS6UbLR3BOOOiU970nnpc9cd1maXDluj6HXJmtpV3df+uCXP5Y+csUndFO5If3TPrxRae06fe2lNZdWTuiR9Qdm05knPDGdvfksgTeSaV0GhkHgPwZAhgqPSuVfGWI9qhl/9fF+F8vugdNL0+sDOFqKfFd8+d9MKysSsKWdraLb3/ToR8+pq32IkgovDKh3VGcVwFBdvm7GoDNGWuwxHlQlQGa2QklsJzqawsLmrz7n5YnB7hc00a/rCy4dzZWZbFWWqwdVj9ykHK2Y0Kkw9Vo5sjx1drXTSas3pd/9+ddo4Dxpa300G2irINOYvGZF2bzqnPsYODoawu2Qn7Gb2HQ+BbINoGXcUYh79EGAK678iljQblaNS0WmXxupTZ355Cf/UKTs9UiFwUO1bCVYbd/KFFBmN0TJBNCZHtK/xIIecqBx6p7EsNcstm9Ec9dS+o3zXpEe96jN6R+u+Me0Zc+9GhVrhWZcCwICi6UoXktZ03iy2hIws+30lONPS7/5oos1511tGsxcBMEpHE0LsBRijrDBAR+S1AYL2Dq4UuUAJpeEADJKwLBv32w/vf5Nb0sP7p0p1arjmherk9HU9DGPPm7n4x9/4lVKMqWjuOZRIANOyabmK65trOc2w8EUAwpG7cU1tDOhyOMayz0kxpf8VgThOZuenp6w6ZT01ZuvTdfc9PW0bc/2NNOeVY8sLFXjDb1T/rg1x6QLX3hBesK6k03jmMhVVaDdNqYYgQdwuDgHmITZEETLKYCEwafCeQ6tI6NWq40Y/lI6O0vEdMsPtulLCu9K37zh2/rU14qkTqOvb6ZpR/9s75de/vP3qcpuFVlxeCjgqVC+6YNd8yUO5QZAqMjZMp6ibG3Ng0wYemd/kpCOg9Q+5qMH1kPo+mukFz/u+en8x52ntjCbHtSEf2Z+Rp9laKQ1k6vVyJmcjUjbxm2syLTNhk1UEMBlHABYOPczg1CZNFvQUTqAc/DQuE7avWc63XDDbVKGVtq6dWv62nX/ka67/oa0b2q2VG9M9ltanOVdA3P6wtapp2y696UvveCfZVXuUiVZYYWbrcofzOXsPgbqJvCwO/Dt7Dn7eUGyx42yZitRZaylBwIWC4gPm6leVA2mLVt21PgaNV9/dox7GEzQaKLcB6PivDxvpl6a/+abLX6GHzgDUJnYrYafODQQd+vtd6VffuXFJR5xwKz0pJFVaSPvkWprFWeE72q0m70Vk42d73jrH31Ca7RXKttuy6yfwuBV9L0wjIZpFkgCmDFjCmD0AIKVCBjEWQUJLBjDXhJPaiD3T8zIh93RH5rIsgC3GlUrSiNadviSgdUQMdgNOVEUzXzZFGxRA5DMJhuQyqPVIKZnBiy1zaqKeLL7MZovM+uicnhZW00DYb1QIc1O7ZlfsXzktj9925uuefKTNn9KnG1RfkdeRRUGD9SsMxAzVT3F2On6M/7OLsJkvGtwjE3kFRswB7MAagsJpJGAKG30fEDELJXmjZYBjr8oP6AGQhwZRVdg4ygv71x0D8U8GA92F0/aylK9yDHM9yrxnM5DRSaZcAeWF/mXNIOan5ue2bz5hGsvefsfXXrWmSffoL4f4MzWRblFweNp22q3olmpeoUYHKMhVomSS/8CBpR0Nhl8KEBt8wdokdiaNUbA0tmPAJMpljvgi5+9AEvDD5eLndkzJ6rqwCSoXJ1j3Ia5YUerVZ4yy+7p5WeyySpaL9zSKwt6M3qwevpRx66fftlFr7zr1y7+5U9ptf/fBdy2vMZFuUXBw+jXqHgDjJsBNC1DxEmFPTLes3CLFzZoAhB5epGwf6xAdCJOw0AdpPOwA/+6ZoYmAaYDr3AqzGoVr5Us0KAkDdc1tycFUr9RH+lMjDcerI/Utq5ds+rWE0987A+eefbTOk8740lT+h7eHXqNxQ+UaedSwEGtMHiqrZpqVm/3kH3itZcCyMAQr4aliNF0+A9n8dl1BLsoltLTZ4n3By6aa1ALsOI6i6djoPvNO3hjVCtejU/ilISy6+ouqbI5vYrx/J999r53v/ONH+53O18dbVS3qlPfpWRlvTSF4R4DYb0b2tuR/Pu5ouCJRGlEd6lkcmgQKoJhio31HK8Q1QDbr5iHD9gfuIdPvyAWLRcqbhqkzfLDA2e2wmLO6GPsWrxbT6v4uhZlW/PTU+Mj6TPjtaqN3R4OqAVlZhdFwcNAjIkBfadYMAk0s7EiAmhi35ydqV5cBPrV4HcQnKVDaFwe9EMCMyPohsFpRVMdFAp9LiQA3wlq8+inehC9mKunNVVmCw+rYWRdyoXCLBWXD9MWXn19Sh9QAjiMLux4b+rJfACcz1LcH8Ah9CEBt0QR0IrD1E1pUE4/0EhsnsRQ7XO/95F8Xr6w5qmiamIKJ3Z8kckHnnC3hBQKglFPv3T80qHRES0munQ9B+CYpuDN6Kp+ucYc+hYlb75UOKDxyWtuBDYWNp6lWTpAaGHwbD4LEcZBBiAtGUGdMsOCxdoX6Q5QtgWTZqG2OcGFYQemEGXAh1dWdqZGDUDXujyFoL2Y33yaIv6lq3OJnAKnyzYzB4xa9iYm5cqslsCUz2xYBugSZCwtjd60NUsHAAGCK4LEMk2ylEuRURi9r/fAnpc8PlYc0gJInxAwto6BuU0vlRV+H4krDJ5elqBPn9sETYNk2QtxYw+D5MSIGuUc/kfC3CPOG5UjQlSyVbzGCjgAzjTvYarakh7wp2iz7WvVle+NW1Vx4m3YtgQLIxl5q/GClRnJ1G9nuRfXY1wfLP4AsgVw0sZBWZmGE8WAi87PvAcgcbDg4PBg6TSm67VVUywNZNMvz6LLaDx2Zurz/5KLpslQl0qPW5eZHjwibguDp81bGgvpeWW6eAwIzuyG2zyzdq6YNnf0BPv/wm3+2D/F4hDKKszm4szWNAOhDDClEeNarUCnFRfR++U9WEBRrtRR6LO8cmieM8FAWfVKjWZ/UZh0M9cBROj/3Bmtw5mdFsPwjxzxNiGPPfTfojZP8Gh5MSs0ALQmbFUHXKrCQ6nDgSGK+gvbFkJEeFwvfR6QWTramsVCviSJ0GScpx9yHQrXC0opxiElqHdwpRtOzaz3MvCcJuBysCbnWhmiLSjzv/1CLA0cfOXNgG7bo0CHBWBhzdPLYth3YOoOQDg6B5tlqONSQ8j+nBNBuGTTDTkWagPUCtcjiQfuoFKTgEKzhMwwtO6qSbotb7D1hDduH1bhhTNpiYc3pnrbAkQt+eAChCAUwgD0f4eLisyXtTgsNI9wxnZh+yQEXLLuf1jMhsz5spfyax+zNpjluDJGotfNcjheVHPoFxHgPbRncHlYnEJqCbdUJeXDnE/PyPMXIQJGiJexyhXFYL/SC2fUlJZX+A9QgQnGmAAWRLhXES4vQIT9V54DlMVlwAdmDj7d3qlqXRWD2zgvznrQ6+I2L1W61BTMcKD6eYD216ahtjkXcR1QH5S3Q0qQ5wVw4jr84LU4zN+tjAU8PFdUEvoGlqZtT2kUZSY3uzjs6gtiP8ZzgARJ/K5oXgBaOGi+PFRh3cewRXmqYr9FwdMNk0pbq/A2SIY0TcCHI2IwKyvP5IGaUTG2Dj3VUuURxoFpg0f8gKnh/kALFXzYmle42QqpjhYRfW6rEmm2HOHs3mxc/A+c89oWxUcY6kXFsisKnnmhloHog+ShEJGx4LlwRlWWNVkKzR+UY02W9TchuJQGOC8Uxb1cTxNnj1v4m6cRRp4U+fDIsVTY4rQ0VQ7SBu8GpC9PwVg0niBb6FwYPF7OENqGzeAeKYeVLPQEqRUIc7g4H0g4S3SAn8ibpxN+6AXNACOuD0BOvMCPx0Za00C2MQwHCwfKfsDwws1W0Jn2I1gwHUKy6gt8DEAlWgZcgBgaY/o5APWAHC2KiDIWBR8QwMXpTXNpEjCYc7l0C8JzSQ7qLa55IkWBPEDCI5jUnIPoZQQHOaYOWvihJgitIV/eH9cR5nw5R/CJ1rnC+p0z0zq14452fEKKn8NxhcHT9EINl621w7IACsaiyR4OA0vlyZeR9+fTetluf0kT1+HP5RswbGG6e+q3TFmO5zh8Vxg8jdMbsnXaVOm9LGM8GC5CgHS4OOfZzQlpwXEdZwLxcyyVn3jC83GRPmhQ3xkLA43FbksDAZahygBg6BV1RWSHFsZsXMygfQNmhwwze4hjWHQwbwSC+0H0MD3p4hhEyxP54xxx+evwxxmewh/pKZreFpcHWjMMbf6yzYpZrKcp+lsYPDVYXqEgg+eVxCs2YoZRlAhMIVgccb2Y2f2Fd83Nh4ef8+LhjNs5zxO0lcyAQ+O8XCmcP0x3WMBBo2hvW+q1u3qXPIthruPUpH9KgZCl4RtqpoPmtR4tZKFwUAmH8DiA4QhtytPDD2hsivStZUqnPDw7FmBmHYPGAl7jbPKxN3RLbEYI7Bx4JK4oeBRW5najLSJqWQ/m2ZLKDqTF2IVW5IWFSQ8P8ALQodGOfAEYefI0Ij5oEccfd8gYJvmuhqH9i/S2aKvODjBJibNvCdl0/fDsHTQKg6cvK5PeHJulYdSaR1Z5AQm1nxc4yzI4xV19B2iYluu8xg0y5DwmfE4bibK7/xZmV15BbFCRQwPZoksrYUbBQRg66rsGWGfz1VDLcIg/hfVWtzD0EJEUndrWge1g58Dixhe1fTA+TGtEJ9zDAR4040weAAEGnyQIHGmUaRVbLtgGlx0UIWx5k4lpW1QANPSlq5KeTymsQOTJu6IZK3p8ckwvpeF1v2ZjEMS+MiBqEoG6NLoHAiEfTt7hNe0+7xiH0bnnHRozLMP8lkZlWvUv1AGRBzBZaL28H/JKhr0DOF6yGg8eC/iyGtRK21GeL66g38CTMEiufctWC3m+Ca9qC/g6cXmUNK+GjfN3xLNNS8s7So02RiZmalltL2CBsHDAgHA4uyHj3kEYl74TwkFAy6gcs6+WFi1z3AJ6rrnDQjmulfBFPp6bFR3Gp2rCpr1iUi8D1JdiKnWJsEk7bO9U+D4j7T9RG5BvqTLncnEDr4E3k9JavXTiBBW2Un2CXntk8XyuQp8ASWNi4DH18YnjeSqsqoe4aAL6mEUaGZ2wO2iskuIAhFI5rDoIzBxZArAIC5AHwCJpzpHeDoUZvUXx0PSN2vlM8pNOeYmjn7WVJwlXG9HzFirMNFJvnpxYtnyZ7v49v11LY5qp7bKuy2dzIFBW3Jzuc20XsN/U9YzyitrQMd2qfOf7d/3KJz/1zxfPz7U2ognaHeCJpFJ6wE1D8drIAw9OLb/++u+WuzJ91F5XD4g97amnpxMfuzE156eUx3tgewus4kkDo/59WaWXNKThwNGETBDxQ1qCObtf1kx+XFzjZ9lcAZl6KUCAMALIu0gfr/KtSxM6rN/pqZ6bvv299OAuvdhBdpHHCDZuWNc//tij9ZHl6RnpMl+GU5yaWrXGN9MF7mjnUccfd8drf+tVfzgxWr1R/NK/DJzp2L9+8Usr3/dXH9zQGJ1YX6839OSiP6BCp9C2nlUNVg/SjY4vV0bvdcuVkXT1Nf+R/u0rV6tq/Yt0ULVKDwEHxchDG5KL3tEush9AxHGO/XSAYIfU3MN1TTLxw9m/H2TZ7Ie0pGPgguPzhoRh61jM4MmesjYgJ33H0VIInq33PpDuvOOehpI2Qqmicu3pZdp2b37umeeeM3nmqSc4k0bdfwCvtGfv3Ei1MV4eXXaEOgMGkDwxoHwqnG8OwWxFj7bbTnJpkAsrobQ5uqYX+PEQnDEu5vUVTmdaecMRZ72cFe/x+Tinh1KJtgybDSaU3a71HgITSAaNM80QLa7oUy9cR147Ayy5KVv/FMcnbpTI6i6UQuKRRp2zHh0cn5RGs10uk0tp8etjSRpgtHqt+b3Nnffvuj+deoJrTTCuM+D12q3OVn3FqYl20fXrcSMtfKo5ACAM66/bmdevHrZTLRLmfYx45EFWxfASBhi2ngzCWT0hFMbferpMWColhA4hVZjy2mBDua17MHJokurDytOyhDwCzMoRgA6C0WKvIEXaPR3RYfqIs6TZr+1PsUQKpSyAUquBHiUCsjgTs7zJPbX1waepdnvuHn2bdptILQmeVLpdEwly2T8qXCn3d+u9ns1qo9pvNlt9PcymR6j0KcB+pyQrmG2vpWm0ZAPRVU2SkNId9zps5VlA92uyo7Bb4jsaAKgHWGkRpNFhy/uytKSRYilIYgEGLpqx91IWgJW0d9RDFl2zxkqFckmdy2earkuQQSEBiW9OZjbSLAD06TzkuqRvd7vlkcYy2fXSsrlme5cesb9b7F8/2q7bOwVImHfWbNvN5mqVwBM+plVr1q5uv/tdb/7fk2P12+abc03dOdPG8Wq1z1fX+KyD2pZJp5dhqlA9+SlYZMwEBD8Co9xRx6GvgOuGkV5MoDQom578s60tPDLf0Qse/Dnusg8DlE9jyP6o6kip9DxpVtGAHgyLP15HqpWdDnwz6BVd79z0eIPWfLBoVKjnUQgiiSHedGrjvF6VL2+WSh3Zc3WVlb5GFKwPTHe7pfL42PjYzbdunXj9H775fJkfPQ3U366quXvZsqkFHUXwY+CJBcZ4JZ4KxGaphjpP/OnHfrE2kW6RrqriJA6VpIOzdsYgEIcu7aD68OMijjMursMfZ8JRr2gO5Ge0wHmgwvKHI32UF2URF+Us9nMdLtIEDc4RRhq6bCt/vtdcVil1Vuh6Vi1qRi/y37Vz5858WtKbsxrERNrX5HjVh+pOnz3t66nJ3UeWSnsj4U/K+eqr78YKbZPGyWyW25pUzXz/+98/IHj6qqn6czU3vZ9Jmo6B0A8vRfwJdGvXzvZ6zd4uWaOq3kPQlT1acnYBNDQPLQ9X71d/uUvD1nk10paM6P36+t/wdT0/QSDecstmjYT622Wn92o6NdPt15tvectbltQ8A2+21blJTf5KfRf7Ohn7b83OzHx6247pn7gmi4783M/pMfj5ddv1noGHev2RPeqD8nPeBWpkhvekk15a311qHamvsG/QkGDZWD19b8vm8Z3pn/4pjPmCTD8RF894RvW0qU2liYnb+tdcc83COeDSALy0kk47jZ73/7sCCPxfGbaWtu3l7lQAAAAASUVORK5CYII=;" vertex="1" parent="1">
          <mxGeometry x="470" y="379" width="52.67" height="100" as="geometry" />
        </mxCell>
        <mxCell id="DgLy5RoQ0d0XZZFZ1Y82-6" value="" style="shape=image;verticalLabelPosition=bottom;labelBackgroundColor=default;verticalAlign=top;aspect=fixed;imageAspect=0;image=data:image/png,iVBORw0KGgoAAAANSUhEUgAAAM4AAADMCAYAAAA715zPAAAAAXNSR0IArs4c6QAAAERlWElmTU0AKgAAAAgAAYdpAAQAAAABAAAAGgAAAAAAA6ABAAMAAAABAAEAAKACAAQAAAABAAAAzqADAAQAAAABAAAAzAAAAADJ7yxdAABAAElEQVR4AeydB4BlRZX363WYnjzMkCUHARUXTKwZzO6adUVFQSQLkhREcs45CyKusop+JkxrVsyKigqrqOQoMDA59HT8/r9z6tx33+3XcbqJXd31Kp86deqcOlV169atpUnzuFKgv7+/Qwi0yfZnRPrk9mbbX6vVIj4nTzpPBArUnghIPB1xkMBMUbtnyK4vu6nsPFn6Y4Xsg7LzZZfLrsq2W+6kQIkITwTDSDdpHh8KzFS1W2a7RV9f31bSLlv3p9rcVOvvbUm1hVJC98neqzy3utuKMC2QXSHB65GLDWHCRVth0VJh5R1gENCwLSU/GaMccHqEE+6kqVAA4k2ax5ACWdMgNBvKbiu7jYRmCzGoCVFff21eTb1SS/0wsIShr0suVtqnf2mt1rZIMBYo/wKVe6ilpeURpS1W1kVyl6XUipbqlEVDIVghTPKasLTKxTJoTlW56XKFTytTRhMWuWg5BPR+WeCvUH3AmzSZApOC8xizgpieKVmhaeTfRhYB2lBpYuDEFK5k6gN+rdaKOGndk/rk9uEqY09/fy9MbVZ5EBb8aKAQHIQQU1MdaJjW/lqfC09ff7vC7S01yVF//6r+WnpQef4ugfyH4u+QvV32NgRV7qTJFGDUmTSPAQXEjAgEgoGmQXAQmC2ynzhpmsZxTAKhaHG7xcPvGLF2qrUqqlUwldbfQbr7G8uTWTYizR91eEIt1VpycoiW1l3K0y9t1irhQQuRoRP4MsuUhvZ72ptJwXnsWAChQWCwCAzWNI1c0gY1LhSeHIxfzVwzRRIyolRfmigiBK4QICsquTM3C4QnSgD1b3iqHk3jzMQUjfBtspOaR0SYFBzjjYn7EWMOq2mqtQcz1+NbTKMQDsEp58FfqxUCknUM4fo0rw6LGZnmeVJGwCqJWpKakS5rAV+mkxjWShimc5hJzeN0mBScTIeJdEalaWxCVDC0a4VALoTFBQWWRzC0/2bcLz9apyQJ/XVtU44uBAax8fokRIKkJVTZBN6TmqdMleyf1DhNiDIeUWLuUWsa6i3xfYGGC4wLieVxSSnSCw/rkJxmAlEkjMzj9RQlTfNkDTepeSoknBScCkHGMRgjdsOaRszJRsDMmHJV64N5G9M0fZI0sRnmjI1shHiV4tAuES2g4Q0xcLc+dWvJ2shBeW527ZqYaMek5ikRZ1JwSsQYD6+Ye1hNU2f8gTXaqgMuD843Bkd4ioiGQkV8SEixrimteRpKjDowueZpQrJJwWlClNWMihG6QdMI5pCapqizIh8uD1kIJDwkh+ahTCE4BYChBEbroUKwigLuCcGr1F/KFe2a1DwiyqTglDhjdbwj0TQjgV9apowke2Oe1SrcCKpJaFLzlIgyKTglYqymN0bkpppm5LB1NECjf2iSsgIwTWOHpVEPFc2ijMSW81Onh+sbCwPKhaYh88hMtPNprXkmBWdkzDJorvHSNFEBwhFCE3G4JjQlt5w2tL++ITB0vhGnTmoekWpScEbML4NmjBF4NTWNCwdC0yA4g2oEFwg/eua4ebmqoIRmivgI5/ZUVdSgzRyQEO1+WmqeScEZwA8ji5gITUPNDUJTQiXiXVDqu2xM6+omhKMeM4G+p7XmmRScsXNWjLjNNE0cWTHoMc1qVlUIRLjIgVY5OsbsQtD82QpawyWmPrXTIRpFOZwQIOXLgtXb15taW5s+pynQ8vJFcKSeoMPTSvNMCs5I2SPnG0bTPEvZ4lzXsJBDWKoZ2XRullYWwPDHGTXye5yEJtQQ0zAOe/bVkk4653SXpGbwB3lUVEWvGq5qHqSWSvRuULqvmvmpEp4UnNH3ZIywVU3zHIFqOqTXmTo0wkgrDc2h/Do5gEChjTij1p8PdfZLKGotftYMqH3SVC2W5muZ3t5eE5q65gqYLkDl82zAppYxmqALFevFOnuX5ynLX0/Zho2x8wctNgJN01RoAmCzET7SGlxpi3peZ340ibEzP+J3Exq9lqM32CQURClBYTRGnfG9bAtClbVRHW5DjRZwgRwYP4qY0Dy8r/Oo7H2yvF36lDSTgjPybo0RdUsV2SLbbeVyImDE0zPlHdLUmbsuNDbz4vmNKwkd/6+lXmRFArN0BWub3jRzers92WlBMylNbwiYUFGZCV5oKANW13zKmk3dFzFjdNdQue1kdWdCul72KWm8d56STRufRqFpZFnsIyAIzTbZ4ieuYSNA4TEZmBuruZYJSBHO0AjrPgITlh7F9Srb1771w/S2d+6c/uPN70znXfiptFxnmGMi5poIbdNqGgcwBj/Da+agdaLe4fI2K5/j2CRYT3ZTrOCsJxsbB4p6aphxG2aeGuQY2Ap1OoKBkISmQXBC06CFmKKMyTRjzrhFjRfNeEna3rEpQUdoVumdzBNPOzd94dqvJG2Wpba2Kam3pzO9eIcXpNNPOjZtucX6hbZxUUMYfco24OQA6yUEtnoSIddZ14AlJEbm/buyfUP2etk/C86Dcp8yZlLjDNKVYqaRaJpxFRpDRWsSXaQxQGjQMAjN/EeXp733PTh99rNfSm3tM1OfXtjs0dRt6oy56Q833px2/9B+6Yc/+rVpHrQP0zkMAoCAhLXI/EPaYALiQlXOPWI/65uNZU0zC8482THTa8S1PkYZJwVncELHmgbtUl7TwAikrZbhgk67jIMFCUwtBy3Tq10xhKS3R355JBMSDJ/B/fXvd6fd9/hw+uFPfpWmTV0jda7sTR3tU6Vx2lJXV29qb5+R/vXQknTIYcemqz7zFS8nLBEedtcEUWufngbhCcEAF3AKISq7NNRfto6JIDH4y5a4hnxtCnLh4rqyaOlxoZvgPCEMjZs0JQrkURHBYP1CZ9PpCA5+4lZrTQOjxuhuzCmACEys/bmmqU9/PHfB9EjNsBFw/c9uSMcff2q6+/6H05zZa6WVK7vTrBkz0oqViyUMfWlKe4eEQ89qWttTl4Tu1DPOTXffe0864rBD0sypem2tpTX1SmhauNVGgkndzND6fT5oMIZ7QGoIjfxnTbV1PdWzTOLFS91I2VPmzgJRcdKUKaDOHqc1DXxSV+jiUTPSMxr/+SM9GFcebQqY1uHCDC3oydXN7VDqoc9/6RvpjDMuSEtWdKeOKVNTtxJmzZqVFi96NL3kpS9IG220Ubru69/WyQBt7knwjEclicuXLUpveN1O6YxTT0hrrzVDu3E9dnpAs0E96/GpW5ZPq9vxUvGmxvEtt8mzVeN9zZSfM4mc/UulNb+tPT/WPHZHm9wn/T1tkxonM4k6mPn3hGmaXI2JjPtdqHRDoAVtXSPJaWlpk2bw4ZmUs865PF3x6c9IIKal9o7pqae7J3V0tKdFCx9Ob3/rf6aTTjwmTZvekjbbaIN00cWXSdhatfZh3dOXZksz/eCHv0iPPnJQOuWko9O2z9ncNu1cvfWnVmmf/uJoj7RVFurAdWQu7QjhYSAIjSrYEkfdnjhbsr+zJog/UCPaM8M96TXPpMbJ3KEOHydN04zdYKy69okcMBmGaRNrDzQNW86scZYu7U+fOOaEdN23v5M6ps606RcwprQpXTtou77vXenooz6msKZy0lYIwTe+9aN08qlnpUcXLk/TZ8xOK7u605TWlrSyc0naaP110sknH5te/coXSTjzEQdtQlA3Jh6cOkaKMAEoQpbHfwa2o5SoYn6JYjyk1arKklUPnh+3pdov5D7pNc/TXnAqmoaNgPKaZkuFV2tNUx6NBUvGGQ+ZyTxrsaxz2FrukwDcdfcj6aijTknX//I3aebsOWnlqi7TRP29XZqqpXTYIR9Je+yxs0FiySJZ0vpGvC73zzffno448rj0t3/emTqmzUyrVq1KU6d2pK6VS9Mas6anww47KL1/l7dZGcoWYlASYhMX2yxQhpJxbcI1vOSINBcuppYYNhHYZNBiyzY2iLF4E0Rdm9hXu1bh2yW8/5TL9O0+2UUSrE65TxoTrX/SIDzeiIoJJlDTgG1MYzKLMiIjMdxak5mKsGJtinbzX+9NH/3YUenv/7jThKazu8vWJV0rV6Q5c6al44/5WPqvd7xebCpWzczdr7ldaCv50t33zU9HHn1S+sVvbkhTp8/WmqhbO27tqXvVytTWWksHfWTfdOABH0jymgWzWHOFKLmQwB51/IkLAVFCg2H3zw2CQhnWaVmQBD2SW/prS5TwbSXdIal9SDlvk9J80j3nifaoHU8vIyYor2kmQNMMQs+S4MBNwWYcGPj+j3+Xjj/p7PTAA4+k6TPnpeXLl2v90p6WLl6QNtn4Gel0TbV2fMV2KqapWU2HNzWys6NmQoirqR7ro/7WtrRkeW867qRT09e0adDeoV1h2zTwKVlP1/K0y3veno475vA0Q7dDI0DOCCpcaEQwUzzaw4yfrkarmWrLsTgIDbkQfgwKKS+dDDDjBBsSGIRUbeVa3Z8q/lFF36PTQH9W/IP2oEpShFF8p+widRLfC+IRFhrpCXN3tdNLGD3dzOpoGkbesol1AnG2tSw2rBKWeEysJfADp1fcQ8pnr/lWOuvcy1Lnqr7UNmW61iWr9KymI61csSA959lbprNOPyFt+6yNjCu1fSCGVg08KA1c4F5gydFmtmC2pE6x22WXX50uu+Lq1NM7RWulGa592lpS14pl6VU7vTidcdrxaf21Z9h+gWkx4FYMdVBf1IWf503ayrCDplTaJZn7w403pVtvuzOt4OwPLc2weM6EZbub+9zYatfd1Szn7mtpbV1R6+9ZpJROiNbTK6Q1h9SuwoMzZk7/y7Oes/k9m2247rKOVvvY1hNmN24glSpEe6oF1fmrpWmCeYIuwRyESYNxY1uXcKSHv3CVX49bTGhOO/PSdPV/fyW1tk0T00zRkZquNHVKe1q+dGF67Wtfru3k49K6a02Fn1KLbVczYUI7qLw0ArIDKyKcvFIAU/fblrY0kNK+8vUfpNPPujA9usA3Dbq6utJ0we9cuUxCubkJz7bbbCwYAKzjTBATONuwQBuxtFN1dPOQSf/XfOHr6ZhjT9YmhsRJ2+I2QAjhKMtWObSw5Y9Qp6zuqXaBVSR1k7dbizXOo0qTPthS6/3LnFnTbttzj/c9eMiBe97V+gRaE6nJTy+jzmlY06iDtlGHbiu7oSih7eg+BEvG2Mi9pV86N0wIBeHYTTIWziNt5Ku6QOA0wNKV/bYW+da3f5SmTFtDzKJxWNzBTKa3e0V677vfrk2CQ4vplJJkVLCY7tUFVT6lIVASIOGIAMGOmtBZyq9+e3M67sQz0t9vvVdrpXkSGgnPjKlpxbKFad111kinnXh0evWOL7RWg34wRrSLtvIcCIExI8anrb2K0BIqvfVdu6U//vkWacmZmjm2aoXDus2FkOmkfX9HJfg+CX7g2WsRRs66sELfPn1sTq3sVEsWtbX03yc0//71r33+rmdusq4+pGVfTHjc10RBBifGU/hXHdKgaRAYNbf4Epr8+fs06jIzwwsO2UJ4gsFCcGAAT3N4PKEnzFqGQfquex7R7tcJ6Tc33JxmzlozdXb6Ar6/d4WEpzcd+JE90j57vi9pVuXMDBOqrK85EB4LOKr5F+EhjzLJJz9CZIt0plZahd/5UDriqBPTH/54c5oxa15a1dWTpmg/e1Xn8jRLa52PH3awdtzektqFn4F3UDYoRFv6JLSkuY5oMfhLl/enV77mLelfDy/Wrt8M24iAHhzxKQ80JjCZLj3dEiambMIVw5Egm8opjpLdmrLx+nh7q74817Psts9dfemDO75i++Vq0T0aCv4sEXzQCtryB18bSyzeA/qHYMZyi4QJMXkpNiGwn2hAebi5ZbZbyEVo2BTImkY+mXpHw4EDDR1dz+P5o/PJDWPzUNHyiQGcfcUcMKPSWYr8/g9/T0ccc1K67fZ703Qx8PKVnWlax9TUuWJJ2nD9edoy3j+99S072RVEhfg2oIMWMe61+qjXkjnYwm6dMa0q0orchQ3EUnrm5uumKy49Nx197Cnpez/8ZeqYPssYdIoerC7VjtuJp52X5s+frx23PZLWFIz6Vh5B8Rfi5DIVzHXzXhD1sl3eL2xb2zSdlLah7dM62kyzgAthtA6Dh3bVTGCoADr2M/+UKQYWjSq9iu/rk1AK+e6+3pkCsWV3T++GGnR6pLGep3I7qj15+9pZWJjo84v9vxaG5wgcGwoTap7ygiMilzUNglPWNAiNPacpM/9wFDehgJuyKQuSOMBi+XWxYVR2g/utb/88nXTKmelh1hsSmpUrV6Xp06drQb00PWubTdOJx3w8/fuLtjItg9A4W4mJBdfPrwmq/IFDMBx12TEaK8FEyRfvPm3ztQXPe9aZNy2df+6paa3TLkhf+H9f17N8PeOxHbl2W3NdcNEV6e577ksnHHtkmj2r3XbcxIyaWvIKNgzuAtCqnTsh4c+eNL4rWvXzALdfD28Xp/d8aJd06MH7ql0rJAQcLFXl4vzAHUEKmpPkGqcttWtj5Mqr/jtdcdVn9RxqKg92p0g+57Fu4zlXK1uATU0/wsIr2/T3pOA0pdHoIgdoGhUvrWlGB2zY3Bole5lm6OiMCZS4je0jhObqz34lnXPupdo569eaZqaEZqXWBFpnLF2QXvLi56eTTzgybbXZ2iY0DOXiy8LEoU+YmHhnQLQLzAjTFlnlYVroKyKYHYNuYOoG383UHsRJxx2S1tHa5pIrPiN8tZhvnSpXjKvXE770le+k++97WOfjTkqbbjzPhUKCUjA7ddEmhEV165uHYGWCYHkUOXN6W5qnd0HXmjvdp48qYgNBCU/WeeAHHKaS0EhOWmetmSrTLTtVIehQs+lfbpJiqK1qgK6nrkKnmjIR4UzWiQD9+MIUQw14n0adirZB64SmYXRqMHTSULacuZyPzoSJeRWA5ymMsP21dhMaDmuecfZl6ZRTz07dPS2pVa8C8ER/Sntr6upcmt76n69JF593WtpSQgNjIwRYGAoD3Kqhbjfh5q4kmKOalUPKmGZM1XnQgw7YPR131MfTzBlt2vZerHb3axu8J02bNTf96nc3pj32OiD98tc3aRWh6ZNwsTaJN/kL3ECjT7uA4GN4qwEcC+rp7jRBoS6eN6HtSDfUhAMu6zcEukXb6m1i92j7ck1ZWxSot1FqZMoUhVVocAMBeIWdKifcPGUFR5QLTcM6ZgusRm38CM5MmKpqGS3DsLWLhWXNsm6wtQOH/iUJaBbt/jDFCEtxJkipX09axGAw25Klfeljh5+ULrnksxpdZ2rKw0jNkl3wepan3T/wjnT2WcemddacaovyMm8U2mIIjiGpzGDsuLl+8/hoY7SLNoSBkXfZ5U3pNG13P2P9NSTMi9P0ae0m1Jx1++ft96QDPvLx9NWvfl/PV9Qs4V5jukVDbcqm9lK/uB5qWesVDz6cVsAg82X9AE2RAGiKwcdntMkXtk+VibwqB0ymZ6ybooTyqc7I6671JedlGQi1zTHx5iknOGKUAZpGZBygaRqYLdOZuDKjiU2KHiCtXMZFypmTTJxqZkqG0CAcvEdzp3bO9trnwHTtF69LUzokNOr7Ni2uu7SLNX1aazrmyI+mY44+SM9UfLSt11ZUO0oP07iBUMq4+5TPxNuYsUW8+cbXvTRdcuFZ6TnbbJGWL16YpukZzyq9nz1t2qy0aFlnOvq4U9PZ51zmwgMdJNHSLzbNojrWMAi5XVOlaRrCyWACJlV0ykIEDT2XN9M0lmgEvjFoIDSsa6Ic8OgXc/Gbtb7REq+G0GgiOvHmKSc4ItkATaM40zQSCtKGMZCEbmKEY2SVi1WcWYSDYZbRVztYtmhVXhbFjLzM1Mj9p5tuTXvvfWD62S9+l2bruYl2h/yksqZEG28wTycBjku7fuDtBpX8mLI28JjR/9oiXFBjAPBdPrSljcoGEH9vb7eUk9YRsK5we+HznpUuv/i8tOPLd3Dh0a4YzM99Bv2aAV1x1TXp4I8ekxYt7dV0U82nnbIwbo9GCUSgXoc2E3QgFX1hioIGYomIghkfyiAKLEyAZSF2AxVAyE0g5SdsWZWvuaFTehEc3jqdcPOUERx1QIOmYT0z3JqGzqga4prFB1NEOtMtnmVYl6NtVI6pGROhb37n52m/Dx9iJ5RZL3C8f6rekVm2fHF67rZbpksvOS+94fWvsHk/GNh1t+KKZvVW8RsuXIYR/sDZylKPPMaU8rUg0GLUFk2xNt9knXTZxeek9+78Nj0gXazW0Zo+Tbt609Rps9WuH9u657a759sRG9ZuzNpsqqo2GgFUIqau1IcglDkeOiJM4dohHMsknOQiKODmmoYpmq/1iWvSXUDPxlZQ7CbMjpiJdJ8ygiMiNWgaEdrWNOqgLWVN0wQjlQkaTBVupJlIFUOcCxidbesaMRkbAG40EirIVinrgE9+6tp02BHHpYcfXaazYbNTF0w3VcdotAmw48t2SJ+89IK0/XOfqREWDcCpMo344iTHbXy6AzwHGqZnWp/B6RhNp/TIxadXim/TnK1V5daYMyWdftox6YAP7yEceTTSY/izbT5t+pz02z/8Je2574Hp5r/daWJFm8Xq1n4DKxiu5YQDdAEVpm+IkJpnCtvEibbKWtvlE4kRDBMcThZoFy+e8TTrN+qqGEpPCk6FKIMGxSQDNI0yD1jTDAqgSQKM58xH56KBPBMdyAPAEDLNZOANG2hXiMeOPe6sdMaZF9poXNPZLJ5+t7XqFeali/RA83XaIDhHp5zXNgZuhWHEvEzPVEOurwkyo4wC72C0aIe1RfEYHaq0umydAi+LY619CJIeuKP9tMRJHzt0n3TSSUel2TqdvXLF0jRjmg6eavt8qh6a3nnXfWnfAw7WqYe/mvAsX9Fl6ze0Asa0sdQvcBtwUFrQzjLqx3DLAYQHg7bBsBmBQevYpkKWeYsc+ENmpmpzByaNf4y3dPzhPpYQB2gaVb6trO2eVTtqWMTETDCyWMqywm42LVeUrf1NU7hgEWbEfXRhZzr40KPSf1+jg5o6wq+nDsYQfb2r1Pkr0n57fyCddtpxad4cPdATY7rQyFUVrEm47xnGMOYYFsGhM9BemHFgu8WMdrLA09AA1EdeGN1WdfIjPK0tskrb+b/eZMK+9ZYb2rb57Jkz0splK+0V7oceWpwOOvQT6ae/uFknEObq2RTn2FRKzM5GiQuM4wqdUCnl9vkume/ARYtctCU42ru2AYW1jk3REG6AuKn7IqZw0ThrF6EJ9DxpBUcdM0DTiAFWS9MYnekV2TLjMVg7I8BoTM20aybLmuaOux5M++x3cPr2936cZq4xT88vxITi0e6elWn2jCnp8I8ekI4+8uA0a5qO1jOQ1qSFbOpicxybz1OXjdJUtJoGPIPJ8McAIMQNssfF4AA/swDXWkLM7k0XMyPcmrqx7nnpS7ZLV3/6svSylz1fmnNBmjlTmkfqtU1HhFZ09qYjjjhWD3UvECCes9TXJAhJndfzIFRpn9HYavVGk4yFFkH/wNfbNSRxQB+Nw/1t+CfUPGkFR1QZoGlE7G1FNFvTBMFXl3o2fVBvsqDFsJZhfEYL/eq3N6UP7rV/+vUNf9JJY20CiKGmTe/QkZNFaYP15qYzzzhO2mY3jd46rCgA2muyNzAZ7ZnWGI4AkvVZjthNdWFDkMrtKPsdm4G/pi3BVUINzm7VzZmLTajkNxwkNC5C4jPDIU9DVRj9wDSTA5+bbrS21mbnpfe8522pWy/BzdLbb7YBoDpWrupN3/rOD40ekj79a7lvAuRTQLaS9W6NJAJbn+b6uk4IQtvcDFAE35iqEU2bwTmmgZ510Dkbz3E4QsWD0Ak1TzrBESEH1TQi8KAnAsZKRTrOniMwZUBgjP2TjqV8L334wI+le+59KM3imH6XTgLocfyyJQvTdttulS65+Oz05v94lbag1YtiwJqmPzxBFytkC8syQvs0BOjG1BnR8IdLdNmfsw10hC/MiDHtGP7YFCAeP4dBwcXyw7FCVMJjmsdwgqHVWp7qi0tmzWxNZ552ZPrYIfsKQqdpzT5tZ3dyIYi0j+9+ob10uFO0amvVNrajASpKN8d+YgAIoYhwOV9rXksCKwaRMow6tAYfpwbWlJ3wnbUnneCIKINqmpxmDDYiJlOBqil3oqWpt2wtoACTK14JuOSSz6Vjjz01LVsmDaLbM1dox6ldx2cWL56fdnzlDumqKy5IO7zg2dpuhulCm4hHVd6tgLDekKnzk0Qnx1m8MW891TKP5EcqMgZ4ybitLWzikuPtIS1CQqLVl1kALqet2vHwaZY0h5iWd3AQ+HZlYxA46CO7prNOPVaCpMG9r9uOyfAcB8GzM3kSSo4ddXToOSTNdLDWTtZ0GO8btA945DD5LORhS8v40SducwZrWPgbXASHzQE7uNuQMs6B3JRxhjoB4ES4QtNomrClRiHWM7amUUeYpiHPWAUmUNa4b9xNR4Vh7BVr6HlMSsccc3Y65/zLdARAR+hlmbKwoF61amna7f3/la647Py02aZrS2h0Pgvq2txOEIrhMtgD6E7+cgyx9byERmfAe6jypEW6MSd4Ya29YmYJi2kjhRnpfYrEFNI3M5i6vevtr0uXX3Ju2nyzDVKfrqrqkEShfTyviksgeE2bCZUJcZMmBH3DLWcp40h8NVzOW/EjiQjO+pX4cQ8+aQRHLS80jebAWyiMLdY040cZ6RVpCjqLkdc6X8DnL+hOH97/E+l/rr1OL56tpXgGNzETW7h9q9JB++2u0wBHpzkzNVWRzLFz5rfP1OfnPnVix8it4cyoWtI0q9uO+m6Vy0MIiQlHFhKGhCJefmNepeGCG9Mt282SELEMAibyhEHIOYz5sh2enS6/6CydOHi21naLbOMD4UFQWtra041/uiX960GdHlBl0BBauvEQ9VOfu0pRucjBjhrHeOgHSrIr3ShgHu+QPc1xN0LOUaHNvK6J+33CC44IMlV2PZFgc9mtZE3TaHRjE8A0jeJYFDYwA+ExmTw9oCzah46/6W/3pt33/Ej6wY9/mWbOWUfv1UtspE66V+kWmmk1u33myCM+nKZKltg585VQzS6oyB0qaDE1geT4xQ0yNiK718Kr+xP14aIxsBjWNbamqVRAPkvPLng5M2f8lFhnegLoXxeerZ65QbrqygvTW/7j1dpNXKr4btGkM7XrmM6f/3JL2mXXvdPPf/V/+RiSBEXlJIL6dbYLGmRSKN5NEY/gBp1MyCJH3Q38o6hcjtxsqHivpJ51XH0TCnycMOULX9vLvlh2azGCaRr5txRRZwZhFR4fY9todLDWM/r50U/+mPbd99B08823ahNgba1nxBi6o2yljs9svPF6NmX54AfebLtP2gPQch+mqpOV0RtGEQs0WEcWFoShZOXFYmCGsB4z8t+gB0JPrfzZECAGBAcB5tcEwBpJqtKs7tx2konD8owJ4/SQn7VSFjKmovPmtqcLzj8p7fWh9ypJL+VN0/W73OOm94zuf2B++sjBR6Uvf/UnXl5wgAYsBiSMwbII1VnEgSG7jtQlHBB6o4kVyT+eXo7Br3zTlH8DeSd0Z41efUIZNXyqEEJYcDGbyiI0aJsZ0jRon9A08non40LcYBzCYzG57+xJ+Kf1qYzzL7xSa5v+NG3GHNs5m8F28+JH0/bbPzudccpx6d+2BRUXGOfIxlrhsTJOZT9pUV9jqeahkbbP1i7GmSYizpAloSjDCXxifQJr+6vfWrcgJyb44CMRdHCGHNqLIE9/ON19zFH7p4033CCde8EVaQUv8tW0q9aiLyd01dKxJ5yZ7rzzTr0Svqedz0N4gGW0CaKVYINTHR+rjhImdAxMwxjWuc9QnrVk7x8m75iTn3CCo5asoZX49uoRBITRZlMRYkd19uYKtomgCBTrnWzohjCwoUYpH1sjsuTCFD5i2i0weRpDL9JZlAYap39POf3S9JlrrtXu0CzN2f2kMFc2rVi+ML3yZS9MZ599ou4HmK2astBQC8yauQt4mOyYP35gXIzlyf6yBBkuig8Y5I0y4RJXNlGG9iOOtTKX54yULfIZ4yqsFni818Hn3wPngcwbeUQr0Y500KdG5sof2u1taYMN19elimemBx9coksV17D74TqmzEyXXnFNuuXW29PZp52Q1lpTD0uV31B0UhgQ8+on2hj4Wj0UyCb6t2iL4n1tRwZJq39KkZnJhAkO/f64GhHHdsvkPkN2YwnNNjqy+2IJzE5YEQdtwxVOG8sykrDVaGuaKuIQ0k1ZmCKXx5HHGAImynNo4ug0pmZ6/SQdcNAx6VNXf16HGyXDujQCw6u8ncsXpXe+9Q3pk5edqwecLjQFAa3XLeuwP9QXuIZbLgTDYHDL/sgbbpQhHPkibig38jdzhypHWtQdQqWqCyFAG7z+NTukSy86O2255TN00uBR7a5Nsent1JlztUb8dXrfbnulv9x0pw1QhVLM3ZabbXXYhYe0K7q0CWL1Njf0N2igbRCcCTNFv09YDcMDjt2yFyrry6VpdhJn76iOMauO2k52DTosOq0RJE1obIbTOhNTvRMEhh3ZrSl2bNi10bBHPEJzz/1L0gd3PyB95wc/186Z3qHRyeYp0jb9eg2Yk8IH7v8hva15lC4v1wO+XGvRr3iajPKKHdaU21b2U5Aw+AejEkc4aBHpxA9nosxw+YZLL+iZOR3hweCyznv+dpunT3/ygvTyl26Xli56KDG95UwfV1Ld8s970wf3PCh9839/Zc/FoD0mYJb94KvB06xtSgi+TRKKeqnY+xk4GRaRs2TZPGpkDEWOl5kwwMMhqEYVz2WUd0vZf5N9qaxpGLmbZsuULdY7DQRWvIWN6JmY+C1MYiYqvoizrVYevGGZpugXofn9jbemD+25f7rhxr+m2WusqaMleoind2g6dTJ4zuyp6YTjjtC5s93t2iS2Y5EReqhu6MAsrPXIYX2BVzkjccHk4Y98zeKJi3jglP1luGU/ecqwR1ImyjfLa+QXHRmGGFQ23mBuuuLy89N73vXmtHTJI6KXv9fD1HfJ8p50yMeO0dW8/08v+In+ALY2eA08UKUOFxp/PR2/dqnJZgbcHX8/faGQ/Xlq4vujm8myVp4Q87gJjloTmmZb+VGrW8v+u+x2sgMaHIRS2tAGpiMHm/+ydVXv+1okRccjNLzOfN23rk/76sWz2+66X5sAs+3u4w6Oz+iLZltu9ox00QWnp/ft/AZ7PsPOT+47H+JsvuG7PsAejaFNYcIfLvHgGbgSrqYRJr0aT96JMtQVljrqdYMLMfmcmziL23TOPOMIaeoP2v0KLbxCAb7S3/0t09JpZ1+cjjlBr2FIIBi8ECCGHs6qlV+GsxmC4uNZUvQpdUc++sV2DZVPhqn8RrIMyBNiHnPBUWObPpdR67aS3Vx2gIapd47TgHBYj8m/isdEfghczweDKcwIJ8tIp5Pw6ZLLrkmH68WzhYv1CYwp0/TCmT4XKKFZrqthX/Li7dMnNeV42Uu3tYd+MAaaxuB7VcUQWGbwjM2IncCXAsBpBiviyIs/3ChTDo+04iqckZSjTOASbpQLHNg4QIbQ6VPEYYd9dE/d03aY7jLoT12rVti0s1sj1hRpn6s/9yWdLv+EtJCERn2if/WRt880juZ4wMXPG6dcm0uYTR5ExU24Ochmn/MRg/GEmAE1TkgtjUDRJtvLMiWjYWgbtA6jA1qowVQ7pyGxHGA6i83TsBiVIC67MAiMCY0YntFNHwNInzj6dH0q8GKFdfEeF56rfIfOnK1YsiC95T93TJdfpkXuZmtZL6irsqbhVIEAsD6i77DWgZBydOQsMyFQwsAYYcIfbtADN+LIG/FRbqTuaMuV6yzXCxzHSQRRH8Dowdpw8a7vfWO68LyT7dR4V5feju3o0O4l2/yz9UrGT9P7d90v3f/gKhMe3u1hqkBdbgVbYqgqzJhACT5paBl/bsYOX87gvQKfPVt5OrzU+P6OrqfHULcQb9w18yf/CA3rGdY1CAwPQ4bcLYuOGaqjIWTVEEM0IxmzKi7Be0CfNN/nwx9NX7j2a+q4uYqH6GTq0cO7FWnP3d+n7eaT0pprTDFNQ2k6qAw//HQihnDEWcQofqJNVbcMItpfjRuqzqHSynBG42+GY7N6YjMDVkbzcK/aa1/1/PSZqy7Wq+NbpRU6pjOVq6ik4VlT/k6vZL9nlz3SPQ+sUh/pPmtpGj/0qudH6pqAB674sQxg1E0fNMGBEwQMyEzZxt0wGEy0QYsgHEzB8G8j+wrZzWUZFWggtB2xofMgVIMrjcCQxJ8tOxAVzav6mJeJ7fnFe8s/9MWzw45Mf73ldr1Do+cM0v98u6VbAsOXXQ/cf09d1LervZ3po4qPnEV9gu/GOy061HHJSSN0orMpiw0TdUU43Gbx5XKRL9yh0iLPeLjleurPU+rtoQ5CCM82W62brr7i/HTUMSen//3e9dq9XEPb1fpywqzZ6fa7703ve98H09y1dEhWN4uaAtH0gHZziw4kws9pBptHSHiYZGAch4bBrUNxmyjpWbK3kWc8zYQJjhrIAg1BQZsgOAjKa2SfJ8tBvNUy0VlVFwUAgREU2xwQYZmiIUw//cUN9jrAXfc8aB22iu1mXYO0bNnitM7as9OxRx6e3v3212o0Q9QMgHW4M6zHWPQgPyXeb5rD4cBCYzPR1rGVfrxKWU+ocl+6c7p6vbWnpYvPPy2tOe/s9EXdOdem+6tXaXo2ddqM9K+HHpXWmS/B8dfP2Sior3k0wqJtBIPZMvQMY1NDpulMqb0jWpS+tvzbyf2uXM3/xs9MmOAIxdA0H5B/d1n21lfb2DF+U9N1BrTZkoLQ0YTGiKrRR7zON2fYCPjiF7+ZzjjnorRUTzi5pZKDmlN1rmrJokftePyppxyjEwHPN0Ex9SdgPEV3U++golZVxCle7zumDUVKQxvLwlLNUw1TsJy/7G8A+oQKhGAEUkGzQcLQVX/TtaQ85cTD0yabbJQuuFCvaWgl2asjG+j3KRIkazt6xciqu4C0HoLETNsYCHl4Df2RIvJy4bxru4Z+gOcYqHlwfo/suJlqK1cbsBpRfj7zIQHcR3ZchAbkYDYIhcHN3gaXnWgpdiZvthFw9tmXpuNPPlOjmp4xaOesi9tndDCDb2u+8AXPTZ+6/GITGu0L+Ds0dTmxeoLBo16LLH4GFxqylMs2L18AGtKzOmWHBPyYJ4rrdeWUvRynPth3r/ems846Kc2ari3obu1s6uQo2sOft+leB73vxGc/ejRlYFMH4YGmvrZ09i3ThrSS5fnfZrLPGe9mjrvgCMHQNO+Uf3fZcd/VgDAQC8sUjFs0w2hgsrUMWmjxkt506KHHp8uu/G8JhIY4jWAQvE2Tbb5E9obXv1Jva16Utt56AxOYfgEDlH0eUB2kJafVYbAVz0hp0kgeq7MuNIqypMADN3DEjc4spz8R/WWcm/mHxxkNhK2aHK/dSLsqV2qDd5ag2lv+c6d0ue402GLT9dNK3dfAPKyzc4XdP92r/oLUS5Ytt75mc8d0FvNphER9ynSOtaZpoMZqmTysK/sCtYUzbONmxk1whFhZ07Cm+ahs8cR/vDAOoSnDizgpbhckee57YGHaRxfnfeM7308zdNiQEcsIq9d9eY/m/e9/d7ro/DPS2mtNt1cC6B3rSHUsDIOhWwK2ReR48yNEZushYERZYkNYAkY5zUsN/CVvmMH8kT4RbhnnZv6x1xmsBo3E/Wzn6+1YXgTkleqXvPi56ZprrkiveMWL9AxtgTZq9EFefasUmrHp/MUvfTU99PAyv0FU3UNfY/oYOWXo29io8XDRF2xAvUh2E+LHy0RrxgNeaJptBexC2dWbnkGPss0Y0pk2usBfrBKz4Qpa+oMyf9G7M3vvo09U/OZGrWP46phUv16aX9W1Qq/5Jruy6bSTj9DnLTRaCQRLGc5YZfWlOC1ATWzoECogkxxbleZOL5Aj3U0wWoSt07MwVdMiz1POZWEZW11qXLkL3Z8JXuRhoJIYyG644bz0ycvPTe9/79v0WGC51jq6F0jv9vDh3Z/+7Ldpr70PTn/Wndx0M/0Bff0WHfkVZoZQNcrD4M3zQh5/jJtZbcERYlVNc7mw43Tq6hkYdRATDBnJrGl4tZ/t5u//+Fdp/48cmv769zvyzhnz5RZbz6yz9tx0yknHpg9/eDebmhVnzvKohbC4yvcOYH7tghM11V0EAQMu7iHg3vgtC0sV58jTzC1gNkt8UsfBbkyp6rSDRjwsQNuzUzVHl4CcfZau4N1fV/C2dGms6rVL3afqc4s333Krnr8dkr523Y/teVw/HYixvmhk5RLtSVhH9oWiK2fYxsXkmscOS8jw4JKpGfZIWTRO3VSYyd8jJ7mxoYwXGF8YVtMUDjjCGF7l7kuIwy4MJ2+Z+37umi+ns8+7WO+AaB3DJoA+DssTaq5s2mbrTdKpEpp/3+G5rmFUF5qGmtipAb5NuS2gcDbUMWnGjwIxKNDPwdzEWV9KoLqtb50brvmfr9rnRZYuXaXDCFoq2w4aU7t+fVj4/emwQ/fWMZ7ch0Kx3FOx3sn9p3MitV/JHq7wjePRmiqHjgUmqpCHm0fINgrNGKDlhkogmNvWjd8F5mF4mXGKT4WjLLiy6Wx98ezk087VdEzvzGp04ooirmxiE2CnHV+iTYBL0g4veq5pGh7EITRlA9EnZaRMkYn1Rz9TS/jZNGC9wyvZnHH74AfelS489/S03nrz7DYdmw1IL/XpS3eXXP6ZtP+BR+py+07jE4Zd+MV32xwmcBFKWYlXvwb2vp3kt6cN1Ls6psI+YwKFhj1AluMzMjShZI0jFRUuWUqGxrqVCpcw8NovqlyrDxMOxhMbkaBoxhZhYXoGo+sqYx1RPzFdefX/6MOrM/W25jQRT1m14OlctiS9+51v0pVN5+qy83V0MWC9YrQLNVoUAcHKM4giU3RoETHpGTcKQNugb+GqG+iPmEJzl9vrX7tD+tRl56RnPWszHRBdrhnEVM0wWnX545z0ne//Mn1wjwPTrXcs8OWpytr1VoYlzFLseqp3W7R8aHmFIjex5NX8yaw4eihi5vIp59eMHII3aKj8QcjGPAhjHlVgcvnveWBx2mvfg9N11/0gTZ2hUUk7joxKPbpppaWlJ3304P3SWbqGdo5uoTShkYDY0528LgGTsl7L0VQzaSaYAiE4zfqafkGAmBmgeV7w/K3Sp6+8OL3037fXKx864zbFv3o3Q2+V3vR/d6QP7XNQuuGPt9k0T7N2441An0EXA7/K4XkOWkeQV8+A41gN23zby75O1gZuBwTIOljQdtQ9tfGXFUpdGXlrJCDssqBWcmFbe5h+cF1G9B//clfafa+DtXN2U5q1xrra8+c6pimpu3NlmjNnWjr1xKN1XeseSecIbbsZtchIxiIUy1KGO42BbVZp/mjAR8JmHdqI+2RovCkAzW3jUoDLfMGO52Ybz01XXn5e+o83vEKfG1mo2QVfv9OAOH223qN6KO134BHpBz/6Q/FODzyChReZxQg2TMmS4tWyq31hYZ3DBW2UJtY27x5luaGzM0IwB8OGKW87K5kvnu2936Hp9jsf0GcCeVuzR1uX7Xpbc0naYouN9Em+c9N73/0GCZLPlymOUDD5C1O/x9ljGJlidIo8k+7EUKDZoNQsjtrpE/qPgW/teR3piktOS7vu8g7d/7BAu6ir7FnPFN0a+vCC5enQjx+fPn/t/5rmiU0G+CjWPQIxXfBYUjBlWy2zOoJDxeyobYqnMHVRtyhYtc6uRa7BPXbArFQiewHLmbPPfO5b6YijT9PXnPV5QL54po+8st+/Ytmj6eUv2T5dpdd1X/6SbbOgUDdTPNds6oW6hkE+K9Y03eCYTaZMAAWqA1Y9nPstD6CwAcKjM7npzFMPS0cefoCmcboLQlNydmpb26fq+q5aOvqEs9O5F37ONow4ogMU243D9ZnRBjox/3rVs1qPTEYtOKow1jabCpHKNA3cxtGIWrZrJpAIzdnnXZVOO/MCEWqaFoHttr/Px1+7Vi5JO7/rP9OVnzzfXjzjcvCYO9IRmHBZA9noVtZq+DV3qy8srcjkzwRSIPqjWgV906h9jPWNERAeTlcjQAfvv0s6+4zj0+yZzDR0i6j1Ybu2raenCy6+Kh1x5NlpeWeykwasbPVETkJks4rZyvpCRby8WvdowuAyKqMGM09kbfNi2Y/I8lmFkvGGQphGApClLqc0QiSiKea6ZmjMA8szauhLeXp/47R03Te+b1//6tWWGrB5DVcXqGhPf5d08Ed2s63MEBgg1Q041euux8tHJRz/KMwg+Yr0Sc9YKNCcH4aAlPulLmA+4FlYfU+P8Z7ADX+4NX30E8elO+54ME2fvYY+oOBnEbk0cseXvyidd9Ypaf31pyc9R7UNIj+P2L9Q4+eXNYgeKT5aMAQWgyaNhUtibbOpoM4dDHJZaOqNr+dGaDC4vJhUzoOWgSjY+x9cmvbaR0+Lv/E9EUZfPFNiqzb6eYNwrbnT02knH5UOOXA3+wwFQhPHN4BXh0kzIXVZQBScNKtNgaBxuKsNUAAMFjOFPEDCS2V+gnPoUTTPDi98Zrr6kxel5+lz80sWPGz936XbP6ZPXyNd//M/pA/tpQ/93nyP8RJ3FggQluNgO+hkyMtU11hkYLBhWGCHN89VlgGVcpEcgwXPZLA8UyFbeQfQFmtoJJSnXlcmZxCe8jyjgW5/+NNtadc99teXz/6iNwT18SatZzibtETfoXnWVpvoK2HnpHe89ZW2beli6HXxznuZ2MCm/jIO5DRjBQc0I1In3UEoEP0VDI0bcYMUGXG0wXQGFyOob2S9D5nFwF3iET6vIh87bltstnb61KXnptfs9JK06NH5emuhW6+QdNsbvn+66R9p3/0/ln7965uKwVj81SZ22EQM+FaB2HjEiJUyjoVjQuM0fceBq2XLhjVFmGi8rzP8XXHSEC5jbARNROK6oC995YfaOTtYKvgBTc/mGCE4CbBqxWK7gvZTWs+88PmbG+hCaKCpTNTjIQYYH7Gic8ergwP+09E15q40vFlcJcuwwcH6JvowANibofS3Op+TBuutM03b1efoGq+32WkRZh6crp4xc066+/6H0gEHH56++e2f+rMeSY5OMM7qr9VeJghsFNSZNCoYxkXbjdbw/OaNsoO8Z9OIg/EyjKsCEMV8mm6hUTj3QhyaCcJoV9mubDr/ok+lqz79eaW3abdEVzZp9GjRx1xX6F2Nd7zl9XY54Nw19B0agfDamOpl4bCalNDElDvFcGFUK0wj3kX0pOcxpYBrFDFHZQAWk8BAzjfan3b+sSjbribcoWd25+im1Vmzp6WrP/tF+1pe6tEpA30JfOGSlemIo05MjyxcoDuu38VekJ6v1jbSGP3G7lXph4J+52gaWuacYcuJ2ci/o+xXZdmKbmpoYxjEAmMaVi4fW0LjmMCIOJxoZjZHrqXL+9Mnjjpep1//V41fk1FBseTRIT+9NbjHbu9JHz9M36GRyPLFM9ta8LmgYPonwlXAhBC3mRkoMM1yTcYNR4FmdGwWF3CGSos87sINmBjIcpj5uwxwjAt5uCPTo/6Hn3p1YBFZYzOJS/Mv1OcmL77kSs1eWvSwVN8o9dzaB1qZ9txz1/SJw/dnh65PJxPuVtq5AnG1Bm8d4BqZCexGltvXY+Qd8rINkDRE1UiY24xGd9M3eluPIYInKwgNGwA8rLrr3oVptz0P0CbAD9KM2WvrHRrlVpnOVct0xKKWjj/qo+kT+ngTp2HZkjQDfLugwQWROMo0N3SAn8itpltn0CGyk2ZkFAg6B81wI25kEJrnqk/bfTClR1g1IywhMLHOYTrG7Tf+gNOf1cHQHNU5VLusJ59wRJo9QzcY6T0sHjUgUH21qenKK/8nHX7YSboEsa+lqy+t11NLb1Yx7iYYsRmt4Iht7eKD5ru+pWqLp7UQVM1j54y39cyKGsQiNIpKv73hb2m3PfZLv/3tjfZpCHbO4uNNm2ywbrrk/DP1fc232i5K8QqG4GHoMF8z1QUG/ie+bC1zkx/yTJqxUyCEJdyxQ/KSAUe9V4Cy6b1C9FWkR2IcBW6TuqnBTPrnPDDP8j6wy1vSZRefo8+xrKXPLS4xnqrpZPXUaXPS17/1g7TnPgemu++bz5p9ewnsOwV/3YA7nDtawaESXgpqamxk0PjQbSLho78xL+pUgmJ6JqvYOBLxhS99R/c2H5TuuuuBNFPbzbwOgHAsXfiIvi+5bbpSJ5tf9crn2+4Ji0D4vLx9jXrWd46Fj2sUJ66jF0R2l6YObC5pZdu0YZORI6YA9MeEGwWjLyJcdY1PKMuMgT7RnxniMsyAwaDM1N8tb/H6YSpuukHb6Hy99TQ7bq/b6fnps5++KL34hc9NXZ1L9OnJDq2lu1Nbx0zt1v4p7b7nQbXf/f6fa2oQf4246HXCY0Tr/oGcVG1RY1jLr8GnadFYlu2xjqExoRFqLbwy4FMz1ObJp16Ujjr2FPviGV9wtlvqW3r1XZWF6T/e+GrtklycnrX1Rrb4MwExjcUWtqgDLDmMTFGvT9saEZ4MNadAMHa4zXONPjaYO9zRQ2gsAZyyBV//ShwbSjx2cJ6CkZXVLI8sGJ91BbgJ0nbP2Thd85kr0tve/Lq0bPEjppH4hAuvodx+17/SHnsf1P7lr/1oc43Z7xCYZzdi0Dw0YsERwkLFBHmQ3TQhrQy8SYNFZTIiuOyzBvGBg+nZosW9af+Dj05XfvoLJvkIEdB7eru0tai0/XdPF198elpzbV1Bi/yzEaB0TVO1pa8ta/JKwaDHmOVyGxeLQjQeBuJC7HAtsvRDfNU0i6vmeSqFg7HDHc+2lWkZ/nCHrScYhT60zLCo+Ee/NhMTowAr4DGgWka58IgxHQ7MJ8O0jXXFPO0FX3LRSenQg/Y2HmtXAh/5bZ8yPS1e1p0+fuQpMy+9/Isv0pqHKdugD/YNqH6odjQGbJiuDTDlxuQWFnms0WoUb2reced8+w7Nd7/7Uz3U1GfPpRmn6I1NRoC5c+fops2j08e1CaA3no0QtlgUZRAMfTXFX5OWC1n7IKJWPv19PtNF8zRjhCByIBRCFWHSm5WL9KeqW6XLUO0cTd7BaDkSGJEnYBB269iZcGS2DdFiIDUe40c8Ac8U5RXFJB5G12s86bCP7ZGOOfpwu8EVuJx5bOuYpgG4veX0cy5Z56hjz32jbuTdSWlN+VxgzCCjIzYCxonSU2X3GayQIcNorxMB3DCPzkTLCMd0/S//rC8EnJTuuedhe/FslVRNi57VdOmLZ1tsvkk6/oQj0/Oft7m1lM+e90ta8sBhhIBobMphNFOz1wagCmsfGsIbg7gFDlkgIkw5TDU8WJxlfor/DEeLZumjJQkwwgRDRzjcch6Pa9wBtQfkuT9JR2hsloJUyNhsJFeDkMArNujKZdpGks9K6P+UfvKL2/Qx32PSoiVLbSlhX+rTjGflsoVL3vTGV/3kgvPPPO8Z89p/AexmZkQLoVJB+HJINUZjMEYgBEh+NsC++s0f6+vDp9vXuDp02fkq6UR2OPp0Pc2UKUzJ2tPVn/5curJ3pV4TkOZAL+vwZa8O7UFUnhRz6wxSZXNYzWM79MRrnXlz00tfskN625teTbWW1zyln2pnES4zRNlfKva08FZpQ6MjrkyXsn8khKnmD5oPVzbqFhZFVmARJs3gKEQM3zT60levS/fcfb9dkcumQdSLy9qa6butnSkg06qb9VeI99o75qYNNto4LfjrLYKpGYv4i02G6bNqs779/etfumivfe+9a/7y2zZde8a/vGTjbx27xvimISGzkRI+K/uqagZvnGJNWIS06UemUynd+Jdb0/s/+GETmtqUGfaBII0DhjBvYiIM7Mfjtmh4sF0ThVgt8YiXMHcQFMTgO556IKoxRLtt7LCsShfqZ7lfdwAAQABJREFUq2nveMtrTEPZCCPCRWfVO0NFJk1BAejZjEYRT8ayvyg4hIf8ZdMMfjk9/FFuJH1FDfT+fgd8PH35a9/RoDtdg6lem7eNAhcum74JF9bYCJC/uOi11fSwvIfNMw3c7bqnOoxfRaV1dq2nZ8Wy+bft9PIdrvzMtZdfPa9WWxx5wh2txuHBZ+U1AgcVDUYEYHiukUUqJUfppz//WXr44UfS1FnrSGugMbiJ3iZyyg0Z5NcuAHcEU6CmDQLJv2424XZGXW8qWHbiQAs6EyJ9AoKxBClh67qve1n67W9+n97+ZgmOozP5OwIKRJ+FG0XK4bI/0kfiUg5hCMELdyRlh8sDmyxb1pP+eOP/6ZmMvm9Um6JZiz4LYtM2fxgO34EDPIXgtBIhEwJql04qvp8L+bKBF/nkS09Xd5sustzsZ7/85Xv/9tubbleZ7wmWXm6pm9EKzmwBmUHxKkEDIekLZ35td9jIoJ/NNttMyAvpXl1v1TpFAkELyemNMVj6LDoxOniXscMvq/ImLMRzF4GgQggektZIlDAxPezsEuxswCXwC7echr8aH+lPJDdo+njhG3QcDI9IL9Ms6Bpp5bLlfFV/tVw1ndlIGK4PWKnPgvSLZ1ra0BgaiFlPK561L/zC6WnDAeEQP8CLmJqkC35hpuIbxZ5iWkneXg3W7MRpCdExbdq0rTqmTd1F2m2+YPxWOAYYexjvEIf5VUGhlKarMKcHDJlqEW+8jzQwuFCTtmhJr3/Nq9Mb3/DadP3Pfo28CCkvT35DGKmSMUHgCLnyIEatHMNT+ZpcNAz52ULkSwQtrVw42CWr1/xkjDhqlrIrVQBKhrQwjmOEnthuFVfaUY5r1q5yXLPWDVZ+sLzN6gRGxJddYAT8wdxm9ZTjolx0GeNl2Vj7jIfEXUiJ+IX1MW5La5+uzNUNRzETYc0jazey5qm+JvzGmTZ053YAv0+Mw53WwO/v1esreiX7ve955+znPnerV4il5isLL7z9g7yY0WocONy53IoP/EEpwOxoCzXF0Jw6tZYuvehMXYT+UFq0aJHvbiA9MggIwlMQLBMKVUpci7bXTLiUj0ZNmTZTo01fOvwTx6c7br9LDZT2qTDUQKyeGjHBpMO1BroZgynjYP4qjIL+wbHVDKMIB55VFxCB11DgwEX/QxpuNPJ8ZNRplZ5V6YXb/Vs65CMf0msFi5nFWzobTGYYkNW2Xl26b2fcNDqjmTDwF+9wsW5GI1F2nbXW1AWWz2vRIdB1dFLljRKsh1X+KtVpmwWjERxODTAfMsEB6SoRCBNPq9mpsM9sy2WbmO+fPHPzZ6j4M0guTFY2RZg0+m4wl2dBC7VU6+laaVcExY32PT1dDXALgPIYTuWIJ6m/2o5qOOgfLs0s+wlXyxAXhrzDmSg/mDvS8oPlq+IQ4eAZ6rVtIXZYJQw1pur669DhtBlTW9PLX/Yc4zeYNCZWlEVGgtfKzSx4LfOdlZPfmBxyaNmjQXwTed+p0L+EzxeFw7LRCA7v4fCRGQTITBCPAA3Eli+8KI76g4gwKU41W34DUUyqogHKqhZ7Gq7FRxRh+Vu1ZYdlmzEIyxm3kZjIH3nLbYi4J4obuAaO4TbDL/KSVs4XftLD36x8tRzhcpmyf7DyEU89kb/qRp7B3CgbTFDHOQ/USIG6mvUJaaY1iGM9rFOS7NIGU7O7Ggb+Cx6DUyhiJruRRhxR4I01beSsu7Wid5W4Llf8N02wyDwCw5NULuowwQFoM5O1X5FkDVNeR4Y2S/Q1FNg8VLXTOLd0rBdjBDEvdZjOzWGSqVbqFLio3CCsP+Px8tXfIEIznMtpzdKrsB6P8Ejwgg5Bi3L+aB9p4S+7Y21P1FF1xwovygW8CJfdevsUazMaT4UXbBDVji08BIsEY8NHsQ0Fn3nY+Qm/iCKr3dsijSh4EaEhQ2FQGtsLFq8gbBDCWaSOwGObA+TzCqz6otNMJ9ohTI/3HQqUK2sVOjdjY3NP5dHuGJsBBVGUU7kAbwa/P+PhWI1GE/1Qry345PIAlbB95kPDAetF5bCy8UN6mKhnsHDEPxHcYPbAuUzvwfCLPNHm4cpGvoAX+QkP5o+8Q7lRtupW66vCYG2M4bkdJvIHHBtUJR0IC3H2yUN4RHwET/B4wktacYchvjBVVI8yvhMAg9H0zWlNA1W5eDPzDosfaRvZh2RXjEZwQuMMWsYal3meBnvYF/8mHVkgnBikCwWQl4OxRRubAhCiYHY2GSKsnPqHQH06ruNaB+HxEYeHrfIqixPVoTb+Rgc0xj5xQ1V8C7pWUA56Rf5wI1s1PFT8YHVEGdyAV3VJi/JVt1wOfzOjcV7RvrtFesDHX4fXGM/gy2YS03XjKTLLwFfwRgvroOBHZjzUAX/Zf+ZTCpQMu3EsO9hpAwdVsUzQfiXB1NvPLQ8MKgQlGOFljbOdrPF5uUGRARftgYl03ytXJP+yNMCNNyYHlIz0u1YpsgAnZwAe8QhGt77SBXGt5fxKk3E7Dt//hOyMOmRmsGAEo2wt76oUZYgL4MruJhPVAvXOs6Bww/g0sl6w7rPkEfxQR9WAtZvo4KpLatA0Z21wIs3fTVLe3F4GHUz0CysBHhHYZ1MUb9MR0QqGdRo7I9X7yYrbj6czfJdNHfdybJSPvvRwnb5RV7UTHF/fNC7Dw08Zw1/9zcPxfh6QM+Ogb7gtSTxg9dFkaxPtKwsNUDK+zM1k4DuMLSHM42E0FDOdPEPqEl631mptn1eW3wuPvtEITqFxgijUQ2PCEB8EiTzN0iN/MzcITZqXDUEjwv5FE49jNCGGcMSRYn48GTcPN44sUU8JfStH2GHV67U2CRwmCI0f0sKRZRjED23ouGbC46WCXlW3GcxoM2mRv5zP4urNsDwwJngX+ZmBqAH8AY/4cIEVflzs2E29zeU6gGj4lCg7VF2UZWZhsw4JCwFOmoA//BB9Ee0z+LBobtvg+A/aL4wUdwvetXJ/KtdOEIxGcKzOIB6IVRsYcbhhyvnL8ZFedetFHYZrLHI5efEBx4kkTcPFBRXDi27xkNe2xVXWRhqpIEZa1kEtNodVtJJijUVeDJ3A4hPjbTTeKsLm0Q8v6ZG1bsCl+Qhcz4OvlAcuoG0ZznA0akbPcj9oYmxVxdTcA9DDfJmKHjZYOcHoWVkNUyLwgZ7kybtMDsx+GwjQRLhoX6OJNoQLHcu4lHMzfS8bNGOfTgzE/Xus6jlWw2Uu0efl/KPzZ9qpSYwRaju/C9XuH8n/BdnizNqoBCcaCjLhD8KW44ZCNsqV85RhlOPxkxZlovOJi3hTxUZMOjWX1pzWHmRRVkRgasInPQRNoxMdySibBU4CFPXbNKBREoq0DNlwifwR5+5AAW5MHyREo0ojOW2NtjVzo+6gSTOoBsOEPzjAc1kZomy0KMWJfl4XcY31ey7/HSg05VT3B35NUiyq1NSGLLCoDY3RyTm1gKf+8jYjOM4XpLmwKE0DULembTyVYBbmw54DUS7la6hu0EA9H8zUr3VN+o3a/SXVZQ8+o+CoBKdoRJSuuOX06NhmceVi5fRyfNkfeWxwLhKcUXndoFvvkJsAMT6oveTnr2qs0/jJw7vBNUFSnAwl7FPiBNBIMlG3BfTjwun5lSmiScn+qgBFfCmrvFHSOsrw9fSgW2PugaEqXpGD8pYWHBCuMtDsBk2kOFsLBalAKucHRgGLsio8WJ1KHsJU6eE0ZZAyI7h0CTuu5lGk4RnpJciOUy4mTcQapFsnAVzraLomUsMjvhMWjSoBGMJbza26NCWr3apJ4eckhr+rFh1WcEQ81jZsDPAMhy8VjIiAzYjcLK6K0GBh6lVDLDlwAF7YarmiLorQE9k4HO88ixJcIHtnuYYqM1fkJy9+H3WDGXCbCwb5x2IC78HcoWAGXZrloY1lE/CNWcVtNdtRgS71XOSJ9hf568lj8gWcGNi8V9UHGUGrTzj4FN03dppVxBoHiwGmv2YiwVEUghPtjX5tBqN5nPWtirdwPu27EpofC74fiCwVGFZwlBeh2T7bNUAyiAmcIAT+iC/HRXw1jvhmJmCQVi4TfggM86KucYmvW+JUDrLp3+IFR14zyqoDo7zXw7Mf4vlxTiFPn+Ip4/nzAFESOiXaXXDIL1ME1hNeWoUplAMlr9VrPw60yBPlKtH1/PJBC/BpZsp0Ij1okJEv6inKAssC0MthWzmN9MHE5aoG1u1TpQKfrJEL+FVPTIWLeB9g6u31wcd2raCxdWxuqxEQPjMM9aO8UV92Of4f61wefpLep3mal6Eu/AKgRnk/OyIF/h5s8mt48rzmj7JfVv6FTTIVpxMGpKlSHnTOlN1QdkshubGADPhOfLkDB0OqHF/OT6XlNMKYZnGe4r8hMHCHPQATcSjjQsP81pkjysAQTtA6YYnDGD4wjzrPTsh6NPR2HizKRgKuiKs+UVeBgSWYlqKjQULG+tx8YClT1Jcj5ZTzVENWREiAH20ru3UIdV/Q1fCw/KTVy8JkGN5v4nmH0Ur5gvm8DnLUsYo6LZbdt5Eaayt0GEEZqssMbvMs+iLT3LeCyRCw2Fp2EptGkrCUeSX85PFhIgsPeCsu0gkOYbrV7juVl9tq/zpYvqE0DkKzpexWIu66AsR7OEV+kIjOGgx4s/gq8lUY5XRPC3XtDAlMmDV226odn/lTucqdBoG9JN3ACGRXTBElaNxtoI2avOi0SONzOqBsrNOAkzuW3Z3oZJZKdmCCZKV7fV7ayuV4QEYZi8/NErsU9CzToBmdy3HhL8popO/t5aRGiV6Spnizlni0JdRxkkj8nSiKIdIbHZfne5J+WUDIEBYEK+z9A97OzJYh/1gaZZTYgGPW6kVeNBMaB2RKRKt7gc+UzOs32qkIQgUP9OqG/hatc7njIvKAD33Mr0orn/ylXdLARxnMGO1sFgKyrQsU/okSfiAXoE1NIQiRqkqqmmYrjfCbK97WOOSzirJrSJXiSB+NCVjNyniadW+RHAQtl0MDYSKtyFx4YBPPQxRMah0lPzTtU0HerXto/uK0YP4CvRTHA1ZpLt5DlwU+LnVyuYhpPEkKYfgMFzoUOJGWR0PiEG4TLLk8rCXcrpGftFad6l1z7uw0TStJ3lIstzZgBnxwCj8uJvJEP9Awf8MWxvF0GMgUjuoUZgCxegqqiDRQhwfIaq0NAE4XxSuOlwtJtxWFbVsBGeNCAyqxcUM56w5FAr9okcKGkRjYXEsDhnLZjhn0IDyUacwADbC9ahw0xYBv1ZRpRd8FrYgPf6aJLimv3azyX1Hag1U45fAAwVFiaBq0zRaqaAu52woQUzbSGkwg1RA5gQE6xuo0xnTm41pdns1AeDq4kbyNyHh3ktefBeBC809f/cV02WVX6V4EfVdSQsIik90aW8sAmKCIzrOecC0O1lC6ab7iaIcLju2LWkk6tLHDHFOeKfWnWTPa05ve9Lp02KH7panqEWorOjSXxyFuWHqDi2jEaAwDM/La8ympQwZ2lgM0BzpCLPJiOVPod9WV4t3ry0D4UnlaRRNkJ/Opw1ESygW4SrbPB5rwKB4pUVRRp4JmyKciSqMgU97BDfgbvspicIWL0yKgedmYhZDGba/ed41wy3Qt+5ULQj0s91uyrG+GNIXgCEiDplGpbWQRGgQIoRn06wRKG7OpIC/chyKhd0C1shhFhilaFKNOnZqwuiD9gw8vTOeff2lasqJbb5jqRtGsLXr9E17qJBtrlR8QPDOAKV0QgOXwMt4mbLBDFihYQ3lZQ7nAiYFhYqYGKtIiPBboiqKLLr0qbbLRhmnX9765wLPqCdqESzr+Kg093oUDTFiewOy4d9zzYHr4ofl2bAlGs+mOdqdYbPumiTNjtA/m42GjzeDgdpuPqm3AA3+1D1d6ztA1fKSbKM9LiL3cNpmNDS4qOFXX0G6w/npp4w3WNA0R08LI18yNvgU7/C1odVluPEKInSZ+4KhNGRgQGSTj8QJlynQr1+H0q61Q+l8U/225w361oBAcFWjQNAqbppHbVNMoflzMYI2pA2dcqpsYeVy91+e+9RyNPmcDOjaMCJoDOKK57q2+Jy1b2akrg2Ypoy6oy0LRl4WCXU/eNIU5eqSKTEsBkQ4SM9m5L+ss1abhG6Fk0kPbWsRV1oViGIMnYEz3ai26e0EMye2l2uqT5pmWbvj9n9Iu73mznQCnbDOBiFYM6goF2gWdBELTGAk2OCp8+hmXpM9dc21a2annXu2qH47LmrBcX8NAQEUmMIIjeLTFBEXwPCyBUTqCgqEsGjsuybDZQKYn6ZpU6c0wCY+Oue++687p8I/ua/iCM9rJAtYrjf1Ochiq8hmGDvty3IaGtnFRf326521QCWu7+kReo2eEVYa/fA85QO5v6at9T7DvinqGcsuCw/Ma1jGby24lO6imMQSUAWNIu9cQK4dz9JidqKcKk3CkATzmtzCHE55YCA8DDzSUdRietmz5CpVj7s176yon+N2dnSKqRksxV68uGenrtq4VsyB47seNuk2bwKSq0/ywWCkfzEu4RdcS9XJ3loSmhdt+VC/TH4lQWr6ifuEImEX5wDdaUg6HHzcMzMpITBQu2uae+x5Nn/3cF/QlZgVqHdoQYS2jK5UoRHOEm2thMT2zFmWL9ZhrI1FHeaw+Zcc1YZHgYVSl4yv6cMOqnUhWfKuYmXzQyVwBbtWXbHv6u9I1134lfeD9O6dnrDvXd51AONOs3ncO3yrJP2ShXRiElG42XJQVYSbCTogIXNlYmuoIWtFbRuP+lmXy/kpoflfh5kxTBiR/WXDwz1QD11PhbWTZEJhpgCuFJjbozwuc8b2maGgQlTB44UZaMDCthtROVsbHZsZj6QCmL8BiQY3wtOpK1P6+rvTsZ2+Z1l17rm49kdbWjk3PKnW2uENdYgCFpbs6oYuxRXTGyzpRccA1ZsOv98cJt+k9QI25aVlnT7rt9rt1uQTMIs2gaWG0BXjhpwx2OBN5hIIxVZQHOHGPPPKIvG36ShkaYooxGtoTjofJoB80IAotas2jWtXNgGLNlp/3n2ifoWRpjl/UD8XxQx3aTtiu+dKFGiY4Goz6EVgJ0IqVK9Ojjy5OG0hwzFCve/Q7HP9qCprRFDA1wwVZqGV6gQEwXAvZOzeKYjBkswP5sCm3ds4E516NZdcp892yIzJtIjCahoecm4t4W6nRpmkUr3vYnDmDKAEx4iM8nm69wwdChQGwGEZFDL9RxtKC9pY68Ie8A9sjZlIXW8eKgfp0jOOdb39z2nuPt4mx1RGqBMFARJi2ITR2RATwIBB9LCakUzDZsU+Ek6yB2A2wVN1Nt8xPO79vNxVXJ/IbBZQr2pNLNDiBf7jlcmQMMN5HYEzbhLfq5TlVTQysMV9jhOIlBD292gwRgtwP0aMbLtGAARthgibdXTSyboBdr7fOIxYvGtjmisjgAuaDUm+nNqx0d177NN3TzHQVvKStVnV2WZ8iBMN0nSEQfez1qz2KYKqsfxlwgdZO1SCGtUepLM/oCHNsMGDgrelV6HSDyPFLwYyeBNiQBi0TJwNerIbuqDCbAsSZYXHo3OE9HwtlGK1OvMg7kqYHbsFJXtZ/WbB7R9djIz8xdJinQHwIEqZXlC9GoIKTlZqnElDL8gtAr52kpeMcHh2MYaFc09BjQtGja4YEvkPZmL3RMa2MxoaeI2GdlPFxfw4YNOVV0EfAHJEdDnR3iFu5H5tpFQYmDXqam+NzEZpuBpawuhQKBvcUp5O1QRV7mm/9ggOa1JBXdcDv04iw9Vabp0030sX3una4V0JjNFU9MBh5GvDxSopf0qgjLAnE2Qee5CI8No1SfFvHVNt0eeBfj+pW178JlykivTFtAS88Rg1tnPhOoELCvUxngbaxCiTZ8qePWnRzWZuucyJs94grE+SCtmhI7VJYP3hB11T0eG9fTUux/vs02H1HuHP904gNghNrm03lx7LOecKb6DgYDoMLgYPBLLLyY2UkVL6Lo8y5F+h8m7IQBQxZ7nSDuLbkYYxmOqAwHWL5KWt+B1P2N3S0EiynIUdAIQEW26lOjsJzG5CiBL8lz9uBNZyhLc1Ms3jHxyRe9WgbXnvS5Hvja1+dDj5wZ2Y67LUYc+mqbhuAmsEux1F9NKkhHhpm1MK1AU1wr/rM19Pvfn+jlljSeAwUysv6KfI5nDyAKC0SyunRavBvlcB4ezUDkNDgh5ZMNcnHqRIGDRNuyQ94YPwkNfnTUv38UePGLzxl5L8IjpkY8RyRiMWFfcrGwwPzlfMM5a/CK+cdKq2ej7ohRuDASFkIjmUDjiiICUp7qBTUyJPj6rCyyme3SxykaiwPyt2ZTwWUZvEmYVDH62IdQDyCRl6DrTwhiLmqwgFnhJVpRrSDRGMyPBlvYJYNTD6UqbelMVfUh8AiPLqNziz4Mmqj/cyAf2PRhpBNdyJGuJTRgRKEg1b4mSKaq5/OFeJTNlz6u/OaZGBNPlxFBc1d6gFnu1OP7W6kQ61BeGgGIQz9hmFl6kKjQsrDO1zqGSmc2r9WdaXvzZtV40DnqAx1mMZR57EpgH9IQyeXO3rIzBOQiDjAHGVDGMaoMlk5T9lfLm9Mrh+eOUS7SOeuaoyT3ksDP9pfd12AbV6t3gSe4YHQ8JeRwjWhoO9kYd5Is5frVAUbFaRhIs1DI/+NcuFGScJFnNQLAw3rGhig1XCVR3Ub46mdjKi0nc8BVl3isFZWecIlH5rLmZf2i65EEi+XywBr2lHz19nFztBZNKvOSr3EIL+qFwP98LZxaV9GoEV+kyHFe7UQFFVDHzG0gY9EU5pItFj58MNLbt5rn0OvV/ZRm1jjbCdA3CegtY0zjGMDvNGGqzhUy482vZofOmTq5SQYIuIsKXcWcXRY2bAGCLJGfFFWSTA7HVo1wQAANLjKYvVa90EthIZy8snxrVvfwiAfVAA2z1X6BMwZV9pG5926OVsmRjatoHyW11CghLcXGEMbuMd4xNxqdupjF83ezxfsWKuCax22M5ZRyKqD+UkHd3cNeP4BT2oNl2imSTwbQafZMxLokndGDAdGB7Ss4hlsCALc8ZCfdkcgu96PYCBj63fRWGVr7SrfBg0VD0xJrMSk0DpWAuRNeChM3+izH321/jvvuv/h/Q864kc/+/7nG15QI9dIDO2ONU5xFm0kBR+vPKIPXGnVO6MGJs44EXIBoQ+MA80NfzBKTrI0mJZ0LJBwqcWmWjkM7IAxlJ80Zyf3RRlBV68ieA4HRrL6NEzavWBqF1ObsinKUkgmwuU8Zb8xuZOniDZNp7hoNwn4mcKQP4yLqdJyBFMd8pVd/BaWKx1tOcuUR1iKetjByhUwM+WhKMbanSuJ9DIelqnJD23HIhxoLdtOV+V6M8c2fIy2gmt0jvK20eDtIIpBcdmy5Z0HHnLY3275299/EtlG65bbnMsSVY4ebbiKQrV8NX2kYccpCAzBg5Cmto2oVViUgTnrQkEOL0cH1vN7Hs9X5JGH+nIfW2bqbW6Z6jFJcaYsu9RnRhyM17aGVTkMhDGhKdoDxrKlSqN82fU2OCOF34BRttywiBRUpmZMWXB7dbF4MC3MjoHhAlbUFcVpQVhWCPEX6bhWVu3oUf0wN4YBjHLUQDp12ikMRUb9MTiR34jNwKj/+ta+E8Pyi8bA4xgQgmgDHm1C7aDBKJfBqEJ63+JUmdUHrzz40PwFf/vr33/x8Baz7qbKsRjjxiBSuGMB9FiXiU6gXvyBu5PYsYm4SA/XR/rI4250YjkPvS3QA0zkIaHqDzjlwccECgYScuo/Ma6XC8Bs2xocpZEnDMJDx4/UAAMTOBCCYTGkEe9rQd8uJmzV5akU+SwuMxlhjOEGA5ZwKeoShAzFM+uX+8jYCqZ+2sMahjbHDiIZ6QOewfigRx3ENhpo1cyQ1wRSHutL1qMs+HH1j0bEgKMdb8qTN+oXal3bbLXp7e//4Ht+nK6/XnPksRkTnCC0u6q5IDdARxseDpEqPFAwNHLBodPLBAbf6EBcOsdHcycaACOdvHRSuPRTuWPIh22EWc9DvBkVNFbJYeI9rTRFyfX6dNHbBt7GQHKFhhnKIRyOS7kt4O15+HWBi3rq8WUfeYxJNdYzjQmBCzBoNXtqblMp4QLjUr9lcJr7M7syVPeTD2bEQgVc+zBTDoMsWoN8PpHidAFlFakKfLNAXu2A2fROcQZPmWJdp6KGk9fov9anghFtiL40yKqz33YmVYuOdbOMsZuL1BTaZJpIxLXljak/J7qqWaHZ8l/POekTfyvXNVp/7sLRFnv88kNgTDA6fuuwEqeJdYr0KrHJH8aYVvCMMbJQlf2RL+oqw4q0wVzgYDHO+NTjuXEDJgxseWC+nAG8PM5d99cFuwy7nsN9wdpexuNi3cTUh8HD05wdAydCo2mfQ278RXhi3UMKuESbCEfdiJ6lKj8CFIa8ZRysnQPSlZsBklMOEghOX9eygBAPG/D92Fjj2inpaKSVTI+KBFwqOOwJ6MCrmVs8x6knVmVptOE6pNH7nIlGUi60h++AOVOVy9EBEJ7dLUyVMWz2qz19OhB6klc/+hcsekCjdi6a03065Vs4irLOx80GWJkHqCt7I9XciHMZZ2eNKpmzGzbGNJ5WLwZezkyOYzW9ntN9vHdPa32LQz6hRT0IKKNwK+sAZQnG8lK5jwPBKtBhwkY7as3IqQpRUD8Gz4FCS4SEeq3vjLn9eA7geZ3bDm7aelQRdeJba6whZFR5q0Y/CIh9ZJnWMjplAx7W7zlv0FBBbuT8p7L9MvKO1c0UG2vxx78cRAnC5MHbkIrOLGMYecMlzTpUz3DozPqISDwM2GiawWzM0TwUoKoQrYObaADfYmiERd6yJbXcDsvNHCWbGDAIUj9lkSCcgGOqUOn1UrnwGJ2gj91jlxnf6Cue5ihM0DimibG2o7o47Vxtkw0qEnyEHuHiBI3tA/AqBn1mwmi5CqxDY0cEMmWCnBIXCt4ge1ekjdVtonGqoIS1mZCx4cLV8tVwwKnGEyYt4DdLH3lcdKLGJCsU4YAAMzEyMv0tp9EZvEqNm/vep1rKB8Oh+pua+oBnNRqjljNm6aEuZCWYxzpUu0jA9Veey4XcD3OADGUDJ0VYYtRjl+mTLUZe2qcwgwn1YaKdlGFnzTQr8bIIlEG0H3KPzbBJjdFBIsEXvvLTo+DNcxtC4KFHKeZCZwysz7Mw54GMS47niIwloUEEB3jeF4JDSYFgS9pWdmS1xpBXOdnppK5+e5djvvr793rRzd+NF5yxmhEIzlhBT3w5CGR/+dkBnZNpNmjlwTxksIeUKmPvmxjzKiDjnaIpVO4kY1zFl8taxkF+rONyWlFGiBkjGxyvA6Zh3WHbs3LJCx8ZFvqBz5A3x8fdepVKGMJYGVXIzC0YzS4oyQJMeuCZ5Ur1DwFwlEn0i4MTA+ey8dCVoNVPBuEYsp6zNTiga/1ksRmWygX+jGMGP5CHfvLb6QQlmAsmtf5VovCdSv6/hgrGGBiB4ARZo4bhwpFvpC7diqnC9djqb9AnOp30gjnNXy1RTy/n83KelymDpSE8DF82AShPmEaGm0PztRFzea/P2xd4kwdBJM20mg45sosaIy/pMIIzHSHHP8rHZsKgJ+A1ykIbjvAzUKtpds8ArxToUJJu9we/vP3NKFMY47LGiou0kXsCb7XQCkUNgT+RxCFYdr4g1KHoxRSrTOkQDuJsgNRIYhpVAFAkPLuxZz0MnErjxTvyOt0VBh79qXTRd6lK6C6BlvuVZbVNGc/VBvZYAGjo61xhoxAF4TwRIoYlJvI6cT2PMXBm5LKfVOsIuUx5mtXtEMq/lGCal1nIBNHTiWHXyVO8YyOf1yvGoLMtH+3wcvEL7uTDNjMBi4JMYWBE8A44li6Oi3xBiwLWyBpYZB/e04hn4MQipdmxJuCBU9ma9DPlMsOgoMkWYIlDWDQcICAIo23sZEmNttF2tRcAem2g/8/yj/nZjaGQf0agccrZJ8LfSNxi96RgmiCa56Nvg7DOAKhvzwyRSG9glJwWmPuiH4JzbikTPBPbeyTXw/hsdQmeooJXiw4JuKoTLWDTOaYdAhqM6b0ZNbsLplimhwgADGSfpe/KAg4uZJAxLKMxivT2BbI5k2f1/FZW8TQsGysjEoIjTMf7RvEOkNNRGVXEcB4IMsCM2EU4bGgwjettIOwYQVtyiJ5CjHVWGGumZcpIIBeiZ5/wBSLrFyOAjnMz/UTj2OvoeWLQr68q2+CjKuhjNihcs1ODfZrjbg1bq/XsJnDFpSWdsg9mi/8JbYzAwtCYLndHwagW7/SNUTnyN2uUqXIlhCDCXDYVUoI9QIOhoFAzQ//mPiaZ7rWyqtCZxAu5oDUCMYFFYJhHiTnCBM4RHqtr9JCmo240ToNh/pYFnOddGLI4nhYcl5/oExOiEkTHyWrUQ9Q80AgN8IwykV0zLDPE83VpDOWjT/GXac1gFCYv5SKoSyVsbXNPRKyuCzaLZLkWB4v/SWFg7DA8FTfiFjwY5MyUV0YjMoRGWmy88NLRCQHLnnVMabd1B6WpBWgIBi7FzRKnCKtJ0mVf24YhPUapMgU+ypfrtfyeasLfpveo2WI1I4B0iLNIjqs43k4xEszUxEZ22kU6mjL8pBEHLep+bwPx42HKgmL1wOjQySxM73i7BqxTg+rJzzEcMAl0ot8CtzqevHujnJqPso6xtYwoF+Xq+axDlqj8XxXXeBtKAB2Di4gijffI3ia7pmzcr4b7uBkjYlAhYwHxMaQxOtv0SHnwm3rOHIfj5X0RHEQM14Doh3yofQwdCYxW3smXUOrqCksj2XhenUT9xfMR+W3KQDrxZKQj+ZfNMwgLIBeUC/ngfg7qgauZYoAXbQDn1TXAMiFVW/TWSVFnGTZ5ghaqFpQnxEQdBlxNAwcbmNqdSELD8HBX6XkkcnzAEbp5p8aABJ15UZYBx97w1At5XKKinAqbKHnbFJXrh+zMqG4xPMbpB8FhoskHdAD+d1kG2i1lJ+QCQsEd2jjVREUn9KDPTQQFZufe4NjODSYQyYs6ovPCjQRyGL3lcjjQYKlXejX8d63q1jd3dCOlSN6ja8/obDrRhNGlSKWc0YFLFNMOqx9GVJhRFteM4qz79cOUhHpXCPgqKmCyLnzjksNcwpxyO8rxQ/upCc2KddzIXxacKF+lScSP1TX6FI12KFav4oweajfTU2jdJrdXd8qVcbCpKot/Ot/oAmUYCBQW0Ux48Ktdfbqvl6y6bUAMq0FPcT54eZkSGurBdK8sJwbGzSA4scbhQkK6Gsrzjg6GuMdN85SJCjIQg3lvMAHpbo0tFU8m0r0hlBnMWB7ldWKju8TAUvlcA1vTxRbXfft76Xd/+H1atXK5Oliv+qqzqZerjrIYGGhbugqP1vwk27SWhkSYoHGbm2K6zEKjYo+0zKJlnWIE34pmBA2GGgzfkcaDo9ENl8aJoaCbHeyh0TLkqVvLUsRXaW4Jg/wAo2qi/rJLb0RW4hlkoGP7FNGotIg0eJFR1AlciIee9LJt3as9pOmyK8XwFquf/CCOtlYMZ9LulB3XZQg1o22YpsXGgOYQZgg/5ponCF4mGthEmFEdJgtiRrzdrqJ+hLjqJopYZ5FuHWIxKFOHhSYjF4S2dAkGT7NhMW5Fuf32+9Ltd9yjkQ6t4EIT0ymELPAMPGzGTV25U6MeXATGQIer0bRHzNDeNk2w80iqOmhXmIH9HylDu0EPm8aKErSvCsvxF/Nqrml8qgzRnqGhN6ZGXRFrdMwB1Syg0Nd7AzwwJssIAvEaBSkTOBg8DUABx2cBTMPpVRd2+oApMj3Frho9bqcu6E9JVdSjBAzZ4G99Mdq2pIkbF6PTB7ZVtyAjG5omjiRE+HHVPLTU8MtUgSkgYBjrHFGfaZDorlTo5emUI91f4oKRcg8aTOAyferRXcq694vrszX821Sio8Pcfm08RF1RNgSI+oFvDO8yqRmGOl512JcH5MZbj745wLpIGxkSPL+8XF8tIL9uCu3p6kod7Yxj42Oi3TCqCa3Amt/2cZ0mzsReX7RtdWoPGFY3XYCpk9uCliYfLgaXriSIIAUMXNJytiKeaW50IXmM9mhVbRJEWQPsP/TKo7IohnE15Z563DVPEDNaWA1X4yFarFNIq8tSo1CRViUqsImjE9aYO0e9pjVH5zK7U5mXn7j5kT6nexEkLPURx2clvNtVp5QEz2IkygbPnpUo1KfyGHqOemAAq1MdzLkquxZJjNLbvVLTT12xq8XU2mvOQ27HxZhwZ0i0EeN4RLud0UpKzjON4DdoR9ayP4oarWmwtVvCgGZQ0N50DbrnzJS3rAqDM3S28gqHS9aIp4+ZTpO3VQNNP88zcwPL+Skjo8TEFwhuJTCephAcVcoi6nHTPNEBuEOZEAmIRF52Unig14Rolg4s0iJ/wI4wc+Znb71FesubXp+++4OfplWrVqRV6hlgWucYZ+WRr88XtgGTB3S92iIjn8PzDiXMjo8xhTJHi+zovKYUHO3nm688mqDPO3Rh+BZbb5re997/CvTGxTV54ScjAI5hDLcSrQmX0yNf1SUfJtzwBz3Lro0yqpPBI6aw0AYhoB/L9YFaMxwCZao12FQI3UrPdSBiGRZZsoGnH5DV/b/jawrBKYFdLc1TJmgJZuGtNjCIZUSpdN6AvAUUJyJnrqCia4hgz1KmwkvX/f/2zibGsuOq46+7Z3o8Ho+diIg4zpAE20CIQpzwpUiAsggSQpAFC4TYsAS2WbBhg8QC8SF2LJCQInbsEKxYIsDCBAcyxo482B7LsYZkYqyxPfHYM9093fx/59T/3vNu3zfd0++9ntdmzky9qjp16tSp81FV977b92WfuJjHonH3Rjg5P/vIn/3JH05+57dfm7zxxhuTGzduaMdQUMTdtDVdxCpgdKnjAEGuKdna8Zk31piGJ525UYCBuUgHz80HLoZj5xIPdit2nocfOje58NhHJ+cf0tMEncyDgqfX+/6A4M7VKXkbqXGwdPnOXJLONoO2lisPLTVqhHFmpg160Mw/rlHg0ZGqxTvOtI7NG75qif58gcvR2CqJYxsD9cB1Os+m+dKjb5mztC9wJOCRdx6UchiYpWwr5048GCLeeMlRSsrXRyh+dh+Cxqql1JezDw8ATvTjTuuTz//E47Lb48GP61FPx7NiOO7qtWGz+4Adf3cSjqBOwaMIFqTCxxwKf/ipulTgOsf6GhuIOQ6mMka2DzdmM+MySArXFihuh1n1GfDW+b6BoG1I7msCHR8pmkW0q2cz5PwI7uvC58qZ+IV87gucwvVIO89A+MIuiw4aK8z0Q/y+jkLEWiM7VNp04jy2Dfsk7zQcWmS14iIdvI2Au+C0HCV4GMHXGHEzTTg2NZ0sYncI/iJmTALIAQCeMvgIANqFUxaA1RwYgWvtHUGjg4n1YVQRtEMdtRB6U2eP4br5VZmNG+b0AaoNqIdOm/xuA18BGtOpEE1Jm7rjzTXWEztPQmKinxBe+MKOnBV0jZMSIZM1nqz1yR+uXY7agj9mBo4EHe48zADJuMN2YV45OgU2RtQNQ8W7DZs1u+kuSnMy7g6oa/Izh/15Bg19tDrxT+MREB6LFRllcIuWtnaEjjtS9QIaMUMGxI1yHi1ifJkQ3rQTmlEWmRUXUqlNDcGEo5wOcUp8Cll0ELRH/IjxGUMA7xwwqnEszUCWdBKM1vxsHZJs5mfqOXVkInCAc8roNfI2fsoknYuUH+7KHpJODfb36N/6Ref20dlIdbiiz+gn2ujT7NjInbExEThc4ywcZgZOGck7D/rWmz5j++NuxT6oitvX2BDQ+A7JGH3F1TLd7VdWJLgso1Bv4GAroObmOnJUTEaf+CItjg7N6NCoiDPF5YgsFLxFDx57Zk5AdBxpjX+skLF3oSX6Eomsmtqy7LzZLzqLFzX6+jPx837GOtIGsp5iKMZRIVM/CvPyLoucKVHfPlaqdqll04Lz2D0ux+/wGpgyQEYpeWGvqikooOmDtXWT3BpHhkTqvM6d6odDvKV0V79CwFiHgQMDR5PxzqMvOeJ++EeUf0xpU5MhkOK7njEFqm0fTCugV0YlrDQVPyzH3Zn2hRmX+EOAD2DZcArjfGEaTiUyctROnr8byYU+Qa5LUO54atsJAxcDBm+GEC4e+8jOOV4EjkJHxw/Gj+BJ7xhxCzgtBhDBkONmLXXAn4UzR3206w2v3gh1mKCBW7VPLXtc5/1Ne/Se2LhJYgLl2Z+xVSZ8mn7H+IIjSAh0L4CJSz58FcB8SAIWd77DYddZOBwYOGVEHlm4qBRPGEjgWzLAU8p5WXsooNCmszRt0e5dZowmDNka6FK/KY7jjK9LmvLhhcIyWHKFymNXz512w+jYmAkeyI7BxM1HBiFVb1if2YKG3UhHq+iXxsIBqbPiAXx9QxgZOIjBLUAFxArJ9FHnbZJ9edd5X0sgujm0ucAc8cEHxFyoJ6PeFnxhjB6JIblh6zfUVejHvIoIHX/hpsq+DmfrBjQuJZZ/j80Y4fhEsSDYUwwZjWu2UeOUnlTnjidjwoOX5ccTEBrBdMlhsiUzXBPRwu+oIXObHcU7g4S6qXRVVK+RJPhVJT+mE0Jb8CEnJjnWNoZvdp5iwUoiFuKRaSPfNh/KgwfTGOMPzvik641Mva5+0FUa97MgtDkZ57zSxi3osUk0Ymid3H8ReZXB/MZwtIH3XC0qeeq4uV1jAp35ODf/sZxda/pfTxVfDrdrU/h6EWIHYWzA8mRt/6dliKDhTC3gWJy21O4uPuLNqrclt7gm+sZ5P695MHez48wcBzkNTCzkHsGZ5k65u5kPtHbwfpRQTuDzy89c4eOnV3RiQ/lWMP1dRi6XwQMVR5uT5+T22o+y8abrcWlMZHCbJMjBFvw5JgPjAlXexORnL2cSQj8mnXnTq5Yrr7Fyz6vZhDDSIOAjDwHTDqEf+TV25eTY9+3lH5tHsIidrd/ZkSX4UUjgEuN7riw6P/SOUwZml7kqZ76qSbEL7TPSEOcJDZVA3W3mj1JCMQ1R27u1Q1s9233+3ooUrydt/YCfA49+eRSp4dYbhGCMI4NXrZGgQgQHLWXoActETvI8nBsfxI3efYxbdF7HnsV7jEbiBzh3X2gN7uf6Qflw/qZnl4h3BQgBT0ZI3klRdVTHd3/yjqbJB51tRN7mwaz4o7Wl3BhAjqMEjq91Luqb9betpFBEUXY3QQ1SleCyc4QwrXmFw9MAPyW0EDTNlnyj72/1kzYdmmYUh38HXhXzTHbTgWoZnENjAEeqweJvpsHD1zQhmzo6N4+aQ7toGPJ0fZYctFtuZDFd/lpBaDlENB9y96n0QTTyMewHSSx2sG42MS4fOJVOdL1izbg/NDOh0yOu27svcwmbJ0sNHNfi/OXnUqAf+ZDsNTlf67DrxI5DVwS3IcirEow3HW2mp+y6y7FyRLhwX6ZpvclHUJgfiqKP+UKqoUOBdviuTQXzjw6tPlY2jnGQxf3MEzw4y2EZnLs/uftW3KLKHh9+Ls8aj3aS26usQ5zpah/KgGmjMvgwzQA9VeWGTh37MH2mGKhSF8YIFsnGwQFedgeRcTJancAZTsL1oUKrQqyonFg6unH0Ny25nbPjK3vRA/qwHcGhuzFWmJ+4Nb3zyr+WaU9e6Qge2/2cW1ZylwmiIZiXxyB3eUhL3fycj9EchKMvMBzbeOfmA7lxdSEwrl/zs4f59v2nF0Ljx3Lu3jmxI/hGGQ4dCyL6xJY8qOfHpgojy+S8NHVFePXtedqgscfFastRjUdulgL7PWGOYRDcwlfnqXjYV5paps39jI8/ImPf4c5a9M0dJWjLHRoCKXej5GE+laeDEt52DtN148UYvaPQbprKq+LAVxjyol5xQ9pZbZWulmeNDf5OY7kdXl54oszzQwL6zuIdBI1mKC99nEzn3Pxw9uHzZBFUwdPUfe4xnLtFIorP9KnCNM4lDRMicHifxlJgIYHTK2faySyxlUruybmt5tGuOWvfaWfjdDj6ZMK42YN6rGC6f09O4i8DDZaJuseEBnCb84oblqkPwf2GOXQei7ZhclvlZx4VV8vDPtQrjv6u58LA8XVIs38x6fv0+mDcIf8qi9trPiyb3nJxLYrN8OQ6V8YxDYEAjXHwCNuCbJBeQZ98phCOLKYGxmH+zQfoyPc3BM9SYJ7AuamJ8r0OiXInoBVEXssQGAe9FWWaqOtgppZQnBmiLIDH8/UUefDwhfomj5U3Aj9TZt7Z62BnMN0ics+v8hrK4zbL7Ry8ackNxlGv/CueNi8MpiM3mJ/Hcl9UJyuZrNOl6WhwuY5tXNdRheEY0FgmxmGHoe40zbsfBzy8PJ75knOqgNf2dnkPBMjWh2KGajw5sJQvPxlrnsB5Wwp4TpMhcaetMzplgImSDC47Hyo/FCXiuG3JriMNVRr68QQzz6X5qJHn6VSylcp40LovhnLZshxHjgye63C8oTymNT3tLtN3jL7ydLvz2kZ5yAudADihwWM6N56+FecxyF2G1uUcC2e2DRmf9t4m5p27ZLanTXF7ngJAd+wo/Q4KXw7s8c4BlQkeXqQClh3HIJ+AlEdueqQbF5TPEzjxPjYp6xWlK5KHb2lDeUhNGqtXPHMw7XA+4HODzxZ4AWQOmjB+cwDavON4XHCA68kzccv+POpYnqflG9bBw7viKYM7aEz3IUd3Dh719HCRj/GpuFqmg/m6bHmCmT4wJXYzndvvxKcPqOl5Gc8i6f7O0y88qiJOJF1twYV5nhwgonlymqPaJSUE/VkmYQWpHuC6J2j8GK3bQrlimTRNSeEgud1b+bwtBYV5DAw0BsOxx2juJW6oC8tL7rLl89w9Z/dNOnZXU/Y5tAQKbxw1fd/al8yzx8xfGsoTzq9zG7mvgeJPHOJmT8qnMJOcdWyt8Q1Bhpz5l7Syvf5VXsxPu9LuqQ0/OFf5LKY8T+DEEwQS42GlM5oIeefA1Tgu2yjUK21U2odpg6ZbpZI+jnBtj0ylpcLkEd24KkrBeM70MQL2Hp/ysoGxPM+xscbajKMvKRysda5tlOtcPNZYPj02zmcHbIqcJuhqdYxa7ggGhUpTyyYLkyswCBReYsrcuAkUP+qrJZdVN18ZlQuF50L/Ws4n1ukPHXrSiw13tiOI9tqDpWF+qchjLyOfJ3Cm/k5HirihFU06C7GnJlsnbkWQo+Baj3JgUCPriJyv7baslo28+5t9+PLGGYLo9Gn+xh8lZxpevkF73DAck/mmsXPxRCTPifkawJF4SjzLbeGIJ7Fzfpp2gHmkjhNnvVJL/fVBmDIgR6bswXh9MLpMDiTvvt19hrn7WZaYf8wjrYHM4R76Hk6eEjsgOJuG/qmfftdhjBSDtwOpzIdUReDFDsqmwmLAd0ZNXlUAFNorNVCL+zhy4EgpY3+no++2dFnXJhCKK7K6Pqs9SMMTOHqhDEIHD8n50z8eBlTOE+m8kC7eUC/j8Hg5L6uH2mspYtgocNAi1dVVPX6QMLatROnLTS7aqsysGVnP+fPHdwF0NpS+oNARfdh5mS+OCPltKg3QP4/ikwC0LErRZnDYTs6DxoqEstEN7Tikj3aN6zfS0F530eTb/s5JlbSPdZRz5pEdluK8ISAi5qUsj3jawbYVQOLLCx439AZWZfkFuS7hklqfS4AjB06RJZ5dU/TzBlDum5+tCjRdxdWy22uutSi1JWQGEK25+hIw/FEZPPLxDRS/PXno3CMZYvhC6jwNQVcBWkTh7bu+PM1RF338yQ39BPgHOICcusHlId71sTz3X3NIGWDJmNADkYEkqUKdlRjnpxzt5C6ojCym6d6PIBzzYwGJmGg86Xf2ofOaszSmBYZVG6eedmJfJ9LpzmD7OYe6L6NlAI2TKVg0PnrgB3IZc0fHNZwdGc8++JCcPtuxO3+OiLyeK8+0YXMAHvAibWiSjBm7jur6Pe3J5uYDaV8eShCJupCWAnMHjoSPax0Z4nlJ+PdKv640h8B5cYth0xi9IaWMAPDxPU5sP+uTLb3b7Nr1G5NvvXhVL0x/T4rNt28GDVpuwO1NLiWlegUf7z3j1ifKl+Hj8Q9oMTjHgHwvWusasmD0lCmxlJFz6ITgq1Nymmfl1KXw1DjccsX58zYti4HHT0e0DsiBqEtO+OBivBWUIDBf/1CT58W48Qd2+iO7l15+Tf31V116Z9yGHnfxb8k4sLlWoJ9EnxtS7j6YHAQEEacE2rfau+v+8V+embx/6wuy240YP2ym2XE9m3yQK3VMwO3wF7l6Ddfb128qABFVAut0sqvo2rp1e/LWOzuTra0ba/rL3dNn9s74dc5zz2nIYO7AGTD8V9V/WUmvxjwipI9MOag5YVTWM5wyHVO7kAy+sXlu8uw3L01+47d+V0olaFLp4ehSek8vF8NTdC5mt+L+f5yPWx28uDGC+qSjsqIB5CSOCLHKlaAJAn04kKjXMjLDZY/lM1b7DFgCJc/0mefs8qxOf8BOE3MRDvl4EyivfIXfHm/t54vhkHuiV+rmSxNjV9a2FkEsx7q1pTmvb6qudral9sUxo4iD9JE7eAw610cufGbBm2u4aOftm3FsRG7V1yUbcv/pn/+FSFkIclFid+FZRH4nx7q3LtcjuPWq+lObEXi8HH9vj/nsTc488ODk377x3ORXfu03pcZtLrY3127zTuPlwCIDh53nZaWXlH5aKS2vwqIAhrGVadXZ3rklZWeUrUmR+Pe2VkxW4h3+PkfKhJo+/HQHEI4azpq72W57M2c6b3LnhYHUcXV48PMR5L0R+f2c7A9P8Dg1RlXXPCowhoakHucL1QkenLwDDZEy0ifx1Fn1KxCoqHJtDydJuo2NzSjvcr5nfF38bEkGHIyfJ0F+flj2lF7yxq50Si9H5EXyO9qZ9SMmesuM+NzWbgU//SdkQlF14COWLaMDnz/LZu6sA1t6PzangVgENCBTXd84IxmwZ3tHN4TSGzLRDwieCiauYwCWPZYK4h/bskuhQq7jrr2ll0nubmnUU5uiejA6LOFjkYHjv9P5O8n5aaXzR5E3Vj+UF6CVvwVHnn5RohifPzd5+OzZybVr/6sDvZxHjkTkEBhbrHBNwWG87opaipXDp6PhjDgpBiUUVdB/DIrRsjvtBAg0GCpl8qtxo0E9txWk2a5KjMUhQyDTxUs/wvpiDgo+4ukUOFZeFRJHQS7T5p+7TO4gMDXdrpzesKNbsTm+WjX+tt6tyxy5NsRRabulRYYXw4WD6R3Vt/Su6rWdm5NzZ70gw5mJmuscuWWXtMjPsRDAsbEPL7dfP3VL89VxUXbLhYG5EWAiaouIhUEvCRFNcUMj/4Axj+uapqadv8h3ewsrwUnY9bVN7WjnWueFZwsLHBnI1zoEzpeUflFJ0zoqeL3J/igQJ8AuD2iR+vKXf2Hytb/+m8m2fgRqr73pJhpFHr8L04aVrcKAvQHspGmQdNjkXcuMBeCEtS846m73FF0f0rO4uw+56cxTe2OHi3Z2RwnNakpOIOEY1DnGwI+c98rlz1ykPBH06sIe65UZWZCPMekD7CqwTm9ovdYNlc9+5kfnMVAyHH7i6Bovlg8CWO2xQwv98z/3xckjf/m1yVvX347j1nYIlQtFLhJ0zcUl61lmiJyf7qISE7Ew8JdqqTvPU1ShH73plWHPiuxIizfjHQRNnQeRHb5dDvGYqH9G6Y+VfkzprsaQfgNmdcLhpK7Ju+/tTv7p6Wcml156efL9d3n6Jx0EXwlnxLEwogClRz/6KlG3YdxmOuc2jultUNppo59zLrSho04ewaHxI6eDwGXTmM55UjVZNQNFRSwAOzqOsRBw7ud6gR9kUizJGXM3Rg6AnESsVYjrCmTSzoZuTp1en3zo4fOTn/zc5yZf+dVf0k+LYKDsZBlr/yOXYYkRpe4ltcwAAAs1SURBVAd2Et5Mww+c/PPTX588+41vTq5ffzfmEetECxbrEB3FF5txTE3bsVsiHzdxoEvINm46YH/m334pRaNOXhaXr/7RH3z1HxrxQrNZ/nnkQTQpfgLxSaXPK/2+0ieUDj2OVXJQB+hwmcj5KB1xrHYAk5JxWrVDUsoYTLaQstWg9iDRR9RBtTLOVqHyAu96pQm85WkNHhv+9HE/creRA84pmy7EFK2B01ocU8qcaNOljT7Eg3EkO12CLXQsKnFc1TFH5ThExdbGIrCgw0ebA7IwkbiZwi1wlQmeXU3IJMwTn8fL0Uuna9VpY0Mitw5gmTInfcxPNE2Hu+r/vnA6v0++q+n9h0z8V3qk5b/ot2hArwsFKYiDs1+T+0WVf0/pcSXN5W4ADxBohQnoJAWfOOm0g3aq6erDgrtjJMDGwDBArOLKw/EC0xkkas04Xb9GMppVY9eyiY2rMlCech4TD/Iq76ApHNLtlhcanDZvk2QZXKzesfQ0PbdrEa3SNM8FrPzsGtPAHU1h2DFakxcR6OIIKkQePzmiQUuLQPQxnyYqwWPdqchm/M767uR5iX5FwfK6+l3UpevL2kxf0zx5KeHCYX4tzRCp7DzsPk8oPaX0U0qfUjoEjAdOfteA2P2WHUeMULQ+fFExjFMbYcaMo7s0juPgaPAkr1DxPnLRDm0ck5S77Hb6UGblpc189ztWOjXtd4JOphG6PMRmf8qG6NNWjMo/y03PcZNEc3GnOfLxBYCjpJhqi+EfqrV6Yyra+ULO9lUCN96BoFERs1JO2mjShy7Y1vRr0mvrL4j5q9Ipr4N6Remi5sbDx0uDBe3Po/L5WTZuGgB8GcWTBY8qPaB0ALRlaZ8lwe9DBgpX4bJ0FEoXDMQdHiA/3YNaGgwMjpW0fd7jo8RHM2gbVyy8alcnzS/2oJ0eMc4peIO2Oo0ibv34wXzw0ck0wEdV3fOd1WLXhnFAU6UvG0EvQxIFz9h9aOsVVeUfG24Ml7y5luwXiaSDbxNKpZiyUHuKJgKJcyS4oFGBcvBSIQIm+sA3eShI5FfrHMMUKLuX9ZOR+hpk+5Lc7Ipw3OFdKiwtcKT0LUk+9gtvfys8X5LyNPWMKFDLDKjGrGXIh/UxFlY8OfR1ZR6jB+c+tR3DVujiQYXwvQ5RqbI8JeeQ0X7yu8I4YNyJnS3m2ckzvpt205lTHs9tmFuePnTAKGg0XspnimZHERJQ0Kds2ZP5iZ6XcFxWImgULHuXNzZ2VT79qtqu9ZyWV1pa4BSRx3Ye7nQ82RI3EzrQhh0KQ6lA3UE6Z29OgMIB8Dgriu4cIFr2f7iPV3bvT2kWeOmULGCIpG0Ga0eZbEucA8p0kSOTOlNmLkFPeDYc8iV9NCF0Ax09Y+6uHzLPIYI4gobxG0+PWfNcq0QuGsaLHU+VKZkOOfQ4GcFASxEsCDOAm2jRGpZO4uiT+mzB0gjJsIVBdwcJjFe0k3Iku6wH8hVAt1/QbwCw0+BrxwJLDxwZZNbOwwR9ZJv6VesxB0qlpk6GRh7WD6s5OxT0OWbvQHW8LIvCzt8Z226QwVDbbesulEVKuXXteFVZjzqPymOsXOdS25EnggdkL3AlufuyvbxNtB87B2COgbMi2tDeKUFbFA8eOCHVl6AhQAiaS9pNFTTbKm9eaW3usvR86YFTZjC289Css2rsPrHz8IgLqit6haY7s/u2V69c7xlBdvCHOxIEorbjUM4xk18/fspip7bhnTOgy+Tdjtn4wwdH4WngCtAuBAobplbZegyOa920RYNvx1cfCKAOQWcCcPNA2Zlh08vTbkKEbVMeAreC5TUOvRWcgua2gmSj7TQEzUQ7TVzTHNtOY9mOLXCkgOHO4+sb37q2TAfmKNRHM4jD+YXojXQgi7RoMUysgq1bNVgxXGdE45zTzWU7g+tuqzzbMEvJ7P/TLjl7qConVNbDED+bw8EtOfdKF7fXOkTI2gmcAcYduCbDjgiv62aOdpo1gkbXNL6+mRz7TmOhjy1wPKBy7zxo6ENKXOihnIB0frTYaTIb+iUyAqS2hrNWRPYY/6x0JdKqo9TyOJPZWLOvgVLLs3sevmWWfLPwcLZcUa4VD9twDnyjF5GnXNODTtfqKHlPki83G1xXroBZJ2jYZdpOE0e2Y99pmkzxs5cuH0suJXrn4YtSlHFB6QvHMvgxDlKduJaPUYSTPhR+QmBop8lrGuUEDT5zz3YajR1wL3Ycj8299otK7DpfMvIk5MPjzLB+EuZwAmT0yWSldhrr7Z4FjlZhbgrwq258w0v5REA9dg0DpradiMmstpDhHxLxVaWXlFZip7HK7lngWICTlnPsGgsY5nH/SLZQa+6IG9e/PEbDDQEC6J5d02jsKbgfOFPqOLhSd5WxAHJgDYOo9jt4lPsU0kC8KVb5Su00tsz9wLEmDpnXgKhlug/rw8A65BDHQcZd65q4w0kCV3NVoz68CeavEshrgq4m+h8VfA3MdTDllYL7gbNS5li4MA6I2+LM0Ye393PtwMO27ytxFKLM6g7ebaalP30JKIAnUAkU/IaHdnnyg7ujZ1uizp8rk7uNdmjpS3JgqXhHQBZ+Z/bqHanuUeP/u8Cpu4CPT8N8Xlt453EOv1qel/+M/jg3Tk5wcCuXoOCa4K2WeFyFxN+n8N0IOQka6gSSAwge8PLu48Dx7kIAEAwOGl6K8bASX2bzBAiJ+g8ofVjpIy0HDw3BpT+A7wIKvicKViFwYmWR1lhZuDXNSjUXOBBmMcGJTUMOuD6rzwriHSjePTjOECT/o4Quyd9Qel3pihJt0KBv/SGmnw5TbQkgfbKzEByPKGHXC0qfVCKIKH9M6eOiI5g+LHnYtbC9dzUVVxdWIXAw5nNKrExPKT2qdCgYODuO5OTjhVdN8sDJQHoNl/5osASP2uL4ILweKYvvrG08chLtrIo+ZpDfC2AHYDdgN2H3eFPpVaXvKL2iRIBcViJo2D2WHiAaYxSkR2xBkJK4M/bfSixQ6JGAInCeEB1B9ISedr6g8g8r/aDq7FQsCPBYSViFwMHArIoYHoWx/bOdk48BzoPz70jJeqHL3i3lGAdngte7ql9XztGDYwj5TRnmph523FF5W+3BQ7mqXVDo3Shr6INxWflIHEE4VpCzcrpMHeOT6ONAW0ZAEfDI/X0ldhCCAid8XunbSi8qscMwr5V1NMkX0HSPTQh4EsG0IduwE/240ieUPqvEvLHpSsIqBA5OgYNj/EtKOPWTSmzhOAJ1VlmUTYojiQzwPQXDm1K4z+ocRVD0O0oEDkFEnZXrlug492MMEnztZDi7k4OA4CEoOD44WAgcBw+ykTA2KyTJ7fRxQLG6HgWQjTkTLATKd5ReUPpPpctKfCGoBx9jAVDxZIPmgU3YlUgEEgvTo0rYcSVhFQKH3YKgYZfxik3OMQQH4khC+2tK31VCuQTLVQUDNDgXgbf0FVcGdYARGOeVuAD+qBJG5qj5mNLHlVg1HVDMC0dA1wcFkhcRFodXlTjCPqvEgkKwvCcnc8Cr+sEEzZFFj/mvLNhR75mAckZWd5wrzrzKcThWbXYIEscT0hUlgshHLRVXA1pAERTIjfwXWv5DygmiH1EiuAgsLpSZM/To37sLwfJtpYtKHMWeUeI4duODsrNoLh8YuOeBY03K+TgSEUBcL+BM7CTvt21cxZMFLZhOS2qOc59SImg+rfQZJYKJ4GK+7Jasrv+u9LTS15VYIO7Zhb3Gvg8HaGCVAidk+aAeRRRI7DAEyid1ra8gOkXwcNx7U+lFpW8psVB84I9imueJh5UJnBOvybuYQNuNuOZhd926fxS7C+WtCOn/AQhS4bizaGnhAAAAAElFTkSuQmCC;" vertex="1" parent="1">
          <mxGeometry x="250" y="340" width="155.51" height="154" as="geometry" />
        </mxCell>
        <mxCell id="DgLy5RoQ0d0XZZFZ1Y82-8" value="" style="shape=image;verticalLabelPosition=bottom;labelBackgroundColor=default;verticalAlign=top;aspect=fixed;imageAspect=0;image=data:image/png,iVBORw0KGgoAAAANSUhEUgAAARAAAAFKCAYAAADVHwCEAAAMTWlDQ1BJQ0MgUHJvZmlsZQAASImVVwdYU8kWnltSIQQIREBK6E0QkRJASggt9I4gKiEJEEqMCUHFjiyu4NpFBMuKrlIU2wrIYkNddWVR7H2xoKKsi+tiV96EALrsK9+b75s7//3nzD/nnDtz7x0A6F18qTQX1QQgT5Iviw32Z01OTmGRegABGAAc2AFtvkAu5URHhwNYhtu/l9fXAKJsLzsotf7Z/1+LllAkFwCAREOcLpQL8iD+EQC8VSCV5QNAlELefFa+VInXQawjgw5CXKPEmSrcqsTpKnxx0CY+lgvxIwDI6ny+LBMAjT7IswoEmVCHDqMFThKhWAKxH8Q+eXkzhBAvgtgG2sA56Up9dvpXOpl/00wf0eTzM0ewKpbBQg4Qy6W5/Dn/Zzr+d8nLVQzPYQ2repYsJFYZM8zbo5wZYUqsDvFbSXpkFMTaAKC4WDhor8TMLEVIgsoetRHIuTBngAnxJHluHG+IjxXyA8IgNoQ4Q5IbGT5kU5QhDlLawPyhFeJ8XjzEehDXiOSBcUM2x2UzYofnvZYh43KG+Kd82aAPSv3PipwEjkof084S8Yb0McfCrPgkiKkQBxSIEyMh1oA4Up4TFzZkk1qYxY0ctpEpYpWxWEAsE0mC/VX6WHmGLCh2yL4uTz4cO3Y8S8yLHMKX8rPiQ1S5wh4J+IP+w1iwPpGEkzCsI5JPDh+ORSgKCFTFjpNFkoQ4FY/rSfP9Y1VjcTtpbvSQPe4vyg1W8mYQx8sL4obHFuTDxanSx0uk+dHxKj/xymx+aLTKH3wfCAdcEABYQAFrOpgBsoG4o7epF96peoIAH8hAJhABhyFmeETSYI8EXuNAIfgdIhGQj4zzH+wVgQLIfxrFKjnxCKe6OoCMoT6lSg54DHEeCAO58F4xqCQZ8SARPIKM+B8e8WEVwBhyYVX2/3t+mP3CcCATPsQohmdk0YctiYHEAGIIMYhoixvgPrgXHg6vfrA642zcYziOL/aEx4ROwgPCVUIX4eZ0cZFslJcRoAvqBw3lJ/3r/OBWUNMV98e9oTpUxpm4AXDAXeA8HNwXzuwKWe6Q38qssEZp/y2Cr57QkB3FiYJSxlD8KDajR2rYabiOqChz/XV+VL6mj+SbO9Izen7uV9kXwjZstCX2LXYQO4OdwM5hrVgTYGHHsGasHTuixCMr7tHgihueLXbQnxyoM3rNfHmyykzKneqdepw+qvryRbPzlZuRO0M6RybOzMpnceAXQ8TiSQSO41jOTs6uACi/P6rX26uYwe8Kwmz/wi35DQDvYwMDAz994UKPAbDfHb4SDn/hbNjw06IGwNnDAoWsQMXhygsBvjnocPfpA2NgDmxgPM7ADXgBPxAIQkEUiAfJYBr0PguucxmYBeaBxaAElIFVYD2oBFvBdlAD9oADoAm0ghPgZ3AeXARXwW24errBc9AHXoMPCIKQEBrCQPQRE8QSsUecETbigwQi4UgskoykIZmIBFEg85AlSBmyBqlEtiG1yH7kMHICOYd0IjeR+0gP8ifyHsVQdVQHNUKt0PEoG+WgYWg8OhXNRGeihWgxugKtQKvR3WgjegI9j15Fu9DnaD8GMDWMiZliDhgb42JRWAqWgcmwBVgpVo5VYw1YC3zOl7EurBd7hxNxBs7CHeAKDsETcAE+E1+AL8cr8Rq8ET+FX8bv4334ZwKNYEiwJ3gSeITJhEzCLEIJoZywk3CIcBrupW7CayKRyCRaE93hXkwmZhPnEpcTNxP3Eo8TO4kPif0kEkmfZE/yJkWR+KR8UglpI2k36RjpEqmb9JasRjYhO5ODyClkCbmIXE6uIx8lXyI/IX+gaFIsKZ6UKIqQMoeykrKD0kK5QOmmfKBqUa2p3tR4ajZ1MbWC2kA9Tb1DfaWmpmam5qEWoyZWW6RWobZP7azafbV36trqdupc9VR1hfoK9V3qx9Vvqr+i0WhWND9aCi2ftoJWSztJu0d7q8HQcNTgaQg1FmpUaTRqXNJ4QafQLekc+jR6Ib2cfpB+gd6rSdG00uRq8jUXaFZpHta8rtmvxdCaoBWllae1XKtO65zWU22StpV2oLZQu1h7u/ZJ7YcMjGHO4DIEjCWMHYzTjG4doo61Dk8nW6dMZ49Oh06frraui26i7mzdKt0jul1MjGnF5DFzmSuZB5jXmO/HGI3hjBGNWTamYcylMW/0xur56Yn0SvX26l3Ve6/P0g/Uz9Ffrd+kf9cAN7AziDGYZbDF4LRB71idsV5jBWNLxx4Ye8sQNbQzjDWca7jdsN2w38jYKNhIarTR6KRRrzHT2M8423id8VHjHhOGiY+J2GSdyTGTZyxdFoeVy6pgnWL1mRqahpgqTLeZdph+MLM2SzArMttrdtecas42zzBfZ95m3mdhYhFhMc+i3uKWJcWSbZllucHyjOUbK2urJKulVk1WT631rHnWhdb11ndsaDa+NjNtqm2u2BJt2bY5tpttL9qhdq52WXZVdhfsUXs3e7H9ZvvOcYRxHuMk46rHXXdQd+A4FDjUO9x3ZDqGOxY5Njm+GG8xPmX86vFnxn92cnXKddrhdHuC9oTQCUUTWib86WznLHCucr4ykTYxaOLCic0TX7rYu4hctrjccGW4RrgudW1z/eTm7iZza3DrcbdwT3Pf5H6drcOOZi9nn/UgePh7LPRo9Xjn6eaZ73nA8w8vB68crzqvp5OsJ4km7Zj00NvMm++9zbvLh+WT5vO9T5evqS/ft9r3gZ+5n9Bvp98Tji0nm7Ob88LfyV/mf8j/DdeTO597PAALCA4oDegI1A5MCKwMvBdkFpQZVB/UF+waPDf4eAghJCxkdch1nhFPwKvl9YW6h84PPRWmHhYXVhn2INwuXBbeEoFGhEasjbgTaRkpiWyKAlG8qLVRd6Oto2dG/xRDjImOqYp5HDshdl7smThG3PS4urjX8f7xK+NvJ9gkKBLaEumJqYm1iW+SApLWJHVNHj95/uTzyQbJ4uTmFFJKYsrOlP4pgVPWT+lOdU0tSb021Xrq7KnnphlMy512ZDp9On/6wTRCWlJaXdpHfhS/mt+fzkvflN4n4Ao2CJ4L/YTrhD0ib9Ea0ZMM74w1GU8zvTPXZvZk+WaVZ/WKueJK8cvskOyt2W9yonJ25QzkJuXuzSPnpeUdlmhLciSnZhjPmD2jU2ovLZF2zfScuX5mnyxMtlOOyKfKm/N14I9+u8JG8Y3ifoFPQVXB21mJsw7O1potmd0+x27OsjlPCoMKf5iLzxXMbZtnOm/xvPvzOfO3LUAWpC9oW2i+sHhh96LgRTWLqYtzFv9a5FS0puivJUlLWoqNihcVP/wm+Jv6Eo0SWcn1pV5Lt36Lfyv+tmPZxGUbl30uFZb+UuZUVl72cblg+S/fTfiu4ruBFRkrOla6rdyyirhKsuraat/VNWu01hSuebg2Ym3jOta60nV/rZ++/ly5S/nWDdQNig1dFeEVzRstNq7a+LEyq/JqlX/V3k2Gm5ZterNZuPnSFr8tDVuNtpZtff+9+Psb24K3NVZbVZdvJ24v2P54R+KOMz+wf6jdabCzbOenXZJdXTWxNadq3Wtr6wzrVtaj9Yr6nt2puy/uCdjT3ODQsG0vc2/ZPrBPse/Z/rT91w6EHWg7yD7Y8KPlj5sOMQ6VNiKNcxr7mrKaupqTmzsPhx5ua/FqOfST40+7Wk1bq47oHll5lHq0+OjAscJj/celx3tPZJ542Da97fbJySevnIo51XE67PTZn4N+PnmGc+bYWe+zrec8zx3+hf1L03m3843tru2HfnX99VCHW0fjBfcLzRc9LrZ0Tuo8esn30onLAZd/vsK7cv5q5NXOawnXblxPvd51Q3jj6c3cmy9vFdz6cHvRHcKd0ruad8vvGd6r/s32t71dbl1H7gfcb38Q9+D2Q8HD54/kjz52Fz+mPS5/YvKk9qnz09aeoJ6Lz6Y8634uff6ht+R3rd83vbB58eMffn+0903u634peznw5/JX+q92/eXyV1t/dP+913mvP7wpfav/tuYd+92Z90nvn3yY9ZH0seKT7aeWz2Gf7wzkDQxI+TL+4K8ABpRHmwwA/twFAC0ZAAY8N1KnqM6HgwVRnWkHEfhPWHWGHCxuADTAf/qYXvh3cx2AfTsAsIL69FQAomkAxHsAdOLEkTp8lhs8dyoLEZ4Nvk//lJ6XDv5NUZ1Jv/J7dAuUqi5gdPsviVCDJVsXVKEAAAA4ZVhJZk1NACoAAAAIAAGHaQAEAAAAAQAAABoAAAAAAAKgAgAEAAAAAQAAARCgAwAEAAAAAQAAAUoAAAAAQTDh5gAAHH9JREFUeAHtnXeoJMXah3tlDXgVs7hXXQNmwT8M94qiuwqiImJCUVEU0zX/Iago6rqIYsSIOWBAQRGzIobdNWDaFQMGzFnMOYf5+p1v+9hnToeamq78FBzOdKiqt563+jdvVXX3TOrlKSNBAAIQ0CCwgEYeskAAAhDoE0BA6AgQgIA2AQREGx0ZIQABBIQ+AAEIaBNAQLTRkRECEEBA6AMQgIA2AQREGx0ZIQABBIQ+AAEIaBNAQLTRkRECEEBA6AMQgIA2AQREGx0ZIQABBIQ+AAEIaBNAQLTRkRECEEBA6AMQgIA2AQREGx0ZIQABBIQ+AAEIaBNAQLTRkRECEEBA6AMQgIA2AQREGx0ZIQABBIQ+AAEIaBNAQLTR6Wf89ddf9TMHnvOvv/5y0oK///474/3h3aOf3H2RlFgm8PLLL2f33Xdf9uCDD2ZvvfVW9tFHH40dXmmllTL5mzZtWrbddttlm222WbbQQguNHa/78PDDD2efffZZ3eFskUUWyXbbbbfa43UH2srdYostsqlTp9ZlH7f/u+++yx577LHsoYceyp588sl+uz///PNsvfXWy1599dVsgw02yFZbbbX+39prr53tueee2ZJLLjmuDN0NYfzoo4/2mb/wwgvZl19+mRV1f/jhh9k666wzVvfGG2+c7bzzztnkyVwKWrzlZx1I3ROYN29eb/r06fKTGcp/iy++eO+qq67q/fHHH40GHXbYYa1lvv76641lDB784YcfWss8+uijB7NN2P766697J598cmtZVVxOOOGE3scffzyhTNUd0ua999576LpzEe9ddtllvZ9++km1Ks6bT0DCOlKHBPIQvXf88ccP3YnLF1T+Ld178803a6167rnnWss/5ZRTavNXHbjppptay3zmmWeqso7tu+eee3oiguW26HwWER0m5cOT3syZM0euV2wXtiR1AgiIOqvWM3/55ZdeHoqP3JHlopPO/Pzzz9fWueGGGzbWs/zyy/f+/PPP2vyDB7beeuvG8vIhx2CWcdvnn39+Y/5hheSWW24ZV37dxs8//6wVddTZI9xfeeWVuurYP0AAARkAMsrm/vvv3+lFJJ353XffrTTp6quvbq0rnweozDu487333mst6/LLLx/MNrZ93XXXteavu2Cb9t9///1jddR96Jq52CPi+84779RVyf4SAQSkBGOUjzfeeKORi0giAxkWDaZ8krK1vgMOOGAwW+X2GWec0VrWN998U5k3nyRuzdskEm3H6uoVY0wJl9iUTxhXtped4wkgION5aG3ls/zKF9EOO+zQn2SUeRLVSVaJNqrS4Ycf3lqvTI42JZk/WH311RvLOfDAA2uL2HTTTRvzlgVChl377rtvb8cdd1SeK5GhUVUahrnYIKwlWtlmm22U7Z07d25V1ewrEUBASjB0P5555pmtnXKttdbqvfTSSxOquPvuu1svJslblWSOpHyBVn2WydGmlC+xtpbx1FNPVRbxxBNPtOYVm2Re6Ntvvx1Xxo8//qg08SkrJFWrUipRk9R91llnTZgL+uCDD3q77757q+0idqRmAghIM5/Wo/lNYf0xc9XFW+yTi+D777+vLevFF19s7cxPP/10Zf5NNtmkMa984zalQw89tDG/rAjVpfxek8a80n4R16YkS7cFp7r/t91227gihLnMD9WdX+zP70MZl6+88fvvv/c233zz1jLy+0bK2fg8QAABGQAy7KbKN/itt97aWqzcY1F0/Kr/dfdgqMwDyDduVZL7HtouxEsuuaQqa++3335rtFfaUBc9lAuUcppskGPXX399OUtPIqIqRuV9MlxpS3KvTjnP4GexX8SdVE8AAalno3TknHPOae2EMs/QlmS1ZbADl7dl/qAqyRxH0wUoZZx99tlVWXsibOU6qj5/9dVXlXmfffbZ1rx1czeDBRYrKbJULBO/F1xwQS+/K7b36aefDp7a3z7vvPNa637ttdcq85Z3il9EJKTdEo2ISIvNIlAySU1qJ4CAtDNqPEMmBKsuvGKfTJqqJFlpKfLU/a+aC5Cy26KXujmU7bffvrHO/fbbr9b0iy++uDGvtEHuSlVJcv+MDClU0y677NJYd9s9K+V6RICrVrnK5/C5ngAPAOQ9fZT09ttvN2bP72zM8mFA4zmqB/O7U7N11113wun5Kkl20UUXTdhf7HjjjTcysSOfLyl2Zfkt49kDDzwwtl314aCDDqra3d9Xfqan7qSlllqq7tC4/fLszjDp/fffbzxdnrFRTYsttpjqqZxXQQABqYAyzC55UKspyUNcRx11VNMpysfkwqkSEHkwLV9OzfKJ1tqybr755nECkt/pWXuuHMijliwP62vPyaOL2mNF/sYTRjgoTJvSyiuv3HSYYx0S4HH+EWDmgV3/Kc8Rihgqax7q155/xBFH1B6TA9dcc02WT1iOnZM/bzL2uerDkUcemU2aNKnqUH9fm3Dmcwu1eUc90Bb9TJkyZdQqyK9IAAFRBFV1Wj5ur9ptbF/+3Edt2bvuumuWT6bWHs/H+v1H6+WEfPUhk2FNU9prr72aDmdt7zQpi1VjQQYO5nNFBkqlyCoCCEgVFcV9Cy+8cONFq1iM8mlNEciiiy6aNc1ZSCV33HFHv67bb7+9sc599tknW3bZZRvPWWKJJRqPt81TNGZuOdgklJJV5ndIdggwBzIi5zXXXDPL7witLUU6+/rrr197fJgDbRetTKbmt37XFpnfkJVdeumlWf7cTu05cqBNiOScNoGRYYYM8ZqGQVKOTpIhikRUdemTTz6pO8T+jgkgICMCXWONNRoF5OCDD87y+xZGrEUtuwiVvDXs8ccfr8wgF92FF1447q1ogyfmz8VkW2655eDuCdtLL730hH2DO2SidZlllhncPWFbJkVPO+20TFhKG+QNZTKHUic+yy23XOMQTN46pprkbWkSkcmb0uRP6laxWbX86M+rX+HliAqBtluxt912W5ViOjtH3qORd1rtP7lJSyXlqzqtdchdsipJ7jStsllu7pIHBvOoqVe+Ge+QQw6pPL9cRtMLmco2FTexlfPK4/zit+OOO6537733lk/n8wABbiQbADLs5pVXXtnamfNv2NZi5bZq6czHHHNML18x6ckt8nV3gTYVJi/YabsztXyxDH7O37XaVPzYMXlfxmDewW15jqZ84Y9lHvjQdmOYXNDlclRenZAvnQ/UMnFTbsxrY6VyS/zEktPZg4CM6GuVJ2LlG7MtyZOfgxegbBffhscee6zy3ZryzVlVVtu+PfbYo83MccfFtrYy77rrrnF5BjdUnmsZfD1j/nLq1nrFrrb3q5577rmt5eQvhR40me0SAQSkBEP3o4S7bRdSvgJSW3w+Z9GaX27PVr3lWp4DabOn6rg8fzJMmjFjhlI91157bWWx8ia0tneRiJ1VL4hWeZJWBK7uPa6PPPJIq+2Sf5jXQlY2MvKdCEgHDpbHxqsuyMF9ElaX34shYfmdd97ZGkZLOfLekGGS6suKChvlQlYVqMIOedityN/2X54ZKh6Sk3mFE088USmvCEVVEh5tdRbH5ZUFMiycM2dO/wHCfJlaKa8IJKmZAALSzEf5qMo3YtGh5eE2GXurfPtKHnnnR3kOQMUolSdtC3vkv7x4RyfJnE25nK4/33DDDZVmSWTQ9mLpUW1RnYitNDCRnQhIR46WsfKoHbYuv844XJ5wbZsgLNeX3zuhRUImbWV4VS6rq8/yGy9NwikXeFd1DZbT9BJpLVCRZkJAOnSshOiDHXHU7SuuuELbwrYl5sI2eb3fKEku5GHEqqi36b+8a1XEqS3l93B0zlyiKpIaAQREjZPyWaeffnpnHVrG7aMk1W/o/Gc3R6mmn1dWRmRo1iQKqsfkJT+qy8lSef5agk7qFft22mmnynewjgwo0gIQEAOOnTVr1kgXk8yNyDdrF6ntLeRysXa10iAvEJI3uKsKRdV5J510Uk/euD5skp+XkJ9iqCpTZZ+suMgv4skrFknqBBAQdVZDnSkdUYYfbRdwuXPLZKkIR92bx4YyYP7JbSG+vN286yS/7CZvMxtmWCM/czFM1FFns0QjKsvqBXcRDrnTVeaMSMMTmCRZcpgkgwTyH0fK8p9AyOQhL3nuQ/7kVQArrrhituqqq2arrLJKJi/BySMPg1bYLzqPbPqvDshfTJx98cUX/XbnL3LuP+ci7Za/qVOn9tu+4IILdmqg1CPPueTDuLG6patLffLGsqLuFVZYIVtgAR5K14WPgOiSIx8EIJAhvXQCCEBAmwACoo2OjBCAAAJCH4AABLQJICDa6MgIAQggIPQBCEBAmwACoo2OjBCAAAJCH4AABLQJICDa6MgIAQggIPQBCEBAmwACoo2OjBCAAAJCH4AABLQJICDa6MgIAQggIPQBCEBAmwACoo2OjBCAAAJCH4AABLQJICDa6MgIAQggIPQBCEBAmwACoo2OjBCAAAJCH4AABLQJICDa6MgIAQggIPQBCEBAmwACoo2OjBCAAAJCH4AABLQJICDa6MgIAQggIPQBCEBAmwACoo2OjBCAAAJCH4AABLQJTNbOGUnG2XPmRdISmmGTwPRpG9msztu6ohaQQhzmzJ7bd0CxLRuz5+/z1jMYFgyB6dM37ttaFpVp+b7ydjCNGdLQSb08DZnH69NFJGbOvAKB8NpL6Rh36oz/9Rs7Y/7/2FoehYAgGrF1yzjbI5GKRCUxRSfBCgiiEedFllKrJDoJPTIJTkAQjpQusTTaGrKQBCUgW219CHMbaVxTybWyGN6EFpEEsQojk6Kn5n8kCMRKQFYFi5XBkOZIvI5AZLiy1VYHx9pnaBcEagmEMqzx9k5UiToQj9r+xYHICUjELdeA78nLCIQhi+/dBvtsEZC5EZkX8fWmNO8EhIlSW12TekIi4OuQxpshTH++g1WWkPo0tlok4OuQxotVGCZLLfZEqgqWQLES6dNSr/MIBPEItj9juAMCvkUizudAmPNw0AupMngCs2Zd5cXEqtMIRFZbiptngvcoDYCARQJyi4NE766TMwFhqda166k/dAI+3CfiREAQj9C7Lvb7QECid5kCcJmsC4iEXcVsssuGUzcEYiAgIuIyErE+iTppgQ1j8BttgIBXBFxNqlqNQFwqpVfexhgIdEzA1bVlNQIh+ui411AcBEoEXEQh1iIQVwpZ4stHCERNwMU1Zi0CIfqIuu/SOE8I2H7ozkoE4kIZPfEnZkDAKgHbK5xWBMR2o6x6jMog4BkBm1/YxgXEZmM88yPmQMAJAZtf2MbnQJj7cNKHqDRxArZWZIxGID487JN4P6L5iRKwFfkbFZDiR60T9SHNhoAzAraecjc6hGH44qz/UDEEMhvDGKMRCD6EAATcEbAxjDEmIDaMd+caaoYABISAMQFhApUOBgG3BGQexPR1aE5AcuNJEICAWwKmFzKMCIhp1XPrEmqHAAQKAkYEpCic/xCAgFsCpr/MjQiI6bDJrUuoHQIQKAgYEZCicP5DAAJxE0BA4vYvrUucgOk7UhGQxDsYzYfAKASMCIjpiZtRGkxeCKRGwOT1aERAUnMQ7YVAqgSMCIjpcVeqzqLdEPCNgBEB8a2R2AMBCJghgICY4UqpEEiCAAKShJtpJATMEEBAzHClVAgkQQABScLNNBICZgggIGa4UioEkiCAgCThZhoJATMEEBAzXCkVAkkQQECScDONhIAZAgiIGa6UCoEkCCAgSbiZRkLADAEExAxXSoVAEgQQkCTcTCMhYIbAZDPFUmpIBDY6arlsoyOXdWbylWu/5qxuKh6NABHIaPyCz/3v/yzqVDzmXfJl8AxTbgACkrL387ZP+e+/nBKYd/EXTuun8tEIICCj8Qs+t8uhC9FH8N3H3G/jho8m/hbI3IfLRPThkn43dROBdMMxyFKIPoJ0m1dGIyBeucOeMUQf9ljHXBMCErN3PW0bcx+eOkbDLAREA1oMWZwOX1h5iaEL9duAgETjSvWGuBy+EH2o+ymEMxGQELzUsY1EHx0DTbg4BCQx5xN9JOZww81FQAwDpvh/CHDfxz8sYvmEgMTiSYV2uHzuhbkPBQcFeAoCEqDTdE12+dwL0Yeu1/zOh4D47Z9OrXM1eUr00akbvSoMAfHKHeaMcTp5yn0f5hzruGQExLEDbFVP9GGLdFr1ICAJ+JvoIwEnO2oiAuIIfArVMvcRv5cRkPh97OyVhay8xN+5EJDIfexq+EL0EXnHmt88BCRyPzubPGXlJfKe9f/NQ0AidjPRR8TO9aRpCIgnjojJDOY+YvJmc1sQkGY+wR519dwLcx/BdhktwxEQLWz+Z3L13AvRh/99o0sLEZAuaXpUlovJU6IPjzqAJVMQEEugbVbjbPKUlRebbvaiLgTECzd0awTRR7c8Ka2eAAJSzybII0QfQbotWKMRkGBd54/hzH344wvbliAgtokbrs/J8IW5D8Ne9bd4BMRf3wxtmYvhC9HH0G6KKgMCEpE7iT4icmYgTUFAAnFUm5lEH22EOG6CAAJigmoiZXLXaSKObmgmAtIAJ6RDtocvzH2E1DvM2YqAmGNrrWQnwxdWXqz51+eKEBCfvaNoG9GHIihO65wAAtI5UrsFEn3Y5U1t4wkgION5BLdF9BGcy6IyeHJUrUmsMS6iD0Hcdb2fPvNT9smzPyfmvTiai4DE4Udrreg64pHVHMTDmvs6r4ghTOdI7RXY9cVsz/J/apLogxQuAQQkUN91PYxwgYHowwX1butEQLrlaa20GKIP7mS11l2MVYSAGENrruBYog9zhCjZFgEExBZp6hlHgOhjHI5gNxCQAF0X+vCF52gC7HQ1JiMgNWB83R3F8IXnaHztXkPbhYAMjcxtBqIPt/ypfTwBBGQ8D6+3iD68dk+SxiEgAbmd6CMgZyViKgISiKNDjz4+zZ91YeUlkM42hJkIyBCwOFWfAM+76LPzOScC4rN3SraFPHyRZVuij5IzI/qIgATgzNCHLwEgxkRNAgiIJjib2Yg+bNKmrmEIICDD0HJwbujRB0MXB53GYpUIiEXYqVXFLevxexwB8dzHQQ9fuGXd8941unkIyOgMjZUQ8vCF6MNYt/CqYN6J6pU7Jhpj40L8938Wzabkf10m5j66pOlvWQiIv76xd+/EUct1KiA2RM9jtyVlGkOYpNxd3ViJQLpMRB9d0vS7LATEb/9Ysa7L4QvRhxWXeVMJAuKNK+IwhOgjDj+qtgIBUSUV6XldDl+IPiLtJA3NQkAa4KRwaMp//9VJM0U8iD46QRlUIQhIUO7CWAj4RQAB8csf1q3pYghD9GHdbd5UiIB444pwDeH3bcP13aiWIyCjEgw8/6hLuBJ98LaxwDvBCOYjICPACz1rJ8MXHpgLvRuMZD8CMhK+tDOzbJu2/6X1CEjCfWDUJVyWbRPuPPObjoDQB7QIEH1oYYsuEwISnUvVGzTKHAjRhzrnmM9EQGL2bkvbdFdgiD5awCZ0GAFJyNldNZXooyuS4ZeDgITvQ60W6A5fiD60cEebCQGJ1rXNDdNdgSH6aOaa2lEEJDWPj9Beoo8R4EWaFQGJ1LFdN0vEg+ija6rhl4eAhO9DrRbozoFoVUamaAkgING6trlhwyzhEn00s0z5KAKSsvcV287QRRFUgqchIAk6fZjhCxOnCXaQIZqMgAwBK5ZTh1nCJfqIxetm2oGAmOEaRalEH1G40WgjEBCjeP0sXHUIQ/Thp/98sgoB8ckbHtlC9OGRMzw2BQHx2DmmTFNZwiX6MEU/rnIRkLj82doaleEL0UcrRk6YTwABoStMIED0MQEJO2oIICA1YGLd3baES/QRq+fNtAsBMcM1yFJFPIg+gnSdM6MREGfo3VSsMgfixjJqDZEAAhKi10awuW4FhuhjBKgJZ0VAEnZ+uen8vm2ZBp9VCSAgqqQiOK9u+CLRB79vG4GDHTQBAXEA3VWVdSswTJy68kj49SIg4ftwpBawbDsSvuQzIyCJdwGij8Q7wIjNR0BGBBhS9sE5EKKPkLznp60IiJ9+MWLV4BIu0YcRzEkVioAk5e5/Gkv08Q8LPukTQED02QWVc8Lw5eIvgrIfY/0kgID46ZfOrSov4RJ9dI432QIRkARdz9xHgk431GQExBBY34othjBEH755Jmx7EJCw/TeU9SIeRB9DIePkFgIISAugWA4PLuHG0i7a4ZYAAuKWv5XaZfhC9GEFdXKVICCJuJyhSyKOttxMBMQycBfV8ai+C+pp1ImApOFnWgkBIwQQECNYKRQCaRBAQNLwM62EgBECCIgRrBQKgTQIICBp+JlWQsAIAQTECFYKhUAaBBCQNPxMKyFghAACYgQrhUIgDQIISBp+ppUQMEIAATGClUIhkAYBBCQNP9NKCBghYERApk/f2IixFAoBCPhFwIiA+NVErIEABEwRQEBMkaVcCHhCYPq0jYxZYkRATBpsjAQFQwACQxMwIiBDW0EGCEAgSAJGBGQak6hBdgaMjo+A6QUNIwISnxtoEQQgUEUAAamiwj4IRELA9HykEQExbXQkvqUZEAiegBEBESqmx17Bk6cBELBAwPR85KRenky0Y/acedlWWx1somjKhAAEFAn0/n5e8Uy904xFIHrmkAsCEOiKwKkz/tdVUbXlGBMQmQdhGFPLnQMQME7A9PBFGmBMQIzToQIIQKCRgI3FDKMCMsNCCNVIkIMQSJSAjeGLoDUqIAxjEu29NDsZAkYFJBmKNBQCnhGwFf0bFxBbDfHMf5gDAWcEbA1fpIHG7gMp05s584rs1PyPBAEImCdg+t6PcguMRyBSGVFIGTmfIWCOgM3oQ1phRUCkItsNkzpJEEiNgO0va2sCYrthqXUc2gsBF1/S1gRE3Dtr1lV4GQIQMEBA7vp28SVtVUC4L8RAz6FICOQEbNx1WgXaqoCIAS5Usqrh7INALARk6OLqurIuIKKULsZqsXQW2gGBMgFXQ5fCBiv3gRSVlf9zb0iZBp8hoEfA5j0fVRZaj0AKIyTk4nH/ggb/ITA8AR8WJZwJiOCa9eiViMjw/YYcEOhPA7iaOC3jdyogYoiryZ8yBD5DICQCLidNBzk5FxBRUR9CsUEwbEPARwI+iYfwcS4gYgQiIhRIEGgm4Jt4iLXOVmHqULE6U0eG/SkTkCjdhzmPQR94EYGUjZI5Ee4TKRPhc8oEZKXSV/EQv0z20TnFxCrvEPHRO9hki0BfPPKVSp+TdxFIAYtIpCDB/xQJSBQutzn4nrybA6kCxrxIFRX2xUiguDXdx/mOKt5BCEhhOEJSkOB/bARCE46Cf1ACUhiNkBQk+B86gVCFo+Du5SRqYVzd/2KSVY4z0VpHif0+ExDhkGFKuS/7bG+dbUFGIIONkYhEEmIySIZtnwgUoiG/WRvKHEcbvygEpNxIxKRMg8+uCRRDFLEjFtEoM41OQMqNmz1nXjZn9tzyrkz2SZo9sH/cSWxAQJGACESRCoGQCENSsV0cj/F/1AISo8NoEwR8IuDtjWQ+QcIWCECgmgACUs2FvRCAgAIBBEQBEqdAAALVBBCQai7shQAEFAggIAqQOAUCEKgmgIBUc2EvBCCgQAABUYDEKRCAQDUBBKSaC3shAAEFAgiIAiROgQAEqgkgINVc2AsBCCgQQEAUIHEKBCBQTQABqebCXghAQIEAAqIAiVMgAIFqAghINRf2QgACCgQQEAVInAIBCFQTQECqubAXAhBQIICAKEDiFAhAoJoAAlLNhb0QgIACAQREARKnQAAC1QT+D2pTD2uTGhWgAAAAAElFTkSuQmCC;" vertex="1" parent="1">
          <mxGeometry x="344" y="70" width="107.15" height="130" as="geometry" />
        </mxCell>
        <mxCell id="DgLy5RoQ0d0XZZFZ1Y82-12" value="home&lt;br&gt;consumption" style="rounded=0;orthogonalLoop=1;jettySize=auto;html=1;entryX=0.25;entryY=1;entryDx=0;entryDy=0;exitX=0.5;exitY=0;exitDx=0;exitDy=0;strokeWidth=2;startSize=6;endSize=14;dashed=1;dashPattern=8 8;fontSize=18;" edge="1" parent="1" source="DgLy5RoQ0d0XZZFZ1Y82-6" target="DgLy5RoQ0d0XZZFZ1Y82-8">
          <mxGeometry relative="1" as="geometry">
            <mxPoint x="127" y="350" as="sourcePoint" />
            <mxPoint x="380" y="145" as="targetPoint" />
          </mxGeometry>
        </mxCell>
        <mxCell id="DgLy5RoQ0d0XZZFZ1Y82-13" value="charger&lt;div&gt;control&lt;/div&gt;" style="rounded=0;orthogonalLoop=1;jettySize=auto;html=1;entryX=0.75;entryY=1;entryDx=0;entryDy=0;strokeWidth=2;startSize=6;endSize=14;dashed=1;dashPattern=8 8;fontSize=18;" edge="1" parent="1" target="DgLy5RoQ0d0XZZFZ1Y82-8">
          <mxGeometry relative="1" as="geometry">
            <mxPoint x="490" y="340" as="sourcePoint" />
            <mxPoint x="407" y="210" as="targetPoint" />
          </mxGeometry>
        </mxCell>
        <mxCell id="DgLy5RoQ0d0XZZFZ1Y82-14" value="&lt;font style=&quot;font-size: 18px;&quot;&gt;stage of charge&lt;/font&gt;" style="rounded=0;orthogonalLoop=1;jettySize=auto;html=1;entryX=1;entryY=0.75;entryDx=0;entryDy=0;strokeWidth=2;startSize=6;endSize=14;dashed=1;dashPattern=8 8;" edge="1" parent="1" target="DgLy5RoQ0d0XZZFZ1Y82-8">
          <mxGeometry x="-0.0824" y="-18" relative="1" as="geometry">
            <mxPoint x="650" y="360" as="sourcePoint" />
            <mxPoint x="380" y="145" as="targetPoint" />
            <mxPoint as="offset" />
          </mxGeometry>
        </mxCell>
        <mxCell id="DgLy5RoQ0d0XZZFZ1Y82-16" style="rounded=0;orthogonalLoop=1;jettySize=auto;html=1;endSize=14;" edge="1" parent="1">
          <mxGeometry relative="1" as="geometry">
            <mxPoint x="410" y="420" as="sourcePoint" />
            <mxPoint x="470" y="420" as="targetPoint" />
          </mxGeometry>
        </mxCell>
        <mxCell id="DgLy5RoQ0d0XZZFZ1Y82-19" style="rounded=0;orthogonalLoop=1;jettySize=auto;html=1;endSize=14;" edge="1" parent="1">
          <mxGeometry relative="1" as="geometry">
            <mxPoint x="190" y="420" as="sourcePoint" />
            <mxPoint x="250" y="420" as="targetPoint" />
          </mxGeometry>
        </mxCell>
        <mxCell id="DgLy5RoQ0d0XZZFZ1Y82-20" style="rounded=0;orthogonalLoop=1;jettySize=auto;html=1;endSize=14;" edge="1" parent="1">
          <mxGeometry relative="1" as="geometry">
            <mxPoint x="540" y="420" as="sourcePoint" />
            <mxPoint x="600" y="420" as="targetPoint" />
          </mxGeometry>
        </mxCell>
      </root>
    </mxGraphModel>
  </diagram>
</mxfile>
